<?xml version="1.0" encoding="UTF-8" standalone="no"?>
<!DOCTYPE svg  PUBLIC '-//W3C//DTD SVG 1.1//EN'  'http://www.w3.org/Graphics/SVG/1.1/DTD/svg11.dtd'>
<svg xmlns="http://www.w3.org/2000/svg">
<defs>
<font id="Veneer-Italic" horiz-adv-x="423">
<font-face underline-position="-50" font-weight="400" descent="-200" panose-1="2 0 8 6 0 0 0 0 0 0" units-per-em="1000" unicode-range="U+0020-25CA" bbox="-171 -236 993 969" x-height="724" underline-thickness="50" font-family="Veneer" ascent="800" font-style="italic" cap-height="724"/>
<missing-glyph horiz-adv-x="0"/>
<glyph glyph-name=".notdef" horiz-adv-x="0"/>
<glyph glyph-name=".null" horiz-adv-x="0"/>
<glyph glyph-name="nonmarkingreturn" horiz-adv-x="333"/>
<glyph glyph-name="space" horiz-adv-x="200" unicode=" "/>
<glyph glyph-name="exclam" horiz-adv-x="243" unicode="!" d="M196 296h3l-3 3v-3zM202 329h3l-3 3v-3zM90 52h3l-3 4v-4zM167 299l4 5l-7 1zM182 414l-2 -13l7 3zM165 336l2 17l-6 -8zM160 395l9 -4v12zM186 428l5 -5l9 -4l-6 11zM192 558l8 5l-2 5l-9 6zM188 489l-6 6l-6 -4l24 -15zM206 630l-3 11l-15 8l7 -12l2 -8zM162 473 l-9 -13l14 -3l10 12l10 6l-8 7l-12 -7l-16 5zM193 128v-33l-3 -10l-3 -26l-4 -26l-5 -27l-13 2l-3 -8l-20 -1l-36 2l-17 -2l-19 3l-5 12l3 15v14l5 30l3 25v16l6 15l16 7l33 -2l19 2l33 -1zM273 701l-6 -23l-1 -15l-5 -28l-4 -26l-4 -28l-7 -30l-2 -29l-4 -8l-5 -27l-7 -33 l-3 -32l-5 -24l-4 -27l-5 -26l-3 -30l-5 -18l-5 -29l-4 -26l-8 -26l-10 -7l-14 -2h-29l-16 3l-9 10l-1 14l3 31l1 31l4 29l2 29l2 28l1 23l1 26l4 14l-2 10l3 9l2 34l1 30l3 31v29l4 14v26l4 26v30l4 28l11 10l17 3h20l9 -2l25 2l19 -1l29 -11z"/>
<glyph glyph-name="quotedbl" horiz-adv-x="307" unicode='&quot;' d="M127 619h3l-3 3v-3zM300 516l-5 -13l4 5zM138 613l-3 10l-2 -3zM109 569l-1 -11l3 4zM265 542l9 -5l-2 8zM297 604l10 5l-13 2zM161 488l-3 14v-5l-7 -3zM139 494l6 -1l5 -4l-3 12zM302 553h-11l-1 -9zM171 537l-8 8l7 -20zM304 568l-8 5l11 8l8 5l-19 -1l-11 -12l6 -3z M137 536l-7 3l-10 -6l14 -7l-6 -6l5 2l4 -11l20 8l-8 6l-13 4zM149 722h46l18 -3l2 -22l-5 -31l-8 -34v-12l-7 -26l-1 -20l-7 -30l-5 -33l-5 -16v-15l-5 -12l-8 -7l-16 -5l-31 1l-20 7l6 13l-5 14l9 -2l-2 6l-8 2l1 20l12 11l-9 8l-1 13l3 27l-1 9l4 34l3 23l-1 33l3 12v11 l5 14l5 7zM368 713l-3 -16v-14l-4 -17l-3 -29l-6 -26l-8 -34v-13l-4 -25l-6 -11v-21l-4 -27l-5 -13l-13 -10h-29l-24 1l-11 6v20l1 26l4 28l1 25v28l7 15l-4 7l1 13l3 29v32l3 18l6 11l13 5l30 2l13 -3l11 2l12 -1z"/>
<glyph glyph-name="numbersign" horiz-adv-x="462" unicode="#" d="M288 129h3l-1 2zM370 391l-7 -1l2 -5zM223 514l10 4l-6 2zM261 561l1 10l-5 -2zM128 477l1 -9l8 5zM278 242l7 -5v11zM198 245l-1 -8l11 9zM342 293l8 -7l8 13l-7 -7zM397 504v-13l8 9zM195 375l-6 6l-10 -8zM214 481l-9 -10l16 2l5 12zM317 231l-1 9l-9 8l-5 -18l10 5z M220 438l3 -4l4 5l-6 6l-13 1l4 -13zM298 292l7 27l4 10l2 12l7 29l7 4l-5 3l3 19l10 35l-14 7l-20 -1l-30 1l-12 -10l-7 -22l-10 -41l-13 -40l-5 -37l10 -6l14 1l29 1l14 -2zM512 519l12 -3l4 -12l-1 -16l-4 -29l-6 -15l-13 -6h-24l-24 2l-22 -3l-10 -8l-6 -25l-9 -36 l-6 -9l-3 -20l-8 -29l-2 -23l32 -5l12 1l26 -1l13 -10l-1 -25l-4 -11v-12l-4 -12l-10 -8l-16 -1h-31l-38 -3l-13 -31l-7 -27l-6 -24l-7 -33l-7 -16l-8 -38l-7 -23l-10 -7l-12 -3h-25l-23 1l-12 3l-5 12l4 19l11 38l5 26l8 32l9 30l8 29l-5 13l-15 3l-32 -3l-11 2l-12 -5 l-5 -13l-7 -26l-4 -19l-8 -32l-8 -31l-10 -39l-8 -26l-7 -9l-14 -4l-29 -1l-35 4l-2 12l4 24l6 25l8 24l6 25l7 24l5 22l8 34l-4 10h-56l-13 2l-7 13v17l4 30l5 12l9 6l12 1l28 -1h28l20 9l8 24l5 23l5 27l7 10l-1 10l3 13l7 27l-4 11l-17 2l-13 -1l-35 2l-15 4l-3 16l8 48 l9 10l27 3l27 -1h32l11 7l6 23l6 29l9 25l7 32l8 27l6 24l6 25l9 9l15 4h15l30 -1l14 -3l3 -12l-3 -17l-7 -33l-8 -23l-2 -12l-6 -29l-5 -13l-5 -26l-5 -13l-2 -15l5 -9l14 2l14 -1l27 -1l13 3l8 21l6 25l8 25l6 27l7 29l9 29l5 30l7 10l10 4l27 2l34 1l10 -9l1 -14l-3 -13 l-8 -29l-8 -30l-7 -29l-6 -29l-8 -29l-1 -21l24 -3l11 1h25z"/>
<glyph glyph-name="dollar" horiz-adv-x="384" unicode="$" d="M132 145h-8l-6 -2zM236 656l-3 7l-3 -8zM327 621l4 5l-2 11zM205 402l3 7l8 -2l-10 6zM265 651l-6 7l3 -5l-2 -14zM250 654l-4 -8l7 -2zM177 578v-11l6 2zM120 191l-2 -5l-4 -11l7 7zM267 331l-6 -9l8 1v9zM347 565l9 -4l2 9zM151 62l4 9l-8 5zM341 592l3 15l-8 -8z M101 102l1 -10l9 9zM237 352h10l-7 10zM131 534l3 14l-8 -2zM101 146l7 8l-10 5zM172 482l-2 19l-5 -11zM162 592l-1 13l-8 -14zM189 611l-8 -16l7 -1zM312 612l4 14h-9l4 -5l-6 6zM330 501l11 11l-8 6zM179 610l-6 -8l-8 -6l10 -3zM89 182l-5 -13l14 5zM132 53l4 10l4 7 l-12 -3zM191 473l-12 9l4 -9l5 -6l7 -4zM123 106l3 16l-3 6l-7 -13zM190 380l9 12l-14 9l5 -10v-8l-14 2zM361 528l12 4l12 8l-10 5h-7l4 -10l-9 3zM258 361l-2 -5l7 -1l4 -6l8 22l-11 2l3 -7zM170 70l3 -3l1 5l8 4l-21 2l3 10l-8 2l1 -11l5 -12zM354 571l6 9l-14 1l-5 2 l-3 -9l5 -9zM187 634l-6 -6v-7l8 -6l15 -6l4 15l-5 4l-3 1l-8 -1zM269 649l17 -3l4 -1l12 2l5 -11l-4 22l-17 4l-3 6l-2 -13zM380 238l2 -25l1 -12l-3 -12v-14l-6 -28l-9 -30l-12 -24l-16 -21l-19 -21l-25 -20l-14 -7l-27 -10l-13 -10l-3 -20l-5 -34l-7 -11l-8 -4l-23 1 l-35 1l-9 6l-4 13l6 37l-2 14l-24 10l-11 9l-12 4l-23 24l-9 14l-9 20l-6 23l-5 24v14l2 29l2 28l5 34l16 14l10 4l15 -1h19l31 1l15 -3l7 -13l-1 -18l-5 -28l-2 -27l8 -34l13 -15l12 -4l12 -1l16 2l17 10l11 12l6 13l4 30l-3 30l-4 15l-7 15l-17 26l-19 23l-19 21l-17 23 l-18 20l-17 22l-14 23l-11 20l-2 9l-6 10v9l-8 24l-2 28l1 31l7 41l8 25l13 24l20 25l22 23l29 16l31 14l10 10l-1 18l8 38l17 8l13 2l13 -1l27 -1l15 -11l-3 -13l-6 -20l6 -28l12 -7l13 -3l5 -8l11 -4l24 -27l13 -28l8 -30l1 -25v-30l-5 -30l1 -11l-5 -21l-8 -8l-17 -3 l-28 2h-25l-12 -2l-17 7l-3 11l4 13v13l2 26l-1 13l-6 32l-21 12l-9 1l-11 -2l-11 -5l-18 -17l-5 -13l-4 -26l6 -38l12 -22l30 -42l17 -17l3 -7l12 -12l20 -25l18 -23l14 -24l9 -11l9 -20l9 -26z"/>
<glyph glyph-name="percent" horiz-adv-x="674" unicode="%" d="M361 363h3l-3 2v-2zM602 266h3l-2 3zM489 496l3 7l-2 4zM195 436l9 -8l-5 8h-4zM346 603l-12 -1l-1 -3zM597 133l9 -4l5 2zM443 239l-9 4l-1 -4h10zM261 183l-1 -4h11zM493 535l-6 3l-3 -6zM518 576h-8l2 -6zM373 570l-14 3l-2 -3h16zM139 554l8 -7l-1 7h-7zM296 469l5 8 l-6 1zM347 545v-9l7 1zM334 541l-4 -10l10 9zM340 314l2 -10l6 3zM159 547l-2 8l-6 -10zM342 609l-1 8l-7 -12zM455 270l-4 -8l9 1zM428 200l-1 -9l10 7zM534 296l3 -13l5 9zM151 514l-8 11l-2 -9zM124 507l-8 -16h6zM221 427l10 1l6 -5l-9 12zM356 333l9 7l-10 4zM404 111 l1 -8l14 -2zM602 234v14l-8 -8zM327 662l-5 -15l10 6zM451 275l-9 9l2 -11l-1 -7zM386 373l1 -11l12 1zM371 554l-10 1l2 9l-10 -3l7 -9zM154 609l-10 -14l-4 -10l13 14zM330 489l-11 -15l16 7zM143 491l1 -11h12l-4 7zM318 461l10 -4l3 8l-8 5zM147 541l-11 2l5 -6l6 -8 l6 3zM307 262l3 -11l11 6l2 9l-11 -6zM167 630l-13 -4l-4 -5l9 2l10 -4l2 6zM322 512l9 1l-5 5l7 7l-15 1zM337 672l-8 5l-8 7l1 -14l9 -2zM424 433l-5 4l2 -8l-7 -10l28 25l-12 1l3 -4zM204 446l5 -7l4 -9l7 4l-2 10zM293 434l-6 12l11 7l-5 8l-7 -7l4 -3l-9 -5l3 -8z M345 669l-4 -9l-7 -16l-6 -3l-5 -11l20 3l-1 9l6 5l1 11l6 10zM548 94l8 24l-1 8l5 33l3 27l4 24l-6 24l-11 6l-15 3l-26 -2l-11 1l-16 -15l-3 -13l-6 -29l-4 -25l-2 -27l-3 -32l6 -21l27 -6l29 2l14 5zM275 646l-33 2l-15 -8l-12 -11l-8 -14l-3 -35l-2 -25l-6 -11l2 -14 l-4 -22l3 -15l22 -15h22l24 5l11 8l8 14l5 32l7 14l-1 5l-2 11l3 28l1 31l-8 13zM411 335l-6 -3l-5 -7l-6 -17l-25 -33l-6 -3v-11l-9 -11l-16 -23l-18 -27l-18 -26l-19 -26l-1 -8l-7 -7l-20 -28l-12 -13l-4 -15l-15 -15l-6 -12l-19 -32l-12 -12l-15 -8l-16 -1l-13 2l-17 -1 l-19 2l-6 13l8 14l20 30l10 7l8 2v10l4 14l9 13l12 19l13 7l-4 7l19 24l20 32l19 28l18 23l4 10l7 8l13 21l16 27l19 26l11 17l12 13l3 10l14 15l8 19l9 -1l5 14l13 6l4 10l-13 -6l9 11l6 12l16 25l14 19l5 11l11 14l21 31l14 23l21 31l15 21l18 28l13 9l2 13l5 8l13 20 l12 12l26 3l26 1l4 -5l11 5l14 -5v-14l-9 -14l-18 -29l-20 -30l-20 -28l-19 -28l-18 -28l-9 -5l-3 -13l-7 -12l-22 -28l-20 -32l-15 -23l-15 -26l-12 -15l-20 -28zM659 199l-1 -24l-3 -16l-6 -48l-7 -30l-9 -23l-17 -24l-21 -21l-27 -14l-23 -7l-25 -5l-8 6l-7 -5l-28 -1 l-42 8l-25 11l-16 16l-6 1l-6 12l-10 24l-2 14l1 12l-2 9l2 27l3 30l8 12l-7 3l2 10l5 36l8 31l7 14l12 16l2 8l10 7l3 8l27 17l29 10l33 6l31 2l8 -2l9 1l18 -4l22 -6l25 -11l9 -13l9 -6l12 -28l6 -31l-2 -8l1 -12zM220 389l-29 4l-14 3l-27 8l-6 7l-8 2l-14 12l-9 14 l-11 27v13l10 2l1 10l-9 -4l-4 14v13l4 10l-2 26l4 17l2 25l6 29l7 27l14 27l11 13l23 22l17 7l10 7l37 7l31 3l30 -2l28 -4l27 -12l20 -15l13 -19l-1 -11l8 -9l3 -19l-2 -31l2 -8l-2 -16l-11 -6h10l-3 -12v-11l-3 -26l-7 -35l-12 -36l-13 -15l-4 -11l-15 -15l-22 -8 l-11 -10l-16 -6l-33 -6z"/>
<glyph glyph-name="ampersand" horiz-adv-x="587" unicode="&amp;" d="M352 713h2l-2 2v-2zM302 234h2l-2 2v-2zM407 629l-5 -3l-4 -4zM107 160l-10 -3l13 1zM232 387v-4l10 11zM419 212l1 -9l4 7zM390 124l4 8l-5 1zM262 353l8 -3l-3 7zM250 60l-8 -1l12 -5zM421 266l-12 7l1 -5zM221 345h8v7l-5 -5zM231 60l4 -7l4 9zM242 35h8l-6 9zM213 37 l8 2l-5 8zM171 302l7 6l-9 3zM309 216l-7 -6l9 -3zM357 157l7 13l-7 -2v-11zM262 390l-4 -1l3 -8l7 5zM319 183l-10 5l5 -12zM288 222l-1 -10l9 -8zM399 67l10 -4l7 7zM416 118l-16 2l7 -7zM328 172l3 16l-9 -8zM335 194v12l-6 -5l3 -12zM307 95l8 2l-2 5l-10 3zM255 551 l-9 10l-2 -13zM292 239l-7 -6l11 -12zM447 275l-3 11l-13 -4zM381 105l10 4l6 2l-19 3zM277 262l3 -7l13 2l-10 7zM421 254l13 7l-7 9zM271 305l-11 3l4 -11l7 3l8 -4zM279 405l-4 12l-3 17l-3 -15l2 -9zM287 669l-14 3l-2 -5l4 -9zM114 173l11 -1l-7 7l-13 -5v-7l4 -3z M344 86l14 -10l4 15zM410 156l-15 -1v-10l13 -3zM340 151l6 10l-7 2l-15 -1l12 -13l9 -4zM231 397l14 4l11 6l-15 -2l1 14l-18 -15zM271 55l15 17l5 -2l-6 9l-5 -7l-11 2l2 -9l-6 -9l-9 -4l10 -7zM345 113l12 -9l14 1l-19 20l8 5l1 12l8 10l-17 -4l5 -5l-11 -5l3 -4z M195 125l11 -10l11 -6l15 -3h15l14 3l12 17l-17 36l1 7l-7 8l-4 9l-7 19l-8 24l-8 26l-9 1l-10 -12l-13 -25l-6 -20l-2 -15v-32l4 -14zM290 606l-5 -17l-3 -15l-2 -30l2 -30l5 -29l8 -13l17 18l15 21l10 9l-1 8l7 13l10 28l2 28l-6 26l-9 10l-14 3l-14 -4l-13 -11zM569 172 v-19l-1 -20l-3 -14l-6 -29l-6 -24l-16 -26l-12 -15l-29 -20l-20 -6l-14 -7l-30 -3l-27 5l-31 11l-27 23h-18l-22 -13l-26 -12l-28 -10l-14 -1l-24 -2l-27 -1l-15 2l-31 8l-9 7l-11 2l-13 11l-15 14l-19 26l-10 22l-7 23l-3 26l1 12l2 27l4 28l8 31l14 28l11 21l14 22l18 23 l16 20l11 10l25 23l4 16l-4 12l-4 24l-4 12l-3 22l-5 29v40l3 17l-3 6l4 17l4 24l9 26l11 25l16 25l17 19l22 18l25 14l27 9l35 6h22l33 -5l13 -5l26 -14l18 -20l9 -14l9 -23l4 -39l1 -23l-5 -7l3 -15l-3 -16l-10 -29l-11 -25l-12 -21l-14 -19l-13 -20l-10 -7l-7 -9l-33 -31 l-31 -30v-13l6 -13l10 -28l3 -19l4 -11l11 -32l12 -14l8 9l9 25l8 27l11 32l6 34l11 13l13 2l22 -3l27 2l25 -2l5 -10l-3 -22l-2 -23l-7 -3l3 -9l-8 -30l-9 -10l-1 -19l-8 -21l-11 -23l-12 -24l-17 -30l-8 -15l-2 -20l21 -15l13 2l13 18l6 31l6 22l11 6l13 1l32 2l16 -2z M272 434l-1 7l-8 -11z"/>
<glyph glyph-name="quotesingle" horiz-adv-x="200" unicode="&apos;" d="M167 615h4l-4 3v-3zM188 620l-11 5v-6zM212 571l-1 14l-6 -5zM237 692l-5 -22l-4 -8l-9 -3h11l-1 -14l-6 -21l-2 -19l-5 -27l-5 -28l-4 -25l-6 -30l-5 -28l-11 -9l-22 -1l-10 2l-13 -3l-17 7l-5 30l4 19v24l2 25l2 28l3 30l1 27l2 26l1 27l4 12l8 10l13 2l34 1l38 -2 l8 -18z"/>
<glyph glyph-name="parenleft" horiz-adv-x="248" unicode="(" d="M223 755v3l-3 -3h3zM71 -52v-3l5 3h-5zM102 -15l8 -8v5zM144 358l-8 2l-5 -5zM85 -17l2 12l-6 -5zM102 61l2 -8l11 1zM68 74l7 -17l10 6l-12 1zM91 -37l4 8l2 6l-11 -1zM130 -54l12 -7l10 2l-10 7zM69 97l9 -14l7 13l-9 -6l9 11l-6 5zM161 -24l20 -25l8 -14l-10 -20 l-24 -21l-2 9l-3 -13l-30 -21l-14 5l-18 21l3 9l-12 3l-6 9v8l-10 4l-10 17l-8 20l-12 36l-2 31l3 38l5 29v19l5 31l2 25l4 34l3 29l4 14l1 32l5 27v14l5 13l-1 17l2 17l4 30l4 27l2 27l5 29l4 30l2 29l5 26l2 29l4 15l1 25l8 36l9 40l19 35l17 26l9 4l7 13l9 10l24 23 l18 17l9 1l14 7l4 -9l9 -2l3 -10l11 -5l5 -11l-8 -1l12 -2l8 -9l-4 -9l5 7l6 -9l-5 -13l-11 -11l-26 -22l-16 -21l-18 -29l-5 -15l-8 -29v-13l-4 -11v-14l-3 -15l-4 -31l-2 -30l-4 -22l-4 -41l-5 -28l-4 -27l-3 -27l1 -11l-3 -12l-3 -24l-4 -24l-1 -35l-5 -24l-5 -30l-8 -5 l5 -12v-20l-3 -18l-2 -32l-5 -27l-4 -35l-1 -21l-7 -2l4 -6l6 -30l-2 -9l10 -15z"/>
<glyph glyph-name="parenright" horiz-adv-x="248" unicode=")" d="M51 -60h2l-1 3zM235 139h3l-3 3v-3zM234 739h3l-2 3zM189 370l-3 -7l6 8zM263 769l6 6l-14 -3zM223 348l9 18l-8 -6zM216 307l-8 -2l13 -9zM212 271l11 6l-4 3l6 8l-8 -6zM235 590l9 6l2 9l-14 -3l8 -3zM251 730l-5 4l-8 -2l5 -10l10 -6l7 5l5 -7l4 1l-10 14l-2 10l-2 -9 h-4zM251 235v-27l-7 -34v-19l-7 -41l-1 -22l-5 -29l-6 -29l-8 -32l-14 -26l-15 -21l-14 -21l-10 -8l-48 -48l-13 -7l-13 -1l-8 11l-11 9l-18 21l-2 15l-10 7l12 14l24 24l24 27l18 34l2 9l8 26l4 28l4 31l3 23l3 27l3 8l-2 10l3 12l5 31l1 23l4 24l2 24l3 32l7 35l-1 15 l2 15l6 40l5 31l2 34l4 6l1 30l7 14l-2 11l1 20l4 35l3 32l5 21l-5 -6l-2 14l-2 30l-7 5l-9 13l-19 26l-13 30l8 12l12 9l9 11l17 13l10 11l21 4l19 -22l17 -23l10 -9l8 -20l-11 -8l18 -8l-1 -6l15 -19l-7 -9l10 -7l3 -35l-3 -18v-18l-7 -33l2 -15l-7 -29l1 -14l-3 -29 l-5 -30l-4 -29l-9 -87l-6 -24v-28l-7 -15l1 -33l-3 -19l-5 -9l2 -12z"/>
<glyph glyph-name="asterisk" horiz-adv-x="424" unicode="*" d="M178 577l-5 4l-8 -10zM146 576l6 -2l1 16zM175 423l9 -6v12zM350 429l1 11l-6 -2l-3 -9h8zM452 610l5 -36l4 -15l-7 -14l-18 -3l-12 4l-15 -3l-7 -5l-16 -1l-25 -3l-24 -3l-7 -11l10 -15l20 -22l22 -21l20 -20l4 -12l-6 -11l-20 -12l-25 -16l-27 -16l-14 -2l-8 14l-6 24 l-5 24l-11 23l-9 24l-10 -2l-22 -34l-5 -12l-13 -26l-15 -25l-13 -11l-11 3l-24 16l-22 19l-17 20l12 17l15 9l10 9l14 1l-1 10l10 8l17 18l11 6l8 10l2 11l-16 3l-28 4l-22 4l-12 -1l-6 9l-7 -3l-17 -1l-10 4l-4 11l4 13l12 27l14 29l8 11l16 3l19 -10l6 -6l11 -6l27 -17 l32 -10l5 14l-1 14l-4 58l-1 25l4 12l12 6h13l27 1l38 -1l9 -9l-3 -18l-6 -17l-10 -30l-7 -26l-3 -19l3 -13l12 6l25 11l26 15l12 4l19 12l17 6l8 -4l7 -14z"/>
<glyph glyph-name="plus" horiz-adv-x="532" unicode="+" d="M289 296l-3 -7l-13 -3h14zM339 538l-6 5l2 -12zM137 366l7 -9l-3 8l3 8zM196 362l-3 10l-3 -12zM124 371v-10l8 4zM182 321l14 6l1 7zM331 559l-3 7l-9 -8zM324 419l-9 -5l8 -4l4 9h-3zM241 370l10 12l-1 11zM361 544l-5 13l-3 -9v-8zM257 356l9 1l10 -1l-12 9zM494 380 l-2 -9h12l-1 9h-9zM329 530l-7 10l-10 -2l-2 -7h10l11 -10zM545 375l-4 -20l-1 -17l-5 -22l-12 -7l-32 -2l-13 2l-24 -1l-29 1h-34l-18 4l-11 -6l-9 -14l-3 -12l-2 -26l-6 -36l-2 -27l-4 -27l-3 -29l-6 -14l-14 -5h-42l-26 -1l-11 5l-4 17l5 19v16l3 16v15l3 16l5 37l4 35 l-3 13l-17 8l-3 -4l-13 1l-35 -3l-33 1l-28 1h-26l-17 8l-1 15l2 33l5 18v13l6 13l11 5l13 2l10 -2l18 2l11 -2l16 1h33l12 -2l28 1l23 6l6 13l2 14l2 25l2 27l5 36l3 27l4 29l9 13l26 5l14 -1l28 1l14 -3l9 -5l2 -17l-6 -46l-4 -34l-6 -32l1 -13l-2 -14l-3 -23l9 -6l20 1 l16 -7l13 5l16 2l30 -1h65l9 -11l1 -15l-2 -4v-11z"/>
<glyph glyph-name="comma" horiz-adv-x="188" unicode="," d="M100 59l8 -5l2 4zM73 70v-8l7 10zM166 112l-4 -26v-9l-2 -19l-4 -24l-7 -27l-10 -31l-6 -15l-15 -26l-18 -25l-20 -19l-11 -2l-8 3l-11 -3h-15l-13 5l1 11l15 23l10 9l2 9l8 7l12 29l-2 15l-26 2l-5 10l1 21l7 26l-3 11l4 11l-1 11l8 36l15 8h62l27 -1l9 -7v-13z"/>
<glyph glyph-name="hyphen" horiz-adv-x="319" unicode="-" d="M133 358l11 -10l3 9zM314 404l7 -26l-3 -14l-3 -27l-6 -15l-16 -8h-35l-16 2l-16 -1h-36l-16 5l-14 -4l-29 -1l-28 -1l-13 3l-6 14l2 15l4 24l2 24l10 8l14 5h31l26 -2l38 1l32 1h54z"/>
<glyph glyph-name="period" horiz-adv-x="188" unicode="." d="M157 46h-8l5 -13v-15l-7 -13l-11 -5l-24 -2l-29 2l-28 -3l-13 3l-5 14l3 30l3 29l4 26l8 31l13 4h29l29 -1l26 1l11 -5l1 -26l-3 -32z"/>
<glyph glyph-name="slash" horiz-adv-x="243" unicode="/" d="M108 230h3l-3 2v-2zM58 77h2l-2 3v-3zM203 445v-3l7 5zM231 572h-11l-6 -3zM102 237l4 -4l1 8zM90 195l1 5l-7 1zM275 574l-4 -7l5 -1zM159 352l-2 4l-4 -14zM80 165l13 -12l-1 10zM249 585l-8 -4l16 3l-7 11zM245 541l5 16l-1 4l-5 -13l-8 -1zM74 152l-10 -6l10 -4l9 2z M78 176l17 -5l4 6l3 8l-11 -8zM117 242l1 9l12 13l-20 -8l3 -10l-6 -5zM211 495v-16l11 -11v19zM363 789l8 -9l-2 -14l-11 -28l-9 -8l8 3l-5 -10l-11 -27l-10 -24l-2 -12l-12 -23l-7 -22l-6 -20l-8 -9l-6 -23l-6 -11l-7 -3l2 -9l-4 -14l-13 -24l-3 -19l-6 -9l-11 -31 l-15 -39l-11 -30l-10 -22l-2 -9l-6 -4l-5 -25l-6 -11l-3 -11l-12 -28l-16 -31l1 -12l-8 -15l-10 -27l-11 -28l-12 -33l-6 -12l-10 -27l-9 -25l-11 -24l-12 -31l-8 -23l-10 -21l-7 -16l-10 -8l-29 -1l-28 1l-14 7l-1 13l7 17l10 26l10 25l12 32l7 23l6 9l10 28l8 24l11 21 l4 15l11 30l14 28l4 20l13 22l11 38l11 25l9 23l10 24l9 25l22 55l14 31l9 31l9 16l20 56l10 30l12 26l8 24l6 13l10 27l14 31l6 20l14 20l11 5l16 -1l8 -5l5 6z"/>
<glyph glyph-name="zero" horiz-adv-x="409" unicode="0" d="M276 710l6 6l-6 -3v-3zM325 136l-6 -1l14 -1zM150 309l7 -9l-6 11zM338 157l-8 -7l14 9zM178 628l5 -6l1 5zM91 244v-4h9zM380 331l-13 -3l5 -2zM308 113h-5l5 -9v9zM111 150l-8 -5l8 -2v7zM87 177l-7 -8l3 -5zM225 673l-5 7l-4 -7h9zM169 554l-9 -5l8 -3zM140 124l-7 -3 l7 -7v10zM295 121l-1 -10l8 9zM249 689l5 6l-9 -5l1 -11zM211 466l1 8l-10 1zM161 592l5 -8l5 10zM138 503l-1 -7l13 -3zM151 553l2 11l-11 -13zM121 450l7 -6l2 13zM126 231l8 3h8l-12 6zM345 392l15 -6l-6 10zM161 357l-10 16v-12zM358 326l-14 4l4 -11zM131 153l13 7 l-1 5l-11 -8l-9 -3zM125 341l-10 -4l-6 -1l9 -7zM352 348h8l8 -3l-6 8l-8 -1l-5 4zM328 239l2 17l5 6l-11 -5zM195 591l6 1l-2 8l-9 -7v-10zM340 213l-8 -14h11zM105 274l-13 4l2 -9l3 -3zM174 567v7l-11 -6v-9l7 10l9 -6l3 7zM126 199l-14 12l4 -11l-2 -8zM144 398l-13 9 l-5 -12zM156 569l6 18l-8 -2l-1 -10l-4 -3zM138 458l5 11l-21 -4zM352 311l2 -8l9 -2l-2 17l-5 -6zM152 331l11 10l4 3l3 7l-7 -3l-6 -9l-12 1zM126 374l1 6l-8 -11l17 4l8 -7l2 9l-8 2zM323 219l4 -1l9 1l5 10l-9 6v-8zM96 187l5 -12l5 16l1 11l-4 -9l-11 2zM106 311l8 9 l-12 -2l-9 -9l15 -6zM151 438l18 1l4 17zM125 321l-7 -3l17 1l6 14l-10 1zM100 374h-15l9 -6l-3 -13l16 12zM138 443l-2 -9l-1 -10l-8 15v-13l12 -7l4 17l6 6l-5 -1zM127 176l8 5l7 -7v13l-16 3l-9 -5zM363 183l9 11h-11l-4 10l-5 -12v-10l8 -13zM200 663l-15 -5l-4 -7l8 -2 v8l16 2l-1 -8l7 -3l-12 -10l7 4l9 -3l4 20zM183 645l-8 -9l-9 4v-25l7 -7l14 -13l-6 14l24 1l-7 15v8l-5 -10l-12 -6h-10l6 12zM190 507l6 8l5 10l-12 -3l-2 -4l-13 -5l-12 4l-8 -7l-3 19l-11 1l8 -10l3 -15l12 1l7 -13l-5 -10l16 13l-6 5l7 9zM270 154l4 10l3 19l2 26l4 31 l4 27l5 36l3 26l2 27l2 16l4 20v12l3 13l4 26l-1 9l1 21l8 17l3 35l-1 14l2 21l2 28l-4 12l-7 11l-13 8l-15 4l-14 -1l-22 -9l-9 -9l-11 -24l-6 -24l2 -12l-3 -12l-5 -9l3 -6l-4 -29l-4 -36l-5 -39l-4 -35l-8 -29l2 -10l-3 -14l-2 -36l-4 -32l-3 -12l-1 -22l-4 -23l-6 -16 l3 -6v-47l7 -14l13 -10l16 -4l16 -1l16 6l14 14l10 19zM435 451l-6 -34v-12l-4 -31l-3 -27l-3 -28l-6 -30l-5 -33l-1 -27l-5 -9l3 -15l-6 -33l-5 -33l-8 -30l-12 -23l-14 -24l-19 -24l-26 -21l-34 -17l-30 -8l-40 -4l-40 2l-35 8l-12 6l-29 17l-19 20l-13 24l-8 24l-6 35v23 l3 9l2 24l2 27l8 18l-5 6l1 19l5 32l9 72l6 -8l10 15l-9 -5l-6 8l5 27l3 54l5 18l1 14l4 32l6 26l-4 6l10 41l4 24l8 13l2 10l17 33l19 22l21 18l17 12l13 3l10 -1l10 10l15 6l36 4l13 -2l18 1l25 -1l32 -8l17 -8l22 -14l13 -13l10 -16l15 -31l7 -36l-1 -35l-3 -29l-4 -30 l-3 -31z"/>
<glyph glyph-name="one" horiz-adv-x="275" unicode="1" d="M252 400h3l-3 2v-2zM172 305l-3 -6l5 7l-2 10v-11zM209 222l-2 -6l9 10zM217 261l-12 -7l13 6l8 11zM245 410l-8 -2l9 -2zM189 252l-6 13l-1 -8zM244 565l-4 5l-7 -7zM249 503l4 8l-12 -7zM218 187l-5 -9l9 2zM258 660l8 -2l-4 11zM240 517l-3 10l-5 -5l-9 3zM196 171 l-9 -11l9 1v10zM206 199l-3 7l3 6l-10 -3zM271 670l-18 14l7 -12zM224 490l-9 18l-4 -6zM207 387l10 -9l3 -8v16zM227 549l-2 13l-2 -13l-7 -6l9 2l10 -7zM274 597l-21 1l-5 -7h7zM195 458l8 -8l4 9l2 12zM197 321l8 -2l15 2l-6 9zM175 190l10 17l9 6v6l-14 -17l-12 1z M214 489l-11 -9l-7 8l11 -16l7 5l2 5zM249 607l11 7l-11 11l-4 -8zM267 646l-13 5l-7 1l5 -6l-8 3l5 -12l2 2l7 -3zM227 436l-8 6l-18 -4l2 -10l6 6l13 -12zM247 178l-7 -70l-5 -22l-1 -25l-4 -10v-3l1 -6l-3 -24l-11 -17l-27 -4l-11 1h-55l-15 6l-5 10l4 30l2 22l4 10l-1 8 l4 29l4 31l4 35l2 26l5 24v12l3 28l4 29l5 28v12l3 12l6 64l4 18l3 25l1 23l6 10l-3 11l4 35l-8 8l-12 -4l-25 -10l-25 -12l-13 -2l-9 7v26l3 10l-1 11l5 44l7 15l24 17l27 14l28 14l29 20l19 7l13 15l10 -2l1 6l16 -2l4 7h17l11 -8l7 5l8 1l7 -19l-3 -27l-4 -34l-5 -16 l1 -22l-3 -32l-4 -28l-4 -12l2 -9l-4 -7l1 -17l-4 -17l-4 -37l-4 -36l-5 -32l-5 -6l5 -5l-4 -27l-3 -25l-2 -27l-5 -31l-6 -29l-1 -21z"/>
<glyph glyph-name="two" horiz-adv-x="399" unicode="2" d="M203 551h3l-3 2v-2zM144 56h3l-2 2zM331 634h3l-1 4zM250 670l-3 7v-7h3zM249 651l14 -9l-5 5zM235 660l3 -5l2 6zM316 697l-6 8l2 -8h4zM105 58l-4 -2l3 -7zM124 110l-4 -5l12 6zM206 645l-2 10l-4 -5zM169 72l-2 6l-5 -10zM106 65l8 -3l6 5zM243 701l-6 5l1 -11z M225 274v-9l7 7zM132 175l12 8h-8zM261 698l11 4h-16zM130 44l-6 -6l11 -2zM380 511l-3 -12l8 6zM135 140l-6 -6l15 2zM295 423l11 -3l2 7zM325 679l-10 -9l6 -4zM358 514l-8 11l-5 -6zM213 255l-1 14l-7 -11zM349 654l-5 9l-10 -4zM324 655l1 -11l1 21l-10 -9zM298 659 l13 -11l1 8zM229 641l3 -8l9 5l-17 7zM89 66l-7 -2l14 -4l-2 11zM163 35l-13 -7v-15l4 12zM329 484l4 4l8 5l-11 5zM369 673l1 -4l-8 -8h7l9 16zM154 623l10 -5l4 16zM98 38l-9 -7l15 1v15zM226 64l-13 6l-10 -5h8l5 -5zM127 57l4 9l7 -8l2 9l-14 6zM306 679l-13 -6l12 -11 l6 12l-9 -4zM106 126l-4 13l-3 -11l3 -9l6 -1l6 5zM77 121l9 3v15l-11 -3l5 -7zM156 181l-3 16l-11 -9l9 -4l-8 -10l8 6l2 -5zM257 688l-4 5l-8 -1l7 -6l-17 -3l-1 -8l18 7l3 -7zM218 686l-5 -12h4l9 -7l8 -1l-5 10zM388 615l13 10l-12 -1l-7 -11l-11 -6l2 -13zM362 485 l-3 -7l16 -1l-12 13h6l-2 9h-10l-4 -3zM141 45l2 -7l13 3l2 8l8 7l-7 1l-4 16l-6 -7l5 -8l-2 -13h-11zM312 450h15l6 6v11l-7 1l-15 -5l9 -4zM278 663l8 6v14l-8 -10l6 10l-11 -3l-4 14l-1 -21h-10l10 -7l7 5zM439 585l-1 -9l1 -13l-3 -14l-9 -16l-1 -18l-7 -24l-6 6v-14 l-29 -58l-20 -28l-18 -25l-24 -36l-19 -25l-18 -27l-18 -28l-21 -26l-10 -20l-19 -28l-15 -23l-18 -34l10 -10l9 -3l18 4h12l23 -2l12 2l24 -2l14 1l27 1l29 -1l9 -9l-3 -33l-4 -34l-2 -24l-12 -14l-17 -3l-14 2l-18 -2l-17 1l-34 -1l-33 2l-18 -2l-34 1l-30 3l-6 9l-2 -11 l-30 -1h-38l-7 4h-20l-2 13l1 14l6 9l-3 8l7 5l-8 2l7 18l8 32l11 27l14 29l15 24l8 18l14 20l16 26l10 10l5 13l17 24l21 24l9 15l17 25l16 23l18 27l9 8l19 23l1 10l5 6l4 10l11 16l9 21l6 8l4 16l10 33l6 11l-6 7l4 8l-5 15l-18 16l-18 5h-16l-13 -5l-18 -14l-7 -12 l-7 -25l-3 -30l-2 -26l-10 -16l-18 -3h-58l-24 2l-11 8l2 20l3 36l5 33l5 21l8 20l18 30l20 21l23 20l29 13l12 9l24 8l13 1l-6 -6l18 9l12 -1l-1 -11l6 13l29 -3l22 -3l3 -7l9 4l20 -8l25 -16l24 -26l7 -16l12 -29l3 -19l-2 -9z"/>
<glyph glyph-name="three" horiz-adv-x="389" unicode="3" d="M329 423h3l-2 2zM286 323h3l-2 4zM337 686l13 4l4 3zM316 437l10 2l-6 2zM271 717l-2 10l-5 5zM133 189h-7l3 -7zM320 402l-1 9l-5 -10l-1 9l2 11l-17 -10l-1 -9h-7l15 -2l9 1zM110 565l-6 -5l7 -3zM322 322l-7 -6l8 -1zM300 359l-2 -8l8 4zM356 287l-10 -2l-10 5l11 -8z M287 679l-7 4l2 -9zM296 339l-1 -6l4 -2l-1 -4l5 -2zM280 383l-8 -2l-1 -8zM264 693l-10 -3l9 -4zM351 521l10 3l-12 5zM267 353l8 2l9 -5l-10 12zM344 462l6 3l-5 8l-6 5l5 -9l-5 -10zM224 381l-9 3l-2 -6l8 -5zM306 680l-11 -9l6 -7l4 13l4 -12zM391 595l-3 14l-10 -12z M322 260l-3 -9l7 -1h9l-4 5l2 9l-7 -10zM261 366v-11l10 8l-17 7l-4 -8zM322 166l11 -2l3 6l-4 6l-16 -5zM334 219l5 -4l20 5l-12 2l-5 9zM344 534l5 3h-7l-8 -1l-10 -8l13 -6l4 -15l4 12l-5 7l-6 -2l2 10h8zM380 586l-9 4v-6l-9 -3l-7 2l2 -10l7 3l-13 -11l11 -6l5 8l5 16z M360 476l12 -3l2 11l-5 8l10 -3l-11 6l-19 1l-1 -4l-7 -8l23 7zM291 683l-1 16l8 -3l6 18l11 -2l-11 12l-15 -2l-1 -12l-10 -8l8 -12l2 -10zM386 242l-4 -54l-2 -13l-3 -13l-4 -31l-6 -15l-12 -33l-19 -29l-12 -11l-21 -18l-23 -14l-23 -10l-34 -10l-13 -1l-29 -2l-27 5 l-28 4l-29 16l-18 15l-15 18l-12 24l-6 38l-2 24l3 26l5 42l8 20l13 4l16 1h59l16 -3l7 -12l-2 -15l-4 -29l-2 -21l6 -25l8 -10l12 -6l13 -3l13 2l13 5l17 17l7 13l7 27l2 26l4 27l3 24l2 23l-2 20l-10 27l-21 5h-10l-21 4l-15 -1l-8 9l-2 13l3 13l4 31l5 29l9 8l16 3l33 2 l15 7l12 10l8 11l6 24l6 27l5 31l1 16l2 28l-2 9l-5 23l3 9l-12 -6l-15 6l-19 -1l-16 -9l-12 -12l-6 -14l-7 -31l-4 -33l-11 -13l-13 -2l-26 1l-32 -3l-18 1l-13 6l-4 12l1 20l6 36l5 16l7 29l10 18l22 33l17 17l27 20l34 15l22 4l24 2l9 -5l6 5l22 -6l4 2v5l14 -3l11 -6 l14 -3l27 -13l9 -11l8 -3l16 -25l-3 -6l11 -3l6 -16l2 -12l2 -30l-5 -38l-1 -24l-4 -11v-27l-5 -27l-4 -23l-11 -27l-20 -27l-18 -12l-11 -17l18 -17l6 -11l13 -22l5 -21l1 -25z"/>
<glyph glyph-name="four" horiz-adv-x="396" unicode="4" d="M273 339l5 3l-1 7zM289 68l-9 -4l5 -2zM242 446l-6 -4l6 -5v9zM343 572l7 4l-7 4v-8zM296 628l-4 -8l-7 1l8 -7zM258 233l-13 -9l14 6l8 1zM351 447l-1 -8l10 6zM345 630l-11 -1l-3 -7zM293 75l3 -7l9 5zM281 177l3 5l-9 -4l8 -9zM308 79l6 8l-13 -4zM244 527l9 8h-10z M132 306l-1 9l-9 -6zM299 568l-7 -5l9 -6zM279 575l-19 -4l8 -3zM285 37l-2 -10l11 10h-9zM281 244l-6 8l-2 -15zM330 328l-11 -2l2 -10zM318 510v-7l7 14l-17 -7h10zM280 574l-6 -10l14 3zM275 503l-6 -8l14 -2zM195 220l9 -6l-7 9l11 3l-10 4zM305 519l-2 8l-9 4l-1 -5z M320 248l8 -6l5 -2l-4 12zM329 521l9 13l-6 3l-4 -8zM318 253l-17 7l4 -11zM340 582l3 8l-9 -7l-8 -10l17 7zM313 206l-7 12l-7 -17zM325 573l-10 15l-7 -18l7 6zM284 104l-2 -9l5 -2l12 8zM217 206l16 -8l-8 9l12 4l-13 4zM309 271l3 -8l13 -6l4 9l-1 4zM151 211l6 14l12 9 l-22 -1l-1 -8l8 -2l-9 -4zM292 234l23 -4l-5 7l-11 9l-17 -12h10zM321 186l9 1v9l-7 7l-8 1l-2 -23zM288 139l-6 -8l15 -4l-6 10l5 6l-8 12l-9 -3l-6 8l-3 -10l5 -5l10 5zM367 194l-1 16l5 -1l-3 8l7 10l-14 3l1 -9l-7 4l4 -14l-2 -18zM183 263h48l11 12l4 26l4 19l-1 13 l3 13l4 6l-3 14l6 35l4 36l-2 13l-14 -13l-3 -14l-9 -12l-6 -14l-14 -26l-14 -25l-16 -30l-18 -33l-3 -17zM416 248l-4 -20l1 -18l-6 -32l-9 -2l1 -13l-21 -6h-18l-12 -10l-3 -17l-4 -42l-4 -7l1 -11l-5 -3l4 -11l-3 -16l-5 -27l-7 -11l-13 -4l-15 1h-28l-27 -1l-23 6l-5 12 l2 12l4 28l4 31l2 25l4 5l-1 8l2 24l-8 9h-31l-29 -1l-5 5l-23 -5l-26 1l-23 -1l-12 2l-16 -1l-16 2l-7 12l1 12l7 20l-3 13l5 10l-1 22l8 17l16 30l15 25l14 26l15 26l16 34l12 17l13 27l13 22l12 14l11 25l15 30l17 30l20 37l10 15l13 26l15 27l16 29l11 11l15 6h77l17 -3 l3 -16l-6 -46l-3 -29l-4 -28l1 -4l-4 -32l-4 -17v-12l-4 -10l2 -16l-4 -15l-4 -44l-3 -26l-3 -9l-1 -26l-5 -17l-2 -34l-4 -37l-6 -27l6 -11l37 -1l9 -6z"/>
<glyph glyph-name="five" horiz-adv-x="396" unicode="5" d="M205 586v-2l3 2h-3zM175 622l12 9h-3zM181 647l8 -8v4zM170 670l-1 4l-9 1zM152 408l3 -9l3 5zM180 586l9 5l8 -5l-4 8zM412 627l3 8l-8 -3zM122 429l10 3l3 7zM172 641l-9 -4v-7zM191 611l-13 -10l-6 -3l10 2zM218 611l-12 1l-1 -6zM282 649l13 3l-13 3v-6zM52 132l6 -7 l2 11zM167 568l-10 -1l8 -4l5 -4zM233 673l-6 8l-4 -9zM327 444l-1 7l-12 -11zM152 71v-8l12 -2zM206 663l-2 -9l-12 -1l16 -5zM328 685l10 6l-2 12zM163 412l4 -11l14 4zM152 560l-13 1l8 -14zM277 622l2 22l-11 -18zM363 689l-9 3l7 -5l8 -14l-1 -15l6 5l-5 2l3 7l-3 11z M129 444l12 15l10 10l-22 -13v-12zM178 717l-19 3l4 -7l2 -8zM168 606l2 16h-12l-6 6l-2 -13l7 -9l3 12zM400 281l-5 -38l-2 -16l-3 -21l-2 -34l-4 -7v-8l-6 -21l-9 -36l-17 -32l-11 -13l-7 -3l-7 -15l-12 -11l-27 -18l-27 -9l-25 -6l-22 -3l-21 -1l-30 3l-30 6l-27 10 l-28 25l-8 11l-15 21l-1 12l-5 12l-1 12l-3 29l3 13l5 10l-1 26l7 16l-5 2l4 15l15 8l10 2l31 -1h38l15 -3l5 -9l-3 -24l1 -11l-4 -7l2 -28l5 -20l11 -10l13 -6l14 -1l15 4l14 9l11 15l5 18l5 8l-1 9l9 66l3 28l5 12l-2 17l7 27l-2 8l4 12v12l8 1l-4 7l-7 3l-1 12l-5 10 l-10 7l-12 4l-25 -4l-21 -13l-15 -24l-10 -8l-21 -1l-16 2h-30l-23 5l-8 9l1 15l4 30l7 30l4 28l4 25l-1 3l7 26v20l5 19l8 47l3 22l4 26l6 34l3 24l12 17l35 2l37 1h91l24 -2l20 2l32 -1l17 2l21 -4l10 -5l-4 -26l-8 1l-8 -4l-4 -12l5 -2l5 7l8 -4l-5 -16l-10 -30l-7 -14 l-11 -7l-15 -2l-12 1h-28l-28 -1h-23l-10 2l-4 7l2 -8l-17 1l-5 10v-8l-19 -5l-10 -10l-1 -27l-6 -26l-3 -24l-7 -37l7 -11l19 9l35 11v-7l4 6l18 4l16 -3l13 1l23 -5l15 -7l19 -19l16 -20l9 -36l3 -35l-3 -22l2 -16l-5 -10v-14z"/>
<glyph glyph-name="six" horiz-adv-x="404" unicode="6" d="M86 361h2l-2 3v-3zM183 478l-8 3l-1 -1zM111 107l7 -4l2 4h-9zM111 117l6 -5l4 5h-10zM185 576l1 6l-9 -4zM93 230l-1 9l-5 -9h6zM115 378l-8 -2l9 -6zM98 175l-6 10l-4 -5zM127 371l8 -9l4 5zM126 145l-1 -20l10 5l-9 2v13zM180 513l-8 10l-2 -8zM139 437l-5 3l-2 -14 l7 7v4zM100 159l3 8l-14 1zM99 220l-13 -4l1 -5l7 4l6 -3zM198 375l-2 -11l13 1zM92 319l-2 -8l8 -1l8 1zM108 84l-9 -17l14 10zM104 473l-5 -4l7 -11l6 -2zM114 294l10 -2l6 -14v12l-7 10zM149 491l-4 7l-11 2l2 -10zM112 328l7 -17l5 5l1 8l-5 -8l-2 26zM132 497l-8 11 l-10 -10l5 -4l6 5l5 -14zM167 482l-10 5l-16 -7l10 -9l13 -2l-6 8zM270 171l6 31l1 19l4 29l3 30l2 29l-4 16l-11 11l-15 5l-18 1l-14 -4l-17 -14l-11 -15l-8 -33l-1 -17l-6 -36l-2 -26l-3 -30l-1 -34l5 -19l14 -10l24 -4l15 4l12 6l10 9l12 26zM405 261v-13l-2 -21l-4 -13 l-1 -23l-4 -20l-4 -24l-6 -26l-5 -9l-4 -17l-7 -14l-18 -26l-20 -22l-25 -20l-12 -5l-29 -12l-34 -8h-37l-29 2l-28 5l-25 12l-18 12l-22 25l-11 24l-6 27l-7 34l3 15l2 28l4 30l4 31l4 34l3 31l3 28l3 23l4 12l-1 13l5 30l2 33l4 16l1 18l4 32l4 29l5 22v9l3 23l8 27l12 30 l7 8l17 26l9 8l22 19l32 18l19 5l30 6l35 2l34 -3l8 -3l29 -8l13 -7l12 -10l18 -22l-1 -5l8 -3l14 -27l3 -15l3 -31l-2 -39l-5 -31l-7 -17l-13 -5h-54l-30 1l-11 9v16l3 17l2 37l-4 13l-9 11l-12 7l-24 2l-14 -5l-13 -9l-10 -14l-5 -11l-2 -11l-6 -27l-3 -45l-3 -22l-6 -10 l3 -5l-1 -12l-1 -30l14 3l13 10l17 6l27 7l12 -1l10 2l25 -2l40 -14l27 -24l14 -31l5 -25l1 -26l-3 -31l-4 -11l2 -13z"/>
<glyph glyph-name="seven" horiz-adv-x="350" unicode="7" d="M171 212l-4 8l-2 -2zM224 323h-8l5 -4zM297 675l-5 4l-3 -11zM224 313l-9 -1l5 -8zM150 654l9 -1l5 8zM331 662l5 9l-10 -9l10 -7zM250 346l3 -13l5 6zM264 662h-12l8 -9zM296 539l-7 -9l14 -1zM317 622l17 14l-12 -1zM341 621l-2 -11l17 10zM128 680l-4 -9l15 3l-2 7z M302 549l8 -17v10l4 3l6 -1l2 8l-13 -7zM269 655l13 5l5 6l-10 3zM212 284l11 -11l5 11l-15 8zM286 452l9 1v7l-10 2l-5 9v6l-10 -5l10 -8zM289 488l7 5l3 7l-4 7h-14l-6 6l-4 -10l7 -9l5 -3zM426 713l-2 -27l-2 -14l-5 -29l-11 -28l-9 -25l-13 -23l-3 -11l-10 -25l-13 -31 l-6 -4l-11 -32l-20 -52l-8 -24l-14 -34l-12 -34l-12 -33l-10 -29l-9 -28l-9 -29l-8 -28l-10 -33l-9 -30l-7 -26l-6 -24l-7 -29l-10 -15v-9l-19 -9l-37 -2l-14 2l-13 -1l-28 1l-11 6l2 35l6 12l1 12l4 11l12 43l12 34l7 25l15 41l7 22l8 24l9 23l9 24l11 29l9 22l9 26l12 29 l13 28l11 29l13 31l13 32l15 31l11 26l1 11l-12 3h-85l-25 1l-27 -1l-28 2l-13 6v14l5 38l1 29l4 15l8 10l40 3l14 -2l10 2l12 -1l21 2l9 -2l14 1h23l25 -1h116l28 -1z"/>
<glyph glyph-name="eight" horiz-adv-x="387" unicode="8" d="M145 318l8 -4l-1 2zM369 651l6 5h-6v-5zM176 505h8l-10 5zM186 357l-11 2l17 -7zM225 378l2 -12l3 6zM346 623h-4l-6 -13zM256 361l7 -8l2 6zM301 357l-6 -5l10 4l-4 9v-8zM359 451l6 -10l2 7zM322 251l4 -6l5 8zM183 568l10 13l-11 4l7 -5zM334 442l-8 3l-5 2l4 -7z M313 652l15 5l-10 2zM163 553l7 -13l2 8zM210 371l9 -1l2 10zM222 390l-12 -7l15 1zM198 356l4 -8l4 8l-4 5zM324 669l-8 6l-7 -8zM171 567l-4 17l-1 -12l-9 -1zM311 291l-2 -9l13 7l-6 3zM142 457l-11 -11l15 3zM314 258l-9 14l-4 -9zM152 455l2 -14l8 13zM232 370l6 -11 l13 2zM353 590l-7 4l-2 -17l7 6zM328 268l1 -4l10 7l12 8l-16 -4zM312 345l-8 -3l-4 -8l15 1zM291 317l5 -2l10 11l-17 -1l-4 -6zM303 673l-14 -4h-4l4 -7l1 -11l9 6l-6 10zM275 392l7 -7l4 7l7 -10l11 3l-5 6l-30 6l-10 -3l-2 -11l-8 -2l-3 3l-9 2l-3 -7l8 -3l2 -7l29 10z M224 587l-8 -7l3 -3l-6 -45l-2 -25l-4 -10l-1 -31l3 -19l8 -13l11 -7l12 -3l16 2l12 4l11 7l9 11l8 26l3 31l3 33l6 30l-4 30l-7 12l-12 8l-15 4l-17 -1l-14 -10l-10 -12zM263 179l-1 14l3 13l1 13l7 28l1 30l-3 17l-9 14l-14 10l-17 5l-16 -3l-14 -8l-12 -12l-9 -15v-14 l-5 -17v-15l-3 -16l-5 -32l-3 -31l2 -31l6 -14l8 -8l31 -7l17 6l11 7l12 16l5 15zM388 199l-4 -12l1 -15l-2 -16l-7 -29l-9 -25l-13 -27l-21 -28l-23 -21l-24 -17l-39 -16l-26 -4l-22 -1h-26l-42 8l-9 5l-15 4l-13 12l-8 3l-9 9l-21 28l-7 16l-6 26l-4 25l1 13l2 27l4 34 l5 32l1 29l4 15l8 29l14 26l18 23l11 9l11 14l-7 15l-16 26l-9 31l-1 17l3 31l3 26l4 26v14l9 34l4 23l6 6l7 22l7 8l5 10l15 18l18 16l24 13l10 8l14 5l27 8l27 4h26l28 -4l15 -4l32 -14l21 -15l17 -21l13 -25l9 -39l-1 -29l-2 -35l-4 -29v-12l-5 -26l-7 -29l-12 -27 l-14 -22l-20 -22l-4 -12l8 -11l15 -17l4 -13l8 -32l2 -28l-3 -11l-2 -23l-3 -9z"/>
<glyph glyph-name="nine" horiz-adv-x="395" unicode="9" d="M327 491l-1 2l-1 -2h2zM379 448l5 7l-3 -2zM301 215l-3 -3l6 -6zM131 541l1 7l-6 -6zM176 612l8 -7l-8 12v-5zM344 532l6 -3l3 8zM338 372l-14 -5l7 -2zM98 128l7 5v9zM158 376l7 -2l1 10zM121 65l-2 -15l6 8zM174 496l9 10l-7 -3h-5zM123 140v9l-9 -8zM153 554l-4 10 l-2 -10l-7 -4zM195 424l4 13l-8 -3zM129 351l-9 -3l13 -6zM364 356l13 6l-10 3zM409 582l-5 -2l-10 2l2 -9zM142 453l10 2l-8 9v4zM148 360l-7 13l-4 -9zM155 503l-10 4l-4 -4l4 -14l2 15zM359 310l-11 -2l12 -10zM339 327l8 3l8 1l-8 6l3 7zM149 536l-7 -4l2 -4l6 -4l9 1z M106 428l14 10l-1 9l-14 -9zM160 485l9 3l10 -4l-1 8l-10 -2l1 8l-9 -1l-2 -9zM122 483l1 10l-8 -3l3 -15l-1 -6l4 -7l8 -1l-7 9l6 7l13 8l-7 13l-2 -10zM299 438l4 32l2 19l1 17l5 32l3 19v27l4 13l-8 3l-11 15l-11 6l-31 4l-4 -7l-20 -12l-9 -17l-6 -17v-15l-4 -21l-2 -30 l-4 -29l-3 -33l-5 -33l5 -15l9 -13l10 -6l15 -4l35 11l19 26zM424 436l-7 -31l1 -16l-1 -16l-5 -34l-5 -37l-5 -32l-2 -29l-8 -33l2 -7l-2 -16l-1 -22l-7 -26l-7 -28l-12 -27l-12 -12l2 -4l-17 -22l-19 -18l-17 -5l-5 -9l-13 -8l-29 -10l-30 -4l-29 -2l-23 1l-29 3l-32 14 l-27 21l-10 13l-14 25l-9 25l-3 28l4 36l3 34l4 11l10 9l14 2l30 -1l28 2l9 -4l10 1l7 -6l2 -23l-3 -13v-29l7 -20l7 -10l10 -6l15 -1l17 2l15 7l16 16l10 30l3 24l3 25l3 27l3 28l4 17l-7 20l-19 -8l-8 -7l-16 -5l-26 -5h-27l-27 5l-26 8l-21 18l-17 22l-10 32l-2 29l2 30 l3 32l6 15l-3 10l1 15l6 28l2 24l4 23l9 40l7 17l10 21l8 17l10 12l22 23l25 19l14 7l25 9l27 6l27 1h26l36 -4l29 -11l29 -18l13 -14l17 -33l8 -37l3 -28l-2 -21v-31l-4 -15l-5 -35l-5 -32v-19z"/>
<glyph glyph-name="colon" horiz-adv-x="188" unicode=":" d="M117 378v17l-4 -9zM141 375l-7 6l-11 -3zM96 67l-1 -10l11 -1zM160 375l-6 14l-4 -5l5 -12l-5 -6zM127 93l-1 10h-12l8 -5l-4 -15zM158 53l2 -8l-2 -19l-8 -19l-19 -9h-17l-20 4l-16 -3l-21 -1l-19 9l-1 12l3 31l3 30l6 18l-2 16l10 18l22 3h30l33 1l15 -4l8 -11l-3 -15 l-1 -32zM76 327l2 34l4 26l2 27l3 13l10 10l15 2h32l37 1l14 -4l8 -8l-2 -27l-3 -32l-3 -30l-7 -27l-9 -8l-15 -2l-15 1h-29l-32 2l-14 5z"/>
<glyph glyph-name="semicolon" horiz-adv-x="188" unicode=";" d="M116 398l-10 -1l2 -1zM158 387l-4 9l-4 -1zM121 70l1 5l-11 3zM102 20l1 -14l7 6zM124 69l-10 -6l-8 -5l15 3zM98 80l7 7l-14 -1l6 -14zM82 40l11 -2l12 -2l4 2l-8 3l-27 7zM137 302l-29 2l-14 -3l-14 2l-12 6l6 56l4 31l7 32l10 9l14 2h30l28 -1l25 -3l3 -12l1 -18 l-7 -14l4 -11l-2 -33l-6 -29l-7 -12l-15 -4h-26zM166 99l-4 -13l-2 -12l-2 -25l-6 -31l-12 -37l-8 -22l-8 -7l-3 -14l-10 -14l-21 -25l-13 -7l-30 -3l-10 5h-10l-6 6l8 16l8 9l15 23l17 31l3 12l-10 7l-16 1l-8 11v15l2 32l5 31l5 30l8 12l17 4h60l29 -3z"/>
<glyph glyph-name="less" horiz-adv-x="558" unicode="&lt;" d="M135 337v-2l2 2h-2zM453 202v-2l3 2h-3zM218 265h2l-2 3v-3zM329 240h3l-3 3v-3zM185 387l-6 1l-2 -2zM435 212l4 9l-4 4v-13zM251 310l-9 -1l8 -6zM176 385l3 9l-8 -2zM161 387l-12 -4l11 -2l3 -9zM365 472l9 9l-12 4l4 -5zM226 312l3 -5l4 9l-1 8zM297 432l-5 6l-13 -9 zM296 419l6 11l-4 1l-8 -7zM471 201l3 -10l8 2l-1 6zM417 221l6 -1l-4 12l-5 -4l-9 -12zM443 489h-16l-10 5l7 -5l-9 -5l7 -4l12 1zM535 190l-3 -9l1 -9l-6 -18l2 -14l-8 -18l-15 -2l-29 13l-25 12l-25 11l-24 13l-8 -1l-2 8l-16 4l-21 9l-27 12l-24 12l-20 8l-27 14l-31 14 l-29 13l-30 14l-22 11l-24 10l-29 16l-7 13l2 27l4 28l5 21l9 8l12 6l27 11l27 13l15 4l31 14l52 22l21 8l28 14l9 2l19 9l22 8l23 10l33 13l30 13l31 13l27 11l23 10l30 12l17 -4l-3 -33l-3 -32l-7 -30l-14 -14l-9 -6l-13 -4l-25 -9l-15 -8l-35 -8l-6 -8l-19 -8l-30 -12 l-28 -13l-13 -4l-19 -7l-26 -11l-25 -11l-28 -11l-6 -16l36 -17l32 -14l26 -12l13 -3l28 -15l20 -10l27 -13l35 -15l29 -13l26 -14l6 -10z"/>
<glyph glyph-name="equal" horiz-adv-x="558" unicode="=" d="M449 442h2l-2 3v-3zM155 226h3l-2 3zM378 462h-3l-10 -11zM196 466l-6 9l-2 -6zM344 449l-2 -6l10 1zM252 462l-7 5l-8 -3zM404 453l-9 8l7 -10l6 -11zM447 455l8 -6l1 8zM230 472l-11 -1l4 -7zM402 241l3 -6l9 12zM206 447l6 10l-8 4zM434 459l11 8l-12 1zM348 462l1 9 l-7 -15l11 -3zM409 471l-14 2l-1 -4l8 -4zM445 255l11 2l-2 15zM311 270l-1 -8l8 -7l11 2l-10 10zM269 458l-8 2l-8 -10l-7 -5l3 11l-8 -9l4 -13l8 7zM476 468l-8 9l-12 -4l9 -9l-3 -17l12 -1l-2 10l12 -8l5 10l-1 14zM304 466l1 7h-6l1 -9l-9 -2l-11 4l6 -9l13 -2l15 10 l10 -2l-7 -13l-4 11l-6 -20l10 -7l12 -1l-1 11l6 5l-3 19l8 13l-25 -8zM98 421l2 28l2 12l3 13v14l4 13l9 8l14 4h16l32 -3h28l25 1l23 -2l27 2h27l26 1l33 -2l33 1l17 -2l32 1l35 1l35 -2l13 2l35 -4l2 -11l-2 -12l-3 -41l-4 -25l-7 -11l-13 -4l-31 -1l-12 2h-26l-27 1 l-28 -3l-14 1h-26l-12 2l-26 -1h-18l-28 -2l-26 2l-28 -1l-24 1l-27 -1h-23l-20 3l-11 -3l-33 4zM547 295l-2 -13l-2 -14l-1 -14l-4 -32l-12 -13l-14 -2l-15 1h-103l-8 -2l-11 2h-31l-33 -1l-33 1h-27l-28 -1l-27 2l-13 -2l-10 3l-15 -3l-33 2l-33 -2l-14 5l-5 18l3 9l-1 12 l5 24l3 28l10 12h58l12 2l12 -1l24 -1l27 1l20 -1h25l23 1l6 -2l17 2l25 -1l29 -3l21 4l20 -1l23 -2l20 3l14 -1l27 1l11 -3l17 2l13 -2l9 -7z"/>
<glyph glyph-name="greater" horiz-adv-x="558" unicode="&gt;" d="M457 311h3l-3 3v-3zM312 272l5 3l7 9zM162 521l2 -9l1 12zM393 307v-7l5 1zM439 322l13 3l-4 2zM158 538l-11 -2l15 -2zM383 300l-4 -7l7 -1zM463 349l16 5l-12 8l3 -8zM408 325h-9l2 -7l-8 -10l9 7zM146 209l5 -8l9 13zM375 433l9 3l-11 3l-4 -9l2 -7zM285 489l-8 -3 l1 -12l8 9zM509 354l-1 11h11l-17 2v-11zM466 382l-11 -22l11 10h5zM260 484l4 -12h9l-2 10zM445 398l-3 -9l11 2l13 -8l6 6l-6 7l-12 3zM72 211l7 7l17 18l28 10l31 12l15 8l26 10l23 9l25 11l28 11l28 13l28 10l24 11l25 10l16 12l-15 10l-26 10l-31 16l-22 10l-31 13 l-24 13l-26 10l-8 6l-11 3l-23 10l-30 14l-30 16l-7 12l4 29v15l3 12l2 25l6 13l19 1l25 -11l24 -11l29 -16l30 -12l22 -10l21 -10l28 -11l27 -15l11 -3l29 -16l42 -17l8 -7l21 -9l24 -12l24 -9l28 -14l19 -12l5 -14l-2 -17l-3 -16l-5 -33l-11 -14l-13 -6l-27 -11l-26 -13 l-25 -9l-27 -11l-29 -13l-29 -11l-29 -12l-23 -10l-27 -13l-28 -10l-30 -12l-27 -14l-30 -11l-8 1l-27 -15l-30 -13l-26 -9l-11 1l-3 18l2 16l3 31l4 13z"/>
<glyph glyph-name="question" horiz-adv-x="342" unicode="?" d="M200 625h3l-3 2v-2zM288 426h3l-3 3v-3zM183 299l-4 -5l14 8zM336 648l-15 7l4 -5zM246 687h-4l8 -12zM207 288l-10 -10l3 -4zM316 504l-4 10l-4 -11zM285 481l3 -10l5 13zM130 43l18 1l1 5zM362 569l-4 22l-1 -22h5zM301 466l8 -9l2 12zM177 290l-9 5l7 -12l8 -2z M306 545l2 -11l12 2zM285 677l-4 -5l7 -3l3 15l-8 -1zM165 41l8 19l-2 2l-9 -9zM250 674l9 -5l8 10l3 11l-8 -12zM175 85l-17 -15l6 -3l10 10zM174 243v-12l9 9l-15 13l-2 -13zM211 320l9 12l-5 2l-11 6l3 -17l-16 -4l10 -2zM212 65v-12l-1 -15l-5 -29l-9 -8l-12 -3h-38 l-7 7l-5 -6l-18 -2l-18 1l-7 11l-1 15l5 13v14l3 33l4 29l6 11l15 4l15 1l27 -1l31 2l20 -5l2 -13l-4 -20v-15zM388 660l9 -33l2 -15l-1 -31l-6 -32l-10 -34l-19 -38l-12 -8l10 4l-15 -22l-22 -35l-10 -11l-23 -29l-15 -21l-17 -28l-11 -24l-10 -23l-8 -26l-6 -36l-9 -15 l-12 -3h-45l-22 1l-9 12l4 38l6 18v12l3 11l8 28l10 27l11 26l13 24l13 22l20 29l19 30l6 14l9 12l7 15l18 50l1 12l-2 18l-8 16l-12 7h-14l-13 -4l-12 -8l-13 -23l-10 -10l3 -12l-2 -14l-4 -33l-8 -13l-16 -5h-69l-13 5l-4 13l4 27l3 29l6 10l-3 9l11 32l11 24l16 25l10 9 l21 18l23 15l28 11l35 7h32l32 -4l27 -11l26 -19l20 -25z"/>
<glyph glyph-name="at" horiz-adv-x="638" unicode="@" d="M507 47l1 1h-1v-1zM569 484h3l-1 3zM500 166v-3l9 1zM270 254l3 -3l5 5zM508 207l6 -10v5zM161 81l10 -5l-6 7zM246 215l14 3l-5 4zM108 259l1 8l-11 -2zM238 171l12 3l-6 6zM437 187l-7 -4l7 -10v14zM163 114l11 5l-12 4zM253 208l-8 6l-1 -7l13 -1l2 6zM104 178l6 7 l1 9l-8 -11l-4 1zM242 193l-11 -10l6 -3l6 1l-2 3zM249 271h-16l-1 -21l6 4l-2 15l10 -8zM400 326l12 33v15l-6 14l-14 5l-15 -3l-14 -6l-25 -21l-9 -12l-15 -26l-13 -26l-2 -13l-10 -13l1 -36l6 -13l9 -9l29 2l8 7l7 -1l8 15l14 24l13 29l9 24zM654 394l2 -27l-3 -13 l-2 -14l-5 -27l-12 -33l-2 -11l-7 -11l-4 -13l-15 -21l-12 -20l-11 -10l-21 -20l-23 -18l-12 -5l-22 -10l-24 -6l-32 -3l-10 3h-12l-19 7l-13 11l-10 13l-6 16l-15 2l-17 -9l-4 -7l-11 -8l-25 -8l-31 -4l-15 1l-15 5l-14 8l-8 10l-17 22l-6 33l1 17l4 28l7 29l8 17l16 32 l10 10l2 10l8 10l15 9l1 9l9 10l25 21l11 7l29 14l27 5l14 -1l26 -4l11 -5l7 -9l11 -4l15 15h20l12 3l29 -2l12 -3l5 -12l-10 -18l-9 -27l-17 -29l-2 -15l-7 -14l-14 -35l-13 -30l-13 -28l2 -25l10 -9l29 -2l13 8l24 12l6 13l18 22l6 14l9 29l11 41l-1 13l2 13l6 12l-3 7 l-9 41l-9 26l-16 29l-14 13l-17 17l-28 18l-28 13l-18 5l-14 1l-27 1h-23l-14 -3l-27 -5l-19 -8l-23 -11l-28 -18l-27 -17l-6 -8l-16 -17l-15 -19l-16 -21l-13 -22l-4 -13l-12 -24l-8 -24l-6 -27l-3 -29l-2 -30l3 -30l9 -28l10 -29l14 -26l15 -20l29 -28l10 -14l14 -6l9 1 l18 -6l33 -8l29 -3l32 2l15 -1l10 4l25 7l30 11l28 16l15 11l18 -9l22 -30l-5 -17l-10 -8l-22 -14l-29 -16l-32 -11l-28 -9l-18 -2l-34 -5h-29l-27 2l-25 3l-23 7l-12 1l-19 9l-10 2l-8 6l-32 20l-27 21l-17 22v14l-6 -8l-10 9l-10 20l-12 23l-3 12l-8 13l-3 11l-4 24l-4 34 l-2 25l3 14l-2 10l3 13v13l4 28l8 30l9 24l9 21l13 26l12 22l25 34l25 27l20 21l19 12l5 6l31 20l20 12l12 3l18 10l21 7l22 6l35 7l9 -1l26 2l27 -2l40 -5l35 -9l12 -6l23 -12l20 -13l19 -15l5 -8l10 -8l17 -24l17 -30l8 -22l10 -24v-12z"/>
<glyph glyph-name="A" d="M322 215l-1 -2l2 2h-1zM221 538h3l-3 2v-2zM149 337h3l-3 2v-2zM217 434h3l-3 2v-2zM341 143h3l-2 4zM193 398h-9l3 -4zM338 229l-7 -5l6 -1zM330 230l-8 3l4 -7zM310 406l6 3l3 10zM154 291v-4l14 -2zM185 342l-9 -1l8 -6zM349 392l-6 5l-3 -9zM172 288l10 -1l1 7z M226 508l-2 -6l11 -3zM331 122l8 -15l-1 12zM338 517l4 15l-8 -9zM206 555l7 -6l3 10zM279 592l-13 -1l-3 -7zM352 256l-10 -2l9 -7zM340 449l9 -3l-3 7l5 9zM162 320l-4 -13l3 7l15 10zM335 608l9 -1l1 10zM257 636l-6 11l-6 -5zM108 209l-5 -12l9 2zM189 368l-10 -6l14 4 l3 6l-1 3zM332 455l-9 -1l2 -6l8 1zM323 424v-7l5 7l4 14zM348 295l4 10l-13 -6zM197 372l-3 -14l9 5zM347 423l5 12l-11 -4zM335 349l3 -11l-1 -10l7 7zM233 615l15 6l-8 5zM344 418l-10 -4l7 -7h3v11zM218 475l-3 12l-10 -12h13zM317 156l5 -4l6 -1l4 12zM330 401l-9 -13 l17 5zM167 306h5l14 8l-9 4zM264 194l6 4l-2 7l-12 2zM93 217l4 14l1 3v10l-9 -31l-10 2l5 -8zM351 472l-6 14l-7 -1l3 -12zM192 458l5 -5l8 -2l6 15zM338 548h-12l-6 3v-14l8 2l6 -2zM326 296v-25l12 1l7 -8l-2 10h-11l7 6v18h-19zM310 478l2 -9l8 2l6 -7l5 7l-6 7l-12 3 l9 8l7 -6l9 3l9 7l-15 7l-11 -4l-7 14l5 -14l-12 -1l6 -5zM228 260l17 1h15l13 7l3 13l1 27l-2 12l-2 29v26l-2 11v31l2 16l-3 10v9l-5 17l-5 -11l-6 -22l-6 -10l1 -10l-4 -13l-8 -32l-8 -27l-9 -31l-7 -30l1 -20zM410 37l2 -9v-12l-2 -11l-7 -5l-19 -2l-28 1l-13 8l-8 -8 h-41l-11 7l-3 12v23l1 22l-3 10l2 11v24l-1 23l-6 16l-20 -2l-36 2l-31 -2l-13 -6l-7 -27l-8 -24l-7 -27l-5 -24l-8 -25l-8 -9l-15 -4h-62l-27 -1l-10 6l-2 11l1 10l5 10l3 16l9 30l11 33l6 26l10 28l7 29l8 24l10 31l10 34l7 28l5 10l1 9l6 23l12 10l-8 1l6 19l8 19v13 l9 28l9 29l10 27l5 22l3 12l7 20l11 33l7 27l9 34l8 28l7 14l-1 6l4 10l11 7l5 8l18 -1l29 1l25 -4l7 7l18 -3l17 1l17 -2l9 -11l3 -31v-29l2 -31l1 -25l1 -32l5 -23l-2 -12v-24l2 -11l-6 -10l5 -8l-2 -6l5 -7v-16l-4 -4l6 -7l-1 -16l4 -36l-11 -7l12 -5l-1 -10l3 -31l1 -26 l2 -35l-1 -15l3 -23l-1 -12l4 -23l-2 -11l1 -15l2 -38l2 -37l1 -28z" unicode="A"/>
<glyph glyph-name="B" horiz-adv-x="428" unicode="B" d="M234 377h2l-2 2v-2zM153 295l1 -1l6 3zM200 648l-10 -9l-4 -6zM159 558l-7 2l-1 3v-8zM110 250l-2 9h-5zM103 121l1 -8l6 1zM138 384l9 8l-12 -4zM405 515l-6 9v-9h6zM238 672l-3 9l-7 1zM402 440l4 7l-4 8v-15zM364 198l3 -5l5 12zM147 238v9l-8 -5zM214 706h-8l-2 -9z M169 421l-1 9l-9 2zM340 417l3 -7l6 13zM138 511l9 13l-11 -6zM377 477l-2 -9l11 5zM271 388l-6 5l-5 -11zM267 629l1 9l-13 -6zM391 540l-10 8l-4 -8h14zM385 416l-8 -4l4 -5l11 8zM339 160l2 -10l10 1l-5 6zM382 446l11 4l-17 6zM136 347l9 -1l6 4l-1 6zM289 346l14 9 l-12 2zM176 393h9l9 9l-13 -3zM373 434l-15 5l1 -10zM253 667l-3 8h-7l1 -10zM417 487l5 4l5 2l-15 7zM182 413l4 17l-12 -13zM174 558l14 -3l-6 13zM222 604l3 13l-13 -1zM117 214l-6 -14l9 -4l9 11l-10 -9zM391 395l8 -7v13l-9 3l-1 -7l9 3zM200 641l11 -4l4 10h-9z M324 357l-9 -1l-6 -15l9 5zM132 211l3 6l16 5l2 3l-8 1l-11 -6l-9 -11zM123 237l-23 5l1 -9h12zM208 659h-7l-11 -3l17 -5l9 6l3 7l-1 10l-1 -10zM226 467v-14l7 2l-2 -13l2 -17l35 -1l24 4l19 12l7 11l12 22l1 13l6 30l1 31l-4 30l-13 26l-25 4l-14 6l-9 -4l-14 1l-8 -3 l-3 -10v-28l-6 -18l1 -12l-2 -33l-7 -36zM309 190l-1 20l9 6l-10 -4l1 15l2 25l-3 13v25l-24 21l-14 4l-32 2l-17 -5l-7 -16l-6 -58l-5 -30l-6 -56l-3 -31l9 -9l31 1l15 -4l9 7l13 3l13 11l8 15l11 34v8zM442 240l-3 -11l-2 -13l-1 -14l-4 -35l-5 -25l-11 -36l-14 -27 l-18 -24l-12 -11l-24 -19l-27 -13l-22 -7l-24 -4l-26 -1l-27 -1h-32l-27 -1l-40 2l-29 -1h-36l-11 14l1 29l4 25l5 34l4 31l6 2l3 9h-8l-2 10l5 7v13l4 28l5 33l2 27l3 22l2 31l7 35l4 34l-1 13l4 14l4 31l3 30l4 30l7 -2l-6 4v11l5 31l1 31l5 32l5 29l2 29l5 33l6 17l15 7 l14 1l22 -2l37 2l20 -3l20 2l28 2l29 -2h30l31 -6l31 -14l8 -8l22 -15l7 -11l13 -22l9 -37l-3 -10l3 -24l-2 -37l-5 -39l-7 -34l-8 -24l-16 -26l-21 -24l-13 -10l-3 -16l15 -13l2 -5l10 -11l12 -29l2 -18l3 -4l1 -22v-24z"/>
<glyph glyph-name="C" horiz-adv-x="416" unicode="C" d="M75 118h2l-2 2v-2zM364 192v-3l2 1zM143 410l11 -4l5 -1zM108 161l6 27l-3 -10zM148 216h-8l10 -4zM394 620l-3 11l-3 -1zM295 632l4 -8h5zM137 557l-5 11l-1 -6zM103 270l5 4l-6 4zM216 58l-3 11l-3 -5zM79 141l10 -1l-9 7zM176 13l12 21l-9 -10zM259 647l12 -3l-9 8z M287 97l-5 8l-4 -8h9zM201 550l-9 -1l-8 -1l10 -3zM123 187l-4 -9l10 4zM385 540l-7 -4l10 -5zM159 48h5l-8 15zM124 445l-3 -13l8 7zM336 471l-5 5l-7 -10zM116 63v-11l8 4zM133 221l3 6l7 3l-18 -4zM149 166h-9l11 -10zM88 200l5 8l-11 3zM120 197l-14 4l2 -8zM152 441 l-19 9l7 -9h12zM173 610l7 5l5 9l-12 -8v-6zM145 556l-1 -10l11 -1zM148 472l12 8l-21 -4zM108 312l2 -4l14 8l-5 2zM109 480l-3 -8l-6 -8l15 10zM123 144l1 -8l9 11h-10l-6 5zM208 53l-14 -3v-4l11 -1zM138 460l-9 -1l-20 -7l23 4l10 -3zM182 69l-9 7v-8l12 -11zM97 75l9 4 h4l-4 5l6 7l-18 -5l9 -2zM95 138l-14 -13l22 5v7zM94 397l14 15l-8 7l-7 -11zM58 160l8 -1l5 -4l3 -13l6 5l-8 19zM122 116l-7 -13l8 3l-6 -13l14 2zM192 606l12 -3l9 10h-6l-10 6zM130 121l7 -19l7 3l2 -3l8 17l-9 -8zM160 518l-7 2l-8 -14l9 -11zM90 230l10 -6l6 -10l10 8 l-5 13l-12 -8zM135 289l9 3h10l-5 7l-11 7l-9 -1l4 -5zM176 445l-12 -2l-9 2l7 -4l2 -6l-7 -7l5 -9l3 -6l18 8l-13 11zM134 485l-11 -1l-6 -9v-7l6 6l7 -7l-1 10l10 4l5 10l-12 15l10 7l-7 14l2 -8l-9 -7l-1 -23l5 10l10 -10zM319 453v18l2 8l-1 12l3 14l4 32l2 31l-8 28 l-9 15l-19 4h-14l2 21l-8 1l2 -22l-24 -12l-16 -17l-7 -16v-13l-3 -11l-3 -22l-3 -25v-21l-3 -8l-4 -32l-3 -30l-2 -26l-4 -25l-4 -27l-2 -25l-3 -12l-1 -22l-3 -13l-4 -34l-5 -25v-14l-2 -27l2 -25l15 -18l11 -5l30 -4l25 14l15 26l3 12l1 21l3 12l2 22l4 21v10l3 23l10 18 l14 3h41l29 1l12 -3l9 1l12 -6l2 -6l-1 -17l-4 -38l-2 -23l-5 -26l-1 -20l-4 -14l-8 -25l-11 -25l-12 -23l-20 -20l-22 -20l-28 -17l-32 -13l-36 -4l-22 -2h-25l-26 5l-29 6l-14 6l-10 9l-19 12l-22 26l-3 20l-4 2l-10 12l1 18l-10 21l2 25l4 27l-1 12l3 32l4 32l4 17v13 l4 27l4 38l4 35l6 11l-4 12l8 14h-3v19l4 22l2 26l4 32l5 27l-1 10l8 19v14l4 11l13 31l20 31l16 16l26 22l10 4l15 11l27 9l28 7l21 1l12 3l26 -1l26 -2l24 -6l25 -13l23 -19l23 -25l9 -15l1 -14l5 -13l6 -30l-1 -32l-4 -33v-20l-6 -29l-1 -21l-12 -18h-15l-29 -1l-30 -1 l-29 1zM129 386l7 1l-7 14l10 13l-16 -9l4 -7l-9 -13zM129 386l-6 -8l7 -2z"/>
<glyph glyph-name="D" horiz-adv-x="440" unicode="D" d="M413 308h3l-2 4zM55 31l7 -9l-3 10zM436 362l-10 8l-2 -3zM167 91l-11 -21l8 11zM287 693l-13 -5l4 -3zM436 439l-7 5l-1 -8zM171 603l-7 6l-7 -4zM428 320h9l1 8zM397 551l-1 15l-3 -17l-6 -6zM413 381l-9 -9l7 -2zM202 596l7 5l-14 2zM126 177l-8 -3l11 -7zM444 567 l-6 9l1 -8l-3 -10zM412 583l-6 -6l11 -6zM394 521l-8 10l-8 -6zM421 531l-10 8l5 -17zM391 659l-7 10l-2 -16zM175 589l3 9l-8 -4l-11 -5h16zM388 572l14 11l-18 -1zM374 475l4 -10l7 9l-3 8zM368 492l3 -8l8 12l-3 9zM333 686l-6 -6l2 -5l-1 -9l9 7l4 10l-10 -5zM405 622 l-7 3l-7 -3l-10 4l16 -13zM397 414l1 -14l10 8l-5 14l2 -8l-12 8zM385 490l7 4l13 4l-10 -2l-7 10l-8 5l4 -12l-4 -8zM387 431l6 18l-5 4l-11 -13zM416 503l13 4l-3 9l-12 1l-4 -6zM369 404l2 8l6 12v12l-9 -1l-1 -17zM441 520l6 12l-2 15l-14 -4l7 1l4 -7l-1 -10l-10 2 l-3 -7l1 -8zM437 621l-18 -3l-10 6l1 -8l9 -3l9 -11l12 -2l-10 17zM413 438l-6 5l5 -12l10 9v10l-11 12l-12 4l-7 7l11 -13l13 -15zM421 556l8 14l-10 -12l-11 -2l7 -3l-13 -10l19 6l-5 -5l3 -4l17 -9zM428 484h10l-16 9l-21 -3l4 -11l10 -1zM321 668l-16 -3l3 -8l19 -8 l3 -15l13 5v6l-11 2l12 7l-12 7h-9zM341 477l-1 9l7 19l-4 11l6 15l-2 14l1 19l-7 27l-9 9l-10 1l-36 8l-14 -1l-19 -5l-3 -17l-5 -33l-4 -34l-2 -24l-6 -31v-19l-6 -33l-2 -30l-5 -25l-2 -24l-4 -30l-3 -34l-5 -34l-4 -30l-2 -32l-6 -34l1 -21l18 -5l14 1l27 3l13 5l21 15 l9 22l6 24l3 26l3 27l5 23v12l3 10l-1 10l3 25l4 13l-1 19l2 13l4 27l5 36l4 28zM447 269l-3 -31l-2 -22l-5 -23l-5 -29l-7 -30l-10 -26l-16 -28l-19 -25l-18 -15l-20 -14l-28 -14l-27 -9l-23 -3l-26 -2l-26 1l-27 1l-14 -2l-28 2l-22 -1h-59l-11 3l-3 9l5 11v14l-3 11l3 11 l1 17l7 40v23l4 26l15 15l-12 6l4 22l1 22l3 13v12l6 21l-1 16l3 22l5 43l4 34l4 33l5 17l-1 19l2 12l2 24l4 25l3 32l5 33l4 29l5 31l2 33l3 12l1 21l7 9l36 5h20l11 -2h26l27 1l36 -2l32 2l33 -4l31 -8l7 -5l15 -5l14 -9l4 -9l13 -6l8 -9l-7 -14l11 7l10 -16l3 -13l6 -12 l4 -19l2 -30l-2 -13l-1 -34l-4 -32l-7 -8l-12 2l18 -5l-2 -19l-3 -30l-3 -22l-9 -11l5 -23l-5 -29v-14l-6 -32v-9zM421 602l2 2l-9 3l-6 -11l-4 -6l7 -3l4 10zM421 602l-1 -13l9 6z"/>
<glyph glyph-name="E" horiz-adv-x="392" unicode="E" d="M136 519h3l-3 2v-2zM265 331h3l-2 3zM431 658h3l-2 3zM144 491l-8 -5l4 1zM207 511l-2 4h-5zM162 70l-3 5v-11zM168 482l11 8l-7 -2zM267 370l-5 3l7 -5l6 11zM203 623l-5 8l-4 -5zM143 251l-7 -3l13 -3zM204 616l2 -9l5 8zM167 586l1 6l-10 2zM135 97l5 -8l4 6zM154 408 l-9 -5l4 -13v11zM151 499l6 -6l-2 10l-4 5v-9zM130 325l-4 9l-4 -12zM176 96l8 -3l-7 7l-13 1zM108 351l7 6l-9 5zM145 109l-11 -1l4 -8zM337 51l-2 -13l7 -1zM252 391l-9 5l3 -12zM156 251l8 -1l7 3l-10 3zM197 597l-5 18l-4 -6zM145 534l5 -16l4 10zM188 621l-8 1l-4 6 l4 -15l-5 -7zM179 535h-13l1 -11zM118 243l4 18l-10 -9zM128 401l-11 -9l9 -6zM217 657l-2 -10l-5 3l10 -9l8 8l-8 -1zM113 167l2 -14l10 11zM167 342l7 -1l9 7l-7 4zM138 418l-10 -5l-3 -7l14 4zM190 510l10 -4l-13 15l-5 -12zM135 320l1 -18l6 2l1 10zM197 471l-9 -2 l-3 -6l8 -8zM181 313l4 10l6 6l-15 -7v9l-9 -6l13 -6zM186 585l-10 -8l9 -6l7 4l-4 5zM172 440h-12l-4 -13l7 2l7 6zM185 349l12 -6l7 10l-7 10v-6l-4 -8h-8zM141 505l3 10l-13 -8l5 -12l12 14zM145 551l2 12l-7 -10l5 -14l13 1zM164 342l-13 -8l6 -6l-4 -9h9l-1 11z M235 640l-4 -2l-4 -2l-2 -8l-11 -3l2 -8l9 5v-7l9 -2l-6 7l7 9v11zM194 405l-2 -8l-9 -1l-3 8l-4 1l-8 -7h7l6 -8l10 -6l7 -1l-2 9l9 -1l4 9zM380 70l-4 -29l-3 -21l-3 -12l-9 -8l-31 -2l-13 2h-27l-23 -2l-21 3l-16 -3l-12 1l-27 -1l-31 2l-29 -1l-21 1h-49l-11 5l-3 18 l3 27l3 35l4 29l3 30l5 23l4 28l1 31l4 28l5 26l-2 8l6 34l4 31l3 28l5 19l-2 15l5 23l2 31l5 26l3 28v22l4 11l-1 12l4 13v12l4 25l4 30l4 28l4 22v12l9 10l13 3l19 -1l13 2l11 -2l17 2h116l27 -1l37 -1l37 2l6 -6l9 2l5 -19l-4 -11l2 -8l-3 -16l-4 -26l-6 -27l-15 -8 l-17 1l-28 1l-9 -2l-17 3l-6 -2h-37l-28 2l-16 -2l-10 -5l-5 -13l-2 -29l-3 -8l-3 -20l-1 -26l-3 -27l-5 -32l6 -14l12 -2l12 1l31 2l10 -2l25 -1l26 1l10 -6l2 -13l-4 -13l1 -13l-3 -29l-4 -27l-8 -10l-15 -4l-16 1l-37 -2l-17 3l-11 -1l-29 -2l-9 -18l-3 -25l-6 -2l6 -8 l-4 -14l-2 -27l-3 -26l-5 -21l1 -9l-2 -14v-29l14 -4h63l8 2l8 -1l26 -1l26 2l24 -2l18 -6l1 -10z"/>
<glyph glyph-name="F" horiz-adv-x="397" unicode="F" d="M150 513v-2l3 2h-3zM139 400h3l-3 2v-2zM231 391l-6 7l-1 -2zM225 670l-8 3l-3 -2zM156 410l-5 -6l7 -5l-5 5zM166 645l-6 12l-12 -9l11 7zM137 562l1 9l-6 -6zM236 664l7 -10l-3 11zM190 422l-6 -6l17 8zM134 368l-8 2v-8zM120 272l-4 -5l12 2l-11 6zM146 531v-8l9 13z M221 603l-4 -9l10 4zM160 543l4 -6l5 11zM134 325l-11 3l-3 -6zM150 668l-17 -7l9 -1zM218 642l5 6l5 3l-12 -1l-7 4l8 -6zM179 567h10l-4 9zM238 360l-5 -13h7zM313 359l13 8l-13 -1v-7zM160 472l3 -12l6 9zM202 522l-3 -13l9 6zM236 374l-3 12l-6 -10zM177 616l6 10l-9 2z M183 642l14 5l-8 5zM124 305l7 -5l6 6l-13 3v-4zM196 367h8l-1 10l-2 10zM311 342l12 11l5 3l-9 4zM148 462l-7 -3l2 6l-9 -9l8 -2l9 1zM213 671l-10 -5l-3 -12l11 11l7 -9zM221 623l-16 -7v-8l15 4l-5 5zM162 514l-5 -10l4 -9l12 13zM255 382l-11 10l1 -11l16 -9l2 11l12 4 l-5 5zM452 661l-5 -23l-2 -14l-5 -12l-11 -6l-10 4l-4 -5l-20 1h-64l-31 1l-36 -1l-10 -8l-6 -32l-2 -28l-4 -27l-6 -33v-13l-4 -24v-12l-4 -8l7 6l14 1l31 -1h54l33 -4l4 -10l-1 -25l-3 -12l-3 -23l-6 -35l-12 -7l-12 -1l-31 4l-36 -4l-28 6l-11 -2l-13 -13l-3 -34l-3 -27 l-4 -25l1 -10l-6 -26l-4 -25l2 -12l-6 -29l-4 -32l-3 -27l-4 -34l-4 -12l-10 -8l-24 -2l-28 2l-41 -2l-21 5l-4 11l3 28l3 25l2 35l5 23l-1 12l4 29l12 93l4 27l3 27l3 31l4 11v13l4 33l5 27l4 1l-3 13l2 12l-1 15l4 14l4 22l-1 13l3 33l5 33l7 24l-2 18l6 34l1 27l9 30 l16 6l12 -1l26 2h32l30 -1h94l8 -11l7 11h48l33 -1l12 -9l-2 -15z"/>
<glyph glyph-name="G" horiz-adv-x="439" unicode="G" d="M74 119l1 -8h3zM139 262l-6 -2l8 -2zM76 159l4 -7l-3 -8l5 10zM96 236l-7 -7l7 -1v8zM114 145l-1 -7l8 4l5 1zM138 168v-11l7 2zM119 99l-5 7l1 -12l13 7zM119 389l7 11l-12 -5zM132 51l-7 -3l14 3l-2 11zM137 323l-5 14l-3 -15zM242 33v-9l8 11l-1 6zM104 311l-5 -6 l-3 -7l13 8zM143 96l1 8l5 6l-9 -5l-5 -23zM112 246l-10 -1l13 -5l7 2l-5 9zM103 170l8 5l13 -4l-2 7l-8 4zM232 59l-13 1l-10 -7l8 -2zM98 291l7 -4l8 7l-5 7zM132 274l5 3l-8 11l-8 -6zM220 40l-22 -5v-8l11 3zM160 63v22l-8 -17l-7 -7zM113 53h7l4 -1l4 14l-12 -4l-9 1 l2 -12l11 -6zM91 78l8 -2l9 -3l15 7l-2 4l-5 3zM160 29l6 11l10 4l-6 10l-8 -13l-8 -2l-10 8l5 -12zM75 104l10 -6l3 8l8 -4l4 7l-3 8l-10 6v-14zM94 159l-2 -7v-7h-7l6 -11l7 4v6l4 11l1 13l-6 -6zM102 360l-14 2l10 -5l5 -15v-8l8 14l16 2l-6 6l-12 -3zM113 118l15 4l13 5 l-6 7l11 1l6 9l-16 -2l-4 -4l-6 -13l-7 1zM405 87l-3 -10v-15l-3 -14l-3 -27l-9 -20l-26 -2h-28l-10 13l-4 16l-14 2l-24 -19l-26 -13l-27 -7l-28 -3h-28l-40 8l-10 6l-20 9l-19 17l-15 19l-12 23l-9 25l1 7l-4 9l3 8l-2 11v21l1 19l2 24l3 29l5 30l4 16l-1 20l6 33l4 27v14 l5 29l-1 15l5 9l1 25l7 9l-5 14l6 39l3 28l3 30l7 29l10 28l15 27l17 23l21 20l23 16l29 17l18 4l35 8l32 1l32 -2l33 -8l19 -11l20 -11l22 -23l19 -35l6 -22l4 -30l-1 -32l-2 -28l-1 -20l-4 -29l-5 -13l-10 -9h-39l-34 -1l-24 3l-8 -3l-10 11l3 36l3 39v23l-5 23l-6 10 l-10 8l-14 5h-15l-15 -6l-13 -10l-10 -13l-9 -27l-4 -35l-2 -23l-7 -40l-4 -34l1 -11l-6 -33l-4 -29l-10 -3l10 -6l-4 -29l-4 -34l-4 -31l-3 -24l-10 -10l8 -9l-6 -16l1 -19l2 -32l4 -12l7 -10l13 -9l16 -2l26 4l14 7l10 11l13 25l2 12l2 26l7 26l-1 8l3 29l-8 7l-20 2h-27 l-11 16l1 14l5 24l1 26l4 14l14 13l11 -2l13 1l26 1h28l29 -2l14 2l12 -1h34l11 -5l2 -26l-3 -9l1 -12l-6 -36l-2 -26l-5 -35l-5 -31v-13l-3 -26l-5 -28l-4 -27z"/>
<glyph glyph-name="H" horiz-adv-x="465" unicode="H" d="M416 299l2 1h-2v-1zM247 373v3l-1 -2zM149 265h3l-3 2v-2zM336 235h2v4zM164 624v4l-3 -4h3zM443 581l-8 -1l-12 -5zM380 468l2 -10l5 1l-1 2zM440 671l9 -5l2 6zM385 474l8 12l-6 -1zM129 360l-5 -5l7 -6zM333 365l1 9l-8 -5zM414 516l9 1l-17 6zM140 187v8l-9 -19z M446 581l-3 10l-6 -5zM165 377l3 9l-9 -1zM205 490l-9 -1l9 -8v9zM380 320l-8 -20l8 9v11zM233 360l-1 8l-10 -11zM394 322l7 -4l4 3l2 5zM346 370l8 1l9 -2l4 7zM378 490h11l-14 9zM409 642l4 4l-3 6l-7 -3zM198 332l18 2l-7 5zM149 288l11 5l-2 5l-7 -3zM379 295l3 -7h8 l2 4zM205 583l8 -10l-2 12l-3 7zM160 418l10 9h-15zM174 418l9 5v8l6 4l-16 -4l7 -6zM436 522l1 9l-7 -3l8 18l-13 -21zM418 664v9l-8 5l-1 -14h9zM399 594l-8 5l-5 -14l4 -2zM414 431l4 -7l9 -5l14 3l-14 3zM392 524l4 19l5 6l-13 -5zM311 386l-7 -14l11 13l6 6l-17 5z M363 285l-3 -12l11 -1v13h-8zM410 604l-7 8l-2 -9l3 -18zM347 368l-4 -11l-7 -8l15 -4l-1 23h-3zM369 363l-5 -5l-7 -8l1 -11h-6v-10l4 7l6 1l1 11l7 4zM376 372l5 -11l12 -3l-12 26zM147 369l-5 -9l7 -16l9 7l-9 14l1 12l-12 -4zM362 397l6 -6l2 -3l26 -3l9 6l4 -10l4 6 l-12 7l-7 -3l-12 1l-8 -2l-2 11zM461 631l-7 14l-12 -4v10l-14 -6l-3 -13l7 1l5 9l-1 -9l16 1zM253 368l-3 -3l-5 -5l-10 -3l7 -14l4 12l11 10l12 1l9 3l-12 21l-4 -7l9 -7zM417 474l-4 -6l5 -10l-1 7l10 4l12 -3l-6 20l-10 -9l-10 13l6 7l-15 -9l6 -11zM434 121l-4 -26 l-2 -22l-2 -20l-5 -25v-13l-6 -11l-11 -5l-11 1l-11 -2l-2 5l-15 -5l-29 1l-27 1l-16 4l-3 19l2 14l3 27l6 41l2 26l5 30l3 30l3 34l3 12v14l3 10l2 25l-4 18h-24l-27 2l-11 -2l-13 2l-14 -1l-13 -4l-6 -21l-1 -29l-5 -27l-4 -31l-3 -31l-4 -32l-4 -31l-3 -31l-4 -30l-7 -29 l-7 -8l-14 -2l-29 -1l-26 2l-22 -2l-15 1l-11 5l-4 12v15l5 29l3 19l2 26l3 14l4 29l2 28l3 24l5 24l2 33l3 30l3 13l4 32l2 20l5 33l5 29v25l3 11v15l5 32l2 31l4 13l1 27l3 12l4 25l2 26l5 24v13l4 18v14l3 14l12 9h23l33 1h42l14 -4l8 -11l-5 -15v-14l-4 -29l-3 -29 l-4 -24l-2 -27l-6 -27l2 -12l-5 -9l2 -9l-6 -22l1 -21l-5 -28l1 -13l10 -5h32l4 -7l15 -1l-5 9h12l23 -2l12 3l8 19l1 14l4 12l-1 12l2 23l4 13l6 41l-2 11l8 49v18l4 26l5 24l7 9l-8 -5l2 16l7 10l16 3l26 3l10 -2l12 1l25 -1h23l10 -4l2 -16l-6 -32l-6 1l5 -20l-2 -18 l-2 -23l-4 -25l-1 -24l-4 -15l-3 -31l-5 -27l1 -8l-3 -13l-4 -30l-3 -35l-5 -38l-4 -35l-6 -36v-12l-2 -29l-4 -11l-1 -22l-4 -18l-3 -24l-4 -35l1 -9z"/>
<glyph glyph-name="I" horiz-adv-x="219" unicode="I" d="M173 579h3l-2 2zM161 191h2l-2 3v-3zM157 269l-4 15l1 -8zM140 380l-4 -1l13 -5zM143 176l-9 -1v-5zM178 612v9l-6 -5zM233 691l-14 1l-1 -4zM133 247l-1 -6l10 3zM181 433l5 6l-9 1zM131 206l-7 -1v-9zM180 394l2 -9h7zM124 513l-2 10l-6 -4zM173 278l-11 -8l6 -2z M135 116l9 5l9 -5l-5 9zM189 470v8l-9 -10zM155 484v10l-8 -11zM123 142l-8 -8l5 -6zM142 613l1 -8l10 9zM142 401l-9 -8l8 -3zM121 450l1 -9l9 12zM168 377l-7 9l2 -16zM202 585l5 -10l6 7zM118 152h8l2 8h-4zM173 519l7 -9l-2 -10l9 4zM118 539l-4 -9l-2 -1l10 -3z M186 579l-5 14l-5 -8zM178 552l7 5l-7 6l-3 -4zM154 332l8 -9l1 7l-8 7zM136 348l10 -1l9 2l-9 5zM161 180l-11 -18l15 11zM141 287l-8 -4l-6 -1l1 -12zM176 484v11l-11 -4l-9 -12l15 11zM151 367h-12l-3 -9l11 -1zM103 131l-1 -8l9 12l-4 9l-11 -8zM147 443l-8 8l-4 -8 l1 -14zM196 614v-12l8 -8l6 6l-2 4zM162 524l-5 11l-9 -9l2 -13l2 7l12 -7l5 10zM114 303l-10 -7l8 -6l13 -6l-5 6l6 27l-5 -7l-4 7zM213 675l-23 -4l-2 -8l-5 -13l11 7l13 4l1 9l10 6l-7 7zM193 153l-8 -64l1 -13l-4 -31l-9 -37l-8 -9l-25 -1l-8 3l-10 -2l-32 1h-29l-13 6 l-2 17l2 17l5 26v20l3 16l2 24l5 30l1 24l4 35l4 14l3 29l5 20l6 7l-9 -1l4 19l1 18l4 10l2 31l5 18l-2 6l2 19l4 32l3 31l4 15l2 34l5 12l-2 14l5 23l-1 9l4 26l2 27l4 12l1 27l4 16l4 27l8 11l12 3l35 -3l39 3l23 -2l3 -12l5 10l6 -10l-4 -26l-2 -30l-4 -11l-1 -19l-3 -28 l-5 -27l-1 -28l-3 -10l-3 -33l-3 -12v-14l-4 -26l-3 -32l-4 -15l1 -10l-4 -19l-4 -30l-5 -23l2 -13l-9 -8l7 -3l-3 -28l-4 -28l-3 -31l-2 -26z"/>
<glyph glyph-name="J" horiz-adv-x="418" unicode="J" d="M321 579h3l-3 2v-2zM321 413h13l-13 1v-1zM349 257l-4 1l-6 -3zM106 29l-4 -7l11 11zM100 59l3 -1l8 9zM274 53l5 3l-10 3zM348 374l-9 -2l-3 -6zM151 94l-3 7l-5 -7h8zM384 263l-2 7l-7 -4zM138 85l7 -17l1 6zM213 39l3 -8l5 7zM368 497l-5 8l-3 -8h8zM358 330l5 4l12 1 l-15 2zM137 40l-6 -9l6 -2v11zM150 86l9 4l-13 2zM314 118l3 5l-8 -10l8 -4zM65 223l-8 -7l14 3zM109 220l-7 -10l5 -4zM310 153l-3 -8l15 13zM137 45l12 1l-9 1v20zM359 446l10 7l-15 -6l6 -9zM336 290l-6 -6l11 -3zM67 107l-9 -4l6 -7zM100 199l-13 -2l9 -6zM374 367l7 12 l-9 -6l-4 -5zM369 386l7 6l3 11l-6 -6zM115 196l-1 -11l10 9zM99 101l2 -10l7 4l7 -1zM334 396l3 8l-12 -6l4 -5l-1 -3zM250 57l10 -7l-6 17zM313 329l-11 -7l16 -2zM344 303l5 -15l14 -2l-15 10zM115 256l-5 8l-9 -6l8 -1l-6 -7zM98 142l2 -11l3 -11l3 15zM328 178l-11 8 l5 -6l5 -11l10 6zM353 383v8l-8 -7l-5 2l2 -9l9 5l8 -15zM129 148l-1 8l11 2l-6 5l-15 -6zM201 42l-1 -8l14 9l-2 12l-1 -8l-6 3zM159 52l3 -12l9 3l5 -4l-6 14zM147 265l-9 -7l-9 -12l2 -13l-3 -8l6 9l1 9zM135 180l-10 5l-6 -14l17 -7l-7 11zM126 68l-7 -4l3 -5l1 -9l1 9 l8 -1l5 11l-14 5zM215 63l10 -13v-8l7 10l-3 8l-13 11zM188 21l8 10l-3 11l7 13l-10 -10l-1 -13l-5 -6l-8 11l-7 -6l8 -1l6 -11zM123 96l-7 -18l15 12l-3 -8l8 6l7 14l-2 5l-9 -1zM436 519l-3 -29l-4 -22l-2 -31l-4 -25l-4 -35l-5 -35l-2 -28l-3 -16l-5 -27v-11l-3 -31 l-5 -27l1 -12l-4 -12l-4 -33l-8 -33l-13 -25l-16 -24l-16 -20l-20 -16l-21 -17l-14 -5l-20 -9l-29 -7l-27 -1h-28l-36 6l-10 5l-20 7l-16 13l-17 17l-10 15l2 8l-14 14l-4 7l-6 28l-3 29l2 27l6 26l-2 11l3 14l4 32l9 10l-5 33l7 16l13 7h64l35 -3l6 -13l1 -16l-2 -23 l-3 -13v-13l-8 -31v-10l-2 -32v-22l7 -14l23 -17l27 5l19 13l10 23l5 26l8 56l3 28l3 25l4 26l2 30l3 29l6 25l-2 13l5 22l3 30l3 28l4 28l4 33l5 32l1 31l4 11l1 13l2 25l4 24l2 24l7 11l10 6l22 -1l15 2l19 -2l17 1h33l8 -10l-2 -26l-3 -26l-3 -27l-2 -27l-4 -13l1 -12 l-6 -24z"/>
<glyph glyph-name="K" horiz-adv-x="434" unicode="K" d="M231 333h2l-1 2zM203 288h2l-2 2v-2zM270 369l4 -1h5zM338 273h2l-2 3v-3zM190 502h3l-3 2v-2zM149 379h3l-3 3v-3zM278 467l-7 10l-3 3zM169 475h9l5 1zM147 376l-5 -2v-4zM272 321l9 3h-9v-3zM310 391l7 2l-7 2v-4zM109 225l-4 16v-8zM297 431l6 2l4 7zM192 471l2 13 h-3zM151 508l9 -3l-9 8v-5zM167 388l-1 10l-10 7l6 -5zM252 378l-12 -1l12 -3v4zM302 421h10l-6 5zM305 496l-8 3l-5 -6zM217 539l-9 2v-7zM287 286l-8 -4l10 -3zM149 197l-9 1l4 -8zM113 369l-5 6l-2 -12zM164 362l-6 5l-7 -1l8 -5zM311 292l3 -13l4 8zM200 312l1 10l-9 -8 zM175 235l-3 6l3 -13l9 2zM315 523l-7 -7l3 -9zM164 233l-10 -3l2 -8zM108 109l9 1l-2 10zM261 381l-7 -9l12 2zM230 392l6 -5l9 4l-9 -1l5 7zM132 212l-8 -1l12 -11zM156 251l-5 -11l5 6l11 -4l-7 8zM160 261l17 -5l-1 14l-3 -9h-13zM174 336l-1 10l-13 -5zM288 296l-11 -9 l12 5l6 14l-8 -4zM120 343l9 -7l-1 6l7 4l-4 6zM99 159v-9l7 2l5 -4l3 9zM110 173h10l1 9l-3 2l-10 -7l-5 -9zM207 359l-3 -10l-2 -14l12 14zM220 348l9 -3l7 10l-3 3l-12 4l1 -8l9 -3zM170 213l8 -1l7 5l4 5l-14 2zM216 374l14 -6l2 10l7 -1l-9 6zM166 292l-12 2l2 -9 l-9 -11l10 5l8 -2l-5 6zM134 104l12 2l16 2l-15 3l-8 9l-1 -9zM128 325l-12 -1l-5 -14l9 6l9 -1zM317 493l8 4l-2 8l-16 -9l12 -11zM303 459l-11 -2l2 -6l-3 -5l9 3l5 -5l9 -3l-2 11zM121 279l-3 -17l9 -14h6l-10 13l-1 15l10 -9v11l8 8zM157 301l-23 4l-3 -7l-3 7l-8 -7 l12 -10l11 5l-7 4zM127 388l13 5l11 -1l-3 15l-11 -11l-2 7l9 6l-25 -11l7 1zM425 31l1 -12l-8 -17l-10 -4l-19 1h-29l-27 -1l-9 2l-10 -2l-11 2l-13 9l-1 12l-5 25l-4 24l1 18l-4 7l-3 19l-6 32l-4 22l-4 27l-3 26l-8 36l-3 25l-13 -5l-11 -17l-15 -26l-6 -28l-6 -18v-22 l-3 -32l-5 -29l-4 -30l-2 -30l-4 -27l-4 -13l-14 -6l-17 -1h-30l-28 1l-29 2l-9 8l-1 15l4 30l4 29l5 27l2 26l3 22l2 22l5 26v16l4 27l4 28l2 27l4 12l-1 12l3 9l-1 12l2 13l4 27l3 27l3 30l7 37v20l4 34l4 28l5 32l1 24l5 15v17l3 15l2 33l4 14l11 7l12 3h28l39 -2l24 2 l13 -7l3 -17l-4 -33l-6 -30l-2 -26l-5 -27l1 -21l-4 -14l-5 -27l-2 -32l2 -16l12 13l9 17l17 31l15 32l14 25l13 25l15 27l11 21l13 24l12 24l7 7l17 3h33l34 2l34 -5l7 -8l-11 -24l-12 -22l-12 -20l-13 -23l-3 -11l-13 -19l-11 -23l-15 -24l-28 -52l-16 -26l-16 -31l-2 -17 l4 -8v-12l3 -11l2 -27l5 -7l3 -19l-8 -13l13 -16l6 -26l5 -30l6 -29l5 -30l6 -34l4 -19l3 -23l7 -21v-12l9 -42z"/>
<glyph glyph-name="L" horiz-adv-x="370" unicode="L" d="M200 262h3l-3 2v-2zM109 17h3l-3 3v-3zM221 82l-9 1l-7 -2zM141 200v-4l8 2zM227 44l-1 -11l4 11h-3zM214 534l-9 8l-3 -1zM260 56l-4 -8l4 -1v9zM220 41v8l-5 1zM126 102l-7 -12l8 7zM176 10l9 1l1 6zM156 328l4 10l-5 1zM130 173l-5 -8l12 8h-7zM76 107l14 -3l1 4z M110 204l-8 1l2 -8zM225 67l-9 5l2 -8zM176 260l5 -6l7 5zM107 258l6 6l-11 1zM323 82l-6 6l-5 -8zM138 72l2 13v5l-5 -9zM108 72l-13 -1l-1 -7zM172 495l-5 -8l-11 -3h9l7 -5l-3 7zM285 89l-7 8l-2 -12zM115 153l6 -7l5 11zM153 169l-2 -10l12 7zM134 432v-7l11 -6l-3 7z M122 45l-5 -6l6 1l6 5l-9 7zM201 53l3 -9l11 6zM196 448l-13 1l7 -14l-1 7zM191 61l5 11l-13 -2zM269 40l8 -5l10 9l-10 -5l4 9l-9 -2zM184 375l-9 8l-11 -3l8 -6zM235 52l7 -20l2 11l-1 11zM297 68l4 17l-15 -8zM102 92l-8 -9l7 -5l10 20zM147 389l18 5l-6 6l-9 -1zM103 30 l4 9l10 10h-3l-16 -14l-6 -9zM172 360l-2 6l-9 -9l3 -9l12 10zM177 55l1 -13l5 -8l1 18l5 -11v11zM110 233l-10 -14l9 3l5 2l-2 3l11 6l8 -3l-8 12l-11 -15zM135 450l-6 -11l-4 -6l20 2l3 6l-9 4zM152 104l7 -7l3 19l-4 9l-9 -5l5 -2l-3 -6zM310 54l12 7l-4 2l-17 5l1 -4 l-3 -6l-16 5l11 -6l5 -15l14 -11l6 18l-4 3l-1 -8zM145 34l16 6l14 1l-11 12v14l3 4l11 -5l-1 10l5 5l-7 6l-9 -9l-11 11l-8 -5l8 -1l3 -9v-9l-11 -9l-5 7l-5 -2l8 -8l-5 -4zM365 111l-1 -33l-2 -16l-2 -17l-4 -28l-5 -12l-12 -6l-24 -1l-13 10h-9l-1 -9l-35 1h-56l-30 -2 l-10 3h-32l-4 7l-10 -9l-16 5l-23 -5l-21 1l-9 17l2 12l4 33l3 31l4 31l4 30l3 32l6 34l4 35l5 32l2 30l3 28l5 14l-1 16l4 31l5 34l-1 12l2 11l5 35l3 27l4 27l2 23l4 28l4 22l-1 9l4 29l3 29l7 25l17 7l32 -1h61l18 -11v-16l-3 -13l-3 -34l-4 -27l-5 -33l-1 -21l-6 -24 v-17l-3 -27l-8 -52l-2 -30l-7 -37l1 -22l-6 -22l-2 -31l-3 -25l-5 -38l-3 -27l-2 -26l-8 -37l1 -29l8 -8l17 -2l38 5l38 -2h23l28 1z"/>
<glyph glyph-name="M" horiz-adv-x="589" unicode="M" d="M176 538h2l-2 2v-2zM458 159h3l-3 2v-2zM270 211h3l-2 3zM312 109h3l-3 4v-4zM339 278l2 2l-9 -2h7zM180 498l6 -9l-1 5zM293 163l-6 9l-4 2zM500 353l-5 -2l2 -5zM374 229l-1 11l-2 -8zM347 149l-1 -5l6 -1zM479 563v-4l8 6zM305 143l-8 -9l5 1zM384 345l12 6l-8 -1l3 8 zM325 212l-6 9l-4 -3zM503 431l-10 -4l6 -3zM336 259l9 -3l4 5zM508 608l-8 3l-9 3l5 -5zM526 517l7 6l-11 -1zM277 252l-5 9l-4 -5zM154 478l-3 15l-2 -12zM480 577l-3 -10l8 4zM506 605l-9 -2l7 -6zM518 405l-6 8l-2 -10zM149 410l2 11l-8 -5zM154 419l7 -3l-1 5l4 3l-4 2 zM373 309l3 -12l3 16zM250 459l9 7l8 1l-8 4zM384 242l7 -4l2 11zM541 304l-2 10l-7 -8zM180 517l-6 -5l-6 2l9 -9zM239 466l8 -1l-5 10l-2 10l1 -10zM514 336l-7 -6l7 -13l-2 11zM136 135l6 -15l2 11zM565 520l6 -6l12 4zM303 306l3 8l7 10l-9 -4zM389 327l-7 -8l14 2z M185 580l-3 14l-7 -2zM151 514h9l4 12zM343 198l6 -8l11 4zM381 308l9 -4l7 -1l-6 8zM390 262l3 -1l5 7l-9 6zM563 619h7l-6 19zM383 387l-6 6v-12l8 3l5 10zM124 139l-2 -11l14 -3zM539 433l-8 -10l15 6l5 6zM150 194l-13 3l1 -13zM498 654l-6 7l-12 -18zM315 170l-2 -12 l15 14l-16 1zM170 562l-8 6l-9 7l4 -15zM140 321l-3 -11l12 3l8 8l-7 -4l-4 3zM494 298l-10 -1l-6 -15l8 9l10 -3zM558 643l-8 12l-2 -13l-1 -9zM334 216l7 -13l15 10h-11zM553 568l-3 -10l-7 -1l16 1l10 9zM550 478l1 8l-11 -9l8 -7l-4 -5l12 4zM273 230l8 1l3 -8l10 8 l-6 6l-6 -6l-16 9zM285 358l-16 2l5 -8l14 4l-3 10l-13 -2zM348 223l12 7l-9 8l-9 1l5 -6l-4 -8zM594 610l16 7l-12 3l-5 -6l-3 4l-13 -8h17zM280 152l10 2l8 -6v12l-12 1l-9 -2zM563 581l9 2l-1 18l-5 8l-2 -11l1 -10zM527 385l-5 10l-12 8l-1 -7l1 -7zM524 459l-12 -2 l-5 7l-4 -6l6 -7l21 1zM527 543l5 -10l9 5l11 8l-12 1zM310 339l-8 2l-11 4l-4 -18l7 4l2 9l1 -9zM275 383l-11 -7l8 -1l8 1l7 6l-12 15v-14zM194 634h-9l-8 -7l13 -7l10 9zM231 607l-10 11l-7 -5v-13l10 2zM257 490l-10 5l7 -7l13 -17l13 -10l-5 12zM528 373l8 -2l12 1 l-5 6l8 7l-19 -2zM141 253l10 -6l11 3l-9 1l1 13l8 7l-15 -5zM331 135l3 -11l6 6l-4 10h-12l-10 -4l7 -10l4 7zM550 527l-4 12l-9 -18h14l6 7l13 4l-16 2zM294 293l7 -3v14l-17 -12l-12 3l5 -13l7 -2l2 12zM329 247l-6 -4l-9 6l-6 -6v-4l13 1l-2 -10l18 6l-6 2zM297 449 l-7 1l5 7l-13 -5l3 -13l4 -6l14 9zM498 259h5l1 -12l11 4h-5l-3 10l6 10l-2 8l-13 -15h-13l-6 5l4 -14l10 -2zM302 190l-1 13l6 -5l9 -10l-9 24l-5 6l-13 -4l14 -3l-5 -6l2 -9l-8 -1l-8 -5l8 1l5 -9l-5 -7l13 -3l1 10zM328 368v-7l2 -21l11 1l6 11l5 16l7 30l11 28l3 18 l8 17l4 16l11 7l-6 7l2 7l6 24l10 28l3 15l10 33l6 10l3 13l7 18l1 12l9 25l6 9l1 20l8 12l12 7l32 1l30 -1l33 -1l38 2l16 -4l5 -15l-1 -18l-4 -15l-1 -29l-6 -34l-6 -28l1 -17l-6 -51l-3 -26l-7 -36l1 -9l-3 -25l-5 -11l3 -11l-3 -12l-5 -35v-12l-4 -30l1 -12l-4 -13 l-3 -21l-3 -27l-2 -26l-5 -29v-13l-2 -12l-9 -63l-2 -23l-3 -28l-6 -31l-12 -10l-28 -1l-11 2l-13 -2l-13 1l-28 1l-12 6v35l3 27l5 26l5 28l3 29l2 29l3 30l4 33l4 11l1 15l3 29l2 29l4 16l3 26l2 29l5 10l-5 11l-6 -7l-5 -16l-10 -31l-9 -31l-9 -29l-8 -14v-14l-3 -11 l-13 -27l-4 -20l-5 14v-32l-13 -41l-8 -29l-7 -9l1 -9l-6 -19l-7 -23l-13 -41l-10 -27l-28 -5l-26 2l-14 -2l-15 13l-3 11v15l-2 32l-2 26l1 11l-4 12l3 13l-2 20l-3 31l-1 25l-3 28l-1 30l-2 28v27l-4 27l-1 25l-2 30l-4 13l-7 -12l-1 -32l-6 -17l2 -7l-3 -30l-5 -21v-21 l-3 -25l-7 -14l2 -9l-1 -12l-4 -10l3 -11l-3 -18l-3 -27l-2 -27l-3 -24l-5 -13l-2 -33l-3 -27l-4 -14l-9 -9l-13 -3l-26 -1h-27l-31 3l-9 12l-1 11l3 10l2 25l3 28l5 28l2 30l4 31l4 29l2 29l7 28v17l4 29l2 29l5 29l3 33l5 25v12l6 24l1 14l1 27l2 24l3 12l4 25v12l5 29 l1 23l5 26l-1 11l3 12l2 24l3 12l9 10l12 3l12 -2l32 2h33l33 1l22 -2l11 -5l7 -11l3 -11l-1 -13l3 -15l1 -32v-29l5 -13l-2 -13l2 -13l-2 -10l3 -10l2 -33l3 -29l1 -25v-19l2 -20l1 -20l2 -18l-3 -8z"/>
<glyph glyph-name="N" horiz-adv-x="467" unicode="N" d="M152 148v-3l1 2zM187 513h2l-1 2zM261 295h3l-3 2v-2zM438 592h3l-3 2v-2zM219 509h3l-3 2v-2zM399 386h-6l1 -1zM162 440l-6 -7v2l-5 -5v-5l-8 -12l17 7l12 2l-3 4l4 8l-15 11l-2 -10zM263 511v3l-3 -3h3zM63 19l-1 -6l7 13zM171 448l-3 7l6 -3l-10 8zM252 294l-2 -15 l3 3zM139 430l-6 -3l11 -1zM431 407l-3 -4l7 -4zM374 283l-9 -1l9 -4v5zM376 306l6 -4l3 8zM189 432l-8 -2l-1 -8zM416 389h9l-1 7zM304 185l10 -3l-6 4l1 11zM137 447l10 3l-6 5zM245 551l3 7l-8 4zM223 499l7 -7l1 9zM189 553l-4 -7l8 8l-6 11zM354 274l-10 3l4 -9z M156 559l-7 -6l1 -3l8 3zM393 227l16 -5l-3 6zM222 571l17 -4l-7 3l2 6zM417 467l5 7l-10 3zM360 256l4 -9l5 11zM371 110l-1 -9l11 10zM366 128l-8 5l-7 -7zM289 343l-8 1l-4 -11zM186 441l-2 9l-9 -7zM173 466l-5 10l-6 -8zM383 215l3 -8l12 3zM353 148l14 -8l-4 10z M313 229l5 13l-9 -1zM281 383l-5 -12l12 5zM344 219l-6 8l-6 -12zM339 164l3 -12l7 13zM175 547l-10 -2l-5 -9l10 4zM331 269l-16 -8l-1 -10zM336 198l-18 -2l11 -8zM265 450l-16 -6l21 -3zM176 466l4 -9h8l-3 11zM400 506v-15l12 13zM170 565l-10 4l-7 -8l22 3l2 7z M201 482l-4 4l9 2l-9 3l-5 -3l-4 -9zM262 470l-15 -12l6 -4l8 1zM237 478l9 -5l-2 13l-12 -4l-4 -14zM399 363l-11 -2v-2l5 -9l13 7zM368 241l-4 -2l4 -16l11 12zM205 592l-11 -1l6 -5l8 1l8 6l7 11zM171 343l-8 -1l-1 9l-8 -1l7 -7l-4 -13h7l4 -6zM352 108l6 -6l10 5l-1 10 l-15 -8l7 12l-9 -3l-6 -11zM392 257l7 1l4 13l-16 -12l5 -12l-9 -2l11 -13l5 5l7 -4l-7 10zM355 187l-10 -10l12 5l3 15l9 6l7 10l-21 -10l-3 -11l1 11l14 16l-20 -8l2 -12l-10 -11l8 -3zM439 135l-4 -26l-2 -16l-1 -16l-4 -29l-5 -35l-14 -12l-11 -3h-12l-32 2l-33 -1 l-11 9l-6 25l-5 22l-7 24l-8 36l-7 23l-4 25l-7 24l-7 30l-7 27l-7 31l-6 20l-1 12l-6 17l-2 14l-10 33l-7 5l-1 -11l-5 -35l-3 -29l-4 -27l-6 -10l3 -15l-2 -19l-4 -36l-5 -33l-3 -33l-4 -29l-3 -28l-4 -28l-5 -27l-8 -14l-35 -4l-8 2l-13 -2l-9 1h-25l-16 3l-7 13l4 23 l2 25l3 13l3 30l5 33l3 27l4 28l2 29l4 28l4 26l4 19l1 27l4 30l4 28l2 28l4 8l1 22l3 30l4 29l3 29l10 70l2 32l4 18l3 42l9 28l14 6l19 2l13 -3l26 2l20 -2l13 1l11 -6l9 -26l5 -28l7 -26l6 -31l8 -33l9 -30l3 -31l8 -20v-9l4 -18l6 -18l6 -31l9 -37l7 -15l9 28v24l6 28 l4 31l4 33l3 25l4 32l4 31l3 31l4 31l3 26l3 24l6 10l11 6l14 1l27 -1h21l25 -1l16 -13l-2 -26l-4 -28l-4 -35l-3 -26l-5 -31l-6 -60l-4 -28l-7 -41v-12l-11 -9l10 -10l-2 -20l-5 -32l-6 -12l3 -13l-3 -10v-10l-3 -10l1 -10l-4 -22v-17l-5 -33l-2 -27l-4 -27z"/>
<glyph glyph-name="O" horiz-adv-x="422" unicode="O" d="M305 298h2l-2 2v-2zM159 543h3l-3 2v-2zM237 64h3l-2 3zM435 651l-8 5v-4zM341 388l-8 -9l9 6zM297 643l-14 -9l9 3zM127 246l-1 10l-4 -1zM414 563l-11 4l2 -5zM98 497l6 -7l3 5zM393 593l8 -2l2 6zM381 334l-8 -2l11 -4zM200 461l-5 9l-3 -7zM450 596h-9v-7zM439 459 l-5 8l-3 -8h8zM350 330l-4 3l-11 -8zM414 349l4 -14l3 7zM405 424l-4 -10l11 10h-7zM402 274h-9l-8 -8zM133 537l-8 14l2 -7l-2 -6zM353 250l8 -5l3 8zM168 527l12 -1l-11 8zM405 285l2 9l-9 4zM351 587l7 -9l3 9h-10zM308 720l-10 4l-3 -8zM391 551l2 9l-10 2zM389 399 l9 -8l3 8h-12zM192 636l-6 10l-3 -11zM328 649l-8 -4l7 -10zM352 650l10 -7l-6 15zM345 617h-10l11 -6l7 9zM274 721v-8l-6 -6l14 5zM400 488l5 6l4 10l-10 -7zM422 629l-3 16l-1 -9l-6 -11zM428 316l4 13l-9 -6l-2 -9zM358 369l2 -13l11 10zM362 397l10 -12l6 3l-10 7l-1 8 zM149 407l-6 12l3 -9l-10 -5l4 -9l6 5zM351 524l-3 -25l10 13zM399 257l-10 -1l7 -9h12zM369 505l-2 -14l7 10l-6 14l-9 -6zM321 695l-2 7l-11 -7l2 -10zM340 345l-13 -12v-6l13 7v11zM420 476l-8 11l-3 -15l-3 -9zM405 515l5 8l2 10l-4 9l-5 -17zM380 620l1 12l9 -6l5 6 l4 -9zM377 570l-9 -1l-6 -2l6 -6l13 -7zM235 698l-16 -9l1 -9l11 1zM134 379l9 -2l7 8l-9 -1l-4 7l-10 -9l4 -10l8 2zM240 661l9 -6l-2 -5l10 6l-1 7l-5 5l-13 -3l-5 -11zM356 703l-10 3l-4 -7l-7 -8l5 -12l17 -4l4 4l-1 8l-3 -9l-14 2l1 12l5 9zM407 588l-7 -9l-3 -9l9 9 l8 -1l11 13l-13 1l4 9l-4 -2zM354 431l4 15l12 15l-13 -4l5 13h-17v-9l9 5l-1 -27l-6 -2zM389 533l-7 8l-4 5l-16 -4l10 -9l1 8l9 -11l-7 -6l7 -14l1 11l7 3zM328 685l-21 -8l-3 7l-5 -4l12 -11l1 8l1 -18l1 -4l6 -2l10 1l7 5l-2 13h-14zM273 687l-14 -1l-4 6l-5 -13l7 -12 l8 10l3 -8l13 7l4 -5l-5 -9l5 -11l16 2l-5 12l-10 -6l13 13l-11 1l5 12l-10 -1zM374 666l2 10l-6 -8l-7 -10l8 -16h9l7 8l-8 -14l-14 -7l-9 7l-6 13l-7 -15l9 -5l10 -5l1 -8l9 -4l-5 -7l-6 5l7 -23l13 -2l14 2l-8 3l-11 17l10 7l-2 -9l15 7l8 1l-3 17l6 9l-5 12l12 9l-10 1 l-7 11l-7 -10l11 -2l-4 -9h-12l-9 4l8 4zM295 268l8 18l8 -6l-11 19l3 13v13l4 11l4 34l-2 9l4 26l3 30l9 63l2 29l5 29l4 -9l8 14h-13l2 15l-2 14l-7 12l-10 8l-32 12l-13 -7l-20 -10l-14 -20l-9 -30l-1 -14l-4 -29l-5 -9l4 -12l-3 -8l1 -9l-2 -9l-3 -18l-3 -23l-2 -25 l-4 -32l-5 -29l-6 -21v-37l-4 -33l-4 -31l-2 -19l-5 -30l3 -25l4 -13l9 -11l16 -7l12 -2l12 1l23 8l15 13l6 12l6 26l5 29l-1 12l3 13l1 29zM454 479l-3 -30l-2 -32l-5 -20v-17l-11 -19l4 -12l-7 -11l8 -4l-2 -14l-5 -31l-2 -26l-4 -35l-5 -14l1 -18l-4 -21v-12l-4 -10v-10 l-5 -16l-15 -35l-14 -20l-17 -22l-10 -9l-22 -18l-10 -4l-5 -6l-25 -12l-22 -5l-18 -1l-19 -6h-28l-34 4l-29 6l-21 8l-28 21l-13 13l-8 14l-7 6l-4 10l-9 22l-5 30v32l4 33l3 31l6 36l2 25l4 32l4 27l4 28l3 36l3 22l4 24v21l4 9v16l4 17l7 -5l-6 15l2 21l2 23l6 28l11 19 l1 12l19 33l15 16l27 24l25 17l12 3l24 10l28 5l12 -2l7 5l33 -1l19 -3h10l12 -5l17 -2l18 -6l7 -6l4 -8l13 -3l6 -9l8 -5l11 -14l14 -24l8 -24l-4 -19l6 -1l3 -27l-4 -7l2 -8l-5 -16l3 -12l-3 -12l-12 6l7 -11l2 -27z"/>
<glyph glyph-name="P" horiz-adv-x="439" unicode="P" d="M394 384h2l-2 2v-2zM391 585h2l-1 3zM146 531h3l-3 2v-2zM160 256h3l-3 2v-2zM423 454h3l-1 3zM286 327l12 4l-6 7l4 -6zM257 363l-10 -7h4zM223 361l-6 -6l3 -4zM266 317l-6 -2l12 -3zM158 167l-15 3l5 -4zM179 390l3 -18l1 10zM136 216l6 6l6 -9l-8 14zM134 425l-8 2 l1 -9zM144 245l-5 -6l4 -10zM170 334l1 -7l10 5zM163 316l3 9l-11 -7zM322 375l9 -6v9zM151 161l-4 -13l8 2zM181 417l-3 -9l13 7zM136 368l-5 -8l11 -2zM169 453l12 9l-7 3zM120 278l4 9l-14 -5zM233 337h9l-10 12zM126 378l11 -6l7 6h-18zM324 354l-2 -11l12 11h-10z M129 388l-4 16h-7zM81 40l5 -8l8 10zM341 378l14 -13l-2 10zM348 384l-4 8l-4 -7l-5 -7zM128 255l-11 4l-1 -5l6 -5zM226 318l13 3l-2 5l-7 5l-12 -10l15 6zM121 177l7 -8l-1 10l8 6l-4 7zM151 309l-7 -8l-3 4l-6 -7l7 -7l12 7zM115 57l13 -14l3 8l-13 7l-7 8l-6 -4l4 -11z M142 318v9l-16 4l-3 -11h15l-4 -11zM246 395h34l17 3l19 7l11 14l12 25v12l9 37l1 19l2 31l-2 8l-6 36l-8 11l-12 7l-32 6l-21 -2l-6 2l-12 -6l-2 -13l-3 -27l-5 -38l-4 -31l-3 -26l-5 -37l1 -8l-3 -15l4 -13zM475 479v-13l-4 -17l-3 -19l-10 -35l-12 -24l-17 -21l-15 -19 l-18 -14l-9 -2l-11 -10l-14 -6l-25 -7l-27 -5l-26 -3h-55l-14 -3l-6 -18l-3 -25l-3 -28l-4 -27l-2 -27l-3 -27l-7 -28l-2 -34l-3 -30l-4 -27l-7 -8l-18 -5l-13 2l-16 -1l-15 2l-33 -2l-19 3l-8 5l-3 23l3 13l4 24l1 23l4 33l4 9l1 25l4 29l4 34l5 33l2 31l5 33l3 31l5 31 l4 37l3 29l6 26l1 30l3 18v17l6 31l3 27l4 29l3 31l4 30l5 27l9 11l11 2h34l35 -1l30 1l30 -1h62l31 -3l28 -8l21 -11l26 -20l7 -10l12 -22l6 -8l4 -24l4 -13l-1 -13l2 -20l-2 -36l-1 -27z"/>
<glyph glyph-name="Q" horiz-adv-x="422" unicode="Q" d="M363 412h2l-2 2v-2zM158 405h3l-3 2v-2zM388 476l-5 -10l-2 -6zM375 214l9 -13l-4 7zM147 169l7 5l-5 -2zM132 75l4 5v3zM300 58l4 2l6 6zM364 69l-3 2l1 -5zM131 331l-1 10l-2 -4zM133 185l-2 8l1 -17zM243 -40l4 7l-11 -10zM77 294l-6 -4l11 1zM152 65v-4l10 2z M346 136l-16 -9l8 2zM336 -55l-7 4l-3 -4h10zM159 386h5l-4 8zM203 633l-8 5l-1 -5h9zM361 462l2 9h-5zM367 523l-2 -9l5 11l-6 6zM203 22l-5 -7l12 6zM175 149l-5 4l-10 -3zM168 273l2 10l-6 -1zM244 -82l7 1l-2 8zM138 271l3 8l-11 -9zM91 235l1 -9l6 8zM357 201l3 7l5 2 l-12 -2zM335 112l-4 11l-3 -8zM261 -122h10l2 7zM252 65l-18 12l6 -8zM408 515l-11 -2l-5 4v-8zM360 186l-11 -3l10 -4zM379 320l-6 7l-2 -10zM104 290l-7 5l3 -13zM368 390l9 8l-14 -4zM206 3h11l5 7zM393 457l-15 -2l-1 -6zM100 223l-5 -9h9zM377 554l5 12l-11 -10z M388 235l-9 -8l14 3zM155 464v7l-13 -10zM123 188l-6 -11l10 2zM362 130l7 6l2 4l-10 -2zM279 74l-2 -10l12 10h-10zM340 -87l-5 13l-5 -8zM239 -20l-4 10l-9 -5zM245 48l7 -5l7 -9l-3 13zM351 201l-13 -6l17 -1zM382 371l-6 8l-6 -13zM350 359l3 -9l7 11l-5 9l3 -7z M109 259l3 -10l4 9l6 8zM212 -105l-2 -15l11 15h-9zM261 2l1 9l-5 7l-3 -10zM277 -60l-12 -2v-12zM299 -56l-13 -4l-3 -7h8zM385 381l6 -6l-7 21l-5 -13zM335 153l-7 -17l6 5l9 1zM218 -25l10 -20l4 10zM334 39l4 -6l12 9l-8 3zM382 344l8 3l3 7l-20 -5zM149 312l-8 -9l9 6 l8 9l-10 3l-6 -3zM174 66l16 -2l11 1l-12 10l-5 -7zM230 1l2 9l20 2l-17 4l-8 -4l-5 -2zM229 27l11 -11l15 7l-10 3zM120 138l3 -9l16 9l6 -5l-9 10zM358 260l12 1l-3 7l13 -4l-7 9l-12 -3zM241 58l-8 2v-12l5 -12l5 3l-3 8zM331 184l5 15l-5 11l1 -8l-11 4l10 -18l-11 -5z M181 25l6 -7l9 23l-12 -3zM209 70l-5 -12l-5 -8l13 2l-2 5l7 4l-8 -2l14 18l-11 7l6 -9zM152 367l1 7l-15 8l1 -10l12 -26zM361 311l-13 3l-11 4l7 -4l4 -10l15 -3l5 -4l5 5l-1 5l-6 5l-15 4zM336 159l9 -7l10 -4l-5 13l-12 1l14 3l19 8l-21 1l-18 -11l4 11l-11 3v-8l1 -7z M327 75l6 2l6 -8l8 4l-8 7h8l-14 3l7 10l-6 6l-12 5l4 -9l-4 -10l-11 -9l11 -2zM130 232l7 9l9 11l9 12l-20 -6l-6 -11l-18 -26h8l3 6l18 2zM371 237l-1 9l9 2l-6 8l-10 -4l-10 -8l5 -6l-7 -2l-9 -8h-7l-5 -13l10 9l10 -5l-1 13l8 -4l3 -7l1 12zM309 108h9l11 20l-9 9l-7 -5 l-1 -12l-11 -6l-8 -11l8 -8l9 7zM190 243l-6 -35l-1 -13l-1 -15l-5 -10l1 -16l12 -42h11l15 -5l17 1l17 5l12 7l9 10l7 13l7 26l3 34l3 32l3 21l6 34l4 36l3 39l6 18l3 43l3 23l3 40l4 18l2 26l4 13v11l-3 30l-7 14l-28 14l-15 -1l-18 -5l-15 -10l-9 -11l-6 -13l-5 -27 l-3 -27l-4 -32l-5 -15l2 -12l-5 -26l-3 -31l-4 -16l-1 -26l-3 -31l-6 -34l-2 -37l-6 -9zM241 -142l-8 1l-15 6l-26 15l-18 18l-19 30l-7 27l1 12l-2 16l-9 15l-31 14l-13 10l-22 23l-8 13l-12 27l-8 29v39l3 23l3 27l1 24l5 14l-1 13l3 27l5 33l4 13l-2 12l5 31l8 58v13 l4 27l4 25l3 30l5 31l5 28l8 27l12 26l13 21l18 19l21 19l23 15l24 11l35 10l30 4l26 1l23 -2l22 -4l20 -5l40 -24l13 -11l15 -19l15 -24l3 -19l4 -10l2 -24l-1 -31l-3 -30l-5 -31l-4 -50l-4 -25l-3 -24l-4 -37l-4 -17l-1 -21l-5 -27l1 -9l-3 -12v-13l-2 -21l-3 -10l-2 -23 l-8 -46v-11l-5 -21l-10 -31l-6 -11l-13 -12v-11l-14 -12l-17 -18l-31 -25l-11 -2l-6 -7l-11 -4l-16 -1l-3 -10l-4 3l-10 2l-16 -13l22 1l8 -4l3 -13l37 -9l15 1l7 -4l12 -1l6 -12v-14l-3 -14l-4 -6v-23l-5 -26l-7 -10l-9 4l-10 -2l-27 -5l-18 3l-7 7l-6 -5l-7 6zM241 -142 l4 6l3 4l-8 2z"/>
<glyph glyph-name="R" horiz-adv-x="440" unicode="R" d="M139 341h2l-1 3zM185 507l-13 -4l5 1zM93 184h3l-3 3v-3zM278 125l-2 -4l5 2zM237 368l-4 -9l2 -2zM426 491l-4 7l-1 -5zM122 217v-5h6zM146 254l-8 1l11 -6zM385 382l-6 10l4 -11l12 -2zM405 612l-2 7l-5 -4zM127 406l8 10l-3 7v-7zM135 289l-6 -7l-6 -2l12 2v7z M388 522l7 -4l2 7zM180 403l-7 -8l8 1zM204 600l1 9l-7 -3zM333 374l4 7l-8 1zM395 548l7 7l-7 2v-9zM82 210l9 3l9 4h-8zM199 384l-10 -2l8 -10l-3 7zM112 247l1 11h-6zM333 243l-9 4l1 -8zM136 328h-10l1 -7zM169 376v-10l7 6zM188 516l-8 6l-7 -4zM139 120l11 -2l6 6z M137 163l-11 -7l4 -5zM421 463l-12 -1l4 -7zM385 508l-2 11l-7 -9zM297 151l9 1l3 11zM201 498l-4 5l-14 -7zM167 392l3 10l-13 2l6 -4zM342 143l6 -11l9 2zM400 432l1 5l3 7l-14 -12h10zM171 382l6 6l-6 4l-6 -1zM178 427l12 -2l6 10zM386 448l9 6l-10 8zM167 364l-11 -4 l17 -6zM396 490l9 -2l1 10l-9 -5l-9 2zM186 321l1 6l8 9l-19 -2l9 -4zM175 480l9 -4l10 5h-13l-1 9zM412 481l-3 -8l-6 5l2 -12l10 5zM148 327l-10 -6l3 -6l13 12l12 4zM223 644l5 -7l10 7l-8 5zM299 312l6 6l10 9l-16 -5l-3 -6zM373 469l-12 -5l5 -4l13 -9l-5 16l11 1z M176 619l-10 10l4 -8l-3 -14l7 -10l6 8l-6 10zM312 180l-14 -6l-2 -3l20 -5v23zM128 316l1 -17l-9 -9l-9 -5h18l8 21zM316 154l10 -5l4 11l10 9l-4 17l-6 -11l-5 2l6 -7zM163 287l-9 -2l11 8l-3 10l-9 -11l-12 -8h9l1 -14l6 7l7 -1zM142 383l-7 3l-7 -14l23 8l-9 2l7 18l3 3 l17 12l-2 6l-5 -9l-17 -1l-9 -13zM163 226l9 11l-17 -10l-3 -6l-10 -4l-5 -7l-2 -10l8 5v8l13 2l-6 -11l15 1l-10 -3l10 -10l5 17l-9 7zM249 402l18 3l16 -1l16 4l15 8l12 19l9 32l5 28l2 28l2 34l-2 17l-5 15l-11 13l-37 8h-16l-14 -3l-8 -18l-7 -36l-2 -26l-3 -29l-5 -28 l-1 -26l-5 -27l3 -12zM410 48l6 -31l-10 -16l-20 -2l-37 -2l-18 2h-33l-11 8l-7 32l-3 26l-5 31l1 15l-5 10l-3 27l-4 23l-2 25l-6 33l1 8l-5 10l-1 12l-3 23l-8 9l-12 2l-10 -7l-5 -16l-1 -16l-4 -31l-12 -87l-6 -60l-4 -28l-3 -32l-13 -16l-13 -2l-13 1l-27 -1l-9 7 l-14 -7l-30 1l-11 5l-3 12l3 19l4 34l4 31l4 32l3 31l3 28l7 11l-3 22l10 2l-10 2l4 14v14l4 21v15l4 32l4 28l2 25l3 12l5 30l3 34l3 31l5 28l1 25l4 13l3 32l3 31l4 31l4 29l3 27l5 13l10 9l14 1l30 1l35 -2l9 2l29 -1l30 -2l13 1l27 2l24 -1l19 -6l28 -8l16 -8l19 -14 l7 -11l14 -21l11 -30l4 -28l2 -26l-1 -14l-3 -27l-2 -22l-4 -34l-5 -27l-9 -35l-13 -32l-12 -18l-21 -21l-29 -21l-10 -2l-2 -16l5 -35l6 -32l12 -62l5 -33l5 -34l7 -31z"/>
<glyph glyph-name="S" horiz-adv-x="412" unicode="S" d="M176 500h6l-6 1v-1zM167 468h3l-3 3v-3zM311 170h3l-1 4zM267 307l9 -10l-3 5zM389 548l-1 -3l9 5zM219 459l7 9l1 5zM239 456l3 5l-10 -6zM344 149l15 6l-16 -4zM343 159l-6 6l-1 -6h7zM352 174l3 8l-8 -7zM362 192l13 -2l-7 5zM368 238l-2 8l-3 -16zM280 62l7 2v13 l-1 -7zM181 599l-7 4l-4 -6zM153 530l3 -6l6 8zM386 184l-9 -10l9 3v7zM380 629l13 3l-13 2v-5zM183 415l12 4l-14 1zM243 443l-7 8l4 -11v-8zM365 613l10 -5l2 6zM337 269l-9 -3l-8 -12zM197 606l-3 10l-6 -8zM255 446l8 8l-14 -3zM341 88v11l-8 -1zM370 171l3 7l-4 3 l-4 -13zM323 211l-7 -1l8 -12zM278 382l-6 -6l3 -13l3 -3l-3 10zM311 365l-1 11l-8 -11h9zM303 71l11 4v10zM302 310l5 13l-10 -4zM172 552l-6 6l-3 -5l-6 -8l12 9l3 -16v14zM379 623l9 -11l2 15zM167 596l-2 12l-3 -5l-8 -12zM391 608l-7 -3l2 -7l12 1zM374 646l-9 -8l11 7 v19l-7 -5zM324 342l-8 8l-6 5l-3 -8l7 -6zM183 517v-5l19 10l-22 5l8 -5zM200 483l-1 -16h17l-9 7zM180 530l-12 5l-9 -17l16 6zM327 235l8 -4l13 10l2 8l-8 -6l-8 8l5 -6zM214 392l6 12l7 -1l1 10l-16 -13l-1 -21l8 12l3 6zM346 297l-7 -14l-4 1l-2 -7l10 -1l11 10l-6 1z M246 383v-9l12 -9l8 6l-3 9l-5 -6zM141 541l7 -2l1 -10l2 8l-1 8l7 10l-12 14l-3 -5l1 -7l4 5l1 -11zM296 266l7 3l17 -3l-11 8l9 5l-15 5l-7 -5v-13zM185 433h15l12 -2l-15 16l-2 9l-8 6l4 -18zM294 286l5 10l2 -3l11 -7l9 -2l-2 11l-8 3l-1 6l-10 2l-11 -6zM418 196 l-5 -36l-4 -16l-6 -28l-9 -15l-9 -15l-11 -20l-13 -14l-17 -18l-11 -6l-23 -15l-25 -11l-27 -8l-27 -4h-33l-27 1l-15 3l-28 12l-26 15l-21 20l-15 25l-11 25l-1 11l-4 7l-2 27l1 14l3 44l3 24l4 24l9 11l16 5l14 -2l13 1l14 -2l38 2l13 -3l5 -8v-33l-4 -30l-2 -35l13 -29 l17 -12l22 -1l21 -1l4 6l19 13l11 21l4 31l-4 32l-12 30v10l-8 4l-7 13l-18 21l-21 24l-26 26l-21 25l-18 23l-16 25l-14 26l-11 26l-8 31v17l9 2l-10 7l-1 11l2 22l6 28l7 31l11 22l14 27l19 22l23 19l26 15l28 11l12 -6l9 11l12 3l9 -3l7 4h27l27 -2l10 -5l28 -7l15 -8 l23 -22l7 -4l15 -22l12 -32l5 -22l-1 -26v-29l-4 -28l-2 -27l-5 -12l-16 -6l-25 -1l-24 1h-22l-11 5l-8 -5l-13 13v12l3 13l1 33l3 12l-7 32l-8 10l-18 9l-19 -1l-12 -3l-20 -15l-6 -11l-12 -27l4 -14l-1 -12l3 -7l10 -26l-2 -13l7 1l16 -22l-1 -7l15 -10l10 -13l17 -18 l22 -25l21 -24l-5 -14l12 5v-9l8 1l5 -10l10 -11l13 -27l13 -26v-12l8 -18l3 -20z"/>
<glyph glyph-name="T" horiz-adv-x="391" unicode="T" d="M188 185h3l-2 3zM228 388l1 5h-8zM190 665h-7l-1 -7zM238 669l1 8l-6 1zM241 630l5 -1l-10 12zM235 604l11 1l-2 5zM283 469l-4 -7l11 5zM352 656l2 12l-7 -13zM133 693l-8 -1l3 -7zM315 687l-3 7l-5 -8zM206 196l-8 1l10 -9zM323 616l12 -1l5 6zM235 542l12 1l-7 2l-2 8 zM300 640l6 -12l3 10zM199 227l10 -10l6 -2l-4 7zM366 673l-11 6l3 -12zM239 395l9 -4l2 12zM433 688l6 3l3 5l-11 1zM271 363l-10 -5l10 -1l10 5zM228 706l5 -21l2 16zM379 678v-9l9 7l-6 7zM277 442l3 10l-11 -6l-1 -10l5 8zM225 169l12 4l-3 4l-4 6zM335 687l-13 1 l-1 -12zM240 439h-10l-3 -6l9 -4zM148 664l-2 -13l13 -1zM324 666l-10 7l-1 -7l8 -3l14 -10zM221 203l-6 -8l22 -1zM218 293l-1 -9l10 -2l-1 12zM259 699l-5 -10l10 -14l-1 10zM142 685l-7 -8l5 -7l10 6zM244 411l7 -4l8 8l-8 16l1 -15zM227 556l-19 -12l13 -6l4 13z M276 562l11 -1l-6 9l-13 2l-6 -7l5 3zM253 648l-8 14l-4 -4l-8 2l9 -7l1 -11zM356 634l11 11l-8 2l-19 -7l-3 -8l10 5zM193 409l11 -3l10 1l13 -3l-10 18l-12 -10zM283 690l-13 -9l6 -8l22 5v9l-8 3h-7zM308 668l-9 -10l-19 -9l5 -9l-4 -7l9 3l3 13h15l8 13zM467 670l-3 -21 l-1 -22l-8 -19l-19 -5l-24 4l-20 -2l-19 -1h-29l-11 -18l-1 -21l-4 -22l-5 -35v-15l-4 -34l-3 -31l-5 -6l1 -14l-4 -30l-5 -46l-3 -9l-1 -28l-4 -28l-7 -6l5 -12l-2 -13l-4 -29l-4 -32l-3 -31l-4 -38l-4 -24l-2 -24l-9 -40l2 -8l-15 -10l-13 -2l-26 1h-31l-32 1l-14 15l2 34 l4 15l1 15l3 30l4 29l4 25l3 25l4 25l2 27l3 14l2 27l5 25v14l3 26l3 27l4 32l6 38l14 2l-3 14l-5 -9l-5 18l3 16l5 38l4 8l-1 12l6 14l-4 5l5 21l-5 20l-13 1h-55l-12 3l-36 4v14l3 29l4 29l4 28l6 10l12 5l12 -1h26l27 -1h20l31 -1h28l27 1l2 -18l3 17l39 1h28l23 1h29 l26 -2l20 2l16 -6l2 -18z"/>
<glyph glyph-name="U" horiz-adv-x="458" unicode="U" d="M437 633h3l-2 3zM358 276h3l-2 3zM377 393l-6 -1l5 -2zM427 565l-5 -7l11 10zM401 554l4 -8l4 6zM416 582l4 -12l10 11l-7 -7zM406 332l9 1l-6 6zM411 593l1 8l-9 -2zM425 396l-4 -20l7 15zM412 506l-2 -13l6 8l8 -1zM158 366l-9 -2l11 -9zM420 664l-9 8l-4 -22l4 14h9z M433 548l5 14l-6 -7l-9 -6zM393 490l5 -8l12 8h-17zM457 577l-9 4l-9 6l4 -11zM447 678l1 -8l-11 -3h8l5 -5l3 11zM374 382l-13 8l-5 -8h18zM426 450l10 -8v10l-6 6zM387 430l8 1h7l-11 3l4 13l-10 -10zM384 509l-1 -8l-6 1l11 -5l-4 -8l10 16zM412 423l-6 -8l1 -8l4 -13h3 l-6 11l7 10zM447 564l10 -2l3 10l-12 1zM429 603l-7 6l5 9l-12 -1l3 -13zM392 537l6 -10l-4 5l-5 -8l12 1v9l-8 8zM378 321l11 -4l2 9l-8 6l5 8l-10 -9v-10zM436 526l-9 9l1 -10zM456 600l-6 5h-3l-4 3v17l-12 -3l9 -14l-11 -17l-1 -9l5 9l16 9l8 -6zM476 526l-2 -31l-2 -2 l-5 -34l-1 -27l-4 -9l1 -12l-3 -15l-2 -29l-4 -31l-5 -31l-1 -28l-4 -14l-3 -23l-2 -25l-5 -33l-2 -28l-4 -11v-11l-11 -27l-14 -27l-17 -23l-20 -21l-23 -17l-34 -17l-9 -1l-9 -4l-16 -3l-28 -4l-25 -1l-28 1l-15 4l-29 7l-25 13l-22 19l-18 22l-12 23l-7 24l-4 32l4 52 l3 7l-1 11l6 35l2 28l5 34l6 54l3 25l8 68l4 11v18l4 33l3 28l5 33l5 31l2 33l3 10v14l5 22l2 27l10 15l24 2l33 -1h31l28 -2l6 -10l-2 -27l-4 -29l-3 -28l-3 -23l1 -8l-5 -30l-3 -29l-5 -29l-4 -35l-4 -32l-5 -35l-1 -29l-3 -9l-1 -16l-8 -62l-6 -30v-16l-4 -32l-6 -62 l4 -17l8 -18l13 -5l28 -5l7 5l15 3l13 12l9 16l9 31l4 36l4 33l5 32l2 25l4 27l6 23l-1 13l2 15l3 30l4 31l3 31l4 35l3 32l5 14v25l4 17l2 26l3 28l9 28l-4 13l8 32l18 6h34l31 -4l15 3l17 -1l10 -7l-3 -22l2 -12l-3 -12l-3 -32l-7 -36v-15l-4 -18l1 -7l-7 -26zM428 525 l-4 -6l-6 -4l-8 7l-12 -19l8 6l8 1l9 -2l-2 5l8 6z"/>
<glyph glyph-name="V" horiz-adv-x="420" unicode="V" d="M335 423h3l-2 3zM190 262h7l-7 4v-4zM265 94l4 -15v7zM326 315l5 -10l2 2zM169 261l-10 -1l2 -3zM327 361l7 5l10 -4l-11 6zM340 407l-9 15l4 -11zM172 361l-9 13l1 -7zM284 225l6 -6l3 6h-9zM325 441h-8l1 -7zM239 177l-6 11v-10zM171 313l-5 -6l6 -5zM185 511l8 -2 l-3 9zM158 468l-1 -9l-7 -10l8 4v15zM221 168l7 4l-14 2zM196 207l4 8h-9zM175 239l-7 -5l1 -10zM281 189l-6 -6l14 12l-10 1zM356 386l-6 -9l10 1zM145 397l7 -6l12 2zM221 129l4 8l-12 -1zM159 278l-5 -8h12zM175 485l7 9l-17 -8zM327 295l-11 -10l13 2zM184 287l-6 -9h14 zM196 247l-10 -2l-1 -9l8 4zM148 436l-7 -4l10 -3v14l-9 -3zM350 445l-8 9l-4 -5l6 -9zM199 125l-5 -9h12l1 9h-8zM233 67l-5 16l-13 -3zM173 267l-5 -13l9 -7l2 16zM180 123l-9 2l-3 -7l6 -7l10 7zM251 105h-13l1 -7l-7 -10l6 -6l2 6l6 6zM193 394l-9 -2l-6 -8l9 -7l7 -2z M247 122l6 -5l4 -10l6 4l-11 14h-19v-7l-11 -3l-4 -6l11 -2zM497 700l-6 -15l-4 -15l-8 -12l2 -8l-4 -11l-8 -29l-8 -15l-3 -18l-5 -9l-1 -12l-14 -42l-9 -30l-8 -14l-2 -12l-5 -12l-2 -12l-6 -15l-9 -29l-8 -28l-7 -21l-8 -25l-5 -20l-10 -24l-3 -14l-10 -25l-9 -32l-9 -29 l-7 -25l-10 -21l-5 -23l-5 -19l-12 -34l-10 -34l-11 -15l-31 -3h-56l-33 4l-6 10l-3 28v29l-4 34l-2 34l-1 32l-3 28l-2 29l-3 32l4 13l-5 14l-2 26l5 5l-5 6l-4 26l1 16l-3 31l-1 27l-4 31l1 18l-3 14l-2 32l-1 33l-3 34l-3 37v23l-4 12l4 7l-5 15v33l12 10l16 1l24 1h30 l32 -1l17 -9l2 -11l-2 -10l3 -13l-1 -26l2 -12l1 -27l2 -26v-34l1 -24h-7l8 -16l1 -37v-29l2 -17l1 -33l3 -34l-2 -31l2 -14l-3 -15l8 -13l18 35l4 7l1 8l-4 7l9 27l7 30l10 27l6 27l14 41l3 15l7 25l10 35l10 33l2 15l9 27l9 30l7 26l7 11l12 5h69l28 2l13 -7v-17z"/>
<glyph glyph-name="W" horiz-adv-x="618" unicode="W" d="M160 357h3l-2 2zM455 65h3l-2 2zM583 553h3l-1 4zM391 527l-6 -8l-3 -7zM368 587l-5 -5v-5zM590 597l5 10l-4 -2zM249 181l7 3l3 5zM191 260v-4l7 -1zM213 214l11 -1l-2 3zM139 482l-1 -3l13 3h-12zM142 554l-5 -1l5 -6v7zM393 453v-8l5 -1zM231 122l5 1l-2 8zM380 572 l-2 -5l7 -7zM422 552l7 -4l2 7zM410 100l4 -7l3 8zM141 337l9 -3l-8 9zM392 305l14 -1l-2 7l-4 -5zM173 161l11 -3l-19 7l4 -8zM409 526l-10 2v-7zM412 294l9 -5l9 3zM534 360l9 2l-10 6zM366 613l15 -10l-9 7l-5 14zM213 106v4l1 7l-8 -2l4 -5zM400 395l-11 -7l17 3z M300 417l-2 5l-4 -11l15 8l-1 2zM191 193l13 -2l-4 6l7 7zM183 225v-7l8 6l-3 8zM506 287l-5 -8l-6 -3l11 1l-4 -9l6 7zM515 307l11 -3l8 -2l-9 9zM237 139l13 8h-16zM408 587l-7 10l-2 -16zM583 581h-12l5 -11zM413 360l-7 -6l11 -10zM335 559h8l5 11l-9 -2zM421 375v12 l-5 7l-3 -9zM315 462l-11 5l-3 -10l7 5l7 -5l8 10zM167 346l-18 -1l21 -9zM234 170l1 -11l16 7zM181 407l-5 9l-9 -2l8 -10l17 6zM525 316l4 7l-9 3l-8 -9zM541 430l-7 11l2 -14l5 -8l7 11h-7zM554 405l-1 -15h14zM254 242l-17 -14l-3 -6l17 7zM243 192l5 2l-7 7l-5 8l-5 -5 l5 -8l2 -10zM178 344l-5 -12l-4 -6l2 -2l15 4zM283 363l2 10l-5 -15l4 -8v-11l11 13zM151 197l4 -7l9 5l-5 17l-10 -5zM353 489l8 9l6 5l-10 1v8l-9 -7l-2 -10zM193 157l-6 -10l19 19l5 9v13l-13 -12l3 -12zM159 277l-2 -12l3 -12l9 3l10 8l-11 -4l1 11zM195 282l14 9 l-12 -3l-12 -5l-17 9l7 -7l-5 -12l21 5l-2 -6zM372 546l9 3l-10 4l-8 4l-9 -6l12 -17zM178 189l-2 14l8 4l7 -11l5 8l-14 8l-7 9l-7 -6l7 -10l-10 -11l9 4zM389 496l4 8l10 2l-1 -9l2 -12l8 12l-1 12l-6 -1l1 10l-7 -8l-17 -9zM178 128l7 5l9 1l-8 12l-7 -4l-5 4l6 9 l-12 -15l6 4l-3 -11l1 -13zM448 104l9 9l-4 10l-4 8l-5 -10l1 -8l-15 16l-5 -13l8 -8l-5 13l17 -11l-10 -6h13zM165 240l-2 -12l-5 -6l12 1l16 10l5 7l-5 3l-16 1l5 -8zM188 301l6 10l-5 -2l-1 8l-19 -5h-8l3 -8l8 -2l7 -6l13 -2zM665 723l25 -1l5 -15l-9 -31l-7 -28 l-12 -40l-9 -32l-10 -29l-2 -12l-9 -31l-5 -8l-1 -16l-8 -21l-2 -12l-9 -24l-5 -21l-10 -29l-2 -13l-11 -34l1 -8l-5 -10l-9 -34l-10 -14l2 -13l-3 -8l-8 -30l-5 -11l-4 -22l-7 -19l-11 -37l-10 -35l-8 -30l-11 -38l-10 -16l-26 -2h-28l-27 -2l-27 9l-3 12l-2 35l-2 23 l-1 41l-1 31v35l-4 20l1 7v23l-3 33v25l8 3l-9 11v33l-3 32l-6 12l-11 -26l-3 -14l-21 -78l-10 -30l-7 -28l-9 -27l-7 -25l-8 -29l-8 -27l-18 -63l-7 -24l-12 -11l-15 -2h-37l-39 1l-15 9v30l-3 12v14l-1 29l-1 30l-2 27l2 13l-3 11v11l-3 25v33l1 24l-3 8v31l-1 23v33 l-2 12l-3 29v31l-2 26l1 10l-2 33v23l-4 17l2 28l-3 11l1 19l-2 33l-1 32l-2 30l2 16l10 9l16 3h15l32 -2l17 2l22 -1l15 -27l-1 -9l1 -33v-61l1 -30l1 -31v-30l-1 -36l2 -14v-53l1 -28l-2 -33l11 -11v9l4 12l5 25l10 26l9 27l1 12l10 33l7 27l9 27l4 23l4 11l12 35l10 44 l6 20l7 27l9 26l8 8l34 4h30l29 -2l7 -7l2 -14l1 -41l-2 -34l5 -11l1 -23l-1 -31l2 -31v-28l1 -27l1 -37l3 -13l-1 -12v-29l1 -35l4 -17l8 9l6 28l9 15l-4 5l12 39l6 29l7 30l7 27l10 32l7 34l8 23l3 19l7 28l9 30l9 31l8 10l15 3l34 1z"/>
<glyph glyph-name="X" horiz-adv-x="400" unicode="X" d="M286 325l2 2h-2v-2zM287 333h2l-1 3zM276 348h3l-3 2v-2zM309 304h3l-3 2v-2zM374 578h4l-3 3zM164 606l-5 -8l6 7zM369 527l-18 3l7 -2zM70 62v-5l3 3zM190 574l3 -1l-7 10zM220 359l-9 -2l1 -4zM281 432l6 -4l5 10l-5 -6h-6zM284 273l-7 4l-7 -3zM299 406l5 5l-5 6v-11 zM206 332l-7 -5l7 -4v9zM302 218l-3 -11l4 -8zM292 104l-6 -5l18 2zM293 446l2 11l-6 -13l12 -8zM177 237l-7 7l-5 -9zM175 174l4 7l4 5l-15 -8zM140 152l9 5l-9 7v-12zM289 294v-8l-6 2l8 -11l2 8zM357 569l-10 4l-3 -11zM64 62l-11 -10h13zM255 331l1 -13l8 5l-3 5z M187 639l14 -1l-9 10zM307 148l8 -13l4 12zM193 622l-6 2l-6 -9l3 -3l11 4zM269 362l2 -9l14 -1l-5 9zM232 419h5l-13 8l3 -8l-9 -2l-4 -8l10 2zM215 332l1 -14l6 11l15 4l-5 5zM333 533l5 7l-4 6l-9 -12l2 -11l9 5zM263 305l-7 -12l20 -1l-3 12zM152 199l-2 -9l14 5l4 -12 l14 9l-16 8l-1 4zM309 219l8 13l-1 5l-2 7l-9 -7l-10 1l1 -12zM397 26l4 -5l-7 -19l-21 -2l-30 -2l-29 -1l-27 1l-15 6l-7 14l-4 31l-6 15v20l-3 13l-6 24l-1 20l3 7l-6 4l-5 18l-3 32l-7 17l-10 -9l-4 -14l-11 -21l-11 -27l-11 -24l-12 -28l-8 -7l1 -8l-6 -15l-10 -21 l-13 -32l-11 -11l-13 -3h-46l-12 4l-10 -5h-19l-15 3l-4 14l10 27l14 26l12 25l10 24l11 15l6 18l11 22l10 23l14 25l10 23l11 20l13 28l13 30l13 25l9 8l-2 8l4 14l-3 13l-8 35l1 13l-10 17l-7 37v19l-8 11l-6 37l-9 28l2 4l-8 26l-8 36l-6 26l-7 27l5 13l12 4h28l35 1h35 l16 -5l7 -27l5 -31l4 -28l7 -40l5 -25l-4 -10l8 -11l5 -27l10 9l8 11l7 22l9 20l12 29l11 30l13 29l8 22l10 22l16 10l20 -9l-5 9l14 1l54 -2h21l9 -9l-3 -13l-6 -13l-16 -30l-12 -27l-18 -40l-11 -16l-2 -11l-8 -18l-18 -32l-3 -11l-15 -25l1 -2l-6 -7l-3 -16l-10 -15 l-6 -14l-14 -32l-6 -24l3 -13l6 -29l2 -18l6 -14l-5 -13l9 -9l5 -13l5 -30l4 -29l5 -14l6 -28l4 -16l7 -33l9 -30l1 -14z"/>
<glyph glyph-name="Y" d="M241 163h3l-3 2v-2zM181 697h3l-3 2v-2zM367 497h4l-4 4v-4zM197 327l2 -3l6 3h-8zM314 407l2 -3l4 9zM255 243h-6v-7zM297 403l-6 -6l6 -3v9zM177 678l-9 -2l1 -6zM224 334l-10 -9l9 2zM199 201h9l-3 4l5 8zM193 609l8 -7l-2 9l-13 -3zM348 509l2 17l-5 -7zM192 532 l-4 -6h12zM244 357l-6 1l6 -14v13zM180 571l2 -8l8 8h-10zM320 479l-9 -1l-5 3l6 -9zM200 588l-13 -4l5 -5zM225 508l6 9l-13 -10l-3 -5zM239 306l5 -7l4 13zM197 478h-8l13 -6l-1 14zM155 600l7 -19l-1 7l4 12h-10zM173 596l-3 9l6 10l-14 -5zM199 638l-5 4l-11 9l1 -9 l8 -6l-6 -20l19 6l1 9h-12zM264 383l-19 -2l-13 -2v-16l10 8l10 4l24 8l-6 9l-9 13l-10 2v-6l8 -5zM491 722l10 -7l-1 -11l-13 -30l-11 -23l-14 -29l-7 -6v-12l-11 -23l-11 -22l-10 -23l-22 -48l-11 -23l-13 -19l-3 -18l-9 -16l-12 -28l-13 -28l-13 -29l-10 -18l-3 -11 l-7 -7l4 -12l-5 -28l-4 -32l-2 -28l-4 -12l-1 -26l-5 -29l1 -9l-3 -9l-4 -31l-3 -38l-4 -26l-11 -10l-16 -3l-14 1l-27 -1l-29 1l-27 1l-8 10l1 29l5 30l5 43l3 26l6 35l2 34l3 26l6 31l-1 8l5 16l-3 12l-6 33l4 15l-7 -3l-6 28l-3 20l-7 28l-7 34l-8 35v13l-8 26l7 10l-6 5 l-5 9l-8 40l-4 26l-5 12l1 10l-9 33l-4 38l8 9l12 2h73l33 -3l6 -7l2 -13l5 -25l7 -39l-1 -10l4 -7l3 -25l4 -26l4 -33l3 -6l2 -14l5 -34l8 -6l8 13l10 29l14 36l11 25l9 23l8 25l13 29l14 31l14 32l33 5h36l8 -2l26 3z" unicode="Y"/>
<glyph glyph-name="Z" horiz-adv-x="397" unicode="Z" d="M304 354h2l-3 3zM188 247h2l-2 4v-4zM349 497l-8 -3l-5 -6zM228 283l1 -7l4 7h-5zM381 638l4 9l-3 3zM306 628l6 5l2 9zM361 601l-8 5l-4 -4zM400 639v-8l8 4zM274 632l10 -2l-5 9zM249 360l-7 2l-8 5l7 -10zM307 462l8 -5l-1 5l-6 7zM173 260l7 -5l6 8zM419 654l-10 -6 l11 -2zM315 438l-1 13l-7 -6zM227 311l4 -11l1 7l7 7zM118 51v15l-5 -19h8zM370 673l-10 -1v-7l12 4l1 -12l-2 -6l13 4l3 11l-9 -9l-6 12zM296 495l8 6l6 3l-14 2v-11zM340 641l7 -1l4 8l-8 5zM319 540l12 -1l3 4l-9 7zM309 521l3 -13l8 -9v10zM293 470l-14 -2l-5 -8l12 1z M216 344l-6 1l-9 -7l18 -3zM368 601l8 4l7 4l-5 6l-6 -10l-11 7l1 -11h6zM122 78l-7 8l-17 1l6 -17l3 13zM333 563l-5 9l-10 -8l13 -8l7 5zM300 414l8 9l-3 3l-12 1l-3 -8zM326 474l-5 -11l11 3l-10 21l-14 -10h8zM343 672l-9 20l-8 -2l3 -8l10 -5l-8 -8l-2 -8l9 -3z M264 418h-7l13 -8l-3 7l9 7l-9 -2l9 12l10 9l-5 8l-8 -7l2 -6l-11 -8v-12zM459 717l4 -13l-2 -15l-4 -28l-4 -27l-6 -11l-12 -25l-7 -8l-2 -11l-12 -21l-11 -9l-2 -17l-21 -42l-11 -18l-11 -24l-11 -23l-8 -11l-3 -10l-11 -13l-4 -16l-7 -10l-7 -15l-13 -25l-27 -54l-15 -27 l-12 -25l-6 9l3 -11l-12 -25l-16 -32l-15 -33l10 -8l18 -1h64l26 2l29 -2l32 -1l10 -13l-2 -18l-3 -33l-4 -39l-6 -10l-18 -4l-39 -2h-26l-28 1h-59l-31 -2l-13 1h-63l-23 -1l-5 2l-5 -2l-18 1l-12 9l-1 18l3 19l4 36l9 22l12 20l13 27l10 22l12 20l9 19l7 9l11 24l12 24 l10 23l9 14l16 30l14 27l15 26l10 24l24 46l15 25l14 29l13 26l14 26l15 27l-10 15l-16 -1l-12 2l-31 -2h-35l-31 1l-28 -1l-12 3v30l4 28l6 28l-3 12l7 12l12 6h26l32 -1l13 2l25 -1l25 -2l27 2l25 -1l30 2l24 -2l22 1h50z"/>
<glyph glyph-name="bracketleft" horiz-adv-x="269" unicode="[" d="M119 455h3l-2 2zM134 -73l6 -7l-6 10v-3zM164 -60l-12 -8l5 1zM100 -53l3 -3l8 2zM121 -69h5l-10 8zM160 599l-7 6l3 -5l-6 -7zM121 -83l10 7l4 1l-8 2zM176 711l3 -7l8 6zM140 506l17 10h-8zM141 591h-13l-1 -7zM157 686l7 7h-7l-7 4zM151 537l-10 8l3 -13zM242 798 l-11 3l-5 -3l6 -6h17zM218 -64l-6 -20v-12l-6 -11l-12 -5l-14 1l-29 -1l-28 2l-14 -2l-31 1l-23 -1l-25 1l-18 9l-1 12l4 28l3 9l1 14l4 31l3 32l4 28l4 29l3 28l5 28l3 28l6 58l4 29l2 29l5 6l-2 21l4 16l3 31l2 27l6 26v22l4 14l1 25l4 34l4 13v13l3 27l5 27l3 25l1 27 l4 12v20l4 29l5 26l3 26l3 29l4 37l7 16l15 3l31 2l28 -1h60l27 -1l13 2l19 -8l1 -14l-4 -31l-4 -29l-11 -10l-30 -1l-14 2l-34 -2l-10 -7l-2 -13l-3 -27l-5 -32v-13l-3 -29l-16 -116l-4 -32l-2 -21l-4 -28l-2 -28l-6 -30l-3 -33l-4 -12l1 -13l-4 -14v-26l-3 -12v-14l-6 -25 l1 -12l-3 -11l-2 -30l-5 -27l-3 -35l-2 -28l-6 -26l1 -13l-3 -11l-4 -22l1 -14l14 -8h21l28 1l27 -4l4 -19l-4 -13z"/>
<glyph glyph-name="backslash" horiz-adv-x="243" unicode="\" d="M170 316l-11 -2l11 1l7 5zM217 -32l3 8l-3 9v-17zM180 136l-5 -12l4 -1zM223 -7l-5 15l-2 -6zM143 560l-8 5l-1 -7zM208 158l-9 10l-2 -5zM156 450l5 -7l-5 12h-10zM200 103l-9 -4l9 -6v10zM191 219l10 6l-9 -2l-9 2l-6 -13l6 8zM182 262l-4 -12l15 5zM149 429l4 6l9 4 l-18 6zM105 719l1 -8l7 -9l-2 7l7 9l-5 12zM182 402l-12 6l-15 -6l3 -7zM265 -35l4 -9l-3 -20l-24 -6l-13 2l-14 -2l-15 1l-18 16l-7 36l6 23l-7 -6l-7 42l-5 22l-1 23l-5 28l-4 19l2 15l-6 11l-1 14l-4 29l-4 31l-6 28l1 11l4 12l-9 15l4 5l-6 9l-4 27l-6 31l-1 28l-7 32 l4 22l-8 1l-2 28l-5 26l-3 33l-4 13v11l-3 9l1 9l-4 22l-4 10v10l-3 30l-7 30l1 9l-2 15l-8 46l-1 20l18 13l31 2l27 -1l11 -17l4 -17l5 -30l2 -24l5 -22l2 -25l3 -25l4 -11l1 -13l4 -29l5 -28l2 -27l4 -26l4 -24l4 -26l3 -22l4 -25l5 -27l3 -25l4 -22l-1 -9l5 -26l5 -39 l8 -39l-3 -9l5 -7l3 -42l7 -39l6 -32l2 -26l4 -33l4 -11l1 -12l4 -23z"/>
<glyph glyph-name="bracketright" horiz-adv-x="269" unicode="]" d="M240 544h2l-1 2zM301 674h2l-1 3zM196 173h3l-3 2v-2zM269 591v-7l5 16zM251 432l5 1l2 11zM211 98l-6 -3l3 -7zM270 531l4 -8l-4 13l-10 -11zM180 -20l-9 -4l11 -4zM235 461l-1 9l-8 -9h9zM218 321l9 -7l3 7h-12zM194 65l-5 -13l8 3zM283 675l1 -8l4 7v4l-13 -2z M211 154l-9 -4l11 -1l10 -4zM250 631l12 -8l4 6zM270 564l2 8l-13 4zM226 796l6 -3l7 8l-12 -1zM271 619l9 7l-9 1l-10 -7zM267 462l-9 -5l-9 6l-2 -7l18 -1zM252 406l2 11l-15 -9l9 3l-4 -13zM301 694l-6 6l-8 1l-7 -4l9 -2l6 -6zM219 293l11 -9l16 7l-11 10l-4 -9z M190 801l-1 -11l13 1l10 8l-5 4l-7 -7l-5 3l2 9zM253 65l-3 -20l-1 -14l-2 -14l-4 -29l-3 -28l-4 -29l-4 -27l-5 -11l-18 -5h-18l-24 2l-25 -3l-31 1h-64l-12 5l-2 17l2 29l5 28l11 12l17 1h60l12 8l4 17l2 33l8 54l3 28l4 28l1 26l3 11l4 24l3 25l4 35l3 25l3 33l5 37l4 29 l4 37l4 9v9l3 25l2 34l6 35v17l5 18v14l4 21l-1 11l4 24l4 29l1 25l5 23l-1 12l-13 7l-16 -1l-30 2l-18 -2l-15 6l-3 17l4 19l3 32l7 13l14 6l33 -1h84l29 2l16 -1l15 -4l4 -13l-2 -15l-3 -35l-4 -10l1 -14l-5 -30l-4 -36l-5 -25l-2 -28l-3 -35l-4 -24l-2 -28l-6 -31l-1 -26 l-5 -29l-8 -64l-3 -25l-4 -30l-2 -27l-5 -34l-4 -33l-1 -26l-7 -27l-1 -25l-5 -33l-4 -34z"/>
<glyph glyph-name="asciicircum" horiz-adv-x="542" unicode="^" d="M414 421h3l-2 4zM444 479l-4 2h-7zM436 390l6 -7l2 2zM287 619l15 -15l-4 6zM378 490v-8l4 2zM279 601l6 -15l-1 9zM206 455l3 -6l-4 -9l8 9zM213 473l9 1l-4 4l1 6zM343 618h9l1 4l-8 7zM381 590l-6 -19l17 9l-11 -2l4 12h-4zM387 689l-6 10l-2 -9l7 -15zM366 686l2 -8 l10 2l-15 13l-3 -13zM396 496l11 -4l11 -7l-5 8l-10 11zM399 523l-6 -3l6 -7l6 -4l10 10l-10 -1zM440 454l-1 10l5 -9h10l-11 15l-13 4l3 -6l-2 -19zM524 356l9 -26l1 -18l-9 -8l-13 -3l-12 2l-12 -2l-12 1l-24 -2l-24 2l-11 5l-11 28l-9 33l-11 42l-11 34l-8 31l-11 32 l-3 17l-5 18l-9 17l-8 -6l-15 -28l-12 -21l-10 -23l-8 -10l-5 -12l-12 -21l-14 -29l-12 -24l-15 -29l-12 -24l-18 -25l-12 -5h-58l-25 -1l-18 10l13 35l16 28l16 29l11 9l4 19l17 27l14 27l19 34l11 22l9 14l15 29l16 31l8 10l13 27l14 22l13 23l4 12l9 10l13 5l13 -2l13 2 l10 -3l11 2l18 -1l14 2l16 -14l10 -31l11 -36l-2 -9l13 -23l9 -27l7 -25l-2 -11l9 -12l1 -14l-11 -2l9 -1l7 -7l-2 -8l8 -3l4 -18l9 -37l6 -25l-11 -1l17 -10l-7 -19l13 3l5 -17z"/>
<glyph glyph-name="underscore" horiz-adv-x="391" unicode="_" d="M216 -79l-7 3l8 -8zM178 -102l-2 -8l5 3zM129 -103l7 -6l2 5zM221 -108l8 -2l6 6zM210 -122l9 -2l2 11zM304 -89l-11 4l1 -9l4 -2zM149 -103l6 -8l7 -1l-1 11zM285 -123l5 4l9 12l-10 -4v11l-7 -1v-12zM394 -90l-2 -15l-1 -12l-4 -21l-9 -8l-13 -2l-13 1l-27 -1l-28 1 l-16 -2l-27 1h-33l-8 4l-5 -2l-7 3l-5 -5l-11 1l-12 -2l-31 1l-34 2l-30 -2h-32l-27 1l-33 -2l-11 5l-5 12l1 12l3 25l4 14l16 12h69l3 -11l2 11l12 2l16 -2l18 1l34 -1h30l29 2h35l18 -6l10 5l30 -1l4 -7l3 7l22 1h29l23 -1l12 -7z"/>
<glyph glyph-name="grave" horiz-adv-x="160" unicode="`" d="M117 914h3l-3 3v-3zM78 917l1 -10l9 1zM147 873l10 -7l-2 3l-8 17v-13zM205 876l22 -66l2 -15l-4 -14l-17 -5h-48l-16 10l-10 21l-7 6l-9 21l-12 13l-2 8l-6 5l-9 19l-10 15l-12 24l4 10l12 3l25 -3l7 4h55l17 -4l7 -12l4 -14l6 -11z"/>
<glyph glyph-name="a" d="M239 532l-2 2l-9 -1zM324 637l-6 5v-5h6zM302 253l-8 8l5 -6l8 -13zM302 621l-10 -1l-1 -4zM296 461h5l-4 9zM277 172l5 1l4 10zM182 202l3 -10l4 4zM234 241l-6 1l7 -10zM157 342l9 3l-9 6v-9zM358 526l-7 11l-2 -9zM329 503l11 -5l-4 6l-12 5zM318 500l-7 7l-8 -8z M126 126l4 -11l7 9zM186 443l-13 -8v-9zM266 611l-8 1l-6 3l-4 -9zM205 199l-8 -14l13 4zM282 595l-11 3l-3 -4l11 -7zM324 451l-4 7l-6 -1l2 -13zM247 542l9 1l9 11l-11 -3zM190 451l-8 20l-4 -11zM311 205h-18l8 -6l3 -8zM313 225l13 12l15 3v4l-17 5l-4 -10l-7 -10h-8 l-6 7l-13 -4l16 -9zM210 274l7 -12h15l30 1l13 11v23l-1 41v23l-2 41l1 26l-2 29l-5 13l-11 -26v-11l-8 -26l-14 -52l-14 -50zM410 61l3 -27v-12l-1 -11l-15 -12h-10l-23 1l-14 -2l-26 1h-27l-14 8l-3 16l2 21v16l-3 12l3 10l-3 10l1 13l-1 23l-5 19l-29 -1h-28l-28 1 l-13 -5l-7 -13l-1 -12l-5 -17l-9 -29l-7 -31l-8 -25l-10 -12l-13 -4h-80l-14 3l-10 9l7 22l8 27l12 44l8 27l8 26l8 27l8 24l9 31l8 31l10 26l3 18l6 18l8 31l8 8l2 19l6 21l10 36l10 32l10 31l7 24l8 28l9 30l8 28l8 27l6 13l2 13l5 13l4 20l11 15l12 4l28 -2h29l15 2 l18 -1h25l14 -4l5 -10l2 -14l2 -26l2 -29l1 -34l2 -28l-1 -13l4 -26l-1 -17l2 -33l3 -33l-1 -14l2 -16l3 -32l-3 -9l4 -11l-1 -35l3 -32v-23l3 -23v-23l3 -34v-25l1 -27l3 -31l2 -31v-30z" unicode="a"/>
<glyph glyph-name="b" horiz-adv-x="428" unicode="b" d="M134 372v-2l3 2h-3zM392 405h3l-3 2v-2zM347 310h3l-3 2v-2zM190 394h3l-3 3v-3zM136 399l-13 -1h8zM422 563l-4 7l2 -8zM134 246l2 -1l3 7l5 9zM133 149l12 2l-12 2v-4zM352 329l6 3l-4 7zM167 363l2 -9l5 7zM145 343l6 -7l1 9zM140 310l5 9l-8 -1zM143 83l6 -1l8 10z M195 572v10l-7 -12zM113 100l11 -1l-5 6l2 6zM232 357h-10l3 -9zM213 646v10l-9 -3zM215 394l-13 -6l7 -4zM306 397v-8l9 2l-5 6h-4zM162 450l9 -5l-3 10l-15 -7zM167 248v-11h10zM159 426l6 -6l4 20zM101 125l8 -13l8 8l-11 2zM164 365l-15 -5l12 -6zM186 315l5 11l-1 1 l-11 3zM212 340l2 13l5 10l-8 -9l-10 -7l-1 -5zM149 380l4 1l-4 10l12 7l4 8l-7 2l-7 -4l-5 -15l-7 -6zM253 602l-2 -14l-3 -13v-13l-4 -17l-1 -17l-3 -31l-4 -26l-5 -27l1 -14l13 -5l16 -2l11 3h19l24 18l8 14l11 34l4 29l1 36l-2 18l-5 14l-8 10l-11 6l-15 3l-34 2z M292 143l10 39l5 18l1 15l1 31l-2 30l-4 15l-10 12l-14 11l-31 2l-26 -1l-8 -13l-2 -32l-4 -33l-5 -22l-6 -58l-3 -31l5 -11l17 -3l32 1l18 5l15 10zM439 210l-5 -27l-1 -13l-3 -12l-6 -28l-8 -24l-10 -19l-15 -24l-20 -21l-28 -21l-15 -7l-27 -9l-12 -2l-29 -2l-27 -1 l-25 -1l-31 -1l-34 1l-28 1l-30 -1l-25 1l-13 15l6 66l6 28l3 38l4 31l3 33l6 27v10l4 29l3 20l2 36l5 30l4 28l3 28l3 29l5 30l2 31l4 16l1 18l3 24l4 30l3 31l5 29l1 25l4 26l14 15l20 2l12 -1l24 -1h52l14 2l62 -2l31 -2l35 -8l8 -5l8 -2l25 -16l9 -11l18 -30l7 -29 l4 -29l-2 -32l-3 -33l-4 -31l-6 -27l-8 -27l-13 -18l-21 -28l-9 -5l-11 -10l-2 -11l10 -7l8 -9l15 -19l10 -28l3 -23l1 -25l-2 -25z"/>
<glyph glyph-name="c" horiz-adv-x="416" unicode="c" d="M149 228l1 1h-1v-1zM105 265h-5l6 -4zM97 88l5 -5l2 6zM154 112l-10 -6l4 -2zM105 186l-7 -6l13 4zM113 193l-2 13l-4 -2zM134 290l-8 -7l14 4zM96 334l-11 2l13 -6l6 7zM112 234l-13 -7l9 1l9 -1zM97 303l-1 -14l6 1l1 8zM120 292l8 2l-12 4l-2 -17zM129 259l-4 -15 l9 -1zM123 324l-6 3l-5 6l5 -12l-13 -3l14 -12zM420 230l-5 -26l-1 -14l-3 -32l-5 -23l-12 -28l-10 -24l-11 -18l-10 -9l-24 -27l-14 -7l-10 -8l-12 -6l-29 -11l-27 -7l-25 -1h-24l-30 2l-30 8l-24 11l-7 8l-24 16l-7 11l-15 21l-10 27l-8 36l1 31l3 29l4 29l2 27l4 26l4 25 l3 31l6 30l2 29l4 27l4 26l1 26l4 31l5 34l3 25l6 33l5 10l4 16l15 27l15 21l19 23l15 12l24 14l31 13l28 9h16l18 3h18l32 -3l13 -3l24 -7l17 -9l27 -20l9 -13l16 -22l6 -14l7 -31l2 -30l-3 -33l-2 -34l-4 -13l-4 -31v-13l-11 -15l-16 -1h-32l-29 -1l-33 2l-8 7l-1 17l5 34 l2 25l6 28v17l-5 15l-8 13l-11 10l-15 5h-18l-15 -5l-11 -10l-16 -25l-6 -29l-4 -30l-3 -30l-4 -28l-3 -30l-5 -33l-1 -30l-5 -30l-3 -29l-3 -26l-3 -24l-5 -32l-4 -23l-1 -26l-3 -31l4 -13l13 -15l10 -5l25 -4l26 10l10 11l12 23l5 21v19l4 23l2 26l6 30l6 12l12 6l28 1h59 l18 -6l5 -9l-2 -20z"/>
<glyph glyph-name="d" horiz-adv-x="440" unicode="d" d="M419 393h2l-2 2v-2zM378 322l5 1l-3 2zM147 403l-3 -4l-1 -8zM147 575l7 9l-2 1zM274 678l-2 11l-2 -3zM190 612l12 2h-20zM160 321l-10 6l1 -5zM137 432l-3 8l-5 -6zM177 665l-6 4l-7 -9l6 4zM115 247l7 -2v9zM172 607h-9l5 -8zM173 519l4 -4l4 -2l2 7zM167 598l-7 -10 l7 -1v11zM164 615l10 8l-9 2zM159 476l-12 1l5 -4l6 -6zM203 568l-4 -7l6 -8l12 1l-11 5zM236 633l-11 9l-8 -1l2 -18l8 8zM337 448l2 28l3 15l13 6l-11 3l-2 11l6 29l-3 35l-6 14l-13 11l-15 4l-28 3h-20l-10 -8l-5 -14l-2 -28l-4 -29l-4 -28l-3 -28l-2 -28l-4 -12l1 -13 l-3 -13l-4 -30l-3 -35l-4 -25l-3 -25l-4 -34l-3 -29l-5 -10l1 -12l-2 -11v-23l-7 -30l1 -22l9 -7l13 -2l30 3l28 11l10 9l7 11l4 12l8 25l4 33l8 58l2 32l4 19l3 37l5 29l3 29zM449 277l-4 -27v-11l-6 -32l-1 -19l-7 -27l-7 -26l-11 -30l-14 -25l-17 -20l-6 -10l-8 5l1 -8 l-20 -17l-26 -15l-28 -8l-33 -8l-10 1l-16 -3h-25l-26 1l-28 1l-29 -1l-29 1l-29 -2l-15 2l-8 8l2 30l5 34l3 29l4 26l3 26l3 28l5 28l1 26l4 12l2 25l2 26l4 31l4 33l4 30l3 31l5 25l1 26l4 14v16l4 34l3 33l7 29v25l4 14l1 14l4 27l5 35l9 7l39 3l29 -1h31l27 1l27 -1 l32 -1l29 -4h15l27 -10l29 -18l17 -13l18 -29l11 -28l7 -33v-19l-3 -13v-34l-4 -29l-3 -25l-1 -26l-9 -45l-2 -31l-2 -25l-4 -27l-4 -12v-24z"/>
<glyph glyph-name="e" horiz-adv-x="392" unicode="e" d="M137 305l-3 7l2 -7l-4 -5zM112 400h8v5zM113 165l8 1l-2 5zM160 483l3 -8l4 4zM207 504l7 8l2 10zM162 603l5 -6l-6 10l-8 -8zM144 533l9 -19l1 4zM188 547l4 5l9 2l-8 3zM162 507l-4 -6l13 5zM147 410l-4 6l-6 -6h10zM185 609l-8 -1l4 -7zM321 350l6 5l-8 5zM241 411 l-8 5l-5 -5h11l6 -6zM132 332l8 -6l-2 6l1 8zM180 400l-8 -9l15 6zM172 526l-3 -8l10 12h-11zM145 484l5 11l-10 -1zM206 631l11 3l-4 6l-8 -5zM139 278l-7 -6l14 7l-12 11zM208 556l-9 -11l13 2zM135 610l-2 -12l4 11l6 6l-14 2zM129 375l-7 -10h4l12 6zM199 640l15 4 l-11 2l-13 -2zM191 623l-7 5l-11 -8l12 -5zM183 578l11 13l-12 1l-12 -3l-7 1l19 -6zM382 112v-22l-2 -20l-5 -27l-2 -27l-7 -13l-14 -4h-75l-28 1l-22 -2h-35l-27 1l-28 -1l-27 1h-54l-10 7l2 20l2 31l4 30l4 31l3 32l4 31l5 31l3 25l4 28l2 26l5 42l4 29l3 27l6 41l2 28 l4 26l3 29l3 23l5 28l-2 3l4 25l12 -8l-11 10l10 5v9l-8 2l4 28l3 27l5 34l8 18l5 3l20 4l33 -1l26 1h29l13 -6l8 6l26 -1h31l30 -1l21 2l28 -1l28 -4l7 2l4 -23l-5 -40l-4 -34l-12 -17l-13 -3l-12 2l-30 1l-31 -3l-31 1h-47l-12 -7l-4 -16l-1 -17l-5 -36l-3 -32l-7 -9l5 -6 l-3 -14l-4 -29l14 -9l19 1h37l8 -8l1 8l17 -1l19 2l15 -4l6 -20l-4 -9l1 -13l-4 -23l-3 -25l-4 -13l-10 -9h-104l-21 -5l-4 -17l-4 -32l-4 -31l-8 -12l6 -4l-3 -27l-3 -26l-4 -32l7 -10l24 -2l43 1l21 -1l32 1l33 1l16 -2z"/>
<glyph glyph-name="f" horiz-adv-x="397" unicode="f" d="M192 447v-3l3 1zM174 528h4l-3 4zM148 378l9 5l-4 1zM124 216l7 -4l2 5zM361 390l5 6l-10 -2zM162 400h7l-9 10zM182 366l2 -9l5 13zM153 597l-7 -3l11 -6zM334 361h10l-12 8zM198 601l10 -3l1 9zM194 602l-7 4l-9 -14zM210 671l-13 1l5 -11zM145 325l-7 -6l16 -7z M232 669l-6 -10l-9 -2l7 -2l11 5zM452 682l-2 -23l-4 -16l-2 -18l-6 -14l-14 -5h-154l-13 -3l-6 -12l-3 -17l-5 -60l-5 -32l-5 -41l8 -13h17l40 -1h27l32 1l15 -10l-2 -16l-4 -31l-1 -24l-11 -21l-1 -11l-21 -4l-30 1l-30 -2l-16 2l-31 -2l-10 -12l-4 -33l-3 -32l-3 -28 l-5 -27l-3 -28l-4 -24l-4 -26v-13l-4 -35l-3 -30l-5 -14l-10 -8l-17 -1h-33l-28 -1l-33 2l-8 7l2 23l2 24l4 26l2 27l4 29l3 29l5 27l-1 12l4 17l3 33l5 34l3 35l8 54l1 24l5 8v15l4 26l2 29l3 27l5 28l1 24l5 31l4 31l3 37l3 15v15l3 9v11l13 15l22 1l23 1h89l28 -2l24 3 l33 -2l13 1l25 -2l24 3l26 -6l4 -11l-4 -16z"/>
<glyph glyph-name="g" horiz-adv-x="439" unicode="g" d="M133 489h3l-3 2v-2zM154 576h2l-1 3zM160 435h5l-3 2zM122 414l8 2l-10 8zM163 309l-13 -15l10 5zM142 81l15 -9l-8 8l-1 6zM119 529l6 5l-12 5zM128 375l-7 -9l15 6zM177 546l-10 -1l-10 -2l11 -3zM224 658l4 -11l9 2zM341 281l-1 -8l-6 -8l13 8zM354 125l5 9l7 8 l-12 -5l-3 -9zM122 389l-8 -10l11 1l5 12zM154 483l3 -12l12 -1l-2 11zM182 577l-9 -5l11 -14l5 -4l-1 8zM190 537l-10 -1l-6 -1l-2 -18l8 -2v11l8 2l5 -1zM401 59l-3 -12l-1 -15l-1 -14l-6 -12l-10 -5l-13 -2l-29 -1l-11 7l-8 18l-8 11l-19 -15l-23 -15l-30 -11l-21 -4 l-28 -2l-33 3l-31 8l-28 15l-11 10l-19 23l-14 30l-10 38l-2 24l3 18l-2 11l4 16l2 28l2 23l4 13l3 28l1 26l4 12l4 27l2 30l4 31l4 28l5 30v16l4 17l-1 16l5 16l1 17l4 33l10 34l13 28l17 25l21 23l9 6l15 13l9 4l31 16l30 8l26 4l25 -1l30 -2l33 -8l27 -14l25 -18l17 -24 l14 -34l7 -22v-54l-4 -36l-2 -23l-4 -25l-8 -10l-35 -4l-34 2l-13 -2l-14 2l-13 -1l-9 8v26l2 24l2 30l1 30l-5 14l-17 18l-15 3h-15l-15 -6l-12 -9l-8 -12l-10 -28l-3 -28l-3 -26l-4 -23l-4 -31l-3 -30l-2 -29l-5 -26l-2 -26l-4 -28l-3 -28l-5 -31l-4 -32l-2 -27l-3 -7 l-1 -14v-30l6 -14l9 -12l19 -8l22 2l22 4l18 18l7 16l6 27l12 4l-11 3l-1 11l4 10l3 31v25l-10 4h-17l-33 3l-5 10l1 14l5 28v14l5 27l10 10l11 1h52l24 1h25l25 -1l17 2l26 -2l4 -21v-12l-6 -29v-26l-4 -29l-4 -26l-4 -32l-4 -25l1 -13l-5 -29l-5 -27l1 -12z"/>
<glyph glyph-name="h" horiz-adv-x="465" unicode="h" d="M337 237h2l-2 2v-2zM103 118h2l-2 2v-2zM154 399h2l-1 2zM342 351l-5 -11l5 9v2zM114 198l3 7l-1 7zM210 364h4l9 7zM383 343l8 -5v4zM265 378l-3 -9l5 2zM200 511l-11 -1v-4zM324 360l-3 -7l9 3zM121 256v-15l9 2l-8 3zM431 368l-7 8l-2 -6zM434 392l-10 -2v-6zM361 339 v-4l15 2zM389 383l10 3l7 -5l-7 9zM329 225l9 -3v8zM174 304l-3 -4l10 1l-10 13zM423 409l-8 -7h15zM148 415l-9 -7h-11l9 -6zM190 392l7 -18l5 7zM380 302l2 3h10l-4 5l-11 4zM411 365v-12l6 -7l1 12zM371 192l7 4l-6 10l-6 -9zM391 354l7 -6l8 -8l-1 13zM136 389l3 -22 l5 9l-3 13h-5zM388 388l-7 13l-10 2l-1 -4h5l5 -12zM405 314l18 -12v9l-8 7zM401 327l11 -4l-3 8l3 7l-13 1zM161 346l10 3l-10 9l-7 -2l-5 -9zM438 159v-18l-5 -19v-14l-4 -31l-4 -23l-3 -23l-8 -27l-29 -6l-10 2l-12 -2l-18 2l-16 -1l-31 1l-8 7l-1 12l2 16l3 30l3 22 l5 25l2 31l4 30l4 25l1 24l5 25l3 24l1 31l-35 3h-58l-15 -13l-5 -24l-1 -23l-4 -13v-12l-4 -27v-13l-4 -16l-4 -29l-3 -30l-4 -26l1 -12l-4 -27l-4 -28l-8 -11l-14 -3l-28 1l-26 1l-33 -1l-16 3l-6 8l-1 14l6 33l2 20l4 13l-1 15l4 29l5 32l3 30l4 31l3 32l4 18l1 21h13 l-12 2l3 21l2 27l4 30l4 31l2 27l3 13v13l5 33l4 28l3 28l3 34l5 33l4 33l4 26l2 28l13 17l17 2l28 -1h30l14 2l16 -1l12 -4l4 -19l-3 -13v-12l-8 -54l-4 -35l-5 -29v-24l-3 -12l-3 -24l-4 -29l-2 -36l11 -8h73l17 2l7 10l3 28l6 33l3 39l2 21l3 15l2 21l4 18l4 32l2 33 l6 32l8 12l14 2h32l37 1l36 -2l3 -20l-2 -21l-5 -32l-3 -35l-4 -30l-3 -24l-4 -29l-5 -33l-3 -33l-3 -28l-4 -27l-5 -32l2 -8l-6 -27l-4 -28l-2 -28l-2 -30l-6 -33l-3 -33z"/>
<glyph glyph-name="i" horiz-adv-x="219" unicode="i" d="M132 466h3l-3 2v-2zM125 195l-7 -8l7 4l1 7l-4 4zM186 586l-6 12l-3 -7zM145 208l-11 -3l10 -6zM199 600l8 -8l11 4zM188 100l-4 -12l1 -14l-4 -31l-6 -34l-16 -10h-23l-24 1l-58 -2l-9 8l1 29l5 29l3 31l8 64l5 38l2 28l4 14l2 29l3 30l5 29l8 60l1 24l5 23l3 30l4 26 l3 29l3 27l3 29l4 30l2 27l4 11l3 33l4 27l6 13l12 6h60l29 2l16 -3l8 -7l-2 -23l-2 -27l-4 -28l-2 -31l-3 -15l-5 -30l-8 -18l7 -1l-3 -13l1 -13l-5 -19l-4 -36l-3 -32l-4 -31l-5 -31l-4 -31l-2 -31l-5 -31l-2 -27l-5 -30l-3 -34l-3 -29l-4 -28z"/>
<glyph glyph-name="j" horiz-adv-x="418" unicode="j" d="M285 229h3l-3 2v-2zM380 503h3l-2 3zM382 281l6 -6l2 4zM372 417l6 6l-5 -2l-9 -8zM362 581l-7 4l3 -7v-3zM331 296l-5 -1l3 -9zM337 256l-7 -12l8 5zM379 386l3 -7l9 4zM391 522l3 9l-10 -2zM383 579l-10 -4l2 -8zM394 301l-4 6l-9 -11zM341 485v-14l7 8zM385 370 l-12 -8l14 -1zM352 208l4 -10l7 -3l-3 11zM385 504l11 -7l3 11zM341 486l11 8l-11 5v-13zM359 284l-10 -1l4 -3l8 1l8 -5l-10 17v-9zM320 262l-8 -5h17l-7 13zM358 349l-11 -1l-6 -23l11 7zM321 367l-2 8l7 12l2 -11l4 11l-7 5l-9 -1l-5 -13l2 -8zM335 415l-6 10l-11 -6 l21 -13l-4 -11l9 3l-4 -11l7 2l3 7l-1 4l2 6l-9 -4l4 7zM393 207l4 -10l-3 -13v-16l-6 -35l-6 -13l-10 -27l-17 -27l-22 -25l-11 -7l-13 -13l-14 -10l-25 -11l-26 -10l-27 -2l-27 -1l-37 3l-16 5l-24 11l-19 15l2 6l-10 2l-3 5l-24 32l-5 13l-9 26l-2 23v23l5 30l5 28l2 29 l3 35l4 25l12 14l18 1l37 -1l33 2l17 -3l8 -10v-17l-6 -35v-17l-4 -16l-1 -17l-5 -31v-27l4 -14l7 -9l11 -8l12 -3l16 2l16 6l10 12l8 14l5 16l6 31l1 26l3 11l2 16l3 30l5 37v17l7 19v8l-3 9l6 12v37l10 32l-3 8v13l3 13l5 8l-4 7l2 9l11 8l-9 3l3 27l5 35l1 29l4 13l1 17 l3 26l4 32l6 11l1 14l12 8l14 -1l16 3l14 -2h62l9 -20l-2 -14l-5 -27v-15l-3 -13l-4 -29l-2 -28l-3 -8l-3 -34l-5 -32l-2 -29l-4 -28l-4 -31l-3 -27l-8 -16l5 -4l1 -16l-6 -30l-9 -5l8 -6l-6 -40l-2 -26l-4 -31z"/>
<glyph glyph-name="k" horiz-adv-x="434" unicode="k" d="M256 320h3l-3 3v-3zM148 85h4l-4 4v-4zM308 376l-1 -3l8 -2zM152 474l-1 -3l10 -2zM227 614l-5 7l-2 -6zM140 481l-12 1l5 -5zM167 73l1 -8l7 1zM133 229l4 6l-9 1zM165 318h-9l8 -7zM122 406l8 -7l1 7h-9zM202 436l-4 -10l12 9zM171 300h-9l2 -10zM140 256l-8 11l1 -14z M206 382h-13l4 -8zM176 444l-5 -10l14 7zM188 361l4 10l-13 -5zM103 249l3 -8l7 19zM140 415l13 -6l-4 11zM120 344l-4 -7l6 -9l2 7zM144 319l5 -7l3 3l4 13zM107 120l13 2l1 8h-7zM143 388l5 -19l8 7zM188 430l12 10l-14 6zM260 384l18 11l4 -5l-1 9l-15 -2zM229 377h11 l2 8l-10 2l-7 -6l-2 -7l2 -9zM191 297l-3 -6l7 6l9 6l3 8l-4 7l-12 -7l4 -8l-7 4zM425 29l1 -13l-3 -11l-14 -7h-23l-27 1h-25l-9 2l-15 -2l-10 2l-9 8l-1 12l-8 34l-3 25l-4 25l-3 23l-5 25l-4 25l-2 20l-6 33l-4 27l-7 27l-9 -5l-15 -26l-15 -24l-6 -32l-4 -29v-26l-3 -13 l-4 -27l-3 -29l-4 -32l-3 -27l-7 -11l-14 -6l-28 2h-31l-28 -2l-13 2l-12 12l2 19l4 35l5 25v21l4 22l4 41l7 10l3 9l-5 -6l3 31l2 23l2 31l4 33l5 31l4 32l5 31l3 30l3 29l3 26l6 39l3 27l6 60l3 27l5 28v12l3 11l-1 15l5 12l13 7l14 1h62l31 -1l8 -7l1 -10l-2 -13l-2 -22 l-3 -25l-4 -32l-5 -28l1 -12l-4 -22l-4 -31l-3 -33l1 -13l9 7l8 12l14 31l12 24l14 24l12 24l15 24l6 14l12 23l16 28l14 29l7 7l20 3l13 -1l25 1h26l25 -1l15 -9l-6 -18l-11 -23l-8 -10l-5 -12l-11 -21l-17 -26l-11 -22l-16 -30l-19 -34l-17 -29l-14 -29l-17 -31l4 -26 l5 -32l9 -29l1 -15l7 -33l5 -32l5 -24l7 -25v-14l5 -29l6 -33l8 -33l4 -29l4 -24z"/>
<glyph glyph-name="l" horiz-adv-x="370" unicode="l" d="M216 471l1 -2l1 2h-2zM135 495l2 -5l5 1zM109 203l13 -4l-2 11zM363 81l-6 -28l2 -10l-6 -32l-16 -12l-11 1l-17 -2l-27 1l-26 1h-54l-30 1l-60 -2h-30l-30 2l-7 12l2 24l4 33l4 28l4 29l2 26l4 12v18l4 22l2 27l4 30l6 32v14l1 30l6 26l3 30l2 30l4 11v20l5 30l4 30 l4 26l2 25l4 29l4 38l4 24l2 25l7 35l13 7l28 -1h74l10 -5l4 -17l-4 -19l-3 -27l-3 -26l-1 -24l-5 -25l-5 -34l1 -13l-6 -30v-15l-3 -11l-4 -4l1 -33l-5 -28l-5 -26v-13l-2 -28l-3 -25l-4 -29l-5 -32l-3 -29l-4 -31l-4 -34l-3 -32l8 -15h48l36 -1l25 1l14 -2l26 3l16 -9z "/>
<glyph glyph-name="m" horiz-adv-x="589" unicode="m" d="M502 387l2 -1l-2 2v-1zM549 536h3l-2 2zM135 384h3l6 4zM571 393l5 -5l3 1zM249 558l4 -7l-1 8zM156 563v5h-6zM523 396l-2 4l-7 -3zM173 541l2 -7l3 8zM377 302l-6 2l-4 -5zM475 580l4 -7l5 2zM575 629l-9 1l-1 -5zM209 520l3 8l-10 -9zM191 327l-7 5v-8zM416 430l-9 2 l3 -7zM522 630l-5 -8l8 1zM325 179l-5 10l-4 -5zM568 584l-12 -14l12 8v6zM523 680l8 1l-11 8zM236 553l7 -11l2 8zM212 611l-8 3l2 -11zM156 544l11 4l-13 3zM272 247l-2 -8l10 -3zM123 365l1 8l-13 -12zM150 289l1 -9l10 9h-11zM294 490l-9 13l-4 -6zM535 567l15 -11v8 l-7 6l2 -7zM135 462v-10l16 11zM551 608l-14 2l2 -5l-1 -10zM186 603l-9 8l-4 -6l3 -3l4 -13l1 8l5 -12l5 10l6 2zM590 405l-4 -31l-1 -15l-1 -14l-3 -30l-4 -29l-5 -19l-1 -24l-3 -27l-3 -26l-5 -35l-4 -33l-3 -32l-8 -54l-3 -24l-6 -10l-12 -3l-33 -1h-29l-32 3l-8 10v11 l5 36l5 37l2 23l3 8v11l9 13l-6 6v16l4 17l4 34l-1 15l5 18l3 33l3 32l4 16v17l4 15l1 22l6 8l-5 19l-7 -10l-7 -18l-1 -11l-4 -11l-9 -26l-9 -32l-12 -26l1 -8l-5 -5v-12l-7 -15l-3 -17l-7 -5l4 -2l-3 -11l-11 -31l-13 -38l-6 -30l-5 -10l-6 -16l-1 -12l-4 -12l-12 -35 l-9 -23l-28 -5l-13 2l-30 -1l-10 8l-6 41v14l-1 29l-4 31l-1 33l-3 24l1 14l-3 28l-1 34l-2 21l-1 33l-1 30l-2 29l-2 25l-6 23l-7 -14v-34l-8 -34l1 -17l-5 -19v-14l-4 -27l-4 -26l-3 -28l-2 -30l-4 -31l-3 -29l-6 -28l-1 -33l-4 -14l-4 -24l-20 -14h-16l-32 -1l-33 -1 l-12 7l-3 20l1 10l6 48l4 30l6 36l1 29l4 39l4 15l5 30v17l5 25v16l5 37l3 25l4 38l4 16l-2 8l6 26l1 27l6 37l4 32l3 26l3 30l6 35l1 18l5 34l12 13l34 2h26l32 -2l23 3l33 -3l11 -8l3 -12l-1 -12l3 -11v-13l1 -34l4 -20v-29l2 -28l1 -23l3 -34v-54l4 -21l3 -34l3 -26 l-1 -15l6 -13l14 32l6 26l6 10l2 13l5 13l10 30l6 25l10 25l4 19l10 28l8 34l12 26l4 17l6 26l7 11l1 12l5 11l1 10l13 17l17 2l28 2h31l32 -1l27 1l21 -3l5 -10l-3 -31l-4 -34l-4 -35l-4 -29l-4 -30l-2 -32l-6 -24l1 -12l-4 -11v-17l-3 -17z"/>
<glyph glyph-name="n" horiz-adv-x="467" unicode="n" d="M261 383l-2 -2h2v2zM181 264h2l-2 3v-3zM377 127h3l-3 2v-2zM183 400h3l-3 4v-4zM239 549h5l5 3zM421 428l-6 3h-13zM355 145l3 -6l6 2zM357 181l9 1l-2 6zM267 471v8l5 3l-11 -5zM190 582l-3 7l-5 -8zM403 241l-7 12l-1 -7zM158 556l-5 18l-1 -9zM167 480l-8 -4l4 -6z M385 236l-4 -8l7 -2zM286 348l-15 -6l16 2zM182 539l-13 -4l5 -4zM155 383l-7 -8l11 8l-4 10v-10zM382 140l-5 7l-4 -9zM155 444l8 -6l-1 10zM396 94l4 -8l7 5zM412 687l-3 7l-8 -7h11zM209 492l-7 8l-2 -9zM208 561l10 1l-13 7zM229 521l7 -5l5 9zM138 327l-2 -17l7 9z M216 574l7 -4l9 10zM311 125l3 -11l7 13zM433 415l-5 13l-6 -10zM333 140l-2 -13l-4 -7l8 6l2 11zM171 554l9 10h-6l-9 -4zM369 438l13 -1l-5 12zM235 530l-6 11l-10 -8zM224 498l8 -5l3 5l-10 7l10 6l-14 -7zM220 476v15l-12 -15h12zM150 511l7 19l-10 -1zM189 604l12 11 l-10 5l-10 -5h11zM141 464l-2 -6l9 -3l6 13zM167 502l-10 -14l15 -2zM206 586l7 10l-5 -1l-8 -7v-9l-9 -9l19 13zM219 554l-19 2l-3 -15l5 3l6 8l7 -7zM192 421l9 7v11l-18 -13zM238 585l-2 27l-4 -9l1 -10l-11 -13zM431 70l-5 -26v-14l-2 -15l-8 -12l-30 -5l-9 2l-17 -1 h-33l-17 10l-1 7l-9 32l-9 37l-8 38l-5 16l-10 36l-5 22l-13 65l-9 23l-4 37h-3l-7 25l-7 28l-12 -12l2 -8l-4 -30l-2 -30l-5 -24l-1 -22l-5 -34l-4 -33l-4 -31l-3 -31l-4 -32l-4 -26l-3 -29l-7 -28l-15 -5l-17 -1l-33 2l-10 -3l-9 1l-22 2l-9 8l-2 12l2 15l4 28l3 27l4 29 l2 29l4 12l3 31l3 30l3 27l4 25l5 28l-1 15l6 27l-1 13l2 15l3 31l4 15l3 19l3 35l5 31l1 28l3 22l5 22l2 25l3 28l4 16l3 33l4 29l4 12l20 6l31 -1l27 1h24l14 -4l7 -22l10 -38l2 -17l7 -27l8 -35l-5 -11l11 -13l4 -21l6 -18l5 -26l7 -26l5 -27l10 -44l7 -19l8 -9l5 28 l1 26l5 27l2 26l5 29l3 25l3 32l5 28l2 24l4 34l5 26v24l3 12l9 13l18 3h42l35 -1l13 -4l2 -11l-2 -26l-3 -26l-5 -38l-6 -35l-1 -22l-5 -32l-2 -26l-6 -52l-3 -27l-6 -29v-13l-2 -25l-5 -27l-5 -29l-4 -54l-8 -54l-1 -28l-5 -35l-5 -24l1 -12l-3 -12v-12z"/>
<glyph glyph-name="o" horiz-adv-x="422" unicode="o" d="M341 242h3l-3 2v-2zM359 435h3l-3 3v-3zM400 429l9 -11l-3 5zM157 472l8 -1l-6 5zM385 329l-6 12l-1 -5zM131 482h4l-3 11zM107 175l10 -2l-1 5zM123 302l9 -3l-4 9zM109 329v8l-10 -16zM370 247l-12 3l5 -9zM155 367l11 5l-4 8zM195 514l-3 15l-6 -12h6zM169 457l1 10 l-15 -10h14zM334 198l9 8l-11 6l-8 -19zM130 546l-8 -11l-4 -12l5 -11l6 -7l12 8l2 4l-9 -2l-10 3l2 12zM298 293l5 20l1 20l3 14l2 32l3 27l5 27v13l4 26l4 29l3 30l3 28v27l-5 12l-11 11l-16 6l-17 1l-24 -6l-13 -9l-10 -13l-8 -24l-4 -36l-3 -31l-4 -33l-5 -34l-2 -24 l-4 -29l-6 -28l-2 -32l-4 -32l-3 -32l-5 -27l-2 -24l-4 -34l3 -31l5 -12l10 -10l17 -5h23l28 13l10 15l10 31l1 34l5 21l4 33zM432 294l-2 -19l-1 -12l-5 -27l-3 -31l-3 -28l-3 -22l-7 -31l-14 -30l-9 -5l-2 -13l-11 -16l-23 -22l-28 -21l-27 -14l-13 -4l-24 -6l-33 -4h-31 l-29 4l-26 6l-22 10l-9 8l-11 5l-6 9l-14 14l-18 25l-4 13l-7 19l-2 25l1 21l4 50l3 32l3 27l5 20l2 29l5 37l2 30l3 29l6 29l2 28l4 26l4 28l4 31l2 27l6 27l10 24l9 14l13 22l18 20l20 18l12 7l22 13l22 9l32 6l8 4h52l31 -4l26 -6l11 -7l12 -4l30 -27l18 -25l10 -20 l7 -33l2 -31l-4 -33l1 -9l-3 -10l-3 -33l-4 -27l-3 -26l-4 -28l-3 -28l-4 -28l-2 -34z"/>
<glyph glyph-name="p" horiz-adv-x="439" unicode="p" d="M202 446h3l-2 2zM426 558l2 -8l3 -6zM172 594l2 -8l2 -2zM158 340l8 3l8 5zM155 470l9 7l-9 -2v-5zM168 296l5 -10l1 9zM171 605l-7 6l-3 -6h10zM201 354l-9 14l-2 -9zM150 492l-7 -6l-10 -9l12 8l4 -9zM148 300l-12 1l7 -9l9 4zM186 316l-3 -12l11 6v8zM343 466l4 23 l2 19v21l-1 32l-3 7l1 12l-8 14l-13 11l-38 6l-20 -1l-15 -9l-2 -18l-5 -27l-4 -28l-3 -28l-3 -30l-5 -34l-3 -33l11 -9h19l23 1l33 9l11 11l9 16zM482 546l-2 -30v-13l-6 -27v-14l-4 -13l-1 -14l-8 -31l-13 -25l-15 -25l-12 -17l-12 -10l-7 2l-1 -9l-12 -8l-27 -12h-10 l-7 -6l-14 -4l-27 -4l-24 -1l-28 -1h-30l-10 -6l-3 -11l-2 -30l-4 -33l-4 -15l-1 -29l-4 -14l-1 -27l-5 -23l-4 -26l-1 -26l-4 -26l-5 -13l-14 -6h-93l-14 3l-6 16l-2 12l4 12l4 24l1 26l5 23l-1 11l5 27l2 25l4 24l2 26l3 12l4 25l-1 10l4 26l4 30l3 30l4 30l3 31l6 33 l4 31l3 29l4 32l4 34l4 25l1 28l3 27l4 27l7 27l10 9l11 -1l36 2l23 -2h113l31 -1l34 -7l31 -15l21 -16l16 -19l16 -31l5 -31l2 -24z"/>
<glyph glyph-name="q" horiz-adv-x="422" unicode="q" d="M113 305h2l-2 2v-2zM146 583l-8 -5l-5 -4zM209 57h3l-2 3zM118 485l-4 3l-5 -2zM152 553l6 13l-5 -6zM156 635h-7l1 -8zM162 431l5 -5l3 10zM183 22l5 -7l5 7h-10zM201 48l9 3l-9 6v-9zM169 480l9 -4l3 8zM234 23l5 -8l5 9zM374 513l9 4l-8 6zM192 348h-10l4 -9zM131 376 l9 -4l-9 14v-10zM194 10l1 -7l9 -5l-7 8l3 9zM150 519l-1 -10l11 8zM387 518l-3 -14l9 7zM152 348l8 -4l3 3l-6 8zM386 613l13 -1l-20 4l3 -14zM413 543v8h-6l-5 -16zM136 494l9 3l3 -4l-2 13l-10 -2v-10zM118 454l-8 -24l10 -10l-6 -6l12 5l-9 13l1 16l11 2l-7 3l-6 12z M332 563l-1 14l7 2h-8l-3 13l-7 12l-19 8l-19 2l-16 -4l-16 -8l-12 -12l-10 -25l-3 -16l-3 -28l-2 -25l-4 -11l1 -12l-4 -28l-4 -27l-3 -30l-2 -34l-4 -13l-2 -29l-5 -27l-4 -27v-12l-6 -41l-3 -28l-2 -29l2 -13l6 -12l8 -10l33 -7l19 5l15 7l8 8l6 10l5 15l5 32l4 27l3 31 l4 28l3 28l5 24v20l3 15l4 26l1 24l3 24l4 17l2 30l3 29l4 33zM430 277v-15l-4 -12v-19l-3 -10l-4 -25l-3 -26l-2 -24l-12 -32l-1 -9l-7 -15l-18 -27l-21 -24l-27 -21l-33 -17l-13 -4l-10 -7l4 -18l15 -11l21 -5l12 1l26 -8l2 -21l-3 -14l-3 -27l-6 -34l-11 -7l-26 -2l-25 1 l-23 5l-37 12l-14 8l-3 8l-23 15l-7 9l-16 27l-8 27l1 29l-12 12l-12 6l-23 14l-23 20l-17 24l-11 28l-6 25l-1 20l3 30l3 38l2 25l4 14l-1 12l3 14l3 26l3 25l4 11l-2 11l3 16l4 32l2 30l3 9l4 26l2 25l4 30l3 31l5 29l8 33l5 5l1 8l9 18l12 21l10 11l25 26l13 7l10 9l12 6 l26 11l36 8l27 2l28 1l28 -3l27 -8l26 -11l21 -17l18 -20l17 -27l9 -32l1 -22l1 -24l-3 -33l-5 -27l-1 -26l-3 -26l-4 -28l-3 -23l-3 -28l-4 -24l-1 -20l-4 -13l-1 -14z"/>
<glyph glyph-name="r" horiz-adv-x="440" unicode="r" d="M386 420h2l-2 2v-2zM115 325h3l-2 2zM119 205l-1 -5l7 -4zM113 147l-3 -13l7 14zM275 312l-5 -5l10 -1zM165 416l6 -6l6 4zM283 339l7 -5l-2 6l-8 5zM141 314l-2 -8l-5 -8l7 3v13zM317 297l-6 -7l-4 -4l9 1zM160 349l1 9l-12 -12zM241 657l-4 -12l11 3zM256 402l14 2 l16 1l17 6l14 10l9 14l9 32l6 41l2 33l-2 37l-13 25l-33 7h-28l-14 -5l-3 -12l-3 -26l-6 -40l-2 -28l-5 -28l-2 -26l-3 -28l6 -12zM401 101l15 -84l-5 -12l-14 -6l-14 -1l-27 1h-56l-12 6l-6 19l-1 13l-3 30l-6 33l-8 36v11l-4 23l-3 24l-5 26l1 14l-6 18l1 13l-11 27l-12 2 l-10 -6l-6 -32l-8 -66l-4 -31l-4 -27l-9 -81l-2 -27l-4 -13l-11 -11l-32 -1h-55l-28 2l-4 15l2 31l6 28l-1 10l2 15l5 30l4 31l3 29l-2 13l8 37l1 19l6 29l-1 10l2 14l5 30l2 30l6 31l3 33l4 33l2 30l5 27l3 33l6 30l2 32l4 31l3 32l5 28l9 9l22 4l34 -3l37 3l12 -2h29 l29 -1l27 1h25l10 -4l10 -1l7 -4l21 -6l25 -14l20 -24l16 -31l9 -27v-11l1 -34l-3 -32l1 -11l-4 -12l-2 -32l-4 -30l-4 -11l-6 -23l-11 -23l-4 -13l-12 -18l-17 -16l-17 -15l-24 -17l-3 -17l5 -26l5 -27l5 -26l5 -27l3 -31l6 -30z"/>
<glyph glyph-name="s" horiz-adv-x="412" unicode="s" d="M265 342h2l-1 2zM149 602v-2l2 2h-2zM297 336h-8l-1 -3zM283 313l-1 -7l16 4zM420 196l-4 -11v-15l-6 -34l-9 -28l-19 -30l-17 -24l-22 -20l-23 -16l-32 -17l-30 -7l-36 -4l-8 2l-12 -2l-15 2l-31 4l-12 5l-31 12l-12 10l-21 21l-18 32l-11 34l-3 28l3 15l1 37l3 26l6 27 l9 11l14 4l14 -2h34l33 1l13 -3l4 -14l-2 -34l-4 -33l2 -28l5 -14l8 -13l14 -9l16 -3l26 4l24 16l8 12l7 28v25l-6 30l-5 10l-14 27l-12 14l-17 21l-18 20l-20 20l-18 20l-16 22l-19 27l-15 24l-9 21l-12 33l-1 12l-3 21l3 10l-3 22l4 24l7 32l6 13l3 13l17 25l13 19l19 19 l24 19l13 6l25 9l37 10l25 1h33l30 -6l29 -11l12 -11l15 -9l18 -24l11 -20l10 -26l4 -23l-2 -32l-3 -35l-3 -34l-6 -15l-16 -7h-15l-29 1l-16 -2l-27 2l-13 6l-3 12l2 15l4 23l-1 11l3 21l-6 25l-7 9l-9 7l-13 5h-14l-14 -4l-13 -7l-14 -17l-5 -12l-1 -11l-2 -30l3 -14 l11 -26l14 -25l21 -24l18 -19l17 -21l38 -42l15 -21l15 -20l3 -9l9 -13l11 -31l7 -27l4 -23z"/>
<glyph glyph-name="t" horiz-adv-x="391" unicode="t" d="M233 605l10 10l-5 -1zM241 223l-4 -7l3 -7zM300 578l-13 -1v-4zM256 625l8 7l-7 1zM271 649l12 6l8 9zM237 320l8 -7l3 5zM262 646l-9 4l-1 -9zM355 673l6 -4h9l-6 10zM300 691h-10l-2 -8l16 -6l-9 9zM467 665l-2 -13l-2 -15l-1 -13l-4 -13l-14 -8l-18 1h-32l-24 2 l-27 -2l-9 -13l-3 -30l-6 -33l-2 -29l-5 -25v-14l-2 -28l-4 -10l-2 -28l-3 -25l-3 -28l-5 -30l-2 -28l-4 -29l-4 -28l-4 -29l-2 -27l-3 -11v-14l-4 -28l-4 -30l-4 -34l-5 -35l-9 -16l-14 -4h-77l-23 1l-9 13l1 14l2 26l5 15v13l4 29l3 29l4 25l4 29l4 32l2 29l4 27l6 54 l2 28l4 27l8 58l4 36l3 24l5 25l2 32l3 28l-6 10l-14 2l-14 -1h-63l-16 3l-6 12l2 34l7 48l6 18l12 5h12l33 2l26 -2l26 -1l28 2h26l19 -2l30 2l20 -2l35 2l32 1l30 -3l33 2l12 -7l1 -14l-6 -26z"/>
<glyph glyph-name="u" horiz-adv-x="458" unicode="u" d="M363 273l2 -8l3 2zM348 443h-4l3 -8zM381 460l-2 -8l7 9zM140 131l-16 -6l12 2zM180 417l7 1l1 6zM377 399l-5 2l-9 9l3 -9zM184 521l-4 2l-3 11v-16zM187 545l-6 -6l15 2zM369 357l-8 5l2 -12zM149 577l4 14h-7zM444 255l-2 -40l-2 -17l-4 -17l-4 -29l-6 -26l-11 -26 l-13 -26l-9 -11l-18 -21l-21 -19l-22 -11l-28 -11l-32 -9l-34 -4h-23l-23 1l-12 4l-26 7l-26 12l-27 22l-11 14l-12 21l-4 13l-8 28l-2 31l2 33l5 24l1 24l5 33l5 35v14l3 15l4 34l5 30v13l3 25l5 27l1 24l4 26l3 29l6 37l3 21v12l3 25l4 22l1 18l4 12v14l4 26l12 9l18 1 l29 -2l54 2l13 -5l4 -11l-8 -66l-1 -23l-4 -12v-13l-4 -35l-8 -64l-4 -17l1 -12l-3 -11l-3 -25l-3 -30l-1 -21l-5 -8l-2 -34l-3 -26l-4 -29l-4 -31l-3 -32l-4 -31l-3 -33l6 -30l9 -10l15 -6h28l25 12l9 10l10 25l5 26l2 29l4 26l4 32l3 29l4 29l5 25l2 34l3 24l3 26l5 33 l3 30l3 29l5 26l1 25l5 24l4 26l2 26l4 31l3 30l11 6l11 2h51l27 -1l23 -2l6 -19l-1 -23l-3 -10l-5 -40l-4 -41l-4 -13l-1 -15l-6 -5l6 -13l-4 -14l-1 -13l-5 -32l-2 -35l-5 -34l-5 -33l-3 -28l-4 -25v-12l-3 -31z"/>
<glyph glyph-name="v" horiz-adv-x="420" unicode="v" d="M141 494h3l-2 3zM178 104l7 -4l5 5zM235 111l4 5l-2 5l-4 -3zM215 95l-1 -8l9 2zM182 125l6 -14l10 3l-6 19zM239 136h9l8 1l7 11l-2 3l-10 -8l-9 4l-8 -3zM454 724l34 -1l11 -9l-3 -17l-9 -30l-13 -34l-9 -35l-6 -12l-1 -11l-9 -24l-10 -30l-8 -28l-9 -22l-8 -26 l-18 -58l-9 -31l-15 -35l1 -11l-9 -27l-5 -9l-1 -12l-7 -19l-7 -24l-9 -25l-10 -35l-10 -27l-8 -23l-2 -17l-6 -10l-7 -24l-11 -39l-12 -17l-31 -4l-16 2l-28 -1l-27 -1l-18 4l-9 30l1 13l-2 28l-2 33l-5 29l1 9v23l-3 27l-3 24l1 16l-2 16l-2 27l-3 26v27l-3 12l1 26l-4 35 l-2 30l-2 27l-3 29l-3 30l1 10l-2 27l-1 24l-3 26l-2 29l-1 36l-4 28l3 14l8 8l14 2h30l30 1l28 -2l17 -6l4 -15v-17l3 -10l-2 -11l2 -32v-20l2 -23l-1 -24l3 -14l-1 -16v-24l3 -11l1 -24l-2 -13l1 -16l2 -31l-1 -33l3 -9l-1 -23l3 -26l2 -32l11 18l3 12l8 5l-2 17l5 10 l2 15l16 52l8 28l8 29l7 26l8 27l8 29l9 29l8 23l1 12l8 25l8 28l9 30l7 12l15 4h31z"/>
<glyph glyph-name="w" horiz-adv-x="618" unicode="w" d="M420 447h3l-2 1zM198 268h2l-1 2zM165 241h2l-2 2v-2zM505 119h-4l-5 -4zM398 590l-9 4l14 -9zM268 279l7 7l-14 -9zM176 155l-9 5v-4zM199 73l-7 4v-7zM317 396l5 -11l3 5zM227 135l6 -5l6 5h-12zM489 101l-6 -5l13 -1zM399 546l-5 5l2 -18zM453 52v12l-7 -9zM406 174 l12 -2l-5 8zM381 597l2 8l-12 -4zM408 318l4 10l-10 -3zM385 547l-9 -6l8 -5zM217 197l-11 -2h-13l12 -4zM152 271l-6 -8l10 4l-2 8l-5 4zM317 430l6 -18v6l1 12h-7zM288 312v-11l12 3zM440 83l7 -4l8 5l-7 4zM396 530l-2 -5l14 -9l-1 9h-7zM240 174l-4 -12l1 -7l7 4z M147 204l11 -10l6 17l16 -1l-18 2l-3 -10zM388 558l-6 6l-16 1l3 -9l9 6zM330 495l2 14l-11 -3l4 -9zM355 476l4 15l10 16l-12 -1l4 -6l-4 -4zM360 588v-6l14 -2l7 6zM171 123l12 10h3l-3 4l-11 -11l-5 -10l15 -5l-1 10l-6 -6zM210 174l11 6l-14 1h-4l-3 -20zM193 197l-12 4 l-2 -9l-10 -11l12 1l9 -2l-3 8zM209 223l-11 24l-8 -5l7 -15l7 -10zM466 83l11 -13l8 -6l-4 9l-7 21l8 3l-19 3zM195 135l14 -7l3 2l8 -11v4l-4 13l2 9h-22zM679 722l16 -8l-3 -22l-10 -35l-6 -15l-2 -12l-11 -30v-12l-9 -25l-10 -29l-7 -31l-9 -28l-7 -22l-2 -14l-12 -34 l-2 -15l-5 -14l-12 -37l-5 -25l-7 -29l-8 -27l-10 -24l-7 -29l-9 -32l-9 -31l-9 -30l-5 -7l-2 -14l-7 -30l-8 -24l-8 -25l-13 -12l-16 -2h-20l-23 2l-12 -2l-21 2l-11 9l-3 12l1 12l-3 25l-1 23l-1 25l-2 33v23l-2 25l-1 23l1 23l-1 25l-2 28l-1 28l-1 24l-2 28l-7 15 l-7 -17l-7 -24l-7 -29l-8 -28l-8 -27l-7 -23l-8 -23l-5 -22l-8 -22l-5 -27l-10 -27l-9 -35l-11 -33l-8 -29l-14 -15l-10 -2l-21 1l-28 -1l-31 1l-11 7l-4 13l-2 34l-1 31l-2 58l-3 29v25l-2 23l-2 35l3 13l-1 18l-3 12l1 13l-2 23v21l-2 29l-2 30l-1 30l-1 29l-2 29l1 26 l-3 25l-1 27l-2 27l-1 30l-1 35l-1 31l4 16l12 6l14 1l23 -2h56l12 -3l6 -9v-23l2 -27l1 -27l-1 -26v-27l1 -28v-28l2 -10l-2 -20v-24l2 -24v-37l2 -29l-2 -39l8 -11l9 30l11 38l9 32l9 33l9 34l8 26l7 28l10 31l4 16l7 24l10 34l7 29l9 25l8 10l28 2h55l17 -6l2 -21l1 -23 v-30l3 -43l1 -38l1 -37v-28l1 -29l-2 -6l3 -13v-15l1 -27l1 -28v-33l4 -15l9 18l8 25l8 33l8 29l7 24l4 26l5 21l7 23l9 33l6 27l5 11l2 17l4 13l8 28l7 26l7 28l9 9l13 2h20l25 -1l24 1z"/>
<glyph glyph-name="x" horiz-adv-x="400" unicode="x" d="M293 184h3l-3 2v-2zM294 318l4 -7l3 3zM304 256l-4 -3l9 -2zM166 543l4 -6l4 8zM201 375l-9 -6l10 -1zM277 421l2 6l-11 5zM326 554l9 -7l-6 11l-3 7v-11zM289 260l-12 -7l3 -6zM174 263l-17 -13l2 -4zM205 499l-6 9l-5 -10zM291 430v15l-8 -6zM203 324l-15 -2l2 -8z M177 270l9 -6l6 4l-3 9zM206 334l6 -4l-1 10h10l4 8l-15 -2zM296 163l11 5l1 8l-8 -4l2 6l-11 -4zM399 33l1 -12l-6 -18l-13 -4h-101l-9 7l-6 11l-1 11l-9 36l1 13l-6 33l-7 33l-6 35l-4 29l-6 14l-12 -10l-3 -12l-11 -24l-15 -37l-11 -28l-12 -22l-12 -28l-13 -33l-10 -12 l-4 -11l-14 -5h-45l-36 -2l-14 2l-9 4l-5 8l9 24l14 31l13 25l10 23l7 9l11 25l13 11l-6 5l26 54l11 23l11 19l3 12l11 19l13 30l13 23l10 27l-4 15l-4 26l-8 35l-6 26l-6 19l-1 12l-9 33l-3 26l-10 31l-4 25l-7 36l-8 23l-7 26l4 13l17 7l26 -2l35 1h37l14 -7l8 -27l-1 -11 l7 -31l5 -37l6 -40l6 -23l5 -27l8 2l7 15l12 32l8 13l7 19l13 33l12 29l12 32l18 25l20 5l19 -1l14 -4l18 4l31 -1l14 -3l4 -10l-8 -19l-19 -39l-10 -8l1 -10l-3 -11l-17 -32l-13 -26l-26 -56l-11 -23l-14 -30l-16 -26v-10l-4 -10l-7 -5l-8 -36l2 -19l8 -33l6 -25l6 -32 l6 -22l6 -26l7 -29l5 -30l7 -30l8 -35l5 -24l4 -23z"/>
<glyph glyph-name="y" horiz-adv-x="422" unicode="y" d="M227 455l1 -11l3 3zM247 410l-3 12v-12h3zM220 194l-4 -6l2 -6zM182 145l7 -2l3 5zM212 157l-5 -10h5v10zM279 271l-6 -9l5 -2zM274 357l6 -3l8 6zM248 127l1 11l-8 -13zM311 477l-2 8l-7 -14zM156 531l8 5l8 2l-10 3zM213 214l11 -4l-7 12zM231 349l-17 6l3 -9zM290 412 l2 -12l-13 5l-3 -4l15 -3l7 7zM459 724l25 1l12 -3l6 -10l-21 -51l-7 -10l-3 -12l-9 -15l-8 -20l-10 -22l-14 -29l-10 -23l-13 -26l-13 -27l-13 -28l-10 -26l-20 -44l-10 -23l-7 -9l-5 -16l-15 -30l-6 -29l-4 -29l-3 -28l-4 -29l-1 -27l-6 -29l-3 -31l-4 -22v-14l-3 -13 l1 -12l-4 -13l-1 -13l-10 -10l-24 -3h-28l-29 1h-27l-12 9l-2 15l4 32l4 27l5 33l1 26l5 28l3 29l5 28l2 22l2 26l2 24l-2 14l-7 28v10l-3 9l-6 21l-1 15l-6 36l-5 14l-7 37l-4 20l-6 32l-6 30l-7 27l-4 24l-4 23l-4 16l-9 33l-1 17l4 14l10 5h78l27 1l15 -7l3 -28l6 -30 l4 -29l5 -29l5 -30l4 -21l4 -29l3 -26l5 -15l6 -4l6 11l12 33l12 28l11 29l13 31l12 34l13 31l8 13l4 15l20 15l-4 5l18 2h60z"/>
<glyph glyph-name="z" horiz-adv-x="397" unicode="z" d="M111 24h2l-1 2zM95 40h2l-1 3zM259 44l2 8l-6 -8h4zM242 16v-4l10 2zM135 112l-6 -5l8 -3zM165 153l-8 9l-3 -5zM345 631l-10 15l-2 -4zM203 268l7 8h-9zM122 141l3 -4l11 5l-4 1zM351 560l9 1l-8 8zM287 413l-9 -13l10 3zM204 264l-8 4l-3 -13zM299 535l8 -15l8 6l-3 12 zM103 79l-8 7l-6 -10l-1 -13l13 3l-9 6zM463 708l-2 -14l-2 -15l-6 -42l-11 -23l-13 -25l-8 -22l-6 -7l-4 -13l-9 -11l-12 -24l-16 -35l-6 -8l-12 -23l-5 -14l-15 -21l-2 -11l-7 -12l-14 -25l-18 -35l-18 -33l-13 -29l-16 -29l-15 -30l-14 -26l-13 -26l-13 -28l8 -9l32 1h27 l23 -2l27 2l13 -3l12 2l24 2l10 -2l14 -10v-12l-3 -31l-4 -18l-4 -37l-11 -10l-30 -1l-37 -1l-31 1h-58l-31 -1l-13 4l-12 -3l-29 3l-3 3l-7 -7h-29l-31 1l-20 5l-3 22l4 28l2 25l5 13l13 22l12 24l16 31l15 30l12 23l14 30l13 21l12 23l11 22l10 22l13 22l18 35l9 20l12 22 l12 25l9 11l12 27l14 27l17 33l15 28v12l-16 4h-34l-15 -2l-30 3l-8 -3h-20l-15 2l-25 -1l-13 12l5 23l-2 11l4 31l4 30l8 9l12 3l11 -2l10 1h115l27 -1h26l27 1h27l26 -1l24 1l12 -3z"/>
<glyph glyph-name="braceleft" horiz-adv-x="280" unicode="{" d="M141 267h15l-7 3zM188 699l3 -6l5 6h-8zM156 243l1 -15l4 11zM129 179l8 1l-13 10zM119 147l-14 -6l4 -7l8 1zM106 108l-5 -15l20 2l-2 9l-12 -2l8 3l6 9zM231 -46l-4 -16l-1 -14v-16l-6 -13l-14 -7l-19 -1l-16 2l-27 4l-23 4l-31 17l-21 20l-8 13l-10 23l-2 11l-5 10v17 l2 35l8 34l9 32l7 23l5 16l7 14v10l6 14l9 30l10 30l7 28l-3 21l-6 12l-22 14l-13 1l-30 2l-10 20l2 35l5 16l13 7l31 1l28 7l12 9l9 14l6 16v16l-1 36l-4 36l-2 29l-4 34l-1 32v34l4 35l9 25l1 12l18 32l12 14l6 4l6 8l11 7l30 18l23 9l26 4l28 2l20 -1l17 -6l1 -13l-3 -27 l-4 -26l-7 -9l-11 -5l-15 2l-27 -6l-12 -7l-10 -10l-7 -12l-11 -24l-2 -13v-25l-1 -25l3 -23l-1 -17l3 -13l-1 -23l3 -25v-29l-1 -31l-7 -29l-12 -28l-18 -26l-18 -11l-6 -17l13 -10l3 -8l9 -7l9 -26l1 -13v-28l-4 -27l-9 -32l-6 -21l-5 -20l-8 -22l-7 -27l-6 -26l-7 -27 l-5 -35l1 -14l4 -14l9 -11l12 -8l11 -3l30 -2l13 -8z"/>
<glyph glyph-name="bar" horiz-adv-x="198" unicode="|" d="M100 144h2l-2 2v-2zM156 489h3l-3 3v-3zM123 91l-8 -1l1 -1zM107 368l-1 -3h5zM128 291l-1 -4l5 6zM126 249l-7 1l9 -6zM136 426l13 -5l-5 5h-8zM170 366l9 5v5zM167 556v7l-8 -5zM113 118l-3 8h-7zM128 224l5 8l-5 12l2 -9zM156 370l-6 -6l6 -5v11zM171 537l9 8l-6 -2 l-6 -4l6 -10zM186 602l4 9l-5 8zM156 450l-9 -11l-5 -3l10 2zM109 114l4 -11l6 6zM119 159l-11 -10l-2 -11zM95 96l-10 -4l6 -8zM113 193l9 -11l-1 13zM192 701l-9 -10l11 -1zM138 328l11 -6l6 8l8 -4l-5 9l-8 -7h-12zM174 496l-5 15l2 -13l-11 4l-2 9l-1 -15h17zM131 219 l10 -3h7l-10 12zM112 211l10 -10l1 13l-6 4zM132 361l6 -8l13 6l-11 5zM95 57l-7 -11l18 5l-3 13zM149 41l-2 -27l-2 -17l-8 -29l-13 -7l-20 5l-6 -7l-7 7l-7 -4h-26l-9 10l1 17l7 32v31l4 19l4 29l3 31l4 25l7 7l-7 4l4 32l4 36l5 27l-1 11l3 11l3 29l5 31l4 29l3 34l3 28 l5 28l3 37l3 26l4 28l5 37v13l6 20l1 30l4 27l1 28l5 12l2 12l-1 11l3 26l5 29l8 19l10 2h23l30 1l18 -5l1 -18l-2 -26l-2 -24l-4 -25l-4 -26l1 -12l-5 -20l1 -10l-3 -11l-2 -23l-2 -22l-3 -10l-2 -32l-3 -22l-5 -27l-1 -30l-3 -16l-4 -27l-3 -25l-7 -16l5 -5l-5 -11l1 -12 l-2 -13l-4 -29l-1 -29l-4 -26l-5 -33l-3 -23l-4 -36l-5 -34l-1 -28l-6 -27v-17z"/>
<glyph glyph-name="braceright" horiz-adv-x="280" unicode="}" d="M209 430h2v4zM271 675l-6 -3l9 1zM252 597l-7 5l7 -9l2 5zM183 266l-9 2l3 -5zM207 464l1 6l-8 -3zM275 656v-5l9 5h-9zM201 274v7l-4 -3h-7zM191 249l-11 1l-3 -5zM253 743l-9 4l-6 -4h15zM224 606l8 -5l1 7zM255 600l4 7l-11 2zM302 649l6 -14l1 13zM271 705l4 -8l4 16 zM287 741l-6 15l-4 -10zM284 662l4 8l-6 5l-7 -8zM195 419l11 -3l11 -1l-18 12zM271 758l-18 9l-2 -6l5 -7zM259 729l7 -9l9 6l-13 11l-11 -2zM256 631l-11 3l-3 7v-8l3 -4l8 -9l16 9l8 15l-13 -4zM336 399l4 -30l-3 -15v-15l-7 -13l-31 -6l-9 1l1 8l-9 -9l-8 2l-26 -19 l-7 -11l-6 -16l-3 -17l2 -16l3 -35l3 -34l2 -34l3 -29l3 -36l-3 -8v-14l-3 -27l-6 -26l-6 -15l-16 -28l-21 -25l-27 -22l-21 -9l-24 -8l-29 -4l-28 -1l-27 3l-5 19l4 29l4 23l7 9l11 3l9 -1l24 3l15 6l11 8l10 13l7 16l9 32l-1 15l-1 31l-1 26l1 29l-4 36l-1 43l3 24l2 23 l8 26l11 19l24 26l17 10l-19 26l-7 6l-10 22l-3 27l1 31l6 10l2 8l-1 11l4 14l7 28l7 12l1 12l5 17l8 31l10 32l9 41l-4 29l-9 15l-11 12l-16 5l-30 2l-11 5l-2 16l2 16l3 30l6 12l21 6h14l34 -2l33 -7l11 -6l29 -21l17 -22l10 -23l3 -18l2 -33v-17l-3 -19l-8 -26l-3 -22 l-3 -5l-13 -20l4 -6l-6 -23l-6 -17l-10 -23v-11l-10 -7l3 -9l-6 -13l-2 -16l-5 -26l3 -17l10 -18l9 1l20 -6l26 -1z"/>
<glyph glyph-name="asciitilde" horiz-adv-x="567" unicode="~" d="M486 340l-8 4v-4h8zM234 379l5 4l3 11zM481 352l5 6l-7 2zM388 349l-7 -3l15 -1zM294 368l-6 -7l6 -2v9zM400 349l16 -17l-8 13zM426 336l3 11l-14 -1l10 -2zM398 352v11l-10 -2zM351 349l-2 -15l11 8zM484 349l14 -9l-3 5l4 10zM461 325l4 -5l7 9l1 17l-8 -6l-1 -11 l-14 16v-10l-9 3l3 -13h17zM531 411l18 -29l7 -11l4 -11l-4 -13l-12 -11l-17 -9l-4 -10l-10 -7l-11 -3l-13 1l-5 -15l-12 -5l-12 -2l-27 -5l2 5l-10 -6l-30 2l-28 4l-26 8l-20 11l-21 8l-5 7l-26 9l-37 11l-15 -2l-29 -6l-15 -7l-10 -8l-24 -19l-9 4l-19 26l-15 24l-2 13 l18 20l21 17l24 16l25 11l27 7l28 1l22 1l13 -3l13 1l12 -4l5 -5h9l17 -6l4 -7h11l12 -8l10 -3l12 -7l31 -13l36 -3l19 5l16 7l16 14l23 13z"/>
<glyph glyph-name="exclamdown" horiz-adv-x="243" unicode="" d="M149 340l8 9l-5 -2zM165 291l-5 10l-1 -9l-9 1l6 -3zM153 231l5 9l-9 3l-7 -6h-7l-4 -7l13 -7zM136 600l1 10l3 19l4 27l4 29l2 29l11 7l29 1l32 2l31 -1l12 -9v-16l-4 -17l1 -16l-3 -14v-13l-7 -37l-7 -9l-16 -4l-27 1l-28 -1h-29zM192 54l-2 -17l-2 -16l-2 -15l-11 -5 l-34 -2l-31 -1h-26l-18 2l-10 14l2 12l4 7l-1 8l7 31l5 37l4 27l7 30l1 14l8 33v15l3 11l5 37l6 29l6 35l7 38l5 30l4 9l-2 15l8 36l6 32l8 12l19 2l37 1l16 -5l3 -19l-3 -11l1 -8l-1 -21l-3 -24l-1 -33l-5 -28l1 -12l-7 -21l5 -27l-2 -9l-2 -25l-1 -27l-3 -23l1 -10l-2 -14 l-2 -27l-1 -24l-4 -25l1 -13l-5 -24z"/>
<glyph glyph-name="cent" horiz-adv-x="368" unicode="" d="M305 152h2l-1 3zM101 103h2l-1 3zM86 302h3l-3 4v-4zM136 443l-1 -4l7 -1zM142 325l-6 -5l-13 -11l12 8zM201 53l-2 -6h8zM154 422l-11 -7l-6 1zM144 355l-9 -4l-1 -9zM284 179l5 12l-7 -1zM138 313l-1 -7h12zM139 402l6 9l2 -11zM98 134v-7l3 11l-11 -4l-1 -4zM241 579 l-16 -1l4 -6zM276 502l2 3l-9 -2l2 -11zM257 544l-6 3h-13l11 -1v-10zM232 490l5 -6l3 20zM225 493l-12 -4l-3 -8l8 3zM118 112l6 -3l7 10h-17zM177 473l7 -7l3 2l-1 8l-8 12zM279 108l-6 11l17 6l-9 3h-12l3 -11zM278 485l19 7l-13 -1l-17 -3l5 -11zM308 395l8 9l-4 10 l-13 -16zM246 490l12 -4l4 12l-12 -2l3 10l-10 -5zM325 385l-1 8l-10 -1l-1 -12l7 -2l10 3l8 11l-9 -3zM136 398l9 -8l2 10l10 -1l-2 24l-6 9l7 2l3 5l14 1l-6 18v-16l-19 -4l-8 -7h-8l-1 -15l-4 -8l6 6l3 -8v-8zM322 223l20 -3l7 -10l-1 -14l-8 -54l-5 -28l-7 -28l-14 -28 l-16 -21l-17 -13l-21 -12l-29 -14l-4 -22l-8 -50l-15 -15h-17l-34 1l-21 5l-3 11l5 27l4 37l-5 11l-24 11l-20 17l-17 19l-8 23l-4 24l2 48l4 30l4 25l3 27l2 28l3 9l1 23l4 24l5 41l5 38l3 30l7 26l10 26l12 17l24 28l11 8l32 15l12 9l4 18l3 31l5 27l10 9l13 2l27 1l34 -5 l6 -12l-5 -31l-3 -35l3 -12l10 -2l25 -14l22 -24l8 -15l8 -34l-1 -17l3 -12l-4 -26l-13 -17l2 -5h8l-2 -28l-8 -14l-16 -5h-52l-18 2l-10 8v15l4 32l4 31l-7 24l-11 9l-15 2l-16 -5l-11 -14l-7 -16l-6 -31l-1 -17l-5 -19v-14l-2 -29l-7 -24l2 -13l-5 -19l-4 -34l-1 -29 l-4 -20v-16l-7 -15l4 -17l7 -16l14 -8l15 -1l13 6l10 10l7 14l4 27l4 26l4 31l10 11l31 2l10 -4l11 4z"/>
<glyph glyph-name="sterling" horiz-adv-x="461" unicode="" d="M190 200h3l-3 2v-2zM217 498h-4l3 -4zM184 508l5 -7l-2 7l7 6zM322 365l-4 3l-11 -2zM203 580l-8 11l-6 -7l6 4zM123 80l-6 -6l1 -6zM212 576l10 7l-8 -1zM186 455l-3 -6l6 -5zM202 472l-5 7l-5 -4zM334 658l2 12h-6zM168 543l-10 4v-9zM194 568l-6 8l-4 -11zM197 501 l-14 -10l12 1zM325 671l-9 3v-7l-9 -9zM424 581v8l-14 -15zM182 561l-4 -12h10zM255 667l-23 -1l-3 -6zM229 649l-13 9l9 -18zM227 619l9 5l-14 10zM204 561l-8 -14l11 2l6 17zM148 361l6 8v6l-11 2v-8l-4 -9zM200 420l-5 -7l8 -3l7 11l-13 12l-9 -3zM436 174l-3 -29l-1 -13 l-3 -13l-7 -26l-12 -31l-13 -18l-15 -19l-16 -14l-11 -5l-28 -11l-29 -6l-25 1l-33 4l-25 12l-12 3l-24 9l-25 4l-29 -3l-27 -8l-25 -9l-21 -10l-12 3l-4 12v17l6 33l2 27l4 13l8 10l30 19l24 19l24 26l6 15l15 29l10 35l1 16l1 29l-11 18h-43l-28 -2l-12 4l-7 17l4 32l4 11 l3 24l20 9h35l9 9l-4 35l-3 25l-4 24l1 20l-1 23l3 13l5 28l12 29l9 21l11 19l14 18l17 20l12 8l25 15l30 13l27 6l43 2l12 -3h14l14 -5l29 -12l11 -9l14 -13l16 -21l2 -16l9 -10l3 -14l5 -29l-1 -15l-4 -29l-1 -35l-6 -16l-15 -12l-14 -1l-12 2h-54l-11 6l-3 14l4 32l2 32 l-4 12l-8 12l-10 8l-13 3h-13l-16 -5l-14 -11l-9 -14l-5 -13l-4 -25v-23l1 -24l4 -29l5 -26l4 -29l4 -9l37 -2h58l12 -6l4 -13l-2 -16l-4 -29l-4 -16l-10 -13l-22 -1h-38l-17 -2l-8 -13l-2 -23l-1 -26l-4 -13l-5 -23l-8 -24l-14 -27l-3 -10l-17 -19l-2 -12l11 -8l31 -7h23 l11 4l10 8l13 23l7 26l2 29l7 25l17 6l28 -1l28 1l22 -4l7 -8l-1 -12z"/>
<glyph glyph-name="currency" horiz-adv-x="461" unicode="" d="M407 371h3l-3 2v-2zM379 230h4l-4 5v-5zM153 349l1 -9l5 1zM173 330l-7 8l-3 -5zM388 292h-9l8 -7zM248 216l5 -3l3 11zM381 354l-6 -4l1 -11zM322 518v9l-8 -7zM439 189l-8 5l-5 -7zM147 238l-1 -9l10 1zM367 242l7 -2l7 1l-6 6zM400 417l-7 14l-2 -5l10 -16zM150 254 l8 -8l5 -4l-2 12h-11zM167 222h-6l5 -5l5 12l-10 7zM390 371l-12 -7l7 3l9 -14l3 19zM276 195l3 10l-8 8l6 13l-15 -7l4 -22l7 8zM342 336l3 26l6 20l-2 13l4 29l6 4l-5 7l-4 18l-6 6l-30 6l-31 2l-28 -2l-27 -5l-10 -12l-4 -9l-3 -29l-6 -24l-8 -4l9 -5l-2 -10l1 -10 l-4 -12l2 -10l-4 -17l-4 -33l5 -14l13 -10l18 -4h17l25 -2l38 6l13 7l9 12l3 15zM500 513l-21 -17l-11 -9l-17 -22l-3 -18v-17l-5 -31l-1 -31l-7 -35v-21l-3 -19l-7 -31l15 -28l14 -14l10 -15l-3 -17l-23 -24l-11 -3l-9 -10l-17 4l-25 28l-11 7l-17 -6l-35 -10l-37 -3 l-35 -2l-46 6l-22 5l-7 6l-35 -2l-12 -8l-21 -20l-17 -5l-17 13l-4 9l-7 4l-9 19l3 8l8 11l11 10l25 22l7 10l2 26l2 33l5 29v14l4 26l3 27l5 12l-1 11l2 12l3 24l-7 11l-25 27l-7 15l8 16l14 13l23 18h14l29 -31l13 -5l15 4l26 6l23 4l31 4l32 1l19 -2l25 -4l24 -5l24 -7 l15 3l9 8l21 18l14 7l16 -6l22 -26l6 -16z"/>
<glyph glyph-name="yen" horiz-adv-x="462" unicode="" d="M398 409h2l-2 2v-2zM256 287h3l-3 2v-2zM231 431h4l-2 5zM322 431l4 9l-4 -1v-8zM351 527l1 9l-5 -9h4zM376 521l-8 -2l-4 -6zM263 408l7 8l-13 -9zM367 495l-11 -3l-1 -5zM250 294v9l-6 -7zM199 250l9 11l1 8zM410 427l-3 7l-7 -5zM368 453l-7 5l-3 -8zM310 404l1 15 l-5 -3zM250 373h-6l4 -12zM236 366l6 10l-8 -1zM226 193l2 -10l6 9zM148 268v-9l9 9h-9zM256 436l-9 9v-10zM269 250l-10 -3l11 -6zM257 453l-4 10l-6 -9zM255 329l-4 13l-3 -16zM399 274h-9l10 -12zM320 269l-6 5l4 -12l9 -8zM251 242l-9 -6l6 3l4 -9l8 3zM146 443l2 -8 l11 -7l-2 9zM243 454h-16l-4 -3l9 -3l7 -12v11zM299 250l10 -4l7 2l-1 8l-9 2zM297 194l9 10l-3 4l-8 -6l-1 9l-8 -4zM207 480l8 -2h11l-5 6v7l-10 -3zM234 428l-11 5l-2 -6l16 -5l1 -7l12 11zM280 282l1 9l9 11l-14 -12v7l-11 1l2 -15l4 10l3 -7l-2 -9zM242 288l-13 3 l5 -15l-10 -2l12 -3l13 3l-7 6v8zM283 365l-5 -18l-7 -5l-6 -10l2 -12l12 7h-9l2 10h13l-5 9l6 9l9 19l22 8l-18 -2l-6 2h-10l2 -8zM440 310l13 -3l7 -10l1 -13l-4 -32l-7 -30l-13 -9l-16 -1l-8 9l5 -7l-11 -2l-13 1h-31l-26 -1l-25 3l-3 -12l-6 -33l-2 -41l-5 -35l-4 -26 l-3 -28l-5 -30l-12 -10l-17 -2l-33 1l-25 -1l-13 2l-10 12l2 19l4 37l4 30l3 35l4 30l3 30l-3 15l-14 4l-32 1l-8 3l-16 -4l-16 1l-30 -1l-11 14v24l4 11l3 29l4 12l11 6l25 1h61l24 2l6 9l-2 12l-10 40l-11 6l-16 1l-13 -2h-40l-21 3l-5 20l3 32l9 35l11 6l15 1h36l11 9 l-1 13l-8 27l-4 25l-6 23l-1 14l-5 21l-5 25l-6 26l-5 23l-5 24l1 11l16 8h72l28 -2l9 -16l6 -30l3 -26l4 -31l7 -33l1 -18l5 -21l1 -20l4 -14l6 -32l8 -3l7 17l14 31l4 15l8 14l4 14l11 28l13 31l9 25l8 15l10 30l11 21l10 4l15 1l23 1l14 -2l14 1l29 -1l11 -5v-13l-10 -21 l-20 -40l-11 -28l-11 -24l-11 -26l-14 -27l-14 -34l-9 -16l4 -13l21 -5l5 4l33 -2l9 -9l-1 -27l-7 -4l4 -6l-5 -37l-12 -10l-28 -2h-59l-14 -4l-9 -13l-14 -33l-2 -12l11 -6h15l27 -1h23z"/>
<glyph glyph-name="brokenbar" horiz-adv-x="198" unicode="" d="M193 673h2l-2 2v-2zM94 21l-6 2l3 -3zM88 112l7 -2l-6 5zM120 153l-5 -4l12 4h-7zM95 6l-5 -4l8 -1zM85 208v-8l8 2zM155 481l17 7l-19 -4zM173 570l4 6l-7 6zM165 572l1 -5v12h-10zM176 592l-9 -1l-4 7l1 -12zM121 213l-3 7l1 -8l-7 -5l5 -5zM134 191l-2 -10l10 -3z M175 493l-5 12l-8 -8zM107 99l3 -10l11 14zM107 131l-1 -10l9 4l3 -5l-2 7l-8 8l-10 -5zM121 268l8 -5v17l-11 4l7 -12l-8 4zM134 226l-6 6l2 13l-14 12l3 -14l4 -17h11zM148 501l1 -8l4 7l16 11l-5 5l1 10l-10 -4zM173 228l-2 -20l-4 -28l-2 -27l-8 -56l-4 -27l-3 -28 l-3 -23l-8 -4l5 -10l-10 -14h10l-4 -17l-8 -12l-22 -2l-10 2l-18 -2l-22 1l-8 7l1 16l-2 13l7 28l-1 13l4 17v12l4 29l3 28l4 38l6 21l-2 10l5 11l-2 15l6 36l4 34l6 11l-4 6l6 15l16 4l31 1l28 -1l10 -7l-1 -19l-7 -14l6 -7l-4 -25zM110 472l5 22l-2 9l5 12l1 29l5 10 l-2 11l2 14l8 60l3 36l5 34l5 29l2 32l6 35l9 11l16 4l12 -2l13 2l22 -1l16 -7v-23l-2 -23l-5 -33l-2 -30l-5 -30l-3 -26l-5 -33l-3 -33l-3 -30l-5 -15v-36l-4 -18l-1 -17l-10 -10l-12 -4h-52l-16 4z"/>
<glyph glyph-name="section" horiz-adv-x="438" unicode="" d="M401 270h2l-2 3v-3zM349 664h4l-2 2zM123 314l2 -8l-1 13zM206 117l6 -5l3 4zM129 344l3 8h-5zM122 303l-5 -5l5 -6v11zM268 136l-9 -1l5 -6zM311 352l-8 1l4 -8zM275 120l-13 -8l5 -2zM313 389h-10l3 -7zM371 304l-8 3l-6 12l4 -15h10zM177 200l-4 -11l6 -4zM373 275 l1 -14l7 1zM389 544l14 5l-12 3zM353 369l-8 -5l5 -3l-2 -10l7 10zM327 370l8 13l-14 2zM124 283l-2 -10l15 3l-3 12l-6 -11zM115 13l10 -9l8 -7l-3 14zM375 567l5 -13l11 5l-10 6l2 8zM326 355l-1 -5h5l13 -15l-3 19zM220 182l2 15l-12 3l-2 -11l8 -3zM157 318l-14 -3 l-4 -6l-1 1l-3 -9l8 5l10 1zM256 224l27 -24l12 6l15 27l4 15v15l-10 28l-40 48l-10 7l-9 10l-24 20l-10 -7l-7 -9l-11 -24l-2 -18l2 -16l6 -15l18 -24l20 -19zM424 300l-1 -34l1 -10l-5 -24l-5 -11l-8 -24l-16 -25l-25 -28l-15 -9l7 -20l16 -28l11 -36l3 -33l-5 -34l-7 -26 l-13 -27l-20 -28l-21 -21l-7 2l-2 -8l-24 -14l-29 -11l-31 -5l-29 -2l-25 1l-25 7l-28 10l-9 8l-10 5l-18 20l-17 22l-8 24l-5 28v28l4 29l6 29l8 10l29 3l25 -1l32 1l16 -6l3 -35l-5 -27l8 -33l10 -8l12 -5l13 -1l14 2l22 13l8 9l9 20l-2 24l-10 23l-18 25l-13 10l-26 24 l-21 20l-20 21l-12 9l-21 26l-25 35l-7 22l-9 13l-2 17l-3 29l2 27l9 35l15 31l19 26l21 21l8 13l-4 11l-8 11l-17 39l-1 12l-4 12l-1 25l4 24l10 40l10 21l15 23l20 21l25 19l29 12l22 9l11 2l27 3h29l13 -3l36 -8l27 -16l9 -8l19 -19l7 -12l10 -20l7 -25l4 -26l-4 -30 l-3 -32l-5 -16l-14 -10l-23 2h-28l-29 -1l-15 3l-4 16l5 40l6 9l-4 5l-6 22l-16 15l-16 5l-17 -2l-17 -7l-10 -9l-8 -11l-3 -12l-2 -29l7 -17l10 -14l19 -20l3 -13l8 1l14 -12l9 -4l14 -18l28 -27l23 -27l8 -6l4 -8l8 -8l16 -31l12 -32z"/>
<glyph glyph-name="dieresis" horiz-adv-x="212" unicode="" d="M275 855l-9 -7l6 -1zM287 840l10 -2l-4 6l-8 5zM196 883v-12l-2 -14l-2 -34l-8 -35l-9 -10l-15 -3h-16l-15 3l-22 -3l-13 2l-10 6l-2 13l2 14l4 35l5 37l8 10l23 2l10 -3l27 4l29 -2zM334 870l-3 -28l-1 -15l-5 -34l-7 -13l-13 -3h-13l-29 -2l-33 2l-8 5l-3 22l4 25l4 9 l-2 11l5 25l7 15l13 4l16 1l60 -2l8 -8v-14zM145 838l-4 1l1 -7zM145 838l8 -8l5 10l-8 -3z"/>
<glyph glyph-name="copyright" horiz-adv-x="720" unicode="" d="M298 336h3l-3 2v-2zM433 230l8 5h-6zM75 399l3 -9l5 -2zM661 613l-7 -7l11 3zM308 403v-5l11 12l2 5zM316 400l9 -4l1 12zM321 416l3 6l8 7l-11 -5l-11 1zM541 523l3 -14l1 -16l-1 -17l-4 -16v-14l-5 -13l-11 -8l-14 -2l-27 2l-8 4l-5 14l3 17v26l-3 12l-7 7l-12 1 l-13 -2l-22 1l-30 5l-4 -6l-9 -6l-7 -10l-4 -23l-4 -32l-4 -23l-2 -30l-4 -27l-4 -26l-3 -34l7 -15l18 -5l16 1h27l9 -2l18 3l10 8l6 12l1 13l4 13l-2 14l4 13l11 10l25 2l25 -3l7 -11l-4 -28l-3 -28l-6 -21l-12 -23l-19 -18l-26 -14l-11 -2l-24 -3l-21 -1l-8 2l-24 -2 l-43 5l-26 9l-8 6l-9 12l-13 30l2 41l2 28l3 9l1 26l5 23l2 31l5 25l2 19l4 24l9 25l17 22l23 15l22 10l12 1l27 1l29 1l12 -2l13 1l26 -2l25 -9l15 -12l9 -11zM675 359l6 19v36l2 9v27l-2 13l-5 27l-18 52l-10 20l-6 6l-4 9l-7 5l-10 14l-26 23l-34 22l-19 9l-11 3l-29 10 l-28 4l-31 4l-28 -3l-25 -4l-24 -3l-12 -4l-23 -9l-30 -14l-23 -13l-14 -7l-19 -16l-22 -20l-19 -24l-16 -22l-16 -25l-15 -28l-6 -19l-8 -16l-3 -19l-4 -11v-12l-5 -33l2 -6l-3 -30l3 -18l3 -24l8 -33l19 -32l15 -26l20 -25l13 -8l9 -10l24 -15l29 -15l31 -9l32 -7h15 l24 -3l15 2l31 3l17 4l36 10l31 12l16 10l17 7l15 13l6 -2l5 11l13 7l11 14l24 25l11 18l9 10l14 25l12 26l9 21zM750 400l-2 -17l-1 -13l-7 -25l-7 -31l-8 -16l-4 -14l-7 -13l-11 -27l-9 -13l-16 -22l-9 -7l-18 -27l-16 -15l-22 -21l-23 -18l-26 -18l-30 -17l-18 -5l-9 -8 l-22 -7l-25 -9l-12 -1l-10 -5l-22 -1l-21 -4l-28 -2l-19 4l-8 -2l-41 6h-12l-11 4l-41 13l-27 14l-31 21l-19 16l-18 17l-5 9l-11 10l-17 22l-4 11l-9 13l-6 14l-11 29l-8 23v14l-4 14l1 14l-4 31l2 32l3 10l-1 9l2 11l7 5l-5 9l3 18l20 60l11 8l-5 2l11 25l14 22l16 24 l19 22l20 23l22 20l6 -3l2 8l11 10l48 32l33 15l26 10l22 9l24 5l35 2l12 3l29 2l31 -2l30 -4l26 -4l10 -4l17 -13l12 2l13 -6l25 -11l10 -8l18 -15l19 -13l10 -14l12 -10l17 -22l12 -23l9 -12l1 -7l6 -6l3 -9l7 -25l9 -22l2 -15l3 -28l-1 -15l3 -14l-6 -13z"/>
<glyph glyph-name="ordfeminine" horiz-adv-x="368" unicode="" d="M111 272h2l-2 2v-2zM192 714h3l-3 2v-2zM297 233h2l-2 3v-3zM132 380l-4 -9l13 7zM323 480l-9 -9l18 7zM321 297l3 10l-11 -1zM83 280l11 -2l-5 12zM321 399l-3 -16l16 -8l-10 9zM314 275l8 -4l6 6l-4 7zM295 369l-1 -15l8 -2l3 11l-5 5zM328 449l-16 -7l13 -12l4 15 l-5 -5zM207 282l26 13l10 14l9 14l4 15l3 28l4 28l4 24l-1 12l-9 5l-14 -7l-26 -17l-16 -14l-20 -29l-9 -24l-5 -28l2 -12l5 -12l10 -7zM381 240v-24l-1 -16l-8 -14l-21 -5l-26 2l-28 4l-22 15l-19 20l-12 -6l-21 -17l-29 -10l-30 -6h-34l-35 11l-27 25l-9 17l-1 17l-6 7 l-3 29l3 15v17l9 34l10 28l9 11l3 11l16 24l24 27l13 9l11 1l1 8l30 18l22 9l24 12l25 11l26 11l6 12l3 13l3 28l-4 26l-8 11l-10 6l-13 1l-18 -5l-8 -5h-6l-4 -16l-6 -32l-6 -15l-11 -6h-28l-31 -2l-26 1l-11 14l1 22l3 11l8 28l11 24l14 22l26 27l27 16l19 8l23 7l30 4h23 l26 -2l13 -9l9 3l9 -9l8 2l15 -9l20 -21l8 -14l11 -28l3 -26l-3 -33l-2 -30l-3 -33l-5 -29v-15l-6 -36l-3 -25l-4 -32l-4 -30l-4 -31l-4 -27l-1 -25l10 -6l8 -9l3 -14zM143 409l-3 -10l-13 5zM143 409l-2 5l-12 -4l-4 -8l5 -10l-7 -3l6 -4l9 12l8 4z"/>
<glyph glyph-name="guillemotleft" horiz-adv-x="434" unicode="" d="M240 479l-9 -4l-4 -7zM451 498l-11 -14l-5 -16l-5 -5l-7 -12l-18 -31l-14 -22l-20 -24l-6 -15l5 -17l9 -16l-2 -10l8 -6l5 -11l16 -42l6 -23l6 -34l-1 -16l-12 -9l-40 -1l-15 7l-8 10l-4 13l-14 29l-16 27l-17 26l-19 23l-21 28l-1 20l9 13l-7 2l8 18l18 13l8 10l23 22 l21 24l17 18l17 24l14 20l15 18l15 7l15 -2l15 2l16 -1l8 -11zM242 260l10 -30l1 -19l4 -25l-8 -11l-17 -1l-33 1l-13 7l-7 13l-7 24l-6 6l-4 8l-13 25l-12 15l-15 22l-13 15l-5 9l-15 14l-3 13l6 36l21 20l20 19l19 20l24 24l13 18l14 19l13 19l17 21l22 5l26 -1l17 -4v-18 l-10 -22l-11 -23l-12 -22l-13 -23l-15 -22l-15 -23l-16 -22l4 -25l4 -8l9 -24l7 -11z"/>
<glyph glyph-name="logicalnot" horiz-adv-x="520" unicode="" d="M497 452v3l-3 -1zM460 235l1 -8l3 8h-4zM466 315l-4 10l-2 -5zM414 444l-8 2l13 -9zM226 461l-6 -9l3 -5zM497 344l-8 -9l8 1v8zM484 413l8 -1v9zM501 441l4 13l-8 -6zM473 417l-1 -14l7 2zM312 464l3 -7l8 14zM460 271v-13l8 14zM477 424l24 8h-14zM151 454l7 2l8 1 l-5 9zM448 475l1 -12l12 13zM196 439l11 11l3 2l-15 -1zM472 255l9 -1l-7 5l6 5h-9l-6 -16zM254 454l8 2l10 6l-9 -2l-2 17l-3 -8l2 -8zM484 304l-10 -5l3 -10l11 5zM496 377l-7 7l-10 -10l8 -7zM242 454l11 9l-1 11l7 3l-13 -1zM354 464l3 9l5 9l-9 -9l-9 -5l8 -8h-8 l10 -11v15zM392 473l7 -14l7 14l-8 7l-4 7zM285 467l10 1l1 9l-3 10l-10 -8zM530 311l-3 -18l-1 -14l-8 -56l-6 -10l-13 -5h-14l-29 -1l-28 1l-12 16l1 15l7 13l-1 10l-1 22l4 20l2 31l7 11l-3 12l4 27l-1 14l-9 4l-17 2l-33 -2h-27l-2 7l-20 -7l-14 1h-26l-26 2l-14 -2 l-42 2l-13 -3l-26 4l-13 -4h-25l-27 1l-22 4l-2 15l2 17l4 30l9 35l12 6h72l32 -2l23 2l32 -2l37 2l21 1l21 -3l22 1l24 1l31 -1l28 1h90l12 -5l3 -13l-3 -19l-3 -33l-4 -11l-1 -22l-11 -12l8 -13l-2 -10l-3 -28l-6 -18z"/>
<glyph glyph-name="registered" horiz-adv-x="720" unicode="" d="M129 502h-6l-2 -1zM541 148h3l-3 2v-2zM295 264l3 -6h6zM727 451l-8 7v-7h8zM448 532l-9 4l-4 -5zM322 379l-9 12l-8 -3zM328 461l-3 13l-9 -3l7 -15zM497 401l-10 -7l10 -7l9 5zM436 408l11 7l11 6l7 11l2 18l2 36l-7 14l-12 3l-28 1h-26l-27 -2l-6 -19l-2 -16l-5 -30 l1 -20l17 -6l22 3l6 -6l17 5zM515 386l-5 7l3 -9l-18 -15l-5 -11l5 -22l-2 -12l5 -7l-6 -4l7 -6l-5 -8l10 -12l-4 -14l9 -19l-2 -34l-15 -4h-37l-14 14l-2 16l-3 31l-5 25l1 10l-4 9l-2 18l-7 19l-11 -5l-28 3l-14 -2l-20 -7l-4 -14l-2 -17l-2 -22l-2 -26l-3 -29l-4 -14 l-13 -9l-13 -1l-28 1l-13 7l-1 17l5 35l4 31l3 31l3 30l5 30l4 27l6 33l-3 7l5 22v17l3 15l7 38l13 9h60l36 -1l24 2l12 -2l12 2l10 -3h13l15 -3l14 -7l12 -10l8 -11l8 -24l-5 -7l7 -3l-2 -16l-1 -33l-10 -35zM639 268l14 26l6 14l7 13l2 15l6 15l2 17l6 17l-1 22l2 25 l-2 29l-6 27l-5 23l-9 23l-11 19l-6 21l-7 2l-8 9l-22 24l-24 19l-24 14l-26 13l-16 4l-37 9h-13l-28 3l-10 -2l-26 -1l-46 -10l-28 -8l-9 -6l-27 -12l-29 -19l-23 -19l-20 -18l-17 -21l-22 -28l-9 -16l-14 -30l-11 -24l-9 -35l-8 -38l1 -13l-1 -24l1 -28l3 -14l2 -20l5 -13 l7 -21l12 -24l15 -23l20 -26l13 -11l31 -23l17 -7l28 -14l23 -6l33 -7l28 -1h28l11 3l31 6l28 7l28 12l24 11l29 16l20 17l22 22l19 21l18 23zM750 462v-30l1 -13l-1 -21l-6 -30l-3 -24l-11 -25v-9l-4 -12l-10 -24l-15 -29l-8 -10l-12 -21l-17 -22l-18 -21l-27 -24l-23 -24 l-22 -14l-30 -19l-24 -9l-10 -7l-23 -8l-26 -7l-26 -8l-23 -2l-31 -2l-29 -1l-28 1l-13 3l-28 5l-11 5h-10l-28 11l-26 14l-25 15l-23 18l-21 20l-18 22l-16 25l-22 40l-8 26l-7 34l-6 37l-1 27l3 14l-2 10l2 13l7 8l7 14l-9 -12v14l4 23l8 33l21 49l16 30l9 4v11l8 6l5 11 l8 8l5 10l8 7l21 22l15 12l24 21l25 17l19 13l11 3l7 6l21 9l38 14l31 9l8 -6l12 8l13 2l28 2h27l32 -2l26 -5l34 -12l19 -4l21 -9l19 -15l5 1l29 -20l11 -11l29 -27l11 -18l6 -17l6 -1l10 -19l12 -26l11 -34l7 -34l-2 -10z"/>
<glyph glyph-name="overscore" horiz-adv-x="231" unicode="" d="M233 817l7 -8l11 5v8l-9 -7zM349 840l-1 -18l-3 -21l-5 -18l-12 -7h-25l-27 -1h-60l-12 6l-6 -6l-16 3l-20 -4l-15 2l-30 -1l-32 4l-3 36l3 17l6 14l11 6l37 2l30 -1l41 1l24 -2l8 2l12 -1l37 -1l16 2l32 -1z"/>
<glyph glyph-name="degree" horiz-adv-x="359" unicode="" d="M295 533l10 -5l2 5h-12zM179 632l10 -6l6 12zM223 544l29 -6l13 2l11 6l21 18l9 14l5 14l2 16l-2 28l-15 21l-26 10h-29l-13 -7l-21 -20l-13 -26l-2 -13l2 -16l10 -25l8 -9zM370 684l12 -21l5 -12l3 -13l-1 -29l-7 -28l-9 -27l-13 -22l-23 -25l-11 -4l-8 -9l-18 -11 l-33 -11l-33 -1l-27 1l-23 8l-25 14l-17 19l-15 27l-10 32l1 13l1 28l7 11l1 15l17 30l14 19l7 4l7 9l17 12l29 14l34 8l30 1l32 -5l13 -8l9 -2l8 -7l2 -6l14 -9z"/>
<glyph glyph-name="plusminus" horiz-adv-x="558" unicode="" d="M485 56v3l-1 -2zM403 69v-2l2 2h-2zM349 366h2l-1 2zM305 280l11 -7l-3 3zM313 57l8 3l-3 2zM434 371l-4 5l-3 -4zM196 350l-8 7l1 -5zM357 460l-1 15l-2 -4zM188 321v-9l4 13zM361 351l8 18l-6 -8zM227 87l-9 5l-1 -5h10zM375 482v7l-8 -5zM123 328l11 -4l-2 6zM469 321 l-5 10l-8 4zM378 346l6 6l-7 4zM333 492l8 5l1 9zM200 77l-12 -8l11 1zM148 51l-19 -13l11 3zM313 346l-9 7l3 -12zM250 44l-11 -6l10 -3zM265 54l12 10l7 -2zM413 337l4 8l-10 -10l9 -9zM361 54l-3 -11l12 12l-17 1zM162 69l2 -11l11 2zM343 477l6 14l-10 -7l-4 -6z M317 456l7 -15l6 12zM397 332l-11 -3l-2 -17l5 9l4 2zM333 470l-7 7l-9 3l5 -15zM115 79l-13 -10l-2 -6l14 3zM111 52l1 3l7 -8l2 7l11 10l-25 -7zM328 307l3 11l-13 -6l2 -9l11 -4zM275 352l-10 5l-6 -8l20 -21l-6 9l-4 12zM311 38l7 -4l3 7l-5 8l-10 -6l-11 2l6 -6z M302 185h-9l4 -12l13 -2l-5 15l-1 12zM300 205h-6l4 -6l3 6l11 8l4 13l-7 -12l-9 -3l4 6l-1 13l-14 -4l3 -7l3 7zM234 62l6 -11l11 4l-2 5l-8 -8l-2 11l-12 2l-9 -13l9 -6l7 2v14zM219 347l-14 -2l-5 -14l6 -6l5 8l10 -3l6 10l-12 -3zM308 311l-9 -8l-5 -12h17l16 -4l2 -13 l4 5l-7 13l-15 3l2 7zM249 336l-19 -1l1 -12l9 6l16 -8l7 7l-6 9l-7 5l-2 7zM378 344l-4 -8l-7 10l-10 -8v11l-9 -8l-8 -11l8 -3l5 5l8 -4l7 6l8 -2zM277 44l14 -6l-5 15l5 7l-2 4l4 6l-11 1l-9 -8l-7 13l-10 -5l6 -6l-6 -8l4 -8h11l3 -7zM292 364v-12l-15 -8l11 -3l5 -17 l-4 -4l8 2l18 -5l5 10l8 13l-10 -6l-7 -11l-4 6l-12 23l18 24v-9l8 -10h-12l14 -10h15l3 5l-5 9l9 15l-11 -9l-4 -10l-6 13l-10 10l20 4l-1 15l-17 2l3 -10l-15 -16l-1 -7zM521 77l-4 -13v-15l-4 -33l-9 -14l-33 -3l-29 1l-30 -2l-22 5l-36 -3h-64l-23 -1h-24l-26 1l-30 -2 l-13 2l-11 -1h-70l-27 -1l-12 4l-5 11v18l6 35v19l7 16l17 6l20 -1l15 2l25 -1h62l16 -7l12 5l17 1l27 1l15 -4l20 4l34 1l11 -2l14 2l25 -3l25 2l10 -2l25 2l28 -2l29 1l13 -16zM98 284l-15 11l-1 12l4 26l4 33l6 19l21 6l11 -1l17 2l11 -2l25 2l11 -2l14 2l30 -1l36 4 l7 23l-1 12l3 9l4 31l6 4l-6 1l3 14l-1 12l3 13l6 12l10 8l13 -1l15 3l15 -2h32l11 -14l1 -14l-4 -16l-4 -33l-5 -27l3 -38l22 -2l22 1h53l32 -1l16 2l17 -1l11 -8l-2 -28l-5 -31l-1 -23l-9 -14l-18 -4l-16 2l-11 -2l-12 1l-25 -1l-24 1l-34 -1l-25 -1l-9 -6l-3 -13l-5 -37 l-2 -22l-4 -11l1 -15l-2 -20l-7 -13l-18 -5l-12 1l-27 -3l-20 1l-19 9l-1 14l6 19l-2 13l6 32v14l3 23l6 7l-5 11l-39 4l-23 -2l-29 -1l-12 3l-26 -1h-33z"/>
<glyph glyph-name="twosuperior" horiz-adv-x="294" unicode="" d="M254 354v-2l3 2h-3zM309 629h3l-3 2v-2zM160 324v-3l5 3h-5zM310 660l-11 6l4 -9zM108 343l-3 -15l13 7zM311 382l12 -13l-1 -9l-4 -24l-1 -25l-3 -13l-10 -9l-26 -4l-19 2h-22l-32 -1l-15 3l-18 -2h-29l-27 -2l-12 3h-44l-9 9v15l4 14l3 24l6 12l11 23l16 22l23 29 l24 24l22 24l21 20l17 20l24 25l11 21l13 29l1 15l-8 15l-16 6l-19 -5l-9 -9l-4 -11l-3 -20l-9 -23l-15 -3h-29l-29 -1l-13 3l-5 11l2 28l9 35v10l9 16l9 11l22 23l23 17l25 10l32 7h21l29 -3l33 -8l27 -20l10 -12l8 -14l5 -15l2 -23l-1 -33l-5 -23l-7 -24l-8 -16l-9 -12 l-14 -24l-14 -17l-19 -21l-24 -26l-26 -27l-22 -25l6 -7l32 -1l29 1h26z"/>
<glyph glyph-name="threesuperior" horiz-adv-x="293" unicode="" d="M265 316l-5 -6l1 -1zM273 616v-2l8 2h-8zM270 478l-11 -6l10 4zM276 427l4 -4l-2 11zM295 570l5 -2l-6 12zM284 565l4 -7l7 4zM120 607l6 -7l3 8zM280 661v8l-9 -9zM283 468h1l8 -1l-7 9zM299 591l-9 6l2 -10zM231 500l-2 -8l13 7zM262 355l-13 1l12 -8zM293 455l-6 -8 l8 -5zM249 373l-9 -10l9 -2v12zM126 624l-12 3l4 -10zM215 517l8 -3l1 5l-9 6v-8zM297 656l-9 12l-4 -13l3 8l9 -19zM276 576l14 12l-15 1zM265 516l-6 4l-4 -8l16 -7zM239 518l7 -10l-4 14l-16 -3l2 -8l10 5l-8 1zM297 607h12l-11 5l-6 3l-7 -3l2 -15zM328 431v-20l-3 -12 l-4 -30l-13 -9l7 -3l-11 -24l-18 -23l-31 -20l-35 -14l-19 -3l-31 -2l-28 4l-28 8l-25 16l-9 11l-14 25l-6 21l1 27l5 37l15 14h9l33 2l22 -2l13 -6l6 -6l-3 -34l8 -23l16 -5h13l16 11l9 14l6 35v18l-3 14l-10 9l-13 2l-4 9l-8 -6l6 10l-10 -3l-2 -7l-10 5l-4 11l3 14l1 31 l8 14h20l10 3l20 13l7 10l9 8l-4 6l3 17l-2 26l-11 9l-14 4l-16 -9l-12 -11l-3 -9l-7 -32l-9 -8l-27 -2l-27 -1l-23 2l-8 11v27l10 42l8 15l10 13l20 21l21 16l14 7l23 10l27 4l2 -8v8l14 2l27 -2l31 -8l18 -12l17 -13l7 -12l9 -21l4 -17l-5 -17l5 -12l-3 -16l-4 -29l-6 -28 l-11 -17l-13 -12l-3 -16l7 -6l11 -22l2 -29z"/>
<glyph glyph-name="acute" horiz-adv-x="161" unicode="" d="M295 931l21 -4l-4 -17l-21 -25l-20 -23l-20 -25l-19 -23l-9 -7l-6 -13l-15 -12l-14 -7l-22 1h-25l-16 5l-2 11l12 22l11 22l13 24l15 26l12 26l8 10l9 7l14 3l28 -2l27 1h23z"/>
<glyph glyph-name="mu" horiz-adv-x="405" unicode="" d="M83 69l1 -2l1 2h-2zM298 123h3l-3 2v-2zM98 -52h3l-3 2v-2zM115 -10h3l-2 2zM188 -1h3l-2 3zM346 249l2 -2l2 2l-2 2zM143 474l-11 2l2 -4zM371 400l-12 1l-8 -3zM157 284l7 1l-3 6zM164 462l-5 4l-6 -6zM181 435l7 6l-6 3zM156 303l-4 5l-9 -5h13zM90 80l8 7l-10 1z M115 280l-4 -12l13 16zM141 176l-11 3l-4 -8zM99 -62l-11 -9l10 -1zM153 291l-10 7l-14 -1zM116 296l-6 -14l10 5zM120 312l-4 -10l5 -2l5 6zM127 211l-8 9v-16zM89 8l10 -9l4 10zM139 433l-4 -7l-8 1l8 -10l10 -1l-5 5zM325 400l-8 -6h-4l7 -5l2 -12l6 8zM143 237l7 -4 l2 15l-7 7l-4 -7l3 -4zM126 245l-5 13l1 -20l10 -8l4 16zM131 345l-11 -6l-1 -5l6 -8l-4 -10l8 -9l12 5l-13 25zM374 121l-1 -27l-2 -13l-2 -14l-6 -38l-5 -26l-11 -5l-11 -2l-33 -1h-35l-11 7l-6 10l1 12l3 8l-2 13l-4 -13l-17 -10l-9 -10l-20 -14l-35 -10l-8 -10l-1 -12 l-4 -28l-3 -30l-4 -28l-5 -25l-13 -7h-35l-20 -2l-12 7l-4 -6l-13 -1l-12 3l-6 18l4 26l2 23l4 37l4 25l6 24l-1 14l2 15l3 27l5 34l3 29l5 31v11l3 34l5 13l-1 14l5 37l5 9l-2 19l1 15l3 29l6 34l2 31l5 30l5 29l-1 13l3 14l4 34l12 12l23 2l8 -2l13 1h25l29 -2l7 -13 l-2 -31l-6 -29l-1 9l-5 -11l-1 -10l7 8v-14l-12 -14l-2 -9l10 -4l-2 -17l-4 -31l-3 -30l-4 -30l-5 -27l1 -14l-6 -37l-4 -30v-15l-4 -18l1 -15l-4 -16l-1 -15l3 -14l8 -10l12 -3l15 2l11 4l15 14l20 25l-2 15l2 15l5 34l4 34l3 29l4 35l4 32l5 27l1 23l7 6l7 -1l-12 3v17 l4 26l3 26l6 34l3 27l7 10l14 4l33 1l34 -1l5 -4l8 4l15 -7v-13l-2 -26l-5 -33l-3 -30l-4 -15v-18l-3 -13l-3 -29l-4 -11l1 -16l-3 -31l-4 -20l-4 -33l-3 -29l-4 -29l-3 -28zM126 171l-15 -5l9 -4h12z"/>
<glyph glyph-name="paragraph" horiz-adv-x="509" unicode="" d="M414 74h2l-2 2v-2zM204 638h3l-3 2v-2zM202 673h3l-3 2v-2zM331 580l-8 -2l-2 -2zM149 571l11 -11l-7 8zM96 443h3l-3 4v-4zM274 602l-3 6l-4 1zM319 171l-8 -7l2 -1zM260 535l3 -1l-7 11zM404 -67l9 -2l-3 4zM229 310l-3 8l-1 -8h4zM181 388l-4 -12l7 13zM228 410l-9 -4 h9v4zM329 332l1 6l-5 7zM288 108l-10 2v-4zM160 329l4 7l-3 4zM285 386l-1 -4l11 3zM280 686l11 5l-4 2zM208 613l-1 -3l14 -3zM179 333l-4 10v-12zM282 581l-2 9l-4 -7zM473 487l-1 11l-4 -7zM233 676l6 4l-12 1zM251 263l8 2l4 8zM144 399l2 9l-7 -3zM111 365l10 -4l2 5z M294 616l6 -7l2 8zM225 535l8 7h-9zM220 533l-14 9l7 -9h7zM341 542h-7l-1 -9zM117 414l6 11h-6v-11zM344 570l-4 11l-5 -3zM128 494l-1 -8l11 13zM245 394l7 -7h4l-2 6zM261 492l7 4l-11 5zM321 549v-8l10 5zM269 116l-10 -5l6 -5zM283 22l-10 -1l1 -8zM299 441l-3 10 l-6 -8zM242 488l5 -4l7 12zM130 471h-9l-5 -10zM172 366l-10 -9l20 9h-10zM272 71l-9 -3l-5 -7l10 4zM322 531l-8 7l1 -8l-7 -6zM274 421l9 4l11 4l-10 1zM435 446l7 -4l1 13zM245 428l3 5l-18 2zM248 713h-9l-2 -11zM142 489l-5 -8l-5 -13l6 5zM159 415l-3 -9l12 2z M229 590l-1 16l-6 -7zM249 330l-5 -11l9 -1zM87 527l-2 -13h8zM258 481l5 -8l6 13zM228 641l-6 14l-1 -6l3 -13zM209 433l-8 -6l16 -3zM265 675l11 -12l4 -3l-3 10zM307 384l-5 -5l10 7l4 12l-8 -6zM314 625l-10 -1l2 -5l5 -6zM197 361h-12l7 -11zM298 681h-9l-6 -13l12 4 h-6l4 7zM327 589l7 7l-17 2zM321 505l2 14l5 6l-11 -4zM418 10l14 9l-12 2zM249 -69l-8 8l-3 -6l6 -7zM232 485l2 -11l1 -11l5 15zM279 717l-5 -7l-3 -8l12 2l-4 6v7zM253 514l-16 -6l21 -2zM334 549l3 11l-9 4l-4 -8h7zM229 561l-5 -1l-13 -4v-8l8 3zM251 660l8 8l-13 -6 l-3 -10l10 -2l-5 4l9 4zM240 421l-5 -6l13 1l6 -8l-2 14zM229 525l-12 -9l22 8v12zM169 598l5 5h-10l10 -15l5 9v6zM232 347v-18h13zM103 479l-2 -16l11 11v10zM314 481h13l-3 9l-12 -5v-10l6 -8zM135 525l-7 2l-4 -14l9 -2l10 5l-9 -2zM289 453l4 7l-11 9v-10l-4 -9z M154 581l2 9l-13 -3l17 -18l1 10zM297 626l5 8l-5 7l-9 -1l-2 -26l3 12l8 10v-10zM242 549l9 5l8 -2l-9 5l-8 8l-8 -3zM224 304l-14 -11l12 -3l11 1zM307 585h-1l-14 -9l-9 -4l1 -8l25 13zM254 630l-10 -5l-7 -2l6 -2l8 -7l-13 -1l6 -7l4 -1l5 -9l7 18l-10 6zM143 558l7 -10 v-6l11 1l5 10l11 5l-6 8l-11 -13l-15 10zM169 515l4 9l1 10l-13 -7l7 -4l-15 -6l5 -16l-3 -9l13 10l-7 8zM270 568l-12 12l-10 -5l1 9l-7 6l-11 -9l-11 -5l11 -2l4 7l8 -8l21 -9zM466 24l-5 -21l-5 -10l4 -14l-3 -13l-2 -29l-5 -36l-8 -11l-20 -3h-20l-29 -2l-7 6l-3 25 l4 13v13l4 26l2 28l5 29l-1 14l7 39l3 33l3 24l5 30l2 23l5 37l6 42l1 24l5 28l3 30l3 20l4 12l-1 17l6 44v13l5 29l5 13l-4 6l4 24l7 8l-5 6l2 26l4 11v15l7 3l-8 29l-15 3l-22 1l-13 -7l-7 -34l-2 -34l-4 -24l-2 -28l-5 -23l-5 -12l3 -9l-5 -12l2 -14l-4 -27l-2 -25 l-11 -11l7 -2l-2 -9l2 -15l-7 -24v-15l-3 -30l-3 -29l-5 -29l-3 -33l-4 -36l-4 -30l-4 -25l-5 -34l1 -7l-3 -35l-6 -34l-4 -31l-3 -36l-6 -21l-16 -7l-31 -1l-14 6h-20l-3 11l4 24l5 36l7 -4l-6 6l-1 11h6l-3 8v22l4 25l5 36l5 6l-2 10l2 35l5 33l4 9l-2 17l3 13l4 25l3 6 l-3 12l2 16l-12 8h-13l-24 2l-24 6l-22 5l-13 7l-8 9l-19 13l-2 8l-26 28l-7 13l-1 9l-5 8l12 6l-6 18l-2 -13l-13 23l3 15l-7 13v18l5 20l-2 9l2 12l2 26l3 12l4 18l8 24l17 41l15 25l8 7l5 10l8 8l18 19l24 18l16 7l36 16l25 5l25 3l34 -4l26 4l13 -2l15 2l24 -2l10 2h80 l10 -3l22 2l13 -1l10 -4l3 -15l-3 -16l-4 -33l-3 -30l-8 -50l-2 -27l-3 -24l-3 -7l1 -15l-2 -16l-6 -16v-14l-2 -25l-4 -34l-3 -24l-5 -8l2 -31l-4 -19l-4 -37l-3 -34l-3 -13l-5 -35l-5 -5l3 -22l-5 -30l-2 -26l-5 -33l-7 -10l5 -6l-2 -15z"/>
<glyph glyph-name="middot" horiz-adv-x="234" unicode="" d="M186 391h2l-2 2v-2zM172 339l3 -5l9 6l-22 6zM141 328l6 -6l7 9l-5 9l-2 9l-12 -3l3 -7l-3 -9l6 8v-10zM236 378l-1 -15l-3 -10l-1 -8l-7 -15l-23 -26l-14 -10l-24 -6l-25 1l-17 6l-11 7l-15 17l-6 16l-2 13l1 14l6 23l6 6l7 14l10 9l23 16l8 1l34 2l13 -9l7 3l5 -9h9 l16 -27z"/>
<glyph glyph-name="cedilla" horiz-adv-x="213" unicode="" d="M183 -108v-26l-2 -15l-6 -16l-16 -27l-13 -13l-15 -11l-20 -12l-15 -4l-29 -4l-29 2l-30 8l-12 10l2 20l5 21l10 8l13 1l24 -5h12l14 3l12 6l7 9l3 13l-1 19l-4 11l-15 -1l-22 -1l-13 -4h-13l-11 4l-13 11l-1 17l9 11l19 20l20 25l21 25l16 7l31 1l11 -7l-5 -17l-13 -13 l-9 -16l6 -8l27 -3l16 -7l15 -16z"/>
<glyph glyph-name="onesuperior" horiz-adv-x="250" unicode="" d="M226 631h2l-2 2v-2zM213 642v9l-3 -7zM265 459l-2 -23l-3 -16l-2 -19l-3 -33l-6 -30l-3 -33l-9 -9l-27 -2h-27l-27 1l-12 5l-3 13l2 15l2 30l4 14l-1 12l5 22v14l3 28l3 29l5 26l4 30l2 23l-16 3l-11 -5l-24 -12l-13 -3l-10 7l-2 13l3 13l3 26l3 29l7 15l12 9l14 7l23 13 l27 17l14 6l6 9l11 6l26 15l10 -2l10 3l31 -9l-4 -17l4 -10l-2 -12l-3 -27l-4 -31l-3 -28l-4 -27l-3 -29l-3 -27l-6 -28l2 -8z"/>
<glyph glyph-name="ordmasculine" horiz-adv-x="365" unicode="" d="M186 420h3l-3 2v-2zM359 438h3l-2 2zM250 190h3l-3 3v-3zM295 226h3l2 5zM312 428v-5l5 -1zM159 397h-2l-14 -15zM136 578l8 -4l-5 9zM155 588l-9 2l-2 -6zM146 287l-14 -9l8 1zM139 386l-1 8l7 12l-12 -9h3zM138 438l10 1l-7 9zM313 439l7 -7l6 9zM134 577l-3 -4l-7 -9 l9 1zM113 506l-5 -9h12zM208 669l6 -1l5 7l-5 3zM148 538v13l-11 -9h7zM167 529l-6 -7l-1 -10l7 6v11zM326 456l11 7l2 5l-9 -1zM316 469l-5 -8l8 2l9 9zM344 334l10 -4l3 7l-7 5zM295 304l3 -8l10 12l7 9l-10 -4l-3 -9l-3 11zM328 484l17 4l11 2l-3 12l1 -10l-14 3l-1 10 l-1 -8zM122 341l-5 -13l6 8l7 7l-7 12l-11 -11zM240 289l9 8l13 15l5 20l1 33l3 15l5 30l2 35l4 16l3 34l3 25l4 26l3 27l-2 36l-9 17l-18 6h-16l-14 -7l-11 -12l-8 -15l-7 -33l-4 -34l-5 -32l-2 -33l-5 -20l-1 -19l-3 -27l-4 -26l-3 -26l-5 -13h3l4 -31l12 -15l16 -5z M388 396l-4 -24l1 -12l-5 -11l-1 -19l-3 -12l-8 -25l-5 -8l-11 -27l-29 -33l-7 -4l-6 -8l-21 -12l-29 -12l-30 -7h-53l-17 4l-22 8h10l-7 4l-4 -4l-10 7l4 7l-11 -4l-16 13l-17 19l-13 28l-7 36l-1 25l2 31l4 33l3 27l5 34l5 36v30l4 12l5 33l3 24l11 31l2 12l7 13l19 30 l27 28l20 14l21 8l8 -2l3 8l35 6h17l28 1l24 -5l9 -6h10l14 -10l13 -5l19 -22l4 -14l7 -5l8 -25l7 -31l1 -16l-3 -32l-5 -39l-1 -27l-7 -32l-3 -35z"/>
<glyph glyph-name="guillemotright" horiz-adv-x="434" unicode="" d="M105 181h3l-3 3v-3zM350 269l-2 -2l4 -2zM187 459l-9 2l12 -4l3 8zM227 376l-4 12l-3 -8zM327 503l5 6l-3 10zM356 436l4 8l-10 -2zM343 421v-9l10 4zM239 323l-3 8h6l-6 7l-4 -9zM181 437l6 -7l-5 -9l8 3l8 14zM294 202l-5 -9l10 5l9 9l-11 5l-2 2zM94 175l-20 7l-4 2 l4 14l10 22l9 22l17 28l4 10l14 23l17 17l4 9l17 30l-2 12l-19 35l-8 27l-10 27l-7 27l-7 31l1 18l11 9l34 2l18 -4l12 -12l10 -25l11 -27l16 -23l4 -15l10 -5l9 -15l23 -25l10 -15v-12l-6 -32l-10 -13l-14 -11l-13 -13l-20 -17l-16 -20l-19 -20l-15 -11l-6 -21l-18 -26 l-26 -11zM440 373l3 -10l-1 -14l-5 -12l-10 -13l-21 -15l-7 -10l-18 -18l-17 -19l-19 -23l-22 -28l-26 -34l-21 -5h-26l-17 11l5 21l12 20l2 12l8 9l2 12l18 28l10 18l19 27l14 19l4 19l-11 22l-12 23l-4 19l-6 11l-3 13l-9 29l-7 36l2 17l10 7l15 1l35 -2l11 -9l4 -11 l7 -10v-19l15 -15l9 -16v-8l10 -6l6 -11l12 -19l6 -3l21 -27l4 -12z"/>
<glyph glyph-name="onequarter" horiz-adv-x="686" unicode="" d="M552 621l-14 -7l9 1zM206 624l-8 9l-1 -6zM579 156l6 7h9l-11 4zM546 84l-11 -1l8 -7zM237 447l-7 -3l18 -2l-13 11zM214 427l4 -13l8 8zM521 175l12 3l6 11l1 13l6 28v16l-5 7l-14 -19l-15 -24l-13 -27l11 -7zM184 520l5 37l-11 7l-19 -8l-34 -13l-16 2l-3 14l4 24l2 30 l7 28l12 11l15 6l16 3l4 9l12 6l23 13l29 19l27 16l33 4l17 -2l11 -10l-1 -17l-4 -17l-1 -16l-5 -32l-4 -34l-4 -33l-3 -32l-2 -30l-6 -33l-4 -37l-5 -43l-4 -18v-14l-3 -14v-12l-4 -28l-12 -8l-13 -2l-14 2l-28 -1l-29 -1l-10 6l-2 17l3 32l3 15l5 39l3 19l2 41l6 25z M453 386l-16 -24l-8 -11l-7 -12l-18 -28l-24 -29l-10 -20l-15 -22l-17 -27l-13 -19l-16 -22l-15 -22l-13 -22l-12 -16l-18 -27l-16 -23l-13 -19l-18 -26l-15 -12l-21 -2l-35 -1l-16 3l-6 9l6 12l12 20l7 8l17 28l24 36l17 25l18 20l8 17l14 20l4 9l12 14l14 22l13 21l17 27 l11 13l6 12l14 19l19 29l8 5l5 12l18 28l16 24l13 21l18 24l9 15l21 31l12 14l7 14l15 16l-1 6l11 17l15 19l10 19l20 28l23 34l8 6l7 16l5 6l15 6l18 -1l38 2l14 -17l-6 -13l-20 -28l-9 -14l-18 -27l-16 -25l-18 -23l-20 -31l-15 -23l-14 -20l-14 -23l-18 -26l-15 -22 l-17 -25zM683 161l-2 -20l-2 -15l-1 -16l-4 -14l-13 -9l-32 -3l-6 -32l-2 -32l-5 -16l-12 -11l-13 -1l-26 1l-16 -3l-27 5l-6 11l2 12l1 26l3 13l2 23l-13 7l-18 -1l-24 -1l-12 3l-14 -2l-26 2h-19l-11 9v17l3 16l3 29l9 21l12 20l19 32l16 30l17 27l9 10l9 17l13 22l15 28 l20 31l16 21l14 4h34l14 -2l14 1h32l9 -9v-14l-4 -36l-4 -30l-2 -33l-3 -14l-4 -34l-6 -15l1 -29l-6 -27l16 -4l21 -1z"/>
<glyph glyph-name="onehalf" horiz-adv-x="708" unicode="" d="M616 202h2l-1 2zM212 426h3l-3 2v-2zM440 428h3l-3 2v-2zM450 418h3l-3 3v-3zM356 357l-8 3l-3 -5zM239 419l-7 -7l6 -2zM518 572l-8 5l10 -14zM265 565l11 14l-9 -5zM645 323l-9 -3l10 -5zM352 328v-9l9 4zM701 316l-11 2l-6 -8zM594 368l-9 3l6 -14zM514 323l1 -10 l10 10h-11zM546 361l-15 -9l4 -5zM496 316l14 -6l-4 5l-3 8zM285 646l6 17l-9 -2zM672 310l-6 -10l13 -3zM646 250l12 4l3 7l-11 -3zM211 339l3 -3l8 7l-13 5zM628 229l-2 -14l13 15zM549 387l6 -11l12 12l-9 -3zM526 107l16 8l-2 11zM209 407l2 10l-13 -5l2 -8zM491 96 l5 -9l5 19l-7 -1zM662 383l-6 10l-8 -9l-3 -8h11zM189 344l12 -1l-5 18l-14 -13zM675 348l4 9l-8 9l-12 6l1 -8l12 -7v-9l-11 -20l19 11zM240 433l-7 7l2 -8l-12 1l-4 -19l-10 -19l10 5l9 19zM174 520l5 34l-7 8l-26 -8l-4 -5l-13 -7l-14 -4l-11 9l-1 19l3 17l3 28l8 27l9 9 l13 6l22 13l25 15l13 4l4 7l31 24l24 8h35l11 -9l-2 -28l-4 -29l-2 -33l-5 -21v-13l-4 -18l1 -9l-3 -8l-1 -12l-2 -25l-4 -27l-2 -27l-4 -27l-4 -29l-4 -26l-1 -26l-4 -25l-4 -24l-7 -10l-27 -3l-30 -1h-30l-11 8v14l4 35l4 24l2 37l5 12l4 30l-1 13l7 27l-3 9zM510 486 l-20 -24l-4 -12l-9 -12l-15 -23l-14 -23l-10 -10l-9 -15l-17 -27l-11 -8l-3 -12l-10 -7v-10l-13 -17l-15 -23l-16 -26l-22 -18l4 -7l-8 -14l-10 -12l-18 -26l-16 -28l-13 -15l-15 -20l-19 -33l-21 -29l-17 -26l-12 -6l-14 -3h-31l-29 2l-1 15l12 23l11 12l5 10l15 21l22 32 l18 30l18 26l16 23l11 3l-1 14l22 31l24 36l11 17l14 20l5 4l8 16l19 28l10 10l7 17l7 7l13 20l12 19l9 6l3 9l16 27l17 25l11 10l-1 6l19 29l18 26l13 19l14 19l13 22l10 4l6 16l12 21l14 23l8 8l6 10l10 6l14 2l13 -1l35 1l17 -8l-12 -29l-48 -69l-19 -27l-8 -16l-7 -9 l-18 -25l-17 -27zM458 291l2 6l9 29l-1 11l6 16l7 16l13 6l-6 3l16 19l25 19l34 15l31 5h32l16 -7l16 2l30 -15l16 -15l15 -22l5 -21l2 -40l-4 -27l-8 -29l-18 -27l-3 -10l-8 -9l-6 -12l-11 -9l-7 -12l-18 -16l-8 -11l-10 -7l-7 -10l-9 -7l-13 -16l-20 -25l6 -5l29 -1h24 l20 2l8 -2l10 1l18 -6l4 -10l-3 -29l-6 -35l-8 -13l-14 -4h-33l-33 -1h-32l-34 1l-23 1l-33 -2h-30l-17 3l-6 12l2 15l6 33l4 8l1 8l20 33l14 19l18 18l7 11l40 40l30 31l28 34l18 28l8 31l-4 15l-13 11l-16 1l-9 -6l-10 -11l-8 -24l-1 -14l-6 -15l-20 -4l-14 3l-13 -2 l-14 1l-14 -2l-13 4l-5 10z"/>
<glyph glyph-name="threequarters" horiz-adv-x="694" unicode="" d="M512 474h3l-3 2v-2zM554 304l-1 -3l10 6zM596 251l9 7v3zM250 470h-8l2 -4zM198 316l-4 2l-1 -8zM294 187l1 8h-5zM614 378l-9 1l1 -5zM222 702l7 -6l2 5zM604 287l-2 -8l15 2h-11zM561 384l-9 6l-1 -5zM569 378l1 7l-9 -10zM267 511l1 8l-8 -8h7zM214 519v-8l8 10z M246 358l5 -5l-3 -12l7 10zM261 520l3 8l-4 11zM626 366l-2 7l-8 -6zM269 394l9 3l8 -3l-9 7zM244 686l2 -8l7 8h-9zM498 252l-7 2l-8 -9zM567 357l1 10h-8zM505 269l-5 -10l15 13zM290 446v17l-6 -6zM284 488l10 9l-9 3zM486 466l7 8l-14 1zM302 569l-1 10l-5 -3v-11z M597 358l-7 5l-3 5l10 2v-12zM562 328l12 8l3 5l-7 1zM612 306l10 -4l3 10l-10 -2zM340 205l11 10l-8 6zM427 393l16 28l-7 -4l-5 -7zM234 332l8 -1l7 5l-5 9zM244 518v-14l9 8l1 10zM303 421l2 7l-9 -1l-10 -7l1 -8l6 -6l-1 -8l2 9l-6 11l11 2l12 -1zM277 359l2 8l8 7l-8 5 l-8 -12l-3 -19zM472 445l-5 9l-8 -5h8l1 -10l-11 3l3 -10l-6 -4l6 -5l16 7l-5 7zM598 383l-9 -2l5 -6l-14 1l5 -10l3 -21l12 8l1 15zM519 174h12l15 13l4 11l-1 12l5 30l-5 12l-8 -10l-5 -12l-18 -23l-10 -19l-1 -11zM458 360l-13 -20l-10 -14l-18 -26l-16 -25l-15 -23 l-17 -24l-19 -30l-17 -23l-16 -24l-14 -22l-10 -5l8 2l-44 -66l-11 -10l-4 -11l-24 -32l-16 1l-4 -5l-12 -3l-8 5l-13 -4h-17l-14 8l4 16l21 29l7 13l8 9l15 26l19 25l11 19l19 22l11 25l17 23l15 23l14 20l18 28l17 26l18 23l13 21l15 22l14 22l16 23l7 5l4 11l15 24l12 2 l-6 4l5 11l10 13l21 30l11 11l10 22l16 25l18 24l11 20l11 14l19 29l20 31l18 20l11 5l35 -1l27 2l11 -5l-2 -14l-30 -46l-19 -26l-17 -31l-8 -9l-19 -25l-6 -13l-18 -25l-17 -25l-44 -66l-19 -22l-12 -22zM691 150l-4 -28l-2 -16l-4 -12l-11 -8l-27 -4l-9 -12l-2 -18 l-2 -17l-7 -35l-13 -9l-18 -1l-36 1l-24 1l-6 14v16l3 24l3 28l-7 10l-14 2l-14 -1l-37 1l-8 -3l-9 2h-29l-15 3l-5 15l1 11l5 13l1 32l11 25l17 26l16 28l12 2l-11 1l7 12l10 9l4 11l9 5v12l20 30l9 17l12 23l19 30l11 1l-6 8l10 12l15 9l16 -4l10 5h38l30 -2l12 -6l3 -11 l-1 -14l-6 -32v-18l-4 -16l-1 -19l-4 -26l-4 -27l-2 -27l-4 -34l3 -12l30 -4l9 -10v-13zM204 279l-20 -1l-20 1l-37 8l-14 7l-25 19l-16 25l-7 28l1 13l2 31l6 24l11 8l12 -1h25l27 2l12 -3l7 -18l-2 -10l2 -22l5 -11l11 -9l14 -3l15 5l14 16l2 11l11 25h-6l3 6l-3 26l-6 7 l-10 6l-21 3l-20 7l1 35l7 29l16 9l25 5l12 6l10 11l6 11l1 18l-3 23l-6 24l-14 -7l-14 -1l-14 -12l-8 -13l-5 -15l-2 -17l-3 -5l-23 -9l-18 1l-36 1l-13 5l-3 14l4 34l8 28l15 26l9 9l17 19l11 6l27 17l14 5l38 7l15 -2l34 -4l10 -9l8 2l14 -8l24 -23l7 -15l8 -26l-1 -17 l-4 -32l-4 -8l6 -5l-4 -12l-1 -12l-5 -16l-19 -26l-9 -17l17 -24v-26l5 -12l-6 -14l3 -15l-5 -23l-3 -21l-9 -25l-15 -23l-23 -24l-14 -7l-30 -13zM543 314l-18 4l4 -5l2 -12l16 3l-2 11z"/>
<glyph glyph-name="questiondown" horiz-adv-x="343" unicode="" d="M253 81l11 -3l-4 6zM241 420l-2 9l-4 -10zM276 102l5 -5l4 8zM285 156l4 9l-10 -2zM223 450l-10 -4l1 -8zM183 342l-8 -3l11 -20l2 11l5 -11l13 7l-19 5l7 9l-4 12zM213 613l4 36l2 15l3 38l4 3l1 11l15 5l15 2l36 -1h34l10 -6l2 -8l-1 -14l-4 -35l-4 -39l-5 -18l-14 -10 l-10 5l-3 -7l-27 1h-26l-26 1zM348 180l-2 -30l-1 -12l-6 -22l-6 -12l-5 -18l-18 -29l-17 -24l-10 -6l-8 -8l-19 -12l-34 -14l-21 -5l-24 -2l-9 1l-36 2l-24 8l-28 16l-15 13l-8 11l-15 20l-3 14l-5 26l-3 26l2 27l8 31l11 28l3 13l6 8l13 24l19 28l16 24l16 20l18 24l14 20 l14 22l12 26l10 27l8 28l4 29l6 12l14 6l14 1l24 -2l28 1l11 -3l3 -20l-5 -34l-4 -13l-4 -26l-7 -11l-1 -13l-6 -10l-4 -19l-9 -15l-12 -25l-14 -25l-16 -24l-17 -22l-12 -24l-14 -26l-11 -22l-10 -31l-2 -17l1 -17l6 -13l10 -10l14 -3l15 4l11 8l9 11l6 12l9 28l3 30l4 18 l11 11l46 2h31l15 -5l2 -15z"/>
<glyph glyph-name="Agrave" d="M260 914h3l-3 3v-3zM221 917l1 -10l9 1zM290 873l10 -7l-2 3l-8 17v-13zM348 876l22 -66l2 -15l-4 -14l-17 -5h-48l-16 10l-10 21l-7 6l-9 21l-12 13l-2 8l-6 5l-9 19l-10 15l-12 24l4 10l12 3l25 -3l7 4h55l17 -4l7 -12l4 -14l6 -11zM322 215l-1 -2l2 2h-1zM221 538h3 l-3 2v-2zM149 337h3l-3 2v-2zM217 434h3l-3 2v-2zM341 143h3l-2 4zM193 398h-9l3 -4zM338 229l-7 -5l6 -1zM330 230l-8 3l4 -7zM310 406l6 3l3 10zM154 291v-4l14 -2zM185 342l-9 -1l8 -6zM349 392l-6 5l-3 -9zM172 288l10 -1l1 7zM226 508l-2 -6l11 -3zM331 122l8 -15 l-1 12zM338 517l4 15l-8 -9zM206 555l7 -6l3 10zM279 592l-13 -1l-3 -7zM352 256l-10 -2l9 -7zM340 449l9 -3l-3 7l5 9zM162 320l-4 -13l3 7l15 10zM335 608l9 -1l1 10zM257 636l-6 11l-6 -5zM108 209l-5 -12l9 2zM189 368l-10 -6l14 4l3 6l-1 3zM332 455l-9 -1l2 -6l8 1z M323 424v-7l5 7l4 14zM348 295l4 10l-13 -6zM197 372l-3 -14l9 5zM347 423l5 12l-11 -4zM335 349l3 -11l-1 -10l7 7zM233 615l15 6l-8 5zM344 418l-10 -4l7 -7h3v11zM218 475l-3 12l-10 -12h13zM317 156l5 -4l6 -1l4 12zM330 401l-9 -13l17 5zM167 306h5l14 8l-9 4zM264 194 l6 4l-2 7l-12 2zM93 217l4 14l1 3v10l-9 -31l-10 2l5 -8zM351 472l-6 14l-7 -1l3 -12zM192 458l5 -5l8 -2l6 15zM338 548h-12l-6 3v-14l8 2l6 -2zM326 296v-25l12 1l7 -8l-2 10h-11l7 6v18h-19zM310 478l2 -9l8 2l6 -7l5 7l-6 7l-12 3l9 8l7 -6l9 3l9 7l-15 7l-11 -4l-7 14 l5 -14l-12 -1l6 -5zM228 260l17 1h15l13 7l3 13l1 27l-2 12l-2 29v26l-2 11v31l2 16l-3 10v9l-5 17l-5 -11l-6 -22l-6 -10l1 -10l-4 -13l-8 -32l-8 -27l-9 -31l-7 -30l1 -20zM410 37l2 -9v-12l-2 -11l-7 -5l-19 -2l-28 1l-13 8l-8 -8h-41l-11 7l-3 12v23l1 22l-3 10l2 11v24 l-1 23l-6 16l-20 -2l-36 2l-31 -2l-13 -6l-7 -27l-8 -24l-7 -27l-5 -24l-8 -25l-8 -9l-15 -4h-62l-27 -1l-10 6l-2 11l1 10l5 10l3 16l9 30l11 33l6 26l10 28l7 29l8 24l10 31l10 34l7 28l5 10l1 9l6 23l12 10l-8 1l6 19l8 19v13l9 28l9 29l10 27l5 22l3 12l7 20l11 33l7 27 l9 34l8 28l7 14l-1 6l4 10l11 7l5 8l18 -1l29 1l25 -4l7 7l18 -3l17 1l17 -2l9 -11l3 -31v-29l2 -31l1 -25l1 -32l5 -23l-2 -12v-24l2 -11l-6 -10l5 -8l-2 -6l5 -7v-16l-4 -4l6 -7l-1 -16l4 -36l-11 -7l12 -5l-1 -10l3 -31l1 -26l2 -35l-1 -15l3 -23l-1 -12l4 -23l-2 -11 l1 -15l2 -38l2 -37l1 -28z" unicode=""/>
<glyph glyph-name="Aacute" d="M322 215l-1 -2l2 2h-1zM221 538h3l-3 2v-2zM149 337h3l-3 2v-2zM217 434h3l-3 2v-2zM341 143h3l-2 4zM193 398h-9l3 -4zM338 229l-7 -5l6 -1zM330 230l-8 3l4 -7zM310 406l6 3l3 10zM154 291v-4l14 -2zM185 342l-9 -1l8 -6zM349 392l-6 5l-3 -9zM172 288l10 -1l1 7z M226 508l-2 -6l11 -3zM331 122l8 -15l-1 12zM338 517l4 15l-8 -9zM206 555l7 -6l3 10zM279 592l-13 -1l-3 -7zM352 256l-10 -2l9 -7zM340 449l9 -3l-3 7l5 9zM162 320l-4 -13l3 7l15 10zM335 608l9 -1l1 10zM257 636l-6 11l-6 -5zM108 209l-5 -12l9 2zM189 368l-10 -6l14 4 l3 6l-1 3zM332 455l-9 -1l2 -6l8 1zM323 424v-7l5 7l4 14zM348 295l4 10l-13 -6zM197 372l-3 -14l9 5zM347 423l5 12l-11 -4zM335 349l3 -11l-1 -10l7 7zM233 615l15 6l-8 5zM344 418l-10 -4l7 -7h3v11zM218 475l-3 12l-10 -12h13zM317 156l5 -4l6 -1l4 12zM330 401l-9 -13 l17 5zM167 306h5l14 8l-9 4zM264 194l6 4l-2 7l-12 2zM93 217l4 14l1 3v10l-9 -31l-10 2l5 -8zM351 472l-6 14l-7 -1l3 -12zM192 458l5 -5l8 -2l6 15zM338 548h-12l-6 3v-14l8 2l6 -2zM326 296v-25l12 1l7 -8l-2 10h-11l7 6v18h-19zM310 478l2 -9l8 2l6 -7l5 7l-6 7l-12 3 l9 8l7 -6l9 3l9 7l-15 7l-11 -4l-7 14l5 -14l-12 -1l6 -5zM228 260l17 1h15l13 7l3 13l1 27l-2 12l-2 29v26l-2 11v31l2 16l-3 10v9l-5 17l-5 -11l-6 -22l-6 -10l1 -10l-4 -13l-8 -32l-8 -27l-9 -31l-7 -30l1 -20zM410 37l2 -9v-12l-2 -11l-7 -5l-19 -2l-28 1l-13 8l-8 -8 h-41l-11 7l-3 12v23l1 22l-3 10l2 11v24l-1 23l-6 16l-20 -2l-36 2l-31 -2l-13 -6l-7 -27l-8 -24l-7 -27l-5 -24l-8 -25l-8 -9l-15 -4h-62l-27 -1l-10 6l-2 11l1 10l5 10l3 16l9 30l11 33l6 26l10 28l7 29l8 24l10 31l10 34l7 28l5 10l1 9l6 23l12 10l-8 1l6 19l8 19v13 l9 28l9 29l10 27l5 22l3 12l7 20l11 33l7 27l9 34l8 28l7 14l-1 6l4 10l11 7l5 8l18 -1l29 1l25 -4l7 7l18 -3l17 1l17 -2l9 -11l3 -31v-29l2 -31l1 -25l1 -32l5 -23l-2 -12v-24l2 -11l-6 -10l5 -8l-2 -6l5 -7v-16l-4 -4l6 -7l-1 -16l4 -36l-11 -7l12 -5l-1 -10l3 -31l1 -26 l2 -35l-1 -15l3 -23l-1 -12l4 -23l-2 -11l1 -15l2 -38l2 -37l1 -28zM415 931l21 -4l-4 -17l-21 -25l-20 -23l-20 -25l-19 -23l-9 -7l-6 -13l-15 -12l-14 -7l-22 1h-25l-16 5l-2 11l12 22l11 22l13 24l15 26l12 26l8 10l9 7l14 3l28 -2l27 1h23z" unicode=""/>
<glyph glyph-name="Acircumflex" d="M310 876l-7 -5l5 -3zM385 848l-9 4l-1 -6zM425 865l8 -11l13 -2l5 -13v-16l-4 -27l-5 -13l-12 -4l-18 3l-35 14l-29 18l-12 12l-13 6l-25 3l-1 -4l-15 -10l-6 3l-1 -5l-12 -10l-25 -14h-9l-20 -10l-23 -6l-15 7l-2 18l8 37l10 11l13 7l27 17l23 21l24 21l-1 -10l12 23 l13 14l11 6l34 -2l15 -7v-9h4l8 -10l16 -23l10 -10l15 -18zM322 215l-1 -2l2 2h-1zM221 538h3l-3 2v-2zM149 337h3l-3 2v-2zM217 434h3l-3 2v-2zM341 143h3l-2 4zM193 398h-9l3 -4zM338 229l-7 -5l6 -1zM330 230l-8 3l4 -7zM310 406l6 3l3 10zM154 291v-4l14 -2zM185 342 l-9 -1l8 -6zM349 392l-6 5l-3 -9zM172 288l10 -1l1 7zM226 508l-2 -6l11 -3zM331 122l8 -15l-1 12zM338 517l4 15l-8 -9zM206 555l7 -6l3 10zM279 592l-13 -1l-3 -7zM352 256l-10 -2l9 -7zM340 449l9 -3l-3 7l5 9zM162 320l-4 -13l3 7l15 10zM335 608l9 -1l1 10zM257 636 l-6 11l-6 -5zM108 209l-5 -12l9 2zM189 368l-10 -6l14 4l3 6l-1 3zM332 455l-9 -1l2 -6l8 1zM323 424v-7l5 7l4 14zM348 295l4 10l-13 -6zM197 372l-3 -14l9 5zM347 423l5 12l-11 -4zM335 349l3 -11l-1 -10l7 7zM233 615l15 6l-8 5zM344 418l-10 -4l7 -7h3v11zM218 475 l-3 12l-10 -12h13zM317 156l5 -4l6 -1l4 12zM330 401l-9 -13l17 5zM167 306h5l14 8l-9 4zM264 194l6 4l-2 7l-12 2zM93 217l4 14l1 3v10l-9 -31l-10 2l5 -8zM351 472l-6 14l-7 -1l3 -12zM192 458l5 -5l8 -2l6 15zM338 548h-12l-6 3v-14l8 2l6 -2zM326 296v-25l12 1l7 -8 l-2 10h-11l7 6v18h-19zM310 478l2 -9l8 2l6 -7l5 7l-6 7l-12 3l9 8l7 -6l9 3l9 7l-15 7l-11 -4l-7 14l5 -14l-12 -1l6 -5zM228 260l17 1h15l13 7l3 13l1 27l-2 12l-2 29v26l-2 11v31l2 16l-3 10v9l-5 17l-5 -11l-6 -22l-6 -10l1 -10l-4 -13l-8 -32l-8 -27l-9 -31l-7 -30 l1 -20zM410 37l2 -9v-12l-2 -11l-7 -5l-19 -2l-28 1l-13 8l-8 -8h-41l-11 7l-3 12v23l1 22l-3 10l2 11v24l-1 23l-6 16l-20 -2l-36 2l-31 -2l-13 -6l-7 -27l-8 -24l-7 -27l-5 -24l-8 -25l-8 -9l-15 -4h-62l-27 -1l-10 6l-2 11l1 10l5 10l3 16l9 30l11 33l6 26l10 28l7 29 l8 24l10 31l10 34l7 28l5 10l1 9l6 23l12 10l-8 1l6 19l8 19v13l9 28l9 29l10 27l5 22l3 12l7 20l11 33l7 27l9 34l8 28l7 14l-1 6l4 10l11 7l5 8l18 -1l29 1l25 -4l7 7l18 -3l17 1l17 -2l9 -11l3 -31v-29l2 -31l1 -25l1 -32l5 -23l-2 -12v-24l2 -11l-6 -10l5 -8l-2 -6l5 -7 v-16l-4 -4l6 -7l-1 -16l4 -36l-11 -7l12 -5l-1 -10l3 -31l1 -26l2 -35l-1 -15l3 -23l-1 -12l4 -23l-2 -11l1 -15l2 -38l2 -37l1 -28z" unicode=""/>
<glyph glyph-name="Atilde" d="M283 856l6 -12l6 6l-10 7zM367 828l12 -9l2 10zM441 910l17 -3l6 -12l-1 -16l-8 -29l-12 -27l-35 -29l-17 -8l-21 -5l-12 1l-24 1l-9 4l-32 13l-24 13l-14 3l-12 -4l-9 -9l-3 -12l-7 -11l-15 -5l-13 -1l-18 2l-11 11l-1 17l10 32l12 22l18 20l32 19l36 6l29 -5l23 -9 l24 -13l27 -7l15 4l8 13l5 15l12 7zM322 215l-1 -2l2 2h-1zM221 538h3l-3 2v-2zM149 337h3l-3 2v-2zM217 434h3l-3 2v-2zM341 143h3l-2 4zM193 398h-9l3 -4zM338 229l-7 -5l6 -1zM330 230l-8 3l4 -7zM310 406l6 3l3 10zM154 291v-4l14 -2zM185 342l-9 -1l8 -6zM349 392l-6 5 l-3 -9zM172 288l10 -1l1 7zM226 508l-2 -6l11 -3zM331 122l8 -15l-1 12zM338 517l4 15l-8 -9zM206 555l7 -6l3 10zM279 592l-13 -1l-3 -7zM352 256l-10 -2l9 -7zM340 449l9 -3l-3 7l5 9zM162 320l-4 -13l3 7l15 10zM335 608l9 -1l1 10zM257 636l-6 11l-6 -5zM108 209l-5 -12 l9 2zM189 368l-10 -6l14 4l3 6l-1 3zM332 455l-9 -1l2 -6l8 1zM323 424v-7l5 7l4 14zM348 295l4 10l-13 -6zM197 372l-3 -14l9 5zM347 423l5 12l-11 -4zM335 349l3 -11l-1 -10l7 7zM233 615l15 6l-8 5zM344 418l-10 -4l7 -7h3v11zM218 475l-3 12l-10 -12h13zM317 156l5 -4 l6 -1l4 12zM330 401l-9 -13l17 5zM167 306h5l14 8l-9 4zM264 194l6 4l-2 7l-12 2zM93 217l4 14l1 3v10l-9 -31l-10 2l5 -8zM351 472l-6 14l-7 -1l3 -12zM192 458l5 -5l8 -2l6 15zM338 548h-12l-6 3v-14l8 2l6 -2zM326 296v-25l12 1l7 -8l-2 10h-11l7 6v18h-19zM310 478l2 -9 l8 2l6 -7l5 7l-6 7l-12 3l9 8l7 -6l9 3l9 7l-15 7l-11 -4l-7 14l5 -14l-12 -1l6 -5zM228 260l17 1h15l13 7l3 13l1 27l-2 12l-2 29v26l-2 11v31l2 16l-3 10v9l-5 17l-5 -11l-6 -22l-6 -10l1 -10l-4 -13l-8 -32l-8 -27l-9 -31l-7 -30l1 -20zM410 37l2 -9v-12l-2 -11l-7 -5 l-19 -2l-28 1l-13 8l-8 -8h-41l-11 7l-3 12v23l1 22l-3 10l2 11v24l-1 23l-6 16l-20 -2l-36 2l-31 -2l-13 -6l-7 -27l-8 -24l-7 -27l-5 -24l-8 -25l-8 -9l-15 -4h-62l-27 -1l-10 6l-2 11l1 10l5 10l3 16l9 30l11 33l6 26l10 28l7 29l8 24l10 31l10 34l7 28l5 10l1 9l6 23 l12 10l-8 1l6 19l8 19v13l9 28l9 29l10 27l5 22l3 12l7 20l11 33l7 27l9 34l8 28l7 14l-1 6l4 10l11 7l5 8l18 -1l29 1l25 -4l7 7l18 -3l17 1l17 -2l9 -11l3 -31v-29l2 -31l1 -25l1 -32l5 -23l-2 -12v-24l2 -11l-6 -10l5 -8l-2 -6l5 -7v-16l-4 -4l6 -7l-1 -16l4 -36l-11 -7 l12 -5l-1 -10l3 -31l1 -26l2 -35l-1 -15l3 -23l-1 -12l4 -23l-2 -11l1 -15l2 -38l2 -37l1 -28z" unicode=""/>
<glyph glyph-name="Adieresis" d="M380 855l-9 -7l6 -1zM392 840l10 -2l-4 6l-8 5zM301 883v-12l-2 -14l-2 -34l-8 -35l-9 -10l-15 -3h-16l-15 3l-22 -3l-13 2l-10 6l-2 13l2 14l4 35l5 37l8 10l23 2l10 -3l27 4l29 -2zM439 870l-3 -28l-1 -15l-5 -34l-7 -13l-13 -3h-13l-29 -2l-33 2l-8 5l-3 22l4 25l4 9 l-2 11l5 25l7 15l13 4l16 1l60 -2l8 -8v-14zM322 215l-1 -2l2 2h-1zM221 538h3l-3 2v-2zM149 337h3l-3 2v-2zM217 434h3l-3 2v-2zM341 143h3l-2 4zM193 398h-9l3 -4zM338 229l-7 -5l6 -1zM330 230l-8 3l4 -7zM310 406l6 3l3 10zM154 291v-4l14 -2zM185 342l-9 -1l8 -6z M349 392l-6 5l-3 -9zM172 288l10 -1l1 7zM226 508l-2 -6l11 -3zM331 122l8 -15l-1 12zM338 517l4 15l-8 -9zM206 555l7 -6l3 10zM279 592l-13 -1l-3 -7zM352 256l-10 -2l9 -7zM340 449l9 -3l-3 7l5 9zM162 320l-4 -13l3 7l15 10zM335 608l9 -1l1 10zM257 636l-6 11l-6 -5z M108 209l-5 -12l9 2zM189 368l-10 -6l14 4l3 6l-1 3zM332 455l-9 -1l2 -6l8 1zM323 424v-7l5 7l4 14zM348 295l4 10l-13 -6zM197 372l-3 -14l9 5zM347 423l5 12l-11 -4zM335 349l3 -11l-1 -10l7 7zM233 615l15 6l-8 5zM344 418l-10 -4l7 -7h3v11zM218 475l-3 12l-10 -12h13z M317 156l5 -4l6 -1l4 12zM330 401l-9 -13l17 5zM167 306h5l14 8l-9 4zM264 194l6 4l-2 7l-12 2zM93 217l4 14l1 3v10l-9 -31l-10 2l5 -8zM351 472l-6 14l-7 -1l3 -12zM192 458l5 -5l8 -2l6 15zM338 548h-12l-6 3v-14l8 2l6 -2zM326 296v-25l12 1l7 -8l-2 10h-11l7 6v18h-19z M310 478l2 -9l8 2l6 -7l5 7l-6 7l-12 3l9 8l7 -6l9 3l9 7l-15 7l-11 -4l-7 14l5 -14l-12 -1l6 -5zM228 260l17 1h15l13 7l3 13l1 27l-2 12l-2 29v26l-2 11v31l2 16l-3 10v9l-5 17l-5 -11l-6 -22l-6 -10l1 -10l-4 -13l-8 -32l-8 -27l-9 -31l-7 -30l1 -20zM410 37l2 -9v-12 l-2 -11l-7 -5l-19 -2l-28 1l-13 8l-8 -8h-41l-11 7l-3 12v23l1 22l-3 10l2 11v24l-1 23l-6 16l-20 -2l-36 2l-31 -2l-13 -6l-7 -27l-8 -24l-7 -27l-5 -24l-8 -25l-8 -9l-15 -4h-62l-27 -1l-10 6l-2 11l1 10l5 10l3 16l9 30l11 33l6 26l10 28l7 29l8 24l10 31l10 34l7 28 l5 10l1 9l6 23l12 10l-8 1l6 19l8 19v13l9 28l9 29l10 27l5 22l3 12l7 20l11 33l7 27l9 34l8 28l7 14l-1 6l4 10l11 7l5 8l18 -1l29 1l25 -4l7 7l18 -3l17 1l17 -2l9 -11l3 -31v-29l2 -31l1 -25l1 -32l5 -23l-2 -12v-24l2 -11l-6 -10l5 -8l-2 -6l5 -7v-16l-4 -4l6 -7l-1 -16 l4 -36l-11 -7l12 -5l-1 -10l3 -31l1 -26l2 -35l-1 -15l3 -23l-1 -12l4 -23l-2 -11l1 -15l2 -38l2 -37l1 -28zM250 838l-4 1l1 -7zM250 838l8 -8l5 10l-8 -3z" unicode=""/>
<glyph glyph-name="Aring" d="M322 215l-1 -2l2 2h-1zM221 538h3l-3 2v-2zM149 337h3l-3 2v-2zM217 434h3l-3 2v-2zM341 143h3l-2 4zM193 398h-9l3 -4zM338 229l-7 -5l6 -1zM330 230l-8 3l4 -7zM310 406l6 3l3 10zM154 291v-4l14 -2zM185 342l-9 -1l8 -6zM349 392l-6 5l-3 -9zM172 288l10 -1l1 7z M226 508l-2 -6l11 -3zM331 122l8 -15l-1 12zM338 517l4 15l-8 -9zM206 555l7 -6l3 10zM279 592l-13 -1l-3 -7zM352 256l-10 -2l9 -7zM340 449l9 -3l-3 7l5 9zM162 320l-4 -13l3 7l15 10zM335 608l9 -1l1 10zM257 636l-6 11l-6 -5zM108 209l-5 -12l9 2zM189 368l-10 -6l14 4 l3 6l-1 3zM332 455l-9 -1l2 -6l8 1zM323 424v-7l5 7l4 14zM348 295l4 10l-13 -6zM197 372l-3 -14l9 5zM347 423l5 12l-11 -4zM335 349l3 -11l-1 -10l7 7zM233 615l15 6l-8 5zM344 418l-10 -4l7 -7h3v11zM218 475l-3 12l-10 -12h13zM317 156l5 -4l6 -1l4 12zM330 401l-9 -13 l17 5zM167 306h5l14 8l-9 4zM264 194l6 4l-2 7l-12 2zM93 217l4 14l1 3v10l-9 -31l-10 2l5 -8zM351 472l-6 14l-7 -1l3 -12zM192 458l5 -5l8 -2l6 15zM338 548h-12l-6 3v-14l8 2l6 -2zM326 296v-25l12 1l7 -8l-2 10h-11l7 6v18h-19zM310 478l2 -9l8 2l6 -7l5 7l-6 7l-12 3 l9 8l7 -6l9 3l9 7l-15 7l-11 -4l-7 14l5 -14l-12 -1l6 -5zM228 260l17 1h15l13 7l3 13l1 27l-2 12l-2 29v26l-2 11v31l2 16l-3 10v9l-5 17l-5 -11l-6 -22l-6 -10l1 -10l-4 -13l-8 -32l-8 -27l-9 -31l-7 -30l1 -20zM410 37l2 -9v-12l-2 -11l-7 -5l-19 -2l-28 1l-13 8l-8 -8 h-41l-11 7l-3 12v23l1 22l-3 10l2 11v24l-1 23l-6 16l-20 -2l-36 2l-31 -2l-13 -6l-7 -27l-8 -24l-7 -27l-5 -24l-8 -25l-8 -9l-15 -4h-62l-27 -1l-10 6l-2 11l1 10l5 10l3 16l9 30l11 33l6 26l10 28l7 29l8 24l10 31l10 34l7 28l5 10l1 9l6 23l12 10l-8 1l6 19l8 19v13 l9 28l9 29l10 27l5 22l3 12l7 20l11 33l7 27l9 34l8 28l7 14l-1 6l4 10l11 7l5 8l18 -1l29 1l25 -4l7 7l18 -3l17 1l17 -2l9 -11l3 -31v-29l2 -31l1 -25l1 -32l5 -23l-2 -12v-24l2 -11l-6 -10l5 -8l-2 -6l5 -7v-16l-4 -4l6 -7l-1 -16l4 -36l-11 -7l12 -5l-1 -10l3 -31l1 -26 l2 -35l-1 -15l3 -23l-1 -12l4 -23l-2 -11l1 -15l2 -38l2 -37l1 -28zM339 845l9 11l7 8l-2 20l-6 12l-17 13l-29 -1l-14 -22l-5 -17l1 -13l6 -12l11 -9l16 -3l12 5zM410 906l2 -19l-3 -18l-4 -18l-7 -18l-16 -24l-16 -12l-33 -19l-30 -3l-28 4l-25 15l-12 12l-7 14l-7 22 l-2 20l2 16l10 29l15 24l27 23l29 11l29 4l13 -2l29 -12l26 -29z" unicode=""/>
<glyph glyph-name="AE" horiz-adv-x="632" unicode="" d="M380 200h3l-3 2v-2zM392 454h3l-3 2v-2zM321 295h3l-3 2v-2zM473 346v-5l3 3zM297 564l-4 -4l-5 -3l8 3zM365 87v-3l8 -3zM236 412l-9 6l15 -14zM413 546l7 8l-10 -6zM381 374l1 -8h6zM412 66l-12 -10l17 10h-5zM408 598l7 9l-9 -4zM400 64h-11l4 -5zM377 279l3 4l-10 5z M267 486l4 -8l6 2zM375 264l-3 9l-4 -7zM470 635l-2 -7l9 2zM438 684v-6l10 -2zM406 577l-4 10l-3 -8zM261 209l7 -7l-6 15zM309 224l-8 -2l10 -7zM369 671l-15 2l-6 -5l3 1zM365 380l-3 -11l9 7zM339 646l9 13l-5 2zM387 540l5 13l-8 -4zM380 645l-13 -6l10 -2zM379 691 l-10 -8l10 -1v9zM385 592l-1 26l-3 -12zM451 524l9 4l-5 8zM425 626l-8 -2l-3 -13zM454 47l-5 -10h10zM385 192l11 14l-5 3zM292 537l5 -8v-9l6 11zM413 376h-19l13 -6zM386 158l-8 -10l13 1zM463 350l-11 -4l8 -5l5 7l-2 15v-13zM384 256l-16 3l1 -9zM282 547l-9 7l-7 -7 l10 1l-3 -7zM285 512l-1 8l-10 -5l5 -7zM373 475l-12 -5l14 -2l3 4l8 3h-13zM401 624l18 4l-1 9zM355 518l-2 -15l12 6zM164 235l6 5l12 -1l-6 4l-4 6l-7 -6zM395 396l-9 5l14 -10l3 12l-5 3h-5zM354 250l-11 -1l7 -3l-5 -6l14 -3zM338 608l-7 5l-2 -12l8 -8zM402 303l4 -9 l8 9l-2 11zM370 217l9 -9l3 6l4 4l-4 6zM352 169l17 -11l6 8l-9 3h-14zM389 278l4 8l9 -7l1 9l-18 4zM422 494l12 1l-2 11l-16 -2l9 -7zM391 458h-14l-12 -3l10 -2l8 -7zM376 514l4 -9l-5 -8l11 -1l3 14zM439 558l4 16l-5 3l-2 -6l-4 6l-4 -11zM243 449l5 -10h3l6 14l-11 7z M366 415l-4 -14l12 4l11 1l-4 7zM414 475l13 -4l7 -5l4 4l-9 17l-3 -7zM377 340l12 5l16 -3l-1 9l-11 -2l-6 8zM408 281l-12 -30l17 8l1 4zM489 362l-9 1l-3 -7l11 -4l7 2l-4 7l8 19l-5 7l1 -10l-8 -8zM262 490l16 4l3 -7l12 3l-2 10l-9 -3l-10 10l-2 -10zM264 462l5 2l6 2 l-17 12l2 11l-8 -10v-9l-8 -6l13 2zM418 663l-7 -6l-5 1l-2 -18l12 6l-5 7l8 6l2 -7l5 16l5 6l-10 5zM461 659l-7 24l-7 -10l2 -8l6 -5l1 -18l3 -9l10 2l-6 3l1 15zM437 345l1 4l-10 4l6 8l-7 9l-8 -9l-2 7l-4 -9l-7 5l2 -8l9 2l-2 -12l17 -1l-8 -6zM390 443l-9 -7l-14 -6 l9 -6l22 1l3 -10l5 -4l9 5l-8 -9l8 -9l12 6l-4 12l-7 4l-3 7l-12 -5l1 8h-6l-7 -4zM369 650h-12l-22 -21l4 2l8 9l11 -11l-10 -8l-5 6l7 -15l16 9l-8 8l7 3l-9 14h14l24 9l-6 2l3 8l-9 9l-3 -2l-4 -9l7 4zM405 521l-2 -14l-8 -11l11 4l9 11l19 2l-10 4l2 14l-4 -10l-14 -10 l2 17l14 14l-5 5l-18 -19l-9 -4l-3 10l9 4h-11l-9 -12l10 -4l5 -11l1 10h11zM257 302l-8 -16v-15l13 -4l32 -2l12 4l9 10l4 19l-1 19l4 16l2 29l4 28l5 26l4 29v16l4 35l-3 6l-13 -25l-10 -24l-7 -24l-12 -24l-9 -25l-12 -28zM622 89l-7 -33l-2 -36l-6 -15h-12l-6 -5l-15 -2 l-9 2l-26 -2l-12 3l-14 -3l-14 1h-55l-26 1l-11 -2l-13 2l-15 -1l-25 -2l-13 3l-29 -2l-17 1l-11 8l-1 16l4 32l3 25l5 23v12l3 26l-9 9l-13 1h-49l-28 -2l-13 -15l-4 -13l-10 -27l-11 -24l-10 -22l-1 -9l-13 -27l-9 -10l-12 -4l-14 1h-27l-34 -1l-24 2l-9 6v13l13 31l11 30 l6 8l9 23l9 26l10 22l18 45l12 28l12 29l12 28l13 30l14 32l7 23l7 13l11 26l14 33l12 32l13 28l10 26l12 27l12 28l14 35l10 24l8 21l10 24l15 26l15 6l38 1l22 -2l10 2h24l25 -4l8 3h72l27 -1h26l27 3l15 -1h56l17 -5l5 -14l-1 -15l-5 -23v-24l-3 -20l-9 -14l-15 -4l-15 1 l-31 -1h-30l-16 -2l-34 1h-29l-12 -5l-4 -15l-1 -16l-4 -14v-13l-4 -32l-5 -44l-2 -28l19 -7l10 2l40 -1l23 2l27 -3l16 -10l-1 -13l-4 -27l-2 -25l-3 -26l-13 -11h-18l-1 10l-7 -12l-18 7l-7 -7h-30l-26 1l-13 -3l-7 3l-1 -12l-3 -26l-5 -28l-4 -28l-2 -28l-5 -28v-12 l-8 -33l16 -4l27 1l31 -2l36 2h37l39 -1l10 -12v-17z"/>
<glyph glyph-name="Ccedilla" horiz-adv-x="416" unicode="" d="M75 118h2l-2 2v-2zM364 192v-3l2 1zM143 410l11 -4l5 -1zM108 161l6 27l-3 -10zM148 216h-8l10 -4zM394 620l-3 11l-3 -1zM295 632l4 -8h5zM137 557l-5 11l-1 -6zM103 270l5 4l-6 4zM216 58l-3 11l-3 -5zM79 141l10 -1l-9 7zM176 13l12 21l-9 -10zM259 647l12 -3l-9 8z M287 97l-5 8l-4 -8h9zM201 550l-9 -1l-8 -1l10 -3zM123 187l-4 -9l10 4zM385 540l-7 -4l10 -5zM159 48h5l-8 15zM149 165l-9 1l11 -10zM124 445l-3 -13l8 7zM336 471l-5 5l-7 -10zM116 63v-11l8 4zM133 221l3 6l7 3l-18 -4zM88 200l5 8l-11 3zM120 197l-14 4l2 -8zM152 441 l-19 9l7 -9h12zM173 610l7 5l5 9l-12 -8v-6zM145 556l-1 -10l11 -1zM148 472l12 8l-21 -4zM108 312l2 -4l14 8l-5 2zM109 480l-3 -8l-6 -8l15 10zM123 144l1 -8l9 11h-10l-6 5zM208 53l-14 -3v-4l11 -1zM138 460l-9 -1l-20 -7l23 4l10 -3zM182 69l-9 7v-8l12 -11zM97 75l9 4 h4l-4 5l6 7l-18 -5l9 -2zM95 138l-14 -13l22 5v7zM94 397l14 15l-8 7l-7 -11zM58 160l8 -1l5 -4l3 -13l6 5l-8 19zM122 116l-7 -13l8 3l-6 -13l14 2zM192 606l12 -3l9 10h-6l-10 6zM130 121l7 -19l7 3l2 -3l8 17l-9 -8zM160 518l-7 2l-8 -14l9 -11zM90 230l10 -6l6 -10l10 8 l-5 13l-12 -8zM135 289l9 3h10l-5 7l-11 7l-9 -1l4 -5zM176 445l-12 -2l-9 2l7 -4l2 -6l-7 -7l5 -9l3 -6l18 8l-13 11zM134 485l-11 -1l-6 -9v-7l6 6l7 -7l-1 10l10 4l5 10l-12 15l10 7l-7 14l2 -8l-9 -7l-1 -23l5 10l10 -10zM301 -108v-26l-2 -15l-6 -16l-16 -27l-13 -13 l-15 -11l-20 -12l-15 -4l-29 -4l-29 2l-30 8l-13 10l2 20l6 21l10 8l13 1l24 -5h12l14 3l12 6l7 9l3 13l-1 19l-4 11l-15 -1l-22 -1l-13 -4h-13l-11 4l-13 11l-1 17l9 11l19 20l20 25l13 17l-17 3l-33 7l-14 6l-10 9l-19 12l-22 26l-3 20l-4 2l-10 12l1 18l-10 21l2 25l4 27 l-1 12l3 32l4 32l4 17v13l4 27l4 38l4 35l6 11l-4 12l8 14h-3v19l4 22l2 26l4 32l5 27l-1 10l8 19v14l4 11l13 31l20 31l16 16l26 22l10 4l15 11l27 9l28 7l21 1l12 3l26 -1l26 -2l24 -6l25 -13l23 -19l23 -25l9 -15l1 -14l5 -13l6 -30l-1 -32l-4 -33v-20l-6 -29l-1 -21 l-12 -18h-15l-29 -1l-30 -1l-29 1l-14 10v18l2 8l-1 12l3 14l4 32l2 31l-8 28l-9 15l-19 4h-14l2 21l-8 1l2 -22l-24 -12l-16 -17l-7 -16v-13l-3 -11l-3 -22l-3 -25v-21l-3 -8l-4 -32l-3 -30l-2 -26l-4 -25l-4 -27l-2 -25l-3 -12l-1 -22l-3 -13l-4 -34l-5 -25v-14l-2 -27 l2 -25l15 -18l11 -5l30 -4l25 14l15 26l3 12l1 21l3 12l2 22l4 21v10l3 23l10 18l14 3h41l29 1l12 -3l9 1l12 -6l2 -6l-1 -17l-4 -38l-2 -23l-5 -26l-1 -20l-4 -14l-8 -25l-11 -25l-12 -23l-20 -20l-22 -20l-28 -17l-32 -13l-23 -4l-4 -9l-13 -13l-9 -16l6 -8l27 -3l16 -7 l15 -16zM129 386l7 1l-7 14l10 13l-16 -9l4 -7l-9 -13zM129 386l-6 -8l7 -2z"/>
<glyph glyph-name="Egrave" horiz-adv-x="392" unicode="" d="M136 519h3l-3 2v-2zM265 331h3l-2 3zM431 658h3l-2 3zM144 491l-8 -5l4 1zM207 511l-2 4h-5zM162 70l-3 5v-11zM168 482l11 8l-7 -2zM267 370l-5 3l7 -5l6 11zM203 623l-5 8l-4 -5zM143 251l-7 -3l13 -3zM204 616l2 -9l5 8zM167 586l1 6l-10 2zM135 97l5 -8l4 6zM154 408 l-9 -5l4 -13v11zM151 499l6 -6l-2 10l-4 5v-9zM130 325l-4 9l-4 -12zM176 96l8 -3l-7 7l-13 1zM108 351l7 6l-9 5zM145 109l-11 -1l4 -8zM337 51l-2 -13l7 -1zM252 391l-9 5l3 -12zM156 251l8 -1l7 3l-10 3zM197 597l-5 18l-4 -6zM145 534l5 -16l4 10zM188 621l-8 1l-4 6 l4 -15l-5 -7zM179 535h-13l1 -11zM118 243l4 18l-10 -9zM128 401l-11 -9l9 -6zM217 657l-2 -10l-5 3l10 -9l8 8l-8 -1zM113 167l2 -14l10 11zM167 342l7 -1l9 7l-7 4zM138 418l-10 -5l-3 -7l14 4zM190 510l10 -4l-13 15l-5 -12zM135 320l1 -18l6 2l1 10zM197 471l-9 -2 l-3 -6l8 -8zM181 313l4 10l6 6l-15 -7v9l-9 -6l13 -6zM186 585l-10 -8l9 -6l7 4l-4 5zM172 440h-12l-4 -13l7 2l7 6zM185 349l12 -6l7 10l-7 10v-6l-4 -8h-8zM141 505l3 10l-13 -8l5 -12l12 14zM145 551l2 12l-7 -10l5 -14l13 1zM164 342l-13 -8l6 -6l-4 -9h9l-1 11z M235 640l-4 -2l-4 -2l-2 -8l-11 -3l2 -8l9 5v-7l9 -2l-6 7l7 9v11zM194 405l-2 -8l-9 -1l-3 8l-4 1l-8 -7h7l6 -8l10 -6l7 -1l-2 9l9 -1l4 9zM380 70l-4 -29l-3 -21l-3 -12l-9 -8l-31 -2l-13 2h-27l-23 -2l-21 3l-16 -3l-12 1l-27 -1l-31 2l-29 -1l-21 1h-49l-11 5l-3 18 l3 27l3 35l4 29l3 30l5 23l4 28l1 31l4 28l5 26l-2 8l6 34l4 31l3 28l5 19l-2 15l5 23l2 31l5 26l3 28v22l4 11l-1 12l4 13v12l4 25l4 30l4 28l4 22v12l9 10l13 3l19 -1l13 2l11 -2l17 2h116l27 -1l37 -1l37 2l6 -6l9 2l5 -19l-4 -11l2 -8l-3 -16l-4 -26l-6 -27l-15 -8 l-17 1l-28 1l-9 -2l-17 3l-6 -2h-37l-28 2l-16 -2l-10 -5l-5 -13l-2 -29l-3 -8l-3 -20l-1 -26l-3 -27l-5 -32l6 -14l12 -2l12 1l31 2l10 -2l25 -1l26 1l10 -6l2 -13l-4 -13l1 -13l-3 -29l-4 -27l-8 -10l-15 -4l-16 1l-37 -2l-17 3l-11 -1l-29 -2l-9 -18l-3 -25l-6 -2l6 -8 l-4 -14l-2 -27l-3 -26l-5 -21l1 -9l-2 -14v-29l14 -4h63l8 2l8 -1l26 -1l26 2l24 -2l18 -6l1 -10zM238 914h3l-3 3v-3zM199 917l1 -10l9 1zM268 873l10 -7l-2 3l-8 17v-13zM326 876l22 -66l2 -15l-4 -14l-17 -5h-48l-16 10l-10 21l-7 6l-9 21l-12 13l-2 8l-6 5l-9 19l-10 15 l-12 24l4 10l12 3l25 -3l7 4h55l17 -4l7 -12l4 -14l6 -11z"/>
<glyph glyph-name="Eacute" horiz-adv-x="392" unicode="" d="M430 931l21 -4l-4 -17l-21 -25l-20 -23l-20 -25l-19 -23l-9 -7l-6 -13l-15 -12l-14 -7l-22 1h-25l-16 5l-2 11l12 22l11 22l13 24l15 26l12 26l8 10l9 7l14 3l28 -2l27 1h23zM136 519h3l-3 2v-2zM265 331h3l-2 3zM431 658h3l-2 3zM144 491l-8 -5l4 1zM207 511l-2 4h-5z M162 70l-3 5v-11zM168 482l11 8l-7 -2zM267 370l-5 3l7 -5l6 11zM203 623l-5 8l-4 -5zM143 251l-7 -3l13 -3zM204 616l2 -9l5 8zM167 586l1 6l-10 2zM135 97l5 -8l4 6zM154 408l-9 -5l4 -13v11zM151 499l6 -6l-2 10l-4 5v-9zM130 325l-4 9l-4 -12zM176 96l8 -3l-7 7l-13 1z M108 351l7 6l-9 5zM145 109l-11 -1l4 -8zM337 51l-2 -13l7 -1zM252 391l-9 5l3 -12zM156 251l8 -1l7 3l-10 3zM197 597l-5 18l-4 -6zM145 534l5 -16l4 10zM188 621l-8 1l-4 6l4 -15l-5 -7zM179 535h-13l1 -11zM118 243l4 18l-10 -9zM128 401l-11 -9l9 -6zM217 657l-2 -10 l-5 3l10 -9l8 8l-8 -1zM113 167l2 -14l10 11zM167 342l7 -1l9 7l-7 4zM138 418l-10 -5l-3 -7l14 4zM190 510l10 -4l-13 15l-5 -12zM135 320l1 -18l6 2l1 10zM197 471l-9 -2l-3 -6l8 -8zM181 313l4 10l6 6l-15 -7v9l-9 -6l13 -6zM186 585l-10 -8l9 -6l7 4l-4 5zM172 440h-12 l-4 -13l7 2l7 6zM185 349l12 -6l7 10l-7 10v-6l-4 -8h-8zM141 505l3 10l-13 -8l5 -12l12 14zM145 551l2 12l-7 -10l5 -14l13 1zM164 342l-13 -8l6 -6l-4 -9h9l-1 11zM235 640l-4 -2l-4 -2l-2 -8l-11 -3l2 -8l9 5v-7l9 -2l-6 7l7 9v11zM194 405l-2 -8l-9 -1l-3 8l-4 1l-8 -7 h7l6 -8l10 -6l7 -1l-2 9l9 -1l4 9zM380 70l-4 -29l-3 -21l-3 -12l-9 -8l-31 -2l-13 2h-27l-23 -2l-21 3l-16 -3l-12 1l-27 -1l-31 2l-29 -1l-21 1h-49l-11 5l-3 18l3 27l3 35l4 29l3 30l5 23l4 28l1 31l4 28l5 26l-2 8l6 34l4 31l3 28l5 19l-2 15l5 23l2 31l5 26l3 28v22 l4 11l-1 12l4 13v12l4 25l4 30l4 28l4 22v12l9 10l13 3l19 -1l13 2l11 -2l17 2h116l27 -1l37 -1l37 2l6 -6l9 2l5 -19l-4 -11l2 -8l-3 -16l-4 -26l-6 -27l-15 -8l-17 1l-28 1l-9 -2l-17 3l-6 -2h-37l-28 2l-16 -2l-10 -5l-5 -13l-2 -29l-3 -8l-3 -20l-1 -26l-3 -27l-5 -32 l6 -14l12 -2l12 1l31 2l10 -2l25 -1l26 1l10 -6l2 -13l-4 -13l1 -13l-3 -29l-4 -27l-8 -10l-15 -4l-16 1l-37 -2l-17 3l-11 -1l-29 -2l-9 -18l-3 -25l-6 -2l6 -8l-4 -14l-2 -27l-3 -26l-5 -21l1 -9l-2 -14v-29l14 -4h63l8 2l8 -1l26 -1l26 2l24 -2l18 -6l1 -10z"/>
<glyph glyph-name="Ecircumflex" horiz-adv-x="392" unicode="" d="M136 519h3l-3 2v-2zM265 331h3l-2 3zM431 658h3l-2 3zM144 491l-8 -5l4 1zM207 511l-2 4h-5zM162 70l-3 5v-11zM168 482l11 8l-7 -2zM267 370l-5 3l7 -5l6 11zM203 623l-5 8l-4 -5zM143 251l-7 -3l13 -3zM204 616l2 -9l5 8zM167 586l1 6l-10 2zM135 97l5 -8l4 6zM154 408 l-9 -5l4 -13v11zM151 499l6 -6l-2 10l-4 5v-9zM130 325l-4 9l-4 -12zM176 96l8 -3l-7 7l-13 1zM108 351l7 6l-9 5zM145 109l-11 -1l4 -8zM337 51l-2 -13l7 -1zM252 391l-9 5l3 -12zM156 251l8 -1l7 3l-10 3zM197 597l-5 18l-4 -6zM145 534l5 -16l4 10zM188 621l-8 1l-4 6 l4 -15l-5 -7zM179 535h-13l1 -11zM118 243l4 18l-10 -9zM128 401l-11 -9l9 -6zM217 657l-2 -10l-5 3l10 -9l8 8l-8 -1zM113 167l2 -14l10 11zM167 342l7 -1l9 7l-7 4zM138 418l-10 -5l-3 -7l14 4zM190 510l10 -4l-13 15l-5 -12zM135 320l1 -18l6 2l1 10zM197 471l-9 -2 l-3 -6l8 -8zM181 313l4 10l6 6l-15 -7v9l-9 -6l13 -6zM186 585l-10 -8l9 -6l7 4l-4 5zM172 440h-12l-4 -13l7 2l7 6zM185 349l12 -6l7 10l-7 10v-6l-4 -8h-8zM141 505l3 10l-13 -8l5 -12l12 14zM145 551l2 12l-7 -10l5 -14l13 1zM164 342l-13 -8l6 -6l-4 -9h9l-1 11z M235 640l-4 -2l-4 -2l-2 -8l-11 -3l2 -8l9 5v-7l9 -2l-6 7l7 9v11zM194 405l-2 -8l-9 -1l-3 8l-4 1l-8 -7h7l6 -8l10 -6l7 -1l-2 9l9 -1l4 9zM380 70l-4 -29l-3 -21l-3 -12l-9 -8l-31 -2l-13 2h-27l-23 -2l-21 3l-16 -3l-12 1l-27 -1l-31 2l-29 -1l-21 1h-49l-11 5l-3 18 l3 27l3 35l4 29l3 30l5 23l4 28l1 31l4 28l5 26l-2 8l6 34l4 31l3 28l5 19l-2 15l5 23l2 31l5 26l3 28v22l4 11l-1 12l4 13v12l4 25l4 30l4 28l4 22v12l9 10l13 3l19 -1l13 2l11 -2l17 2h116l27 -1l37 -1l37 2l6 -6l9 2l5 -19l-4 -11l2 -8l-3 -16l-4 -26l-6 -27l-15 -8 l-17 1l-28 1l-9 -2l-17 3l-6 -2h-37l-28 2l-16 -2l-10 -5l-5 -13l-2 -29l-3 -8l-3 -20l-1 -26l-3 -27l-5 -32l6 -14l12 -2l12 1l31 2l10 -2l25 -1l26 1l10 -6l2 -13l-4 -13l1 -13l-3 -29l-4 -27l-8 -10l-15 -4l-16 1l-37 -2l-17 3l-11 -1l-29 -2l-9 -18l-3 -25l-6 -2l6 -8 l-4 -14l-2 -27l-3 -26l-5 -21l1 -9l-2 -14v-29l14 -4h63l8 2l8 -1l26 -1l26 2l24 -2l18 -6l1 -10zM307 876l-7 -5l5 -3zM382 848l-9 4l-1 -6zM422 865l8 -11l13 -2l5 -13v-16l-4 -27l-5 -13l-12 -4l-18 3l-35 14l-29 18l-12 12l-13 6l-25 3l-1 -4l-15 -10l-6 3l-1 -5 l-12 -10l-25 -14h-9l-20 -10l-23 -6l-15 7l-2 18l8 37l10 11l13 7l27 17l23 21l24 21l-1 -10l12 23l13 14l11 6l34 -2l15 -7v-9h4l8 -10l16 -23l10 -10l15 -18z"/>
<glyph glyph-name="Edieresis" horiz-adv-x="392" unicode="" d="M374 855l-9 -7l6 -1zM386 840l10 -2l-4 6l-8 5zM295 883v-12l-2 -14l-2 -34l-8 -35l-9 -10l-15 -3h-16l-15 3l-22 -3l-13 2l-10 6l-2 13l2 14l4 35l5 37l8 10l23 2l10 -3l27 4l29 -2zM433 870l-3 -28l-1 -15l-5 -34l-7 -13l-13 -3h-13l-29 -2l-33 2l-8 5l-3 22l4 25l4 9 l-2 11l5 25l7 15l13 4l16 1l60 -2l8 -8v-14zM136 519h3l-3 2v-2zM265 331h3l-2 3zM431 658h3l-2 3zM144 491l-8 -5l4 1zM207 511l-2 4h-5zM162 70l-3 5v-11zM168 482l11 8l-7 -2zM267 370l-5 3l7 -5l6 11zM203 623l-5 8l-4 -5zM143 251l-7 -3l13 -3zM204 616l2 -9l5 8z M167 586l1 6l-10 2zM135 97l5 -8l4 6zM154 408l-9 -5l4 -13v11zM151 499l6 -6l-2 10l-4 5v-9zM130 325l-4 9l-4 -12zM176 96l8 -3l-7 7l-13 1zM108 351l7 6l-9 5zM145 109l-11 -1l4 -8zM337 51l-2 -13l7 -1zM252 391l-9 5l3 -12zM156 251l8 -1l7 3l-10 3zM197 597l-5 18 l-4 -6zM145 534l5 -16l4 10zM188 621l-8 1l-4 6l4 -15l-5 -7zM179 535h-13l1 -11zM118 243l4 18l-10 -9zM128 401l-11 -9l9 -6zM217 657l-2 -10l-5 3l10 -9l8 8l-8 -1zM113 167l2 -14l10 11zM167 342l7 -1l9 7l-7 4zM138 418l-10 -5l-3 -7l14 4zM190 510l10 -4l-13 15 l-5 -12zM135 320l1 -18l6 2l1 10zM197 471l-9 -2l-3 -6l8 -8zM181 313l4 10l6 6l-15 -7v9l-9 -6l13 -6zM186 585l-10 -8l9 -6l7 4l-4 5zM172 440h-12l-4 -13l7 2l7 6zM185 349l12 -6l7 10l-7 10v-6l-4 -8h-8zM141 505l3 10l-13 -8l5 -12l12 14zM145 551l2 12l-7 -10l5 -14 l13 1zM164 342l-13 -8l6 -6l-4 -9h9l-1 11zM235 640l-4 -2l-4 -2l-2 -8l-11 -3l2 -8l9 5v-7l9 -2l-6 7l7 9v11zM194 405l-2 -8l-9 -1l-3 8l-4 1l-8 -7h7l6 -8l10 -6l7 -1l-2 9l9 -1l4 9zM380 70l-4 -29l-3 -21l-3 -12l-9 -8l-31 -2l-13 2h-27l-23 -2l-21 3l-16 -3l-12 1 l-27 -1l-31 2l-29 -1l-21 1h-49l-11 5l-3 18l3 27l3 35l4 29l3 30l5 23l4 28l1 31l4 28l5 26l-2 8l6 34l4 31l3 28l5 19l-2 15l5 23l2 31l5 26l3 28v22l4 11l-1 12l4 13v12l4 25l4 30l4 28l4 22v12l9 10l13 3l19 -1l13 2l11 -2l17 2h116l27 -1l37 -1l37 2l6 -6l9 2l5 -19 l-4 -11l2 -8l-3 -16l-4 -26l-6 -27l-15 -8l-17 1l-28 1l-9 -2l-17 3l-6 -2h-37l-28 2l-16 -2l-10 -5l-5 -13l-2 -29l-3 -8l-3 -20l-1 -26l-3 -27l-5 -32l6 -14l12 -2l12 1l31 2l10 -2l25 -1l26 1l10 -6l2 -13l-4 -13l1 -13l-3 -29l-4 -27l-8 -10l-15 -4l-16 1l-37 -2l-17 3 l-11 -1l-29 -2l-9 -18l-3 -25l-6 -2l6 -8l-4 -14l-2 -27l-3 -26l-5 -21l1 -9l-2 -14v-29l14 -4h63l8 2l8 -1l26 -1l26 2l24 -2l18 -6l1 -10zM244 838l-4 1l1 -7zM244 838l8 -8l5 10l-8 -3z"/>
<glyph glyph-name="Igrave" horiz-adv-x="219" unicode="" d="M156 914h3l-3 3v-3zM117 917l1 -10l9 1zM186 873l10 -7l-2 3l-8 17v-13zM244 876l22 -66l2 -15l-4 -14l-17 -5h-48l-16 10l-10 21l-7 6l-9 21l-12 13l-2 8l-6 5l-9 19l-10 15l-12 24l4 10l12 3l25 -3l7 4h55l17 -4l7 -12l4 -14l6 -11zM173 579h3l-2 2zM161 191h2l-2 3v-3 zM157 269l-4 15l1 -8zM140 380l-4 -1l13 -5zM143 176l-9 -1v-5zM178 612v9l-6 -5zM233 691l-14 1l-1 -4zM133 247l-1 -6l10 3zM181 433l5 6l-9 1zM131 206l-7 -1v-9zM180 394l2 -9h7zM124 513l-2 10l-6 -4zM173 278l-11 -8l6 -2zM135 116l9 5l9 -5l-5 9zM189 470v8l-9 -10z M155 484v10l-8 -11zM123 142l-8 -8l5 -6zM142 613l1 -8l10 9zM142 401l-9 -8l8 -3zM121 450l1 -9l9 12zM168 377l-7 9l2 -16zM202 585l5 -10l6 7zM118 152h8l2 8h-4zM173 519l7 -9l-2 -10l9 4zM118 539l-4 -9l-2 -1l10 -3zM186 579l-5 14l-5 -8zM178 552l7 5l-7 6l-3 -4z M154 332l8 -9l1 7l-8 7zM136 348l10 -1l9 2l-9 5zM161 180l-11 -18l15 11zM141 287l-8 -4l-6 -1l1 -12zM176 484v11l-11 -4l-9 -12l15 11zM151 367h-12l-3 -9l11 -1zM103 131l-1 -8l9 12l-4 9l-11 -8zM147 443l-8 8l-4 -8l1 -14zM196 614v-12l8 -8l6 6l-2 4zM162 524l-5 11 l-9 -9l2 -13l2 7l12 -7l5 10zM114 303l-10 -7l8 -6l13 -6l-5 6l6 27l-5 -7l-4 7zM213 675l-23 -4l-2 -8l-5 -13l11 7l13 4l1 9l10 6l-7 7zM193 153l-8 -64l1 -13l-4 -31l-9 -37l-8 -9l-25 -1l-8 3l-10 -2l-32 1h-29l-13 6l-2 17l2 17l5 26v20l3 16l2 24l5 30l1 24l4 35l4 14 l3 29l5 20l6 7l-9 -1l4 19l1 18l4 10l2 31l5 18l-2 6l2 19l4 32l3 31l4 15l2 34l5 12l-2 14l5 23l-1 9l4 26l2 27l4 12l1 27l4 16l4 27l8 11l12 3l35 -3l39 3l23 -2l3 -12l5 10l6 -10l-4 -26l-2 -30l-4 -11l-1 -19l-3 -28l-5 -27l-1 -28l-3 -10l-3 -33l-3 -12v-14l-4 -26 l-3 -32l-4 -15l1 -10l-4 -19l-4 -30l-5 -23l2 -13l-9 -8l7 -3l-3 -28l-4 -28l-3 -31l-2 -26z"/>
<glyph glyph-name="Iacute" horiz-adv-x="219" unicode="" d="M173 579h3l-2 2zM161 191h2l-2 3v-3zM157 269l-4 15l1 -8zM140 380l-4 -1l13 -5zM143 176l-9 -1v-5zM178 612v9l-6 -5zM233 691l-14 1l-1 -4zM133 247l-1 -6l10 3zM181 433l5 6l-9 1zM131 206l-7 -1v-9zM180 394l2 -9h7zM124 513l-2 10l-6 -4zM173 278l-11 -8l6 -2z M135 116l9 5l9 -5l-5 9zM189 470v8l-9 -10zM155 484v10l-8 -11zM123 142l-8 -8l5 -6zM142 613l1 -8l10 9zM142 401l-9 -8l8 -3zM121 450l1 -9l9 12zM168 377l-7 9l2 -16zM202 585l5 -10l6 7zM118 152h8l2 8h-4zM173 519l7 -9l-2 -10l9 4zM118 539l-4 -9l-2 -1l10 -3z M186 579l-5 14l-5 -8zM178 552l7 5l-7 6l-3 -4zM154 332l8 -9l1 7l-8 7zM136 348l10 -1l9 2l-9 5zM161 180l-11 -18l15 11zM141 287l-8 -4l-6 -1l1 -12zM176 484v11l-11 -4l-9 -12l15 11zM151 367h-12l-3 -9l11 -1zM103 131l-1 -8l9 12l-4 9l-11 -8zM147 443l-8 8l-4 -8 l1 -14zM196 614v-12l8 -8l6 6l-2 4zM162 524l-5 11l-9 -9l2 -13l2 7l12 -7l5 10zM114 303l-10 -7l8 -6l13 -6l-5 6l6 27l-5 -7l-4 7zM213 675l-23 -4l-2 -8l-5 -13l11 7l13 4l1 9l10 6l-7 7zM193 153l-8 -64l1 -13l-4 -31l-9 -37l-8 -9l-25 -1l-8 3l-10 -2l-32 1h-29l-13 6 l-2 17l2 17l5 26v20l3 16l2 24l5 30l1 24l4 35l4 14l3 29l5 20l6 7l-9 -1l4 19l1 18l4 10l2 31l5 18l-2 6l2 19l4 32l3 31l4 15l2 34l5 12l-2 14l5 23l-1 9l4 26l2 27l4 12l1 27l4 16l4 27l8 11l12 3l35 -3l39 3l23 -2l3 -12l5 10l6 -10l-4 -26l-2 -30l-4 -11l-1 -19l-3 -28 l-5 -27l-1 -28l-3 -10l-3 -33l-3 -12v-14l-4 -26l-3 -32l-4 -15l1 -10l-4 -19l-4 -30l-5 -23l2 -13l-9 -8l7 -3l-3 -28l-4 -28l-3 -31l-2 -26zM315 931l21 -4l-4 -17l-21 -25l-20 -23l-20 -25l-19 -23l-9 -7l-6 -13l-15 -12l-14 -7l-22 1h-25l-16 5l-2 11l12 22l11 22l13 24 l15 26l12 26l8 10l9 7l14 3l28 -2l27 1h23z"/>
<glyph glyph-name="Icircumflex" horiz-adv-x="219" unicode="" d="M209 876l-7 -5l5 -3zM284 848l-9 4l-1 -6zM324 865l8 -11l13 -2l5 -13v-16l-4 -27l-5 -13l-12 -4l-18 3l-35 14l-29 18l-12 12l-13 6l-25 3l-1 -4l-15 -10l-6 3l-1 -5l-12 -10l-25 -14h-9l-20 -10l-23 -6l-15 7l-2 18l8 37l10 11l13 7l27 17l23 21l24 21l-1 -10l12 23 l13 14l11 6l34 -2l15 -7v-9h4l8 -10l16 -23l10 -10l15 -18zM173 579h3l-2 2zM161 191h2l-2 3v-3zM157 269l-4 15l1 -8zM140 380l-4 -1l13 -5zM143 176l-9 -1v-5zM178 612v9l-6 -5zM233 691l-14 1l-1 -4zM133 247l-1 -6l10 3zM181 433l5 6l-9 1zM131 206l-7 -1v-9zM180 394 l2 -9h7zM124 513l-2 10l-6 -4zM173 278l-11 -8l6 -2zM135 116l9 5l9 -5l-5 9zM189 470v8l-9 -10zM155 484v10l-8 -11zM123 142l-8 -8l5 -6zM142 613l1 -8l10 9zM142 401l-9 -8l8 -3zM121 450l1 -9l9 12zM168 377l-7 9l2 -16zM202 585l5 -10l6 7zM118 152h8l2 8h-4zM173 519 l7 -9l-2 -10l9 4zM118 539l-4 -9l-2 -1l10 -3zM186 579l-5 14l-5 -8zM178 552l7 5l-7 6l-3 -4zM154 332l8 -9l1 7l-8 7zM136 348l10 -1l9 2l-9 5zM161 180l-11 -18l15 11zM141 287l-8 -4l-6 -1l1 -12zM176 484v11l-11 -4l-9 -12l15 11zM151 367h-12l-3 -9l11 -1zM103 131 l-1 -8l9 12l-4 9l-11 -8zM147 443l-8 8l-4 -8l1 -14zM196 614v-12l8 -8l6 6l-2 4zM162 524l-5 11l-9 -9l2 -13l2 7l12 -7l5 10zM114 303l-10 -7l8 -6l13 -6l-5 6l6 27l-5 -7l-4 7zM213 675l-23 -4l-2 -8l-5 -13l11 7l13 4l1 9l10 6l-7 7zM193 153l-8 -64l1 -13l-4 -31 l-9 -37l-8 -9l-25 -1l-8 3l-10 -2l-32 1h-29l-13 6l-2 17l2 17l5 26v20l3 16l2 24l5 30l1 24l4 35l4 14l3 29l5 20l6 7l-9 -1l4 19l1 18l4 10l2 31l5 18l-2 6l2 19l4 32l3 31l4 15l2 34l5 12l-2 14l5 23l-1 9l4 26l2 27l4 12l1 27l4 16l4 27l8 11l12 3l35 -3l39 3l23 -2 l3 -12l5 10l6 -10l-4 -26l-2 -30l-4 -11l-1 -19l-3 -28l-5 -27l-1 -28l-3 -10l-3 -33l-3 -12v-14l-4 -26l-3 -32l-4 -15l1 -10l-4 -19l-4 -30l-5 -23l2 -13l-9 -8l7 -3l-3 -28l-4 -28l-3 -31l-2 -26z"/>
<glyph glyph-name="Idieresis" horiz-adv-x="219" unicode="" d="M279 855l-9 -7l6 -1zM291 840l10 -2l-4 6l-8 5zM200 883v-12l-2 -14l-2 -34l-8 -35l-9 -10l-15 -3h-16l-15 3l-22 -3l-13 2l-10 6l-2 13l2 14l4 35l5 37l8 10l23 2l10 -3l27 4l29 -2zM338 870l-3 -28l-1 -15l-5 -34l-7 -13l-13 -3h-13l-29 -2l-33 2l-8 5l-3 22l4 25l4 9 l-2 11l5 25l7 15l13 4l16 1l60 -2l8 -8v-14zM173 579h3l-2 2zM161 191h2l-2 3v-3zM157 269l-4 15l1 -8zM140 380l-4 -1l13 -5zM143 176l-9 -1v-5zM178 612v9l-6 -5zM233 691l-14 1l-1 -4zM133 247l-1 -6l10 3zM181 433l5 6l-9 1zM131 206l-7 -1v-9zM180 394l2 -9h7zM124 513 l-2 10l-6 -4zM173 278l-11 -8l6 -2zM135 116l9 5l9 -5l-5 9zM189 470v8l-9 -10zM155 484v10l-8 -11zM123 142l-8 -8l5 -6zM142 613l1 -8l10 9zM142 401l-9 -8l8 -3zM121 450l1 -9l9 12zM168 377l-7 9l2 -16zM202 585l5 -10l6 7zM118 152h8l2 8h-4zM173 519l7 -9l-2 -10l9 4z M118 539l-4 -9l-2 -1l10 -3zM186 579l-5 14l-5 -8zM178 552l7 5l-7 6l-3 -4zM154 332l8 -9l1 7l-8 7zM136 348l10 -1l9 2l-9 5zM161 180l-11 -18l15 11zM141 287l-8 -4l-6 -1l1 -12zM176 484v11l-11 -4l-9 -12l15 11zM151 367h-12l-3 -9l11 -1zM103 131l-1 -8l9 12l-4 9 l-11 -8zM147 443l-8 8l-4 -8l1 -14zM196 614v-12l8 -8l6 6l-2 4zM162 524l-5 11l-9 -9l2 -13l2 7l12 -7l5 10zM114 303l-10 -7l8 -6l13 -6l-5 6l6 27l-5 -7l-4 7zM213 675l-23 -4l-2 -8l-5 -13l11 7l13 4l1 9l10 6l-7 7zM193 153l-8 -64l1 -13l-4 -31l-9 -37l-8 -9l-25 -1 l-8 3l-10 -2l-32 1h-29l-13 6l-2 17l2 17l5 26v20l3 16l2 24l5 30l1 24l4 35l4 14l3 29l5 20l6 7l-9 -1l4 19l1 18l4 10l2 31l5 18l-2 6l2 19l4 32l3 31l4 15l2 34l5 12l-2 14l5 23l-1 9l4 26l2 27l4 12l1 27l4 16l4 27l8 11l12 3l35 -3l39 3l23 -2l3 -12l5 10l6 -10l-4 -26 l-2 -30l-4 -11l-1 -19l-3 -28l-5 -27l-1 -28l-3 -10l-3 -33l-3 -12v-14l-4 -26l-3 -32l-4 -15l1 -10l-4 -19l-4 -30l-5 -23l2 -13l-9 -8l7 -3l-3 -28l-4 -28l-3 -31l-2 -26zM149 838l-4 1l1 -7zM149 838l8 -8l5 10l-8 -3z"/>
</font>
</defs>
</svg>
