<?xml version="1.0" encoding="UTF-8" standalone="no"?>
<!DOCTYPE svg  PUBLIC '-//W3C//DTD SVG 1.1//EN'  'http://www.w3.org/Graphics/SVG/1.1/DTD/svg11.dtd'>
<svg xmlns="http://www.w3.org/2000/svg">
<defs>
<font id="PFDinTextCompPro-Regular" horiz-adv-x="380">
<font-face underline-position="-100" font-weight="400" descent="-200" panose-1="2 0 5 6 2 0 0 2 0 4" units-per-em="1000" unicode-range="U+0020-25CA" bbox="-54 -204 980 890" x-height="493" underline-thickness="60" font-family="PFDinTextCompPro" ascent="800" cap-height="696"/>
<missing-glyph horiz-adv-x="1000"/>
<glyph glyph-name=".notdef" horiz-adv-x="1000"/>
<glyph glyph-name=".null" horiz-adv-x="0"/>
<glyph glyph-name="nonmarkingreturn" horiz-adv-x="333"/>
<glyph glyph-name="space" horiz-adv-x="195" unicode=" "/>
<glyph glyph-name="exclam" horiz-adv-x="228" unicode="!" d="M74 -1v80h80v-80h-80zM147 177h-66l-7 519h80z"/>
<glyph glyph-name="quotedbl" horiz-adv-x="250" unicode='&quot;' d="M38 503v193h60v-193h-60zM153 503v193h60v-193h-60z"/>
<glyph glyph-name="numbersign" d="M130 277h87l28 150h-87zM207 225h-87l-41 -225h-53l42 225h-61v52h71l27 150h-61v52h71l42 222h53l-42 -222h87l41 222h53l-42 -222h62v-52h-72l-27 -150h62v-52h-72l-42 -225h-53z" unicode="#"/>
<glyph glyph-name="dollar" d="M107 520q0 -18 1.5 -32.5t7.5 -27t18.5 -23.5t34.5 -23v211q-20 -4 -32 -14.5t-18.5 -25.5t-9 -32t-2.5 -33zM272 189q0 27 -2 45t-9 31.5t-20 23.5t-34 21v-240q23 3 36 14t19.5 27t8 36t1.5 42zM350 190q0 -42 -7.5 -77t-24.5 -60.5t-44.5 -40.5t-66.5 -18v-88h-38v88 q-76 5 -111 49t-35 109l79 16q0 -35 14 -63.5t53 -34.5v257q-46 21 -74 41.5t-43 44t-19.5 49.5t-4.5 57q0 75 34.5 124.5t106.5 57.5v79h38v-79q41 -2 68.5 -17t44 -36.5t23.5 -47.5t7 -51l-78 -20q0 42 -15 67t-50 30v-230q48 -19 76.5 -39.5t43 -44.5t19 -54t4.5 -68z " unicode="$"/>
<glyph glyph-name="percent" horiz-adv-x="610" unicode="%" d="M177 -17h-51l314 731h51zM163 612q0 13 -9.5 22t-24.5 9q-16 0 -25.5 -9t-9.5 -22v-250q0 -14 9.5 -23t25.5 -9q15 0 24.5 9t9.5 23v250zM225 359q0 -41 -29 -62.5t-67 -21.5q-19 0 -36.5 5.5t-31 16t-21.5 26t-8 36.5v255q0 21 8 36.5t21.5 26t31 16t36.5 5.5 q38 0 67 -21.5t29 -62.5v-255zM516 333q0 13 -9.5 22t-24.5 9q-16 0 -25.5 -9t-9.5 -22v-250q0 -14 9.5 -23t25.5 -9q15 0 24.5 9t9.5 23v250zM578 80q0 -41 -29 -62.5t-67 -21.5q-19 0 -36.5 5.5t-31 16t-21.5 26t-8 36.5v255q0 21 8 36.5t21.5 26t31 16t36.5 5.5 q38 0 67 -21.5t29 -62.5v-255z"/>
<glyph glyph-name="ampersand" horiz-adv-x="461" unicode="&amp;" d="M177 308q-29 -33 -45.5 -65t-16.5 -69q0 -22 5.5 -41.5t16.5 -34.5t26.5 -23.5t35.5 -8.5q26 0 50.5 13.5t39.5 35.5zM211 701q52 0 86 -17.5t52 -59.5l-71 -35q-16 41 -65 41q-16 0 -27 -7t-18 -18.5t-10 -25.5t-3 -27q0 -26 11.5 -58t32.5 -72l129 -223q8 23 12 48.5 t6 52.5h72q-2 -40 -12 -88t-30 -89l72 -123h-91l-33 56q-33 -39 -69.5 -50.5t-74.5 -11.5q-29 0 -54.5 12.5t-45 35.5t-30.5 55.5t-11 72.5q0 62 26.5 109t74.5 93q-8 12 -14 24t-11 21q-14 26 -25.5 63.5t-11.5 72.5q0 31 9.5 58t26.5 47t42 31.5t55 11.5z"/>
<glyph glyph-name="quotesingle" horiz-adv-x="172" unicode="&apos;" d="M57 503v193h61v-193h-61z"/>
<glyph glyph-name="parenleft" horiz-adv-x="210" unicode="(" d="M169 -110q-27 40 -51.5 86t-42.5 98t-29 109.5t-11 120.5q0 64 10.5 121.5t28.5 109t42 97t51 85.5l38 -18q-47 -83 -73 -186.5t-26 -204.5q0 -109 26.5 -212t71.5 -184z"/>
<glyph glyph-name="parenright" horiz-adv-x="210" unicode=")" d="M36 -88q45 81 71.5 184t26.5 212q0 101 -26 204.5t-73 186.5l38 18q27 -40 51 -85.5t42 -97t28.5 -109t10.5 -121.5q0 -63 -11 -120.5t-29 -109.5t-42.5 -98t-51.5 -86z"/>
<glyph glyph-name="asterisk" horiz-adv-x="351" unicode="*" d="M277 442l-50 -34l-60 100l-61 -101l-49 35l75 92l-109 29l20 57l103 -43l-9 118h60l-9 -118l102 43l21 -57l-110 -29z"/>
<glyph glyph-name="plus" d="M220 264v-164h-59v164h-152v60h152v164h59v-164h152v-60h-152z" unicode="+"/>
<glyph glyph-name="comma" horiz-adv-x="193" unicode="," d="M93 -120h-44l24 112h-21v97h87v-95z"/>
<glyph glyph-name="hyphen" horiz-adv-x="346" unicode="-" d="M49 253v67h259v-67h-259z"/>
<glyph glyph-name="period" horiz-adv-x="193" unicode="." d="M52 0v91h87v-91h-87z"/>
<glyph glyph-name="slash" horiz-adv-x="256" unicode="/" d="M66 -42h-60l186 767h60z"/>
<glyph glyph-name="zero" d="M252 569q0 26 -17.5 42t-44.5 16t-44.5 -16t-17.5 -42v-445q0 -26 17.5 -42t44.5 -16t44.5 16t17.5 42v445zM331 127q0 -33 -11.5 -58t-31 -42t-45 -25.5t-53.5 -8.5t-53.5 8.5t-45 25.5t-31 42t-11.5 58v439q0 33 11.5 58.5t31 42.5t45 26t53.5 9q62 0 101.5 -35 t39.5 -101v-439z" unicode="0"/>
<glyph glyph-name="one" d="M201 0v613l-101 -81v84l99 80h81v-696h-79z" unicode="1"/>
<glyph glyph-name="two" d="M191 627q-34 -1 -48.5 -28.5t-14.5 -83.5v-6l-79 14v4q0 40 8 72t25.5 55t45 35.5t65.5 12.5q39 0 66 -11t44 -31t24.5 -48.5t7.5 -63.5q0 -83 -38 -160l-156 -315h189v-73h-279v69l181 361q14 27 17.5 57t3.5 60q0 14 -2 28.5t-8 26t-18.5 18.5t-33.5 7z" unicode="2"/>
<glyph glyph-name="three" d="M329 143q0 -40 -12 -68.5t-31.5 -46.5t-45 -26.5t-54.5 -8.5q-41 0 -68.5 12t-44 33t-22 47t-5.5 51q0 9 1 18l79 11q-1 -12 -1 -22q0 -30 12.5 -53.5t50.5 -23.5q26 0 44.5 16.5t18.5 57.5v105q0 42 -16.5 60.5t-54.5 18.5h-31v69h33q37 0 53 17t16 57v89q0 13 -2.5 26 t-8.5 23t-17 16t-29 6q-35 0 -51.5 -26.5t-16.5 -70.5l-79 11q1 34 11 63.5t28.5 51t46.5 34t66 12.5q37 0 62 -11.5t40.5 -31t22 -45.5t6.5 -54v-71q0 -20 -1.5 -38.5t-7 -34.5t-17 -29.5t-32.5 -24.5v-3q20 -9 31.5 -20.5t17.5 -27t7.5 -35t1.5 -43.5z" unicode="3"/>
<glyph glyph-name="four" d="M307 110v-110h-79v110h-205v71l146 515h78l-147 -515h128v193h79v-193h49v-71h-49z" unicode="4"/>
<glyph glyph-name="five" d="M187 -7q-41 0 -68 12.5t-43.5 34t-24 51t-8.5 63.5l79 11q0 -22 2 -40t9 -31t20 -20.5t36 -7.5q26 0 43 16.5t19 57.5v180q0 59 -58 59q-23 0 -39 -10.5t-24 -28.5h-69v356h270v-71h-200v-210h5q15 15 37 22.5t45 7.5q59 0 84.5 -33t25.5 -81v-188q0 -40 -11 -68.5 t-30.5 -46.5t-45 -26.5t-54.5 -8.5z" unicode="5"/>
<glyph glyph-name="six" d="M252 277q0 26 -17 40.5t-44 14.5q-18 0 -30 -6.5t-19.5 -17t-10.5 -23.5t-3 -26v-138q0 -26 17.5 -40.5t44.5 -14.5t44.5 14.5t17.5 40.5v156zM166 388q21 16 52 16q33 0 54.5 -10.5t34.5 -28.5t18.5 -42t5.5 -50v-146q0 -33 -11.5 -58t-31 -42t-45 -25.5t-53.5 -8.5 t-53.5 8.5t-45 25.5t-31 42t-11.5 58v116q0 45 6 75t15 53l129 325h80l-116 -305z" unicode="6"/>
<glyph glyph-name="seven" d="M154 0h-76l175 625h-138v-83h-69v154h287v-65z" unicode="7"/>
<glyph glyph-name="eight" d="M252 572q0 26 -17.5 41.5t-44.5 15.5t-44.5 -15.5t-17.5 -41.5v-114q0 -26 17.5 -42t44.5 -16t44.5 16t17.5 42v114zM252 273q0 26 -17.5 43t-44.5 17t-44.5 -17t-17.5 -43v-152q0 -26 17.5 -40.5t44.5 -14.5t44.5 14.5t17.5 40.5v152zM331 474q0 -38 -15 -65t-39 -44 q24 -17 39 -44.5t15 -65.5v-128q0 -33 -11.5 -58t-31 -42t-45 -25.5t-53.5 -8.5t-53.5 8.5t-45 25.5t-31 42t-11.5 58v128q0 38 14.5 65.5t39.5 44.5q-25 17 -39.5 44t-14.5 65v92q0 33 11.5 58.5t31 42.5t45 26t53.5 9t53.5 -9t45 -26t31 -42.5t11.5 -58.5v-92z" unicode="8"/>
<glyph glyph-name="nine" d="M214 308q-21 -16 -52 -16q-33 0 -54.5 10.5t-34.5 28.5t-18.5 42t-5.5 50v146q0 33 11.5 58t31 42t45 25.5t53.5 8.5q67 0 104 -34t37 -100v-116q0 -45 -6 -75t-15 -53l-129 -325h-80l116 305zM128 419q0 -26 17 -41.5t44 -15.5q18 0 30 7t19.5 17.5t10.5 24t3 26.5v138 q0 26 -17.5 40.5t-44.5 14.5t-44.5 -14.5t-17.5 -40.5v-156z" unicode="9"/>
<glyph glyph-name="colon" horiz-adv-x="193" unicode=":" d="M52 0v91h87v-91h-87zM52 300v91h87v-91h-87z"/>
<glyph glyph-name="semicolon" horiz-adv-x="193" unicode=";" d="M52 300v91h87v-91h-87zM93 -120h-44l24 112h-21v97h87v-95z"/>
<glyph glyph-name="less" d="M11 268v53l357 183v-66l-296 -144l296 -143v-66z" unicode="&lt;"/>
<glyph glyph-name="equal" d="M9 188v63h363v-63h-363zM9 341v63h363v-63h-363z" unicode="="/>
<glyph glyph-name="greater" d="M12 85v66l296 143l-296 144v66l357 -183v-53z" unicode="&gt;"/>
<glyph glyph-name="question" horiz-adv-x="371" unicode="?" d="M161 0v80h78v-80h-78zM349 533q0 -26 -2 -44.5t-7 -34.5t-13.5 -32.5t-21.5 -38.5l-46 -79q-8 -13 -13.5 -27t-5.5 -31v-69h-78v83q0 20 6 39t17 36q27 43 43 69t25 45t12 36t3 43q0 20 -3 38t-11.5 31.5t-23.5 21.5t-39 8q-32 0 -54 -22t-22 -73l-80 9q0 41 12.5 71.5 t33.5 50.5t49.5 29.5t60.5 9.5q84 0 121 -44t37 -125z"/>
<glyph glyph-name="at" horiz-adv-x="752" unicode="@" d="M421 333h-47q-25 0 -44.5 -14.5t-19.5 -53.5q0 -24 13.5 -40t42.5 -16q27 0 41 17.5t14 45.5v61zM486 259q0 -29 13 -44t31 -15q21 0 38.5 7t30 27.5t19.5 56t7 92.5q0 61 -17.5 109.5t-48.5 82t-74.5 51t-94.5 17.5q-69 0 -119.5 -24t-82.5 -65.5t-47.5 -98 t-15.5 -120.5q0 -71 16.5 -128.5t50 -99t83.5 -64t117 -22.5q49 0 87 8.5t82 34.5l25 -57q-43 -20 -90.5 -33t-98.5 -13q-79 0 -141.5 24t-106 71t-66.5 117t-23 162q0 82 21.5 150t63 116.5t102.5 75t140 26.5q75 0 132 -24t95.5 -66.5t58 -101.5t19.5 -128t-13 -115.5 t-35.5 -75t-52.5 -41t-65 -12.5q-8 0 -21 3.5t-26 11t-23.5 19.5t-14.5 28l-1 -1q-12 -22 -41 -37t-62 -15q-26 0 -43 10t-27.5 26t-15 36.5t-4.5 41.5q0 22 5.5 44.5t18.5 40.5t34 29.5t52 11.5h64v52q0 23 -12.5 36.5t-39.5 13.5q-17 0 -33 -9.5t-19 -30.5l-62 16 q10 39 42.5 61t74.5 22q49 0 81.5 -24t32.5 -84v-182z"/>
<glyph glyph-name="A" horiz-adv-x="395" unicode="A" d="M195 554l-29 -162l-33 -163h128l-34 165l-28 160h-4zM307 0l-32 155h-155l-31 -155h-76l148 696h74l150 -696h-78z"/>
<glyph glyph-name="B" horiz-adv-x="414" unicode="B" d="M288 513q0 54 -23.5 82.5t-78.5 28.5h-54v-223h53q55 0 79 29t24 83zM294 213q0 57 -21.5 88t-82.5 31h-58v-261h62q33 0 52.5 11.5t30 31t14 45t3.5 54.5zM291 365q46 -14 62.5 -56.5t16.5 -103.5q0 -108 -44.5 -156.5t-138.5 -48.5h-134v696h147q90 0 127 -48t37 -136 q0 -55 -16 -87.5t-57 -55.5v-4z"/>
<glyph glyph-name="C" horiz-adv-x="384" unicode="C" d="M204 702q81 0 117.5 -44t36.5 -115l-79 -14q1 46 -16.5 73t-59.5 27q-24 0 -39 -11t-23.5 -27.5t-11.5 -36.5t-3 -38v-351q0 -15 3 -32.5t11.5 -32t23 -24.5t38.5 -10q39 0 57.5 24t19.5 76l81 -14q-2 -75 -40.5 -117t-115.5 -42q-79 0 -118 44t-39 124v344 q0 37 6.5 72.5t23.5 63t48 44.5t79 17z"/>
<glyph glyph-name="D" horiz-adv-x="423" unicode="D" d="M294 522q0 47 -20 74t-71 27h-71v-551h71q49 0 70 27t21 77v346zM215 696q62 0 98 -21.5t50 -72.5q11 -42 11 -104v-149v-145.5t-13 -100.5q-19 -59 -60.5 -81t-94.5 -22h-153v696h162z"/>
<glyph glyph-name="E" horiz-adv-x="366" unicode="E" d="M53 0v696h298v-73h-219v-233h190v-73h-190v-245h219v-72h-298z"/>
<glyph glyph-name="F" horiz-adv-x="366" unicode="F" d="M53 0v696h298v-73h-219v-233h190v-73h-190v-317h-79z"/>
<glyph glyph-name="G" horiz-adv-x="414" unicode="G" d="M207 -7q-79 0 -118 44t-39 124v344q0 37 6.5 72.5t23.5 63t48 44.5t79 17q81 0 116.5 -41.5t37.5 -112.5l-79 -19q1 46 -16.5 73t-59.5 27q-24 0 -39 -11t-23.5 -27.5t-11.5 -36.5t-3 -38v-351q0 -15 3 -32.5t11.5 -32t23 -24.5t38.5 -10h1q38 0 60 20t22 55v166h-81v69 h160v-225q0 -39 -12.5 -68.5t-34 -49.5t-51 -30t-62.5 -10z"/>
<glyph glyph-name="H" horiz-adv-x="427" unicode="H" d="M294 0v321h-162v-321h-79v696h79v-306h162v306h79v-696h-79z"/>
<glyph glyph-name="I" horiz-adv-x="192" unicode="I" d="M56 0v696h80v-696h-80z"/>
<glyph glyph-name="J" horiz-adv-x="363" unicode="J" d="M297 696v-518q0 -91 -39.5 -138t-120.5 -47q-43 0 -77 16t-55 50l58 47q11 -16 31.5 -28.5t41.5 -12.5q44 0 63 28.5t19 73.5v529h79z"/>
<glyph glyph-name="K" horiz-adv-x="414" unicode="K" d="M326 0l-126 334l-68 -132v-202h-79v696h79v-347h2l168 347h79l-135 -275l160 -421h-80z"/>
<glyph glyph-name="L" horiz-adv-x="340" unicode="L" d="M53 0v696h79v-624h203v-72h-282z"/>
<glyph glyph-name="M" horiz-adv-x="564" unicode="M" d="M427 482l-55 -144l-72 -169h-37l-72 169l-55 144h-4v-482h-79v696h80l83 -217l64 -170h3l66 175l81 212h81v-696h-79v482h-5z"/>
<glyph glyph-name="N" horiz-adv-x="450" unicode="N" d="M129 476v-476h-79v696h75l144 -353l48 -127l4 1v479h79v-696h-74l-144 350l-50 126h-3z"/>
<glyph glyph-name="O" horiz-adv-x="414" unicode="O" d="M288 522q0 18 -2.5 37t-10.5 34.5t-24.5 26t-43.5 10.5q-30 0 -46 -14.5t-24 -34.5t-9.5 -42.5t-1.5 -37.5v-338q0 -15 3 -32t12 -32t24.5 -24.5t40.5 -9.5t41 10t25 25.5t12.5 35.5t3.5 41v345zM367 187q0 -93 -36.5 -143.5t-124.5 -50.5q-86 0 -122.5 47t-36.5 124v343 q0 37 6.5 72t24 62.5t48.5 44t81 16.5q52 0 83.5 -14.5t48.5 -40.5t22.5 -61t5.5 -77v-322z"/>
<glyph glyph-name="P" horiz-adv-x="395" unicode="P" d="M132 354h54q36 0 57.5 11t33 29t14.5 42t3 51q0 28 -3.5 53t-14.5 43.5t-32 29t-56 10.5h-56v-269zM195 696q53 0 87 -14t54 -40.5t27.5 -65t7.5 -87.5q0 -44 -7 -82t-27 -66.5t-55.5 -44.5t-92.5 -16h-57v-280h-79v696h142z"/>
<glyph glyph-name="Q" horiz-adv-x="414" unicode="Q" d="M288 522q0 18 -2.5 37t-10.5 34.5t-24.5 26t-43.5 10.5q-30 0 -46 -14.5t-24 -34.5t-9.5 -42.5t-1.5 -37.5v-338q0 -15 3 -32t12 -32t24.5 -24.5t40.5 -9.5q26 0 42 10l-59 49l39 47l54 -44q6 22 6 50v345zM367 187q0 -69 -19 -113l56 -45l-39 -48l-54 43 q-39 -31 -104 -31q-86 0 -123 47t-37 124v343q0 37 6.5 72t24 62.5t48.5 44t81 16.5q52 0 83.5 -14.5t48.5 -40.5t22.5 -61t5.5 -77v-322z"/>
<glyph glyph-name="R" horiz-adv-x="414" unicode="R" d="M291 498q0 28 -4 51t-15.5 39.5t-30.5 25.5t-49 9h-60v-245h67q27 0 45 8.5t28.5 24.5t14.5 38t4 49zM306 0l-99 305h-75v-305h-79v696h153q85 0 125 -49t40 -149q0 -60 -18 -106t-72 -71l106 -321h-81z"/>
<glyph glyph-name="S" horiz-adv-x="394" unicode="S" d="M360 190q0 -45 -8.5 -81t-28 -62t-50.5 -40t-77 -14q-42 0 -73 12t-51 33.5t-29.5 50.5t-9.5 63l79 16q0 -20 4 -37.5t13.5 -31.5t26 -22t40.5 -8q30 0 47.5 9.5t26 26t10.5 38.5t2 46q0 31 -3 50.5t-13 34t-28.5 25.5t-49.5 24q-49 21 -78.5 42.5t-45.5 45t-21 50 t-5 58.5q0 40 10 73.5t30.5 58t51.5 38t72 13.5q45 0 75.5 -14t49 -36.5t26 -49.5t7.5 -53l-78 -20q0 47 -19 72.5t-65 25.5q-26 0 -41.5 -10t-24.5 -25.5t-12 -34.5t-3 -37q0 -22 2.5 -38.5t13.5 -31t32.5 -28.5t60.5 -29q45 -18 71.5 -37.5t40.5 -43.5t18 -54t4 -68z"/>
<glyph glyph-name="T" horiz-adv-x="320" unicode="T" d="M200 624v-624h-80v624h-118v72h316v-72h-118z"/>
<glyph glyph-name="U" horiz-adv-x="420" unicode="U" d="M370 695v-508q0 -93 -36 -143.5t-124 -50.5q-86 0 -123 47t-37 124v531h79v-532q0 -15 3 -32t12 -32t24.5 -24.5t40.5 -9.5t41 10t25 25.5t12.5 35.5t3.5 41v518h79z"/>
<glyph glyph-name="V" horiz-adv-x="395" unicode="V" d="M239 -1h-86l-130 697h81l52 -294l39 -242h3l40 244l53 292h81z"/>
<glyph glyph-name="W" horiz-adv-x="581" unicode="W" d="M456 -1h-74l-61 329l-30 180h-3l-31 -184l-60 -325h-73l-101 697h82l37 -297l22 -200h3l32 198l55 299h73l53 -295l34 -202h3l22 204l35 293h83z"/>
<glyph glyph-name="X" horiz-adv-x="377" unicode="X" d="M285 -1l-97 276l-96 -276h-83l139 366l-128 331h83l85 -245l86 245h83l-131 -331l142 -366h-83z"/>
<glyph glyph-name="Y" horiz-adv-x="376" unicode="Y" d="M190 408l90 288h83l-136 -402v-295h-78v295l-136 402h83l51 -163l39 -125h4z"/>
<glyph glyph-name="Z" horiz-adv-x="321" unicode="Z" d="M302 624l-201 -552h200v-72h-281v72l203 552h-193v72h272v-72z"/>
<glyph glyph-name="bracketleft" horiz-adv-x="210" unicode="[" d="M63 -101v798h134v-49h-66v-700h66v-49h-134z"/>
<glyph glyph-name="backslash" horiz-adv-x="210" unicode="\" d="M136 -7l-125 709h60l125 -709h-60z"/>
<glyph glyph-name="bracketright" horiz-adv-x="210" unicode="]" d="M14 -102v50h66v700h-66v49h133v-799h-133z"/>
<glyph glyph-name="asciicircum" d="M165 693h53l153 -357h-64l-116 284l-115 -284h-64z" unicode="^"/>
<glyph glyph-name="underscore" horiz-adv-x="500" unicode="_" d="M0 -131v61h500v-61h-500z"/>
<glyph glyph-name="grave" horiz-adv-x="357" unicode="`" d="M166 556l-96 160l71 25l68 -168z"/>
<glyph glyph-name="a" horiz-adv-x="361" unicode="a" d="M240 228h-58q-31 0 -54.5 -18.5t-23.5 -66.5q0 -35 15 -53.5t47 -18.5q37 0 55.5 21t18.5 58v78zM239 43q-20 -27 -45.5 -38t-57.5 -11q-31 0 -52 12.5t-33.5 33t-18 46t-5.5 52.5q0 28 6 56t21 51t41 37.5t67 14.5h78v66q0 29 -13.5 46t-51.5 17q-20 0 -39 -12t-24 -39 l-75 21q11 49 48 77t94 28q67 0 104 -30.5t37 -106.5v-364h-80v43h-1z"/>
<glyph glyph-name="b" horiz-adv-x="368" unicode="b" d="M185 71q25 0 39 9.5t21.5 30.5t9.5 53.5t2 78.5q0 48 -1.5 81.5t-8 55.5t-21 32t-41.5 10q-28 0 -47.5 -21t-19.5 -50v-202q0 -34 17 -56t50 -22zM212 -6q-39 0 -57 11.5t-34 33.5l-2 -1v-38h-79v726h79v-279h2q15 27 44 39.5t52 12.5q41 0 64.5 -15.5t35.5 -42.5 t15.5 -63.5t3.5 -78.5q0 -43 -0.5 -89.5t-5.5 -94.5q-5 -41 -18.5 -65t-31.5 -36.5t-36.5 -16t-31.5 -3.5z"/>
<glyph glyph-name="c" horiz-adv-x="339" unicode="c" d="M173 -7q-31 0 -53.5 8t-38.5 21t-25.5 30.5t-14.5 35.5q-3 12 -5 30t-2.5 39.5t-1 43.5t-0.5 41q0 25 1 51.5t2.5 50.5t4.5 43.5t8 31.5q14 38 46 60t88 22q74 0 105.5 -39.5t31.5 -106.5l-82 -11q0 45 -15.5 65t-42.5 20q-20 0 -34.5 -9t-23.5 -32q-6 -15 -8 -59 t-3 -104q0 -33 1 -64.5t6 -48.5q7 -22 21.5 -34.5t40.5 -12.5q31 0 44.5 22t13.5 60l81 -14q-2 -68 -36.5 -104t-108.5 -36z"/>
<glyph glyph-name="d" horiz-adv-x="369" unicode="d" d="M180 71q33 0 50 22t17 56v196q0 35 -16 56t-51 21q-22 0 -35.5 -8.5t-21 -29.5t-10.5 -55.5t-3 -85.5q0 -46 1.5 -78.5t8.5 -53.5t21 -30.5t39 -9.5zM153 -6q-14 0 -32.5 3.5t-36 16t-32 36.5t-18.5 65q-3 30 -3.5 63t-0.5 62q0 54 2.5 101.5t15 82.5t38.5 55.5t73 20.5 q29 0 50 -10.5t35 -30.5h2v267h79v-726h-79v38l-2 1q-16 -22 -34 -33.5t-57 -11.5z"/>
<glyph glyph-name="e" horiz-adv-x="357" unicode="e" d="M242 289v42q0 19 -2.5 36.5t-9.5 30.5t-19.5 20.5t-32.5 7.5q-18 0 -33 -8.5t-24 -31.5q-5 -14 -7 -38t-3 -59h131zM180 66q29 0 43.5 19.5t16.5 54.5l81 -15q-4 -64 -39.5 -98t-107.5 -34q-32 0 -55 8.5t-39 22t-25.5 30.5t-13.5 34q-3 12 -5 30t-3 39.5t-1.5 43.5 t-0.5 41q0 25 0.5 50.5t2.5 48.5t5 42.5t8 32.5q14 39 46.5 62t88.5 23q74 0 107 -41t33 -113v-122h-212q0 -33 1.5 -65t6.5 -49q14 -45 62 -45z"/>
<glyph glyph-name="f" horiz-adv-x="246" unicode="f" d="M141 427v-427h-80v427h-50v66h50v121q0 56 30 84t81 28h46v-74h-32q-23 0 -34 -13.5t-11 -34.5v-111h77v-66h-77z"/>
<glyph glyph-name="g" horiz-adv-x="370" unicode="g" d="M183 423q-25 0 -39 -9.5t-21.5 -30.5t-9.5 -53.5t-2 -78.5q0 -48 1.5 -81.5t8 -55.5t21 -32t41.5 -10q28 0 47.5 21t19.5 50v202q0 34 -17 56t-50 22zM247 47q-15 -27 -44 -39.5t-52 -12.5q-41 0 -65 17.5t-36 47t-15.5 67.5t-3.5 80v83.5t5 88.5q4 41 18.5 65t32.5 36.5 t36.5 16t32.5 3.5q39 0 57 -11.5t34 -33.5l2 1v38h79v-531q0 -30 -6 -59t-22 -52t-44.5 -37t-74.5 -14q-66 0 -101 32.5t-37 91.5l79 15q1 -30 14.5 -48t48.5 -18q17 0 29.5 7t20 18.5t11 25.5t3.5 29v93h-2z"/>
<glyph glyph-name="h" horiz-adv-x="369" unicode="h" d="M117 445h3q35 54 101 54q55 0 82.5 -35.5t27.5 -92.5v-371h-80v350q0 32 -17 50.5t-50 18.5q-32 0 -50 -19t-18 -54v-346h-78v726h79v-281z"/>
<glyph glyph-name="i" horiz-adv-x="170" unicode="i" d="M44 0v494h80v-494h-80zM44 616v80h80v-80h-80z"/>
<glyph glyph-name="j" horiz-adv-x="176" unicode="j" d="M128 -69q0 -26 -5.5 -49.5t-18.5 -41.5t-35.5 -28.5t-56.5 -10.5h-30v75h14q34 0 43 15t9 56v547h80v-563zM48 617v80h80v-80h-80z"/>
<glyph glyph-name="k" horiz-adv-x="374" unicode="k" d="M123 257l138 237h88l-114 -191l135 -303h-85l-101 234l-63 -114v-120h-79v726h79v-469h2z"/>
<glyph glyph-name="l" horiz-adv-x="210" unicode="l" d="M49 726h80v-596q0 -34 8.5 -49.5t38.5 -15.5h12v-72h-16q-32 0 -55 5.5t-38 19t-22.5 37.5t-7.5 61v610z"/>
<glyph glyph-name="m" horiz-adv-x="586" unicode="m" d="M538 0h-79v350q0 32 -16 50.5t-45 18.5q-27 0 -46.5 -19t-19.5 -51v-349h-79v350q0 32 -16 50.5t-45 18.5t-47.5 -21t-18.5 -56v-342h-78v494h79v-49h3q17 26 38.5 40t53.5 14q35 0 58.5 -14.5t36.5 -40.5q23 25 49 40t62 15q55 0 82.5 -35.5t27.5 -92.5v-371z"/>
<glyph glyph-name="n" horiz-adv-x="366" unicode="n" d="M114 445h3q35 54 101 54q55 0 82.5 -35.5t27.5 -92.5v-371h-80v350q0 32 -15 50.5t-48 18.5q-32 0 -52 -21t-20 -56v-342h-78v494h79v-49z"/>
<glyph glyph-name="o" horiz-adv-x="362" unicode="o" d="M184 429q-20 0 -36.5 -9t-25.5 -32q-6 -14 -8 -58.5t-3 -104.5q0 -33 1 -64.5t6 -48.5q14 -46 66 -46q21 0 37 12.5t24 32.5q2 5 4 18.5t3.5 32t2 39.5t0.5 42t-0.5 41.5t-1 39.5t-2 34t-4.5 24q-14 47 -63 47zM186 501q42 0 68.5 -11t42.5 -30.5t23 -46t9 -57.5 q2 -29 3 -62t1 -59q0 -57 -6 -114q-5 -40 -20 -65t-36.5 -39t-46.5 -19t-49 -5q-31 0 -53.5 8t-38.5 21t-26 30.5t-15 35.5q-3 12 -5 30t-2.5 39.5t-1 43.5t-0.5 41q0 25 1 51.5t3 50.5t5 43.5t8 31.5q14 38 47 60t89 22z"/>
<glyph glyph-name="p" horiz-adv-x="364" unicode="p" d="M178 424q-33 0 -50 -22t-17 -56v-196q0 -35 16 -56t51 -21q22 0 35.5 8.5t21 29.5t10.5 55.5t3 85.5q0 46 -1.5 78.5t-8.5 53.5t-21 30.5t-39 9.5zM205 501q13 0 32 -3.5t36.5 -16t31.5 -36.5t19 -65q3 -30 3.5 -63t0.5 -62q0 -54 -2.5 -101.5t-15 -82.5t-38.5 -55.5 t-73 -20.5q-29 0 -50 10.5t-35 30.5h-2v-228h-79v687h79v-38l2 -1q16 22 34 33.5t57 11.5z"/>
<glyph glyph-name="q" horiz-adv-x="368" unicode="q" d="M183 423q-25 0 -39 -9.5t-21.5 -30.5t-9.5 -53.5t-2 -78.5q0 -48 1.5 -81.5t8 -55.5t21 -32t41.5 -10q28 0 47.5 21t19.5 50v202q0 34 -17 56t-50 22zM249 -194v241h-2q-15 -27 -44 -39.5t-52 -12.5q-41 0 -65 17.5t-36 47t-15.5 67.5t-3.5 80v83.5t5 88.5q4 41 18.5 65 t32.5 36.5t36.5 16t32.5 3.5q39 0 57 -11.5t34 -33.5l2 1v38h79v-688h-79z"/>
<glyph glyph-name="r" horiz-adv-x="257" unicode="r" d="M131 438q19 38 44 50.5t63 12.5h9v-95q-8 1 -14.5 1.5t-13.5 0.5q-43 0 -66.5 -20.5t-23.5 -72.5v-315h-79v494h79v-56h2z"/>
<glyph glyph-name="s" horiz-adv-x="339" unicode="s" d="M111 140q-1 -34 14 -54t44 -20q37 0 51 17t14 54q0 17 -3 29.5t-11 22t-22 17.5t-37 17q-38 14 -62.5 30t-38 34t-18.5 38t-5 42q0 59 34.5 96.5t103.5 37.5q74 0 105.5 -36.5t31.5 -99.5l-82 -11v8q0 33 -15 49.5t-41 16.5q-18 0 -30 -5.5t-18.5 -14.5t-9 -20t-2.5 -21 q0 -12 3 -22.5t12 -20t25 -18.5t43 -18q37 -13 59.5 -28.5t34.5 -34t15.5 -40t3.5 -47.5q0 -66 -32.5 -105.5t-104.5 -39.5t-106.5 34.5t-36.5 99.5z"/>
<glyph glyph-name="t" horiz-adv-x="231" unicode="t" d="M142 494h64v-61h-64v-298q0 -38 12.5 -49t35.5 -11h15v-75h-40q-32 0 -52 10t-31.5 26t-15.5 35.5t-4 38.5v323h-52v61h54v121h78v-121z"/>
<glyph glyph-name="u" horiz-adv-x="369" unicode="u" d="M250 50h-3q-35 -54 -101 -54q-55 0 -82.5 35.5t-27.5 92.5v371h80v-350q0 -73 64 -73q29 0 50 21t21 56v346h78v-494h-79v49z"/>
<glyph glyph-name="v" horiz-adv-x="337" unicode="v" d="M214 0h-91l-118 494h84l43 -204l36 -173h3l37 177l41 200h83z"/>
<glyph glyph-name="w" horiz-adv-x="550" unicode="w" d="M429 0h-81l-34 150l-38 187h-4l-36 -180l-35 -157h-80l-111 494h83l35 -179l35 -190h3l34 192l36 177h81l33 -172l36 -200h3l34 196l34 176h83z"/>
<glyph glyph-name="x" horiz-adv-x="332" unicode="x" d="M239 0l-71 171l-75 -171h-87l121 252l-117 242h89l69 -163l65 163h92l-114 -241l116 -253h-88z"/>
<glyph glyph-name="y" horiz-adv-x="336" unicode="y" d="M191 -83q-12 -50 -38 -80.5t-79 -30.5h-30v68h20q28 0 40.5 18.5t23.5 68.5l8 35l-131 498h84l42 -189l40 -171h3l37 173l41 187h81z"/>
<glyph glyph-name="z" horiz-adv-x="306" unicode="z" d="M283 424l-174 -349h174v-75h-260v75l174 349h-161v69h247v-69z"/>
<glyph glyph-name="braceleft" horiz-adv-x="230" unicode="{" d="M170 -103q-37 0 -62 29t-25 78v140q0 53 -13 88t-51 40v51q19 3 31 14.5t19.5 29t10.5 40t3 46.5v137q0 50 25 79t62 29h44v-54h-19q-13 0 -21 -8t-13 -20.5t-7 -28t-2 -30.5v-126q0 -32 -6.5 -55.5t-16.5 -39.5t-20.5 -24.5t-17.5 -11.5v-3q7 -3 17.5 -11.5t20.5 -24.5 t16.5 -39t6.5 -54v-131q0 -15 2 -30.5t7 -28t13 -20.5t21 -8h19v-53h-44z"/>
<glyph glyph-name="bar" horiz-adv-x="210" unicode="|" d="M75 -162v878h63v-878h-63z"/>
<glyph glyph-name="braceright" horiz-adv-x="230" unicode="}" d="M20 -103v53h19q13 0 21 8t13 20.5t7 28t2 30.5v131q0 31 6.5 54t16.5 39t20 24.5t18 11.5v3q-8 3 -18 11.5t-20 24.5t-16.5 39.5t-6.5 55.5v126q0 15 -2 30.5t-7 28t-13 20.5t-21 8h-19v54h44q37 0 62 -29t25 -79v-137q0 -24 3 -46.5t10.5 -40t19.5 -29t31 -14.5v-51 q-38 -5 -51 -40t-13 -88v-140q0 -49 -25 -78t-62 -29h-44z"/>
<glyph glyph-name="asciitilde" d="M112 299q24 0 44 -7t38.5 -15.5t36 -15.5t36.5 -7t28.5 9t27.5 30l45 -27q-18 -33 -42.5 -57t-59.5 -24q-19 0 -37.5 7.5t-38 16.5t-39 16.5t-40.5 7.5q-19 0 -30 -8.5t-30 -30.5l-41 29q17 30 42 53t60 23z" unicode="~"/>
<glyph glyph-name="exclamdown" horiz-adv-x="228" unicode="¡" d="M154 501v-80h-80v80h80zM81 323h66l7 -519h-80z"/>
<glyph glyph-name="cent" d="M131 112q5 -17 14 -28t25 -16v359q-22 -7 -35 -39q-11 -25 -11 -148q0 -45 1 -78t6 -50zM170 -117v111q-53 5 -79.5 32t-35.5 62q-3 12 -5 30t-2.5 39.5t-1 43.5t-0.5 41q0 25 1 51.5t2.5 50.5t4.5 43.5t8 31.5q12 33 38 54t70 26v102h35v-100q69 -3 98.5 -42t29.5 -104 l-82 -11q0 39 -12 59t-34 25v-362q24 4 35 25t11 56l81 -14q-2 -64 -32.5 -99t-94.5 -40v-111h-35z" unicode="¢"/>
<glyph glyph-name="sterling" d="M192 702q72 0 114.5 -39t42.5 -109v-7l-79 -19q1 46 -17.5 73.5t-59.5 27.5q-31 0 -50.5 -21.5t-19.5 -55.5q0 -18 5 -36.5t11.5 -40t13.5 -48t12 -60.5h95v-65h-90v-17q0 -66 -14.5 -115t-37.5 -99h219v-71h-307v71q13 25 24.5 49t19.5 49t12.5 52t4.5 60q0 5 -0.5 10.5 t-0.5 10.5h-58v65h53q-5 31 -12 53.5t-14.5 41.5t-12.5 38.5t-5 45.5q0 71 40.5 113.5t110.5 42.5z" unicode="£"/>
<glyph glyph-name="currency" horiz-adv-x="492" unicode="¤" d="M51 467q11 11 23.5 24t23.5 24l54 -56q45 30 94 30q26 0 48.5 -7.5t45.5 -22.5l54 57l13.5 -13.5l10.5 -10.5t10.5 -11t13.5 -14l-56 -54q30 -45 30 -94q0 -47 -30 -92q13 -12 28 -27.5t28 -26.5q-8 -8 -13.5 -14t-10.5 -11t-10.5 -11t-13.5 -13l-54 56q-42 -29 -94 -29 q-50 0 -94 29l-55 -56l-47 49l56 54q-29 43 -29 92q0 50 29 94zM245 422q-45 0 -73 -31.5t-28 -75.5q0 -20 8.5 -37.5t23 -30.5t32.5 -21t37 -8q21 0 39.5 8t32.5 22t22.5 32t8.5 39q0 44 -29.5 73.5t-73.5 29.5z"/>
<glyph glyph-name="yen" d="M238 333h103v-49h-115v-61h115v-50h-115v-174h-72v174h-113v50h113v61h-113v49h101l-118 363h77l87 -299h3l88 299h77z" unicode="¥"/>
<glyph glyph-name="brokenbar" horiz-adv-x="210" unicode="¦" d="M138 257v-419h-63v419h63zM75 294v422h63v-422h-63z"/>
<glyph glyph-name="section" horiz-adv-x="423" unicode="§" d="M311 289q0 18 -7.5 33t-24 29.5t-43 29.5t-64.5 33q-23 -5 -36 -22t-13 -40q0 -20 14.5 -38.5t36 -35t46.5 -30.5t46 -25q23 8 34 26.5t11 39.5zM386 293q0 -38 -17 -67.5t-48 -49.5q20 -24 31 -50t11 -55q0 -67 -45.5 -106t-123.5 -39q-42 0 -81.5 17t-66.5 43l44 49 q29 -26 52.5 -35.5t53.5 -9.5q45 0 67.5 22t22.5 55q0 32 -27 60.5t-83 59.5q-33 18 -57.5 34.5t-40 34.5t-23.5 39.5t-8 50.5q0 35 19 65.5t50 49.5q-23 22 -34.5 45.5t-11.5 55.5q0 30 11.5 56t31.5 44.5t48 29t61 10.5q47 0 84.5 -16t66.5 -43l-49 -50q-29 26 -53.5 35 t-48.5 9q-35 0 -55 -20.5t-20 -48.5q0 -33 24.5 -55.5t66.5 -47.5q30 -18 57 -35.5t47 -38t32 -44.5t12 -54z"/>
<glyph glyph-name="dieresis" horiz-adv-x="362" unicode="¨" d="M71 589v80h69v-80h-69zM225 589v80h68v-80h-68z"/>
<glyph glyph-name="copyright" horiz-adv-x="703" unicode="©" d="M353 542q23 0 44 -7t36.5 -21t23.5 -33t8 -42v-6l-55 -13q1 32 -14.5 51t-44.5 19q-25 0 -40.5 -16.5t-15.5 -37.5v-209q0 -22 16 -37t40 -15q29 0 43 16.5t16 52.5l55 -10q0 -59 -32.5 -85.5t-79.5 -26.5q-23 0 -44 7t-36.5 21t-24.5 35t-9 49v197q0 53 32.5 82t81.5 29 zM349 642q-63 0 -109 -23.5t-76.5 -64.5t-45.5 -96t-15 -117t16 -116t47.5 -94.5t77.5 -64t105 -23.5q61 0 107 23.5t77 64t46 94.5t15 116t-16 117t-46.5 96t-76.5 64.5t-106 23.5zM349 -8q-75 0 -131.5 26.5t-94.5 73.5t-57.5 110.5t-19.5 138.5t19.5 139.5t57.5 111.5 t95 73.5t131 26.5q73 0 129 -26.5t94.5 -73.5t58.5 -111.5t20 -139.5t-20 -138.5t-58.5 -110.5t-94.5 -73.5t-129 -26.5z"/>
<glyph glyph-name="ordfeminine" horiz-adv-x="249" unicode="ª" d="M159 424h-33q-20 0 -34 -10.5t-14 -37.5q0 -41 37 -41q23 0 33.5 12.5t10.5 33.5v43zM20 534q8 35 35 56t68 21q48 0 75 -20.5t27 -73.5v-238h-66v22q-14 -14 -30 -20t-36 -6q-23 0 -38 8.5t-24 22.5t-13 31.5t-4 35.5t4 37t15 34.5t30 25t48 9.5h48v38q0 17 -7.5 26 t-30.5 9q-12 0 -24 -8t-16 -27z"/>
<glyph glyph-name="guillemotleft" horiz-adv-x="434" unicode="«" d="M151 46l-107 186l107 186h78l-106 -186l106 -186h-78zM313 46l-107 186l107 186h78l-105 -186l105 -186h-78z"/>
<glyph glyph-name="logicalnot" d="M370 100h-59v164h-302v60h362z" unicode="¬"/>
<glyph glyph-name="sfthyphen" horiz-adv-x="346" unicode="­" d="M49 253v67h259v-67h-259z"/>
<glyph glyph-name="registered" horiz-adv-x="486" unicode="®" d="M272 540q0 20 -7.5 31.5t-28.5 11.5h-21v-84h24q19 0 26 11.5t7 29.5zM276 354l-37 108h-24v-108h-43v267h70q73 0 73 -81q0 -23 -7.5 -41.5t-27.5 -29.5q10 -29 21 -57.5t22 -57.5h-47zM243 676q-39 0 -67 -14.5t-47 -39.5t-28 -58.5t-9 -71.5q0 -40 10 -73.5t29 -57.5 t47 -37.5t65 -13.5q39 0 67 14t46 38.5t26.5 58t8.5 71.5t-9.5 71.5t-28 58.5t-46.5 39.5t-64 14.5zM243 271q-47 0 -83 16.5t-60 46t-36.5 69.5t-12.5 87q0 48 12.5 88.5t36.5 70t60 46t83 16.5q46 0 81.5 -16.5t59.5 -46t36.5 -70t12.5 -88.5q0 -47 -12.5 -87t-36.5 -69.5 t-59.5 -46t-81.5 -16.5z"/>
<glyph glyph-name="macron" horiz-adv-x="361" unicode="¯" d="M71 588v67h239v-67h-239z"/>
<glyph glyph-name="degree" horiz-adv-x="281" unicode="°" d="M144 657q-23 0 -39.5 -16.5t-16.5 -40.5t16.5 -40.5t39.5 -16.5t39.5 16.5t16.5 40.5t-16.5 40.5t-39.5 16.5zM245 600q0 -21 -8 -39.5t-21.5 -32.5t-32 -22t-39.5 -8t-39.5 8t-32 22t-21.5 32.5t-8 39.5t8 39.5t21.5 32.5t32 22t39.5 8t39.5 -8t32 -22t21.5 -32.5 t8 -39.5z"/>
<glyph glyph-name="plusminus" d="M220 264v-164h-59v164h-152v60h152v164h59v-164h152v-60h-152zM9 -1v60h363v-60h-363z" unicode="±"/>
<glyph glyph-name="twosuperior" horiz-adv-x="247" unicode="²" d="M126 733q-38 0 -38 -71l-62 10q-1 53 22.5 84.5t78.5 31.5q51 0 74 -25.5t23 -68.5q0 -25 -6.5 -49.5t-20.5 -48.5q-25 -45 -48 -85t-49 -85h121v-57h-192v46l116 206q10 17 13 35.5t3 35.5q0 16 -6 28.5t-29 12.5z"/>
<glyph glyph-name="threesuperior" horiz-adv-x="247" unicode="³" d="M221 458q0 -50 -26.5 -71.5t-67.5 -21.5q-29 0 -48.5 8t-31 22t-15.5 30t-4 31q0 7 1 14l63 8q-1 -7 -1 -14q0 -18 7.5 -32t29.5 -14q15 0 24 9.5t9 29.5v58q0 42 -44 42h-26v51h27q43 0 43 38v50q0 14 -7 25.5t-27 11.5q-22 0 -31 -16t-9 -43l-63 9q2 45 27.5 74.5 t78.5 29.5q27 0 44.5 -7t28 -19t14.5 -28t4 -34v-38q0 -23 -3 -41.5t-29 -33.5q23 -11 27.5 -28.5t4.5 -46.5v-53z"/>
<glyph glyph-name="acute" horiz-adv-x="357" unicode="´" d="M136 573l68 168l71 -25l-96 -160z"/>
<glyph glyph-name="mu" horiz-adv-x="386" unicode="µ" d="M261 49h-3q-12 -25 -37 -38t-51 -13q-24 0 -44 11v-202h-79v687h80v-350q0 -32 17 -50.5t50 -18.5q32 0 50 19t18 54v345h78v-493h-79v49z"/>
<glyph glyph-name="mu" horiz-adv-x="386" unicode="μ" d="M261 49h-3q-12 -25 -37 -38t-51 -13q-24 0 -44 11v-202h-79v687h80v-350q0 -32 17 -50.5t50 -18.5q32 0 50 19t18 54v345h78v-493h-79v49z"/>
<glyph glyph-name="paragraph" horiz-adv-x="399" unicode="¶" d="M131 324h-11q-51 0 -79.5 51t-28.5 133q0 38 6.5 73.5t21 63t38.5 44t59 16.5h238v-81h-45v-706h-68v706h-62v-706h-69v406z"/>
<glyph glyph-name="periodcentered" horiz-adv-x="193" unicode="·" d="M52 221v91h87v-91h-87z"/>
<glyph glyph-name="cedilla" horiz-adv-x="431" unicode="¸" d="M201 17l-19 -72q23 -2 38 -9.5t23.5 -18.5t12 -23.5t3.5 -23.5q0 -12 -4.5 -25t-14 -24t-25.5 -18t-38 -7q-8 0 -33 2t-47 13l13 36q17 -8 31 -10t26 -2q15 0 26.5 8.5t11.5 25.5q0 19 -10.5 28.5t-32.5 9.5h-9l-16 14l27 98z"/>
<glyph glyph-name="onesuperior" horiz-adv-x="210" unicode="¹" d="M104 369v353q-15 -11 -32.5 -24t-32.5 -24v63l66 48h60v-416h-61z"/>
<glyph glyph-name="ordmasculine" horiz-adv-x="249" unicode="º" d="M127 553q-12 0 -22 -4.5t-15 -17.5q-3 -10 -5 -38t-2 -65v-40.5t4 -30.5q6 -26 40 -26q16 0 25 7.5t11 14.5q5 11 6.5 35.5t1.5 51.5q0 26 -1 51t-5 38q-8 24 -38 24zM128 611q44 0 66 -16.5t30 -39.5q3 -9 5 -24t3 -32.5t1.5 -35t0.5 -32.5q0 -19 -1 -35t-3 -34 q-3 -27 -13.5 -44t-25 -27t-32 -13.5t-34.5 -3.5q-24 0 -42 6t-30 15.5t-19 21t-10 22.5q-4 15 -5 45t-1 55q0 33 3 66.5t9 48.5q11 28 34.5 42.5t63.5 14.5z"/>
<glyph glyph-name="guillemotright" horiz-adv-x="434" unicode="»" d="M207 46l106 186l-106 186h78l107 -186l-107 -186h-78zM45 46l105 186l-105 186h78l107 -186l-107 -186h-78z"/>
<glyph glyph-name="onequarter" horiz-adv-x="610" unicode="¼" d="M531 62v-62h-61v62h-132v51l94 303h62l-93 -300h69v113h61v-113h33v-54h-33zM160 -17h-51l314 731h51zM111 279v353q-15 -11 -32.5 -24t-32.5 -24v63l66 48h60v-416h-61z"/>
<glyph glyph-name="onehalf" horiz-adv-x="610" unicode="½" d="M462 364q-38 0 -38 -71l-62 10q-1 53 22.5 84.5t78.5 31.5q51 0 74 -25.5t23 -68.5q0 -25 -6.5 -49.5t-20.5 -48.5q-25 -45 -48 -85t-49 -85h121v-57h-192v46l116 206q10 17 13 35.5t3 35.5q0 16 -6 28.5t-29 12.5zM165 -17h-51l314 731h51zM115 279v353 q-15 -11 -32.5 -24t-32.5 -24v63l66 48h60v-416h-61z"/>
<glyph glyph-name="threequarters" horiz-adv-x="610" unicode="¾" d="M549 62v-62h-61v62h-132v51l94 303h62l-93 -300h69v113h61v-113h33v-54h-33zM177 -17h-51l314 731h51zM224 368q0 -50 -26.5 -71.5t-67.5 -21.5q-29 0 -48.5 8t-31 22t-15.5 30t-4 31q0 7 1 14l63 8q-1 -7 -1 -14q0 -18 7.5 -32t29.5 -14q15 0 24 9.5t9 29.5v58 q0 42 -44 42h-26v51h27q43 0 43 38v50q0 14 -7 25.5t-27 11.5q-22 0 -31 -16t-9 -43l-63 9q2 45 27.5 74.5t78.5 29.5q27 0 44.5 -7t28 -19t14.5 -28t4 -34v-38q0 -23 -3 -41.5t-29 -33.5q23 -11 27.5 -28.5t4.5 -46.5v-53z"/>
<glyph glyph-name="questiondown" horiz-adv-x="371" unicode="¿" d="M217 499v-80h-78v80h78zM29 -34q0 26 2 44.5t7 34.5t13.5 32.5t21.5 38.5l46 79q8 13 13 27t6 31v69h78v-83q0 -20 -6 -39t-17 -36q-27 -44 -43 -69.5t-25 -44.5t-12 -36t-3 -43q0 -20 3 -38t11.5 -31.5t23.5 -21.5t39 -8q32 0 54 22t22 73l80 -9q0 -41 -12.5 -71.5 t-33.5 -50.5t-49.5 -29.5t-60.5 -9.5q-84 0 -121 44t-37 125z"/>
<glyph glyph-name="Agrave" horiz-adv-x="395" unicode="À" d="M203 719l-162 92l49 57l142 -113zM195 554l-29 -162l-33 -163h128l-34 165l-28 160h-4zM307 0l-32 155h-155l-31 -155h-76l148 696h74l150 -696h-78z"/>
<glyph glyph-name="Aacute" horiz-adv-x="395" unicode="Á" d="M162 753l142 113l49 -57l-162 -92zM195 554l-29 -162l-33 -163h128l-34 165l-28 160h-4zM307 0l-32 155h-155l-31 -155h-76l148 696h74l150 -696h-78z"/>
<glyph glyph-name="Acircumflex" horiz-adv-x="395" unicode="Â" d="M197 801l-116 -74l-34 28l130 119h47l123 -117l-34 -30zM195 554l-29 -162l-33 -163h128l-34 165l-28 160h-4zM307 0l-32 155h-155l-31 -155h-76l148 696h74l150 -696h-78z"/>
<glyph glyph-name="Atilde" horiz-adv-x="395" unicode="Ã" d="M342 823q-19 -35 -43 -55t-46 -20q-15 0 -29.5 6t-28 12.5t-25.5 12.5t-24 6q-28 0 -53 -36l-40 25q6 13 15.5 26t20.5 24t24 18t27 7q15 0 28 -6t26.5 -13t27.5 -13t29 -6q14 0 25.5 9.5t26.5 29.5zM195 554l-29 -162l-33 -163h128l-34 165l-28 160h-4zM307 0l-32 155 h-155l-31 -155h-76l148 696h74l150 -696h-78z"/>
<glyph glyph-name="Adieresis" horiz-adv-x="395" unicode="Ä" d="M86 752v80h69v-80h-69zM240 752v80h68v-80h-68zM195 554l-29 -162l-33 -163h128l-34 165l-28 160h-4zM307 0l-32 155h-155l-31 -155h-76l148 696h74l150 -696h-78z"/>
<glyph glyph-name="Aring" horiz-adv-x="395" unicode="Å" d="M198 846q-20 0 -34 -13.5t-14 -33.5t14 -34t34 -14t33.5 14t13.5 34t-13.5 33.5t-33.5 13.5zM198 710q-19 0 -35.5 7t-29 19t-19.5 28.5t-7 35.5t7 35.5t19.5 28.5t29 19t35.5 7q38 0 64 -26t26 -64t-26 -64t-64 -26zM195 554l-29 -162l-33 -163h128l-34 165l-28 160h-4z M307 0l-32 155h-155l-31 -155h-76l148 696h74l150 -696h-78z"/>
<glyph glyph-name="AE" horiz-adv-x="624" unicode="Æ" d="M172 256h128v367h-3zM300 182h-154l-62 -182h-80l250 696h344v-73h-219v-233h190v-73h-190v-244h219v-73h-298v182z"/>
<glyph glyph-name="Ccedilla" horiz-adv-x="384" unicode="Ç" d="M204 702q81 0 117.5 -44t36.5 -115l-79 -14q1 46 -16.5 73t-59.5 27q-24 0 -39 -11t-23.5 -27.5t-11.5 -36.5t-3 -38v-351q0 -15 3 -32.5t11.5 -32t23 -24.5t38.5 -10q39 0 57.5 24t19.5 76l81 -14q-2 -69 -34.5 -110t-97.5 -47l-13 -50q23 -2 38 -9.5t23.5 -18.5 t12 -23.5t3.5 -23.5q0 -12 -4.5 -25t-14 -24t-25.5 -18t-38 -7q-8 0 -33 2t-47 13l13 36q17 -8 31 -10t26 -2q15 0 26.5 8.5t11.5 25.5q0 19 -10.5 28.5t-32.5 9.5h-9l-16 14l20 73q-72 4 -107.5 47.5t-35.5 119.5v344q0 37 6.5 72.5t23.5 63t48 44.5t79 17z"/>
<glyph glyph-name="Egrave" horiz-adv-x="366" unicode="È" d="M219 719l-162 92l49 57l142 -113zM53 0v696h298v-73h-219v-233h190v-73h-190v-245h219v-72h-298z"/>
<glyph glyph-name="Eacute" horiz-adv-x="366" unicode="É" d="M134 753l142 113l49 -57l-162 -92zM53 0v696h298v-73h-219v-233h190v-73h-190v-245h219v-72h-298z"/>
<glyph glyph-name="Ecircumflex" horiz-adv-x="366" unicode="Ê" d="M199 801l-116 -74l-34 28l130 119h47l123 -117l-34 -30zM53 0v696h298v-73h-219v-233h190v-73h-190v-245h219v-72h-298z"/>
<glyph glyph-name="Edieresis" horiz-adv-x="366" unicode="Ë" d="M91 752v80h69v-80h-69zM245 752v80h68v-80h-68zM53 0v696h298v-73h-219v-233h190v-73h-190v-245h219v-72h-298z"/>
<glyph glyph-name="Igrave" horiz-adv-x="192" unicode="Ì" d="M113 719l-162 92l49 57l142 -113zM56 0v696h80v-696h-80z"/>
<glyph glyph-name="Iacute" horiz-adv-x="192" unicode="Í" d="M53 753l142 113l49 -57l-162 -92zM56 0v696h80v-696h-80z"/>
<glyph glyph-name="Icircumflex" horiz-adv-x="192" unicode="Î" d="M96 801l-116 -74l-34 28l130 119h47l123 -117l-34 -30zM56 0v696h80v-696h-80z"/>
<glyph glyph-name="Idieresis" horiz-adv-x="192" unicode="Ï" d="M-15 752v80h69v-80h-69zM139 752v80h68v-80h-68zM56 0v696h80v-696h-80z"/>
<glyph glyph-name="Eth" horiz-adv-x="423" unicode="Ð" d="M294 522q0 47 -20 74t-71 27h-71v-232h69v-60h-69v-259h71q49 0 70 27t21 77v346zM6 391h47v305h162q62 0 98 -21.5t50 -72.5q11 -42 11 -104v-149v-145.5t-13 -100.5q-19 -59 -60.5 -81t-94.5 -22h-153v331h-47v60z"/>
<glyph glyph-name="Ntilde" horiz-adv-x="450" unicode="Ñ" d="M371 814q-19 -35 -43 -55t-46 -20q-15 0 -29.5 6t-28 12.5t-25.5 12.5t-24 6q-28 0 -53 -36l-40 25q6 13 15.5 26t20.5 24t24 18t27 7q15 0 28 -6t26.5 -13t27.5 -13t29 -6q14 0 25.5 9.5t26.5 29.5zM129 476v-476h-79v696h75l144 -353l48 -127l4 1v479h79v-696h-74 l-144 350l-50 126h-3z"/>
<glyph glyph-name="Ograve" horiz-adv-x="414" unicode="Ò" d="M241 719l-162 92l49 57l142 -113zM288 522q0 18 -2.5 37t-10.5 34.5t-24.5 26t-43.5 10.5q-30 0 -46 -14.5t-24 -34.5t-9.5 -42.5t-1.5 -37.5v-338q0 -15 3 -32t12 -32t24.5 -24.5t40.5 -9.5t41 10t25 25.5t12.5 35.5t3.5 41v345zM367 187q0 -93 -36.5 -143.5 t-124.5 -50.5q-86 0 -122.5 47t-36.5 124v343q0 37 6.5 72t24 62.5t48.5 44t81 16.5q52 0 83.5 -14.5t48.5 -40.5t22.5 -61t5.5 -77v-322z"/>
<glyph glyph-name="Oacute" horiz-adv-x="414" unicode="Ó" d="M162 753l142 113l49 -57l-162 -92zM288 522q0 18 -2.5 37t-10.5 34.5t-24.5 26t-43.5 10.5q-30 0 -46 -14.5t-24 -34.5t-9.5 -42.5t-1.5 -37.5v-338q0 -15 3 -32t12 -32t24.5 -24.5t40.5 -9.5t41 10t25 25.5t12.5 35.5t3.5 41v345zM367 187q0 -93 -36.5 -143.5 t-124.5 -50.5q-86 0 -122.5 47t-36.5 124v343q0 37 6.5 72t24 62.5t48.5 44t81 16.5q52 0 83.5 -14.5t48.5 -40.5t22.5 -61t5.5 -77v-322z"/>
<glyph glyph-name="Ocircumflex" horiz-adv-x="414" unicode="Ô" d="M208 801l-116 -74l-34 28l130 119h47l123 -117l-34 -30zM288 522q0 18 -2.5 37t-10.5 34.5t-24.5 26t-43.5 10.5q-30 0 -46 -14.5t-24 -34.5t-9.5 -42.5t-1.5 -37.5v-338q0 -15 3 -32t12 -32t24.5 -24.5t40.5 -9.5t41 10t25 25.5t12.5 35.5t3.5 41v345zM367 187 q0 -93 -36.5 -143.5t-124.5 -50.5q-86 0 -122.5 47t-36.5 124v343q0 37 6.5 72t24 62.5t48.5 44t81 16.5q52 0 83.5 -14.5t48.5 -40.5t22.5 -61t5.5 -77v-322z"/>
<glyph glyph-name="Otilde" horiz-adv-x="414" unicode="Õ" d="M353 823q-19 -35 -43 -55t-46 -20q-15 0 -29.5 6t-28 12.5t-25.5 12.5t-24 6q-28 0 -53 -36l-40 25q6 13 15.5 26t20.5 24t24 18t27 7q15 0 28 -6t26.5 -13t27.5 -13t29 -6q14 0 25.5 9.5t26.5 29.5zM288 522q0 18 -2.5 37t-10.5 34.5t-24.5 26t-43.5 10.5 q-30 0 -46 -14.5t-24 -34.5t-9.5 -42.5t-1.5 -37.5v-338q0 -15 3 -32t12 -32t24.5 -24.5t40.5 -9.5t41 10t25 25.5t12.5 35.5t3.5 41v345zM367 187q0 -93 -36.5 -143.5t-124.5 -50.5q-86 0 -122.5 47t-36.5 124v343q0 37 6.5 72t24 62.5t48.5 44t81 16.5q52 0 83.5 -14.5 t48.5 -40.5t22.5 -61t5.5 -77v-322z"/>
<glyph glyph-name="Odieresis" horiz-adv-x="414" unicode="Ö" d="M96 752v80h69v-80h-69zM250 752v80h68v-80h-68zM288 522q0 18 -2.5 37t-10.5 34.5t-24.5 26t-43.5 10.5q-30 0 -46 -14.5t-24 -34.5t-9.5 -42.5t-1.5 -37.5v-338q0 -15 3 -32t12 -32t24.5 -24.5t40.5 -9.5t41 10t25 25.5t12.5 35.5t3.5 41v345zM367 187 q0 -93 -36.5 -143.5t-124.5 -50.5q-86 0 -122.5 47t-36.5 124v343q0 37 6.5 72t24 62.5t48.5 44t81 16.5q52 0 83.5 -14.5t48.5 -40.5t22.5 -61t5.5 -77v-322z"/>
<glyph glyph-name="multiply" d="M190 252l-137 -137l-42 42l138 137l-129 129l42 42l129 -129l137 138l42 -42l-137 -137l128 -129l-42 -42z" unicode="×"/>
<glyph glyph-name="Oslash" horiz-adv-x="414" unicode="Ø" d="M288 472l-156 -353q7 -22 24 -38t50 -16q25 0 41 10t25 25.5t12.5 35.5t3.5 41v295zM126 218l156 357q-7 23 -23.5 39t-51.5 16q-30 0 -46 -14.5t-24 -34.5t-9.5 -42.5t-1.5 -37.5v-283zM367 187q0 -93 -36.5 -143.5t-124.5 -50.5q-74 0 -113 37l-17 -39l-40 22l27 61 q-16 38 -16 90v343q0 37 6.5 72t24 62.5t48.5 44t81 16.5q41 0 69 -9t46 -26l16 37l43 -21l-28 -64q8 -23 11 -50.5t3 -59.5v-322z"/>
<glyph glyph-name="Ugrave" horiz-adv-x="420" unicode="Ù" d="M231 719l-162 92l49 57l142 -113zM370 695v-508q0 -93 -36 -143.5t-124 -50.5q-86 0 -123 47t-37 124v531h79v-532q0 -15 3 -32t12 -32t24.5 -24.5t40.5 -9.5t41 10t25 25.5t12.5 35.5t3.5 41v518h79z"/>
<glyph glyph-name="Uacute" horiz-adv-x="420" unicode="Ú" d="M170 753l142 113l49 -57l-162 -92zM370 695v-508q0 -93 -36 -143.5t-124 -50.5q-86 0 -123 47t-37 124v531h79v-532q0 -15 3 -32t12 -32t24.5 -24.5t40.5 -9.5t41 10t25 25.5t12.5 35.5t3.5 41v518h79z"/>
<glyph glyph-name="Ucircumflex" horiz-adv-x="420" unicode="Û" d="M210 801l-116 -74l-34 28l130 119h47l123 -117l-34 -30zM370 695v-508q0 -93 -36 -143.5t-124 -50.5q-86 0 -123 47t-37 124v531h79v-532q0 -15 3 -32t12 -32t24.5 -24.5t40.5 -9.5t41 10t25 25.5t12.5 35.5t3.5 41v518h79z"/>
<glyph glyph-name="Udieresis" horiz-adv-x="420" unicode="Ü" d="M102 752v80h69v-80h-69zM256 752v80h68v-80h-68zM370 695v-508q0 -93 -36 -143.5t-124 -50.5q-86 0 -123 47t-37 124v531h79v-532q0 -15 3 -32t12 -32t24.5 -24.5t40.5 -9.5t41 10t25 25.5t12.5 35.5t3.5 41v518h79z"/>
<glyph glyph-name="Yacute" horiz-adv-x="376" unicode="Ý" d="M153 753l142 113l49 -57l-162 -92zM190 408l90 288h83l-136 -402v-295h-78v295l-136 402h83l51 -163l39 -125h4z"/>
<glyph glyph-name="Thorn" horiz-adv-x="395" unicode="Þ" d="M132 219h54q36 0 57.5 11t33 29t14.5 42t3 51q0 28 -3.5 52.5t-14.5 43t-32 29t-56 10.5h-56v-268zM52 696h78v-135h65q53 0 87 -14t54 -40.5t27.5 -65t7.5 -87.5q0 -44 -7 -82t-27 -66.5t-55.5 -44.5t-92.5 -16h-57v-145h-79z"/>
<glyph glyph-name="germandbls" horiz-adv-x="375" unicode="ß" d="M270 428q31 -11 47 -36.5t16 -55.5v-198q0 -26 -5.5 -51.5t-17.5 -46.5t-32.5 -34t-50.5 -13h-42v64h4q37 0 50.5 17.5t13.5 51.5v198q0 32 -15.5 49t-39.5 17h-13v69h8q28 0 39.5 19.5t11.5 47.5v60q0 32 -18 48.5t-44 16.5q-29 0 -46.5 -19t-17.5 -46v-586h-78v581 q0 66 40 105.5t103 39.5q61 0 101 -33.5t40 -101.5v-59q0 -35 -12 -61t-42 -40v-3z"/>
<glyph glyph-name="agrave" horiz-adv-x="361" unicode="à" d="M166 556l-96 160l71 25l68 -168zM240 228h-58q-31 0 -54.5 -18.5t-23.5 -66.5q0 -35 15 -53.5t47 -18.5q37 0 55.5 21t18.5 58v78zM239 43q-20 -27 -45.5 -38t-57.5 -11q-31 0 -52 12.5t-33.5 33t-18 46t-5.5 52.5q0 28 6 56t21 51t41 37.5t67 14.5h78v66q0 29 -13.5 46 t-51.5 17q-20 0 -39 -12t-24 -39l-75 21q11 49 48 77t94 28q67 0 104 -30.5t37 -106.5v-364h-80v43h-1z"/>
<glyph glyph-name="aacute" horiz-adv-x="361" unicode="á" d="M136 573l68 168l71 -25l-96 -160zM240 228h-58q-31 0 -54.5 -18.5t-23.5 -66.5q0 -35 15 -53.5t47 -18.5q37 0 55.5 21t18.5 58v78zM239 43q-20 -27 -45.5 -38t-57.5 -11q-31 0 -52 12.5t-33.5 33t-18 46t-5.5 52.5q0 28 6 56t21 51t41 37.5t67 14.5h78v66q0 29 -13.5 46 t-51.5 17q-20 0 -39 -12t-24 -39l-75 21q11 49 48 77t94 28q67 0 104 -30.5t37 -106.5v-364h-80v43h-1z"/>
<glyph glyph-name="acircumflex" horiz-adv-x="361" unicode="â" d="M180 646l-116 -94l-34 28l130 139h47l123 -137l-34 -30zM240 228h-58q-31 0 -54.5 -18.5t-23.5 -66.5q0 -35 15 -53.5t47 -18.5q37 0 55.5 21t18.5 58v78zM239 43q-20 -27 -45.5 -38t-57.5 -11q-31 0 -52 12.5t-33.5 33t-18 46t-5.5 52.5q0 28 6 56t21 51t41 37.5 t67 14.5h78v66q0 29 -13.5 46t-51.5 17q-20 0 -39 -12t-24 -39l-75 21q11 49 48 77t94 28q67 0 104 -30.5t37 -106.5v-364h-80v43h-1z"/>
<glyph glyph-name="atilde" horiz-adv-x="361" unicode="ã" d="M325 653q-19 -35 -43 -55t-46 -20q-15 0 -29.5 6t-28 12.5t-25.5 12.5t-24 6q-28 0 -53 -36l-40 25q6 13 15.5 26t20.5 24t24 18t27 7q15 0 28 -6t26.5 -13t27.5 -13t29 -6q14 0 25.5 9.5t26.5 29.5zM240 228h-58q-31 0 -54.5 -18.5t-23.5 -66.5q0 -35 15 -53.5t47 -18.5 q37 0 55.5 21t18.5 58v78zM239 43q-20 -27 -45.5 -38t-57.5 -11q-31 0 -52 12.5t-33.5 33t-18 46t-5.5 52.5q0 28 6 56t21 51t41 37.5t67 14.5h78v66q0 29 -13.5 46t-51.5 17q-20 0 -39 -12t-24 -39l-75 21q11 49 48 77t94 28q67 0 104 -30.5t37 -106.5v-364h-80v43h-1z"/>
<glyph glyph-name="adieresis" horiz-adv-x="361" unicode="ä" d="M71 589v80h69v-80h-69zM225 589v80h68v-80h-68zM240 228h-58q-31 0 -54.5 -18.5t-23.5 -66.5q0 -35 15 -53.5t47 -18.5q37 0 55.5 21t18.5 58v78zM239 43q-20 -27 -45.5 -38t-57.5 -11q-31 0 -52 12.5t-33.5 33t-18 46t-5.5 52.5q0 28 6 56t21 51t41 37.5t67 14.5h78v66 q0 29 -13.5 46t-51.5 17q-20 0 -39 -12t-24 -39l-75 21q11 49 48 77t94 28q67 0 104 -30.5t37 -106.5v-364h-80v43h-1z"/>
<glyph glyph-name="aring" horiz-adv-x="361" unicode="å" d="M192 678q-20 0 -34 -13.5t-14 -33.5t14 -34t34 -14t33.5 14t13.5 34t-13.5 33.5t-33.5 13.5zM192 542q-19 0 -35.5 7t-29 19t-19.5 28.5t-7 35.5t7 35.5t19.5 28.5t29 19t35.5 7q38 0 64 -26t26 -64t-26 -64t-64 -26zM240 228h-58q-31 0 -54.5 -18.5t-23.5 -66.5 q0 -35 15 -53.5t47 -18.5q37 0 55.5 21t18.5 58v78zM239 43q-20 -27 -45.5 -38t-57.5 -11q-31 0 -52 12.5t-33.5 33t-18 46t-5.5 52.5q0 28 6 56t21 51t41 37.5t67 14.5h78v66q0 29 -13.5 46t-51.5 17q-20 0 -39 -12t-24 -39l-75 21q11 49 48 77t94 28q67 0 104 -30.5 t37 -106.5v-364h-80v43h-1z"/>
<glyph glyph-name="ae" horiz-adv-x="557" unicode="æ" d="M451 293v38q0 19 -2.5 36.5t-9.5 30.5t-19.5 20.5t-32.5 7.5q-18 0 -33 -8.5t-24 -31.5q-5 -14 -7 -36t-3 -57h131zM236 230h-58q-31 0 -54.5 -19.5t-23.5 -67.5q0 -31 17 -51.5t52 -20.5q32 0 49.5 22t17.5 57v80zM383 -7q-48 0 -76 17.5t-43 42.5q-28 -36 -58.5 -47.5 t-53.5 -11.5q-39 0 -64 12.5t-39.5 33t-20 46t-5.5 52.5q0 28 7 55.5t23 50t41.5 36.5t63.5 14h78v69q0 29 -16 46t-49 17q-20 0 -39 -12t-24 -39l-75 21q11 49 51 77t91 28q45 0 69 -12.5t36 -30.5q18 20 45.5 31.5t65.5 11.5q74 0 107 -41t33 -113v-118h-212 q0 -33 1.5 -67t6.5 -51q14 -45 62 -45q31 0 45 20t17 47l79 -18q-5 -26 -14 -48.5t-26.5 -39t-43.5 -25.5t-63 -9z"/>
<glyph glyph-name="ccedilla" horiz-adv-x="334" unicode="ç" d="M318 133q-2 -63 -31 -98.5t-92 -40.5l-13 -49q23 -2 38 -9.5t23.5 -18.5t12 -23.5t3.5 -23.5q0 -12 -4.5 -25t-14 -24t-25.5 -18t-38 -7q-8 0 -33 2t-47 13l13 36q17 -8 31 -10t26 -2q15 0 26.5 8.5t11.5 25.5q0 19 -10.5 28.5t-32.5 9.5h-9l-16 14l20 73q-54 5 -80.5 32 t-35.5 62q-3 12 -5 30t-2.5 39.5t-1 43.5t-0.5 41q0 25 1 51.5t2.5 50.5t4.5 43.5t8 31.5q14 38 46 60t88 22q74 0 105.5 -39.5t31.5 -106.5l-82 -11q0 45 -15.5 65t-42.5 20q-20 0 -34.5 -9t-23.5 -32q-6 -15 -8 -59t-3 -104q0 -33 1 -64.5t6 -48.5q7 -22 21.5 -34.5 t40.5 -12.5q31 0 44.5 22t13.5 60z"/>
<glyph glyph-name="egrave" horiz-adv-x="357" unicode="è" d="M176 556l-96 160l71 25l68 -168zM242 289v42q0 19 -2.5 36.5t-9.5 30.5t-19.5 20.5t-32.5 7.5q-18 0 -33 -8.5t-24 -31.5q-5 -14 -7 -38t-3 -59h131zM180 66q29 0 43.5 19.5t16.5 54.5l81 -15q-4 -64 -39.5 -98t-107.5 -34q-32 0 -55 8.5t-39 22t-25.5 30.5t-13.5 34 q-3 12 -5 30t-3 39.5t-1.5 43.5t-0.5 41q0 25 0.5 50.5t2.5 48.5t5 42.5t8 32.5q14 39 46.5 62t88.5 23q74 0 107 -41t33 -113v-122h-212q0 -33 1.5 -65t6.5 -49q14 -45 62 -45z"/>
<glyph glyph-name="eacute" horiz-adv-x="357" unicode="é" d="M146 573l68 168l71 -25l-96 -160zM242 289v42q0 19 -2.5 36.5t-9.5 30.5t-19.5 20.5t-32.5 7.5q-18 0 -33 -8.5t-24 -31.5q-5 -14 -7 -38t-3 -59h131zM180 66q29 0 43.5 19.5t16.5 54.5l81 -15q-4 -64 -39.5 -98t-107.5 -34q-32 0 -55 8.5t-39 22t-25.5 30.5t-13.5 34 q-3 12 -5 30t-3 39.5t-1.5 43.5t-0.5 41q0 25 0.5 50.5t2.5 48.5t5 42.5t8 32.5q14 39 46.5 62t88.5 23q74 0 107 -41t33 -113v-122h-212q0 -33 1.5 -65t6.5 -49q14 -45 62 -45z"/>
<glyph glyph-name="ecircumflex" horiz-adv-x="357" unicode="ê" d="M180 646l-116 -94l-34 28l130 139h47l123 -137l-34 -30zM242 289v42q0 19 -2.5 36.5t-9.5 30.5t-19.5 20.5t-32.5 7.5q-18 0 -33 -8.5t-24 -31.5q-5 -14 -7 -38t-3 -59h131zM180 66q29 0 43.5 19.5t16.5 54.5l81 -15q-4 -64 -39.5 -98t-107.5 -34q-32 0 -55 8.5t-39 22 t-25.5 30.5t-13.5 34q-3 12 -5 30t-3 39.5t-1.5 43.5t-0.5 41q0 25 0.5 50.5t2.5 48.5t5 42.5t8 32.5q14 39 46.5 62t88.5 23q74 0 107 -41t33 -113v-122h-212q0 -33 1.5 -65t6.5 -49q14 -45 62 -45z"/>
<glyph glyph-name="edieresis" horiz-adv-x="357" unicode="ë" d="M66 589v80h69v-80h-69zM220 589v80h68v-80h-68zM242 289v42q0 19 -2.5 36.5t-9.5 30.5t-19.5 20.5t-32.5 7.5q-18 0 -33 -8.5t-24 -31.5q-5 -14 -7 -38t-3 -59h131zM180 66q29 0 43.5 19.5t16.5 54.5l81 -15q-4 -64 -39.5 -98t-107.5 -34q-32 0 -55 8.5t-39 22 t-25.5 30.5t-13.5 34q-3 12 -5 30t-3 39.5t-1.5 43.5t-0.5 41q0 25 0.5 50.5t2.5 48.5t5 42.5t8 32.5q14 39 46.5 62t88.5 23q74 0 107 -41t33 -113v-122h-212q0 -33 1.5 -65t6.5 -49q14 -45 62 -45z"/>
<glyph glyph-name="igrave" horiz-adv-x="200" unicode="ì" d="M82 556l-96 160l71 25l68 -168zM58 0v494h80v-494h-80z"/>
<glyph glyph-name="iacute" horiz-adv-x="200" unicode="í" d="M74 573l68 168l71 -25l-96 -160zM62 0v494h80v-494h-80z"/>
<glyph glyph-name="icircumflex" horiz-adv-x="250" unicode="î" d="M125 646l-116 -94l-34 28l130 139h47l123 -137l-34 -30zM84 0v494h80v-494h-80z"/>
<glyph glyph-name="idieresis" horiz-adv-x="202" unicode="ï" d="M-10 589v80h69v-80h-69zM144 589v80h68v-80h-68zM63 0v494h80v-494h-80z"/>
<glyph glyph-name="eth" horiz-adv-x="371" unicode="ð" d="M185 410q-20 0 -36.5 -9t-25.5 -32q-4 -9 -6 -19.5t-3.5 -25.5t-2 -35.5t-0.5 -50.5v-35.5t1 -36.5t2 -32.5t4 -23.5q14 -46 66 -46q21 0 37 12.5t24 32.5q2 5 4 18t3.5 31t2 38.5t0.5 41.5q0 42 -1 74.5t-6 50.5q-14 47 -63 47zM332 255q0 -28 -1 -66.5t-4 -67.5 q-5 -40 -20 -65t-36.5 -39t-46.5 -19t-49 -5q-31 0 -53.5 8t-38.5 21t-26 30.5t-15 35.5q-3 12 -5 29.5t-2.5 38.5t-1 42.5t-0.5 40.5q0 51 4.5 94t13.5 67q12 33 42 57t81 24q23 0 45 -7.5t39 -24.5h2q0 35 -2 63.5t-13 57.5l-63 -47l-26 36l68 49q-9 15 -23.5 25.5 t-31.5 17.5t-34.5 11t-32.5 6l11 62q54 -4 90.5 -18.5t54.5 -31.5q17 -15 26 -27l61 44l26 -33l-64 -48q7 -15 12 -35t8 -47.5t4 -63.5t1 -83v-132z"/>
<glyph glyph-name="ntilde" horiz-adv-x="366" unicode="ñ" d="M317 653q-19 -35 -43 -55t-46 -20q-15 0 -29.5 6t-28 12.5t-25.5 12.5t-24 6q-28 0 -53 -36l-40 25q6 13 15.5 26t20.5 24t24 18t27 7q15 0 28 -6t26.5 -13t27.5 -13t29 -6q14 0 25.5 9.5t26.5 29.5zM114 445h3q35 54 101 54q55 0 82.5 -35.5t27.5 -92.5v-371h-80v350 q0 32 -15 50.5t-48 18.5q-32 0 -52 -21t-20 -56v-342h-78v494h79v-49z"/>
<glyph glyph-name="ograve" horiz-adv-x="362" unicode="ò" d="M162 556l-96 160l71 25l68 -168zM184 429q-20 0 -36.5 -9t-25.5 -32q-6 -14 -8 -58.5t-3 -104.5q0 -33 1 -64.5t6 -48.5q14 -46 66 -46q21 0 37 12.5t24 32.5q2 5 4 18.5t3.5 32t2 39.5t0.5 42t-0.5 41.5t-1 39.5t-2 34t-4.5 24q-14 47 -63 47zM186 501q42 0 68.5 -11 t42.5 -30.5t23 -46t9 -57.5q2 -29 3 -62t1 -59q0 -57 -6 -114q-5 -40 -20 -65t-36.5 -39t-46.5 -19t-49 -5q-31 0 -53.5 8t-38.5 21t-26 30.5t-15 35.5q-3 12 -5 30t-2.5 39.5t-1 43.5t-0.5 41q0 25 1 51.5t3 50.5t5 43.5t8 31.5q14 38 47 60t89 22z"/>
<glyph glyph-name="oacute" horiz-adv-x="362" unicode="ó" d="M136 573l68 168l71 -25l-96 -160zM184 429q-20 0 -36.5 -9t-25.5 -32q-6 -14 -8 -58.5t-3 -104.5q0 -33 1 -64.5t6 -48.5q14 -46 66 -46q21 0 37 12.5t24 32.5q2 5 4 18.5t3.5 32t2 39.5t0.5 42t-0.5 41.5t-1 39.5t-2 34t-4.5 24q-14 47 -63 47zM186 501q42 0 68.5 -11 t42.5 -30.5t23 -46t9 -57.5q2 -29 3 -62t1 -59q0 -57 -6 -114q-5 -40 -20 -65t-36.5 -39t-46.5 -19t-49 -5q-31 0 -53.5 8t-38.5 21t-26 30.5t-15 35.5q-3 12 -5 30t-2.5 39.5t-1 43.5t-0.5 41q0 25 1 51.5t3 50.5t5 43.5t8 31.5q14 38 47 60t89 22z"/>
<glyph glyph-name="ocircumflex" horiz-adv-x="362" unicode="ô" d="M182 646l-116 -94l-34 28l130 139h47l123 -137l-34 -30zM184 429q-20 0 -36.5 -9t-25.5 -32q-6 -14 -8 -58.5t-3 -104.5q0 -33 1 -64.5t6 -48.5q14 -46 66 -46q21 0 37 12.5t24 32.5q2 5 4 18.5t3.5 32t2 39.5t0.5 42t-0.5 41.5t-1 39.5t-2 34t-4.5 24q-14 47 -63 47z M186 501q42 0 68.5 -11t42.5 -30.5t23 -46t9 -57.5q2 -29 3 -62t1 -59q0 -57 -6 -114q-5 -40 -20 -65t-36.5 -39t-46.5 -19t-49 -5q-31 0 -53.5 8t-38.5 21t-26 30.5t-15 35.5q-3 12 -5 30t-2.5 39.5t-1 43.5t-0.5 41q0 25 1 51.5t3 50.5t5 43.5t8 31.5q14 38 47 60t89 22z "/>
<glyph glyph-name="otilde" horiz-adv-x="362" unicode="õ" d="M327 653q-19 -35 -43 -55t-46 -20q-15 0 -29.5 6t-28 12.5t-25.5 12.5t-24 6q-28 0 -53 -36l-40 25q6 13 15.5 26t20.5 24t24 18t27 7q15 0 28 -6t26.5 -13t27.5 -13t29 -6q14 0 25.5 9.5t26.5 29.5zM184 429q-20 0 -36.5 -9t-25.5 -32q-6 -14 -8 -58.5t-3 -104.5 q0 -33 1 -64.5t6 -48.5q14 -46 66 -46q21 0 37 12.5t24 32.5q2 5 4 18.5t3.5 32t2 39.5t0.5 42t-0.5 41.5t-1 39.5t-2 34t-4.5 24q-14 47 -63 47zM186 501q42 0 68.5 -11t42.5 -30.5t23 -46t9 -57.5q2 -29 3 -62t1 -59q0 -57 -6 -114q-5 -40 -20 -65t-36.5 -39t-46.5 -19 t-49 -5q-31 0 -53.5 8t-38.5 21t-26 30.5t-15 35.5q-3 12 -5 30t-2.5 39.5t-1 43.5t-0.5 41q0 25 1 51.5t3 50.5t5 43.5t8 31.5q14 38 47 60t89 22z"/>
<glyph glyph-name="odieresis" horiz-adv-x="362" unicode="ö" d="M76 589v80h69v-80h-69zM230 589v80h68v-80h-68zM184 429q-20 0 -36.5 -9t-25.5 -32q-6 -14 -8 -58.5t-3 -104.5q0 -33 1 -64.5t6 -48.5q14 -46 66 -46q21 0 37 12.5t24 32.5q2 5 4 18.5t3.5 32t2 39.5t0.5 42t-0.5 41.5t-1 39.5t-2 34t-4.5 24q-14 47 -63 47zM186 501 q42 0 68.5 -11t42.5 -30.5t23 -46t9 -57.5q2 -29 3 -62t1 -59q0 -57 -6 -114q-5 -40 -20 -65t-36.5 -39t-46.5 -19t-49 -5q-31 0 -53.5 8t-38.5 21t-26 30.5t-15 35.5q-3 12 -5 30t-2.5 39.5t-1 43.5t-0.5 41q0 25 1 51.5t3 50.5t5 43.5t8 31.5q14 38 47 60t89 22z"/>
<glyph glyph-name="divide" d="M191 187q21 0 36.5 -15.5t15.5 -37.5t-15.5 -37.5t-36.5 -15.5q-22 0 -37.5 15.5t-15.5 37.5t15.5 37.5t37.5 15.5zM9 264v61h362v-61h-362zM243 453q0 -22 -15.5 -37.5t-36.5 -15.5q-22 0 -37.5 15.5t-15.5 37.5t15.5 37.5t37.5 15.5q21 0 36.5 -15.5t15.5 -37.5z" unicode="÷"/>
<glyph glyph-name="oslash" horiz-adv-x="362" unicode="ø" d="M184 429q-20 0 -36.5 -9t-25.5 -32q-6 -14 -8 -58.5t-3 -104.5v-36t1 -34l128 244q-18 30 -56 30zM255 243q0 26 -0.5 51.5t-2.5 47.5l-129 -244q17 -32 61 -32q21 0 37 12.5t24 32.5q2 5 4 18.5t3.5 32t2 39.5t0.5 42zM186 501q32 0 55 -7t39 -19l14 27l34 -18l-21 -40 q10 -18 15 -40.5t7 -47.5q2 -29 3 -62t1 -59q0 -57 -6 -114q-5 -40 -20 -65t-36.5 -39t-46.5 -19t-49 -5q-31 0 -53.5 7.5t-38.5 21.5l-17 -32l-31 18l22 43q-10 16 -15 37q-3 12 -5 30t-2.5 39.5t-1 43.5t-0.5 41q0 25 1 51.5t3 50.5t5 43.5t8 31.5q14 38 47 60t89 22z"/>
<glyph glyph-name="ugrave" horiz-adv-x="369" unicode="ù" d="M166 556l-96 160l71 25l68 -168zM250 50h-3q-35 -54 -101 -54q-55 0 -82.5 35.5t-27.5 92.5v371h80v-350q0 -73 64 -73q29 0 50 21t21 56v346h78v-494h-79v49z"/>
<glyph glyph-name="uacute" horiz-adv-x="369" unicode="ú" d="M172 573l68 168l71 -25l-96 -160zM250 50h-3q-35 -54 -101 -54q-55 0 -82.5 35.5t-27.5 92.5v371h80v-350q0 -73 64 -73q29 0 50 21t21 56v346h78v-494h-79v49z"/>
<glyph glyph-name="ucircumflex" horiz-adv-x="369" unicode="û" d="M180 646l-116 -94l-34 28l130 139h47l123 -137l-34 -30zM250 50h-3q-35 -54 -101 -54q-55 0 -82.5 35.5t-27.5 92.5v371h80v-350q0 -73 64 -73q29 0 50 21t21 56v346h78v-494h-79v49z"/>
<glyph glyph-name="udieresis" horiz-adv-x="369" unicode="ü" d="M71 589v80h69v-80h-69zM225 589v80h68v-80h-68zM250 50h-3q-35 -54 -101 -54q-55 0 -82.5 35.5t-27.5 92.5v371h80v-350q0 -73 64 -73q29 0 50 21t21 56v346h78v-494h-79v49z"/>
<glyph glyph-name="yacute" horiz-adv-x="336" unicode="ý" d="M138 573l68 168l71 -25l-96 -160zM191 -83q-12 -50 -38 -80.5t-79 -30.5h-30v68h20q28 0 40.5 18.5t23.5 68.5l8 35l-131 498h84l42 -189l40 -171h3l37 173l41 187h81z"/>
<glyph glyph-name="thorn" horiz-adv-x="364" unicode="þ" d="M178 424q-33 0 -50 -22t-17 -56v-196q0 -35 16 -56t51 -21q22 0 35.5 8.5t21 29.5t10.5 55.5t3 85.5q0 46 -1.5 78.5t-8.5 53.5t-21 30.5t-39 9.5zM205 501q13 0 32 -3.5t36.5 -16t31.5 -36.5t19 -65q3 -30 3.5 -63t0.5 -62q0 -54 -2.5 -101.5t-15 -82.5t-38.5 -55.5 t-73 -20.5q-29 0 -50 10.5t-35 30.5h-2v-228h-79v887h79v-238l2 -1q16 22 34 33.5t57 11.5z"/>
<glyph glyph-name="OE" horiz-adv-x="566" unicode="Œ" d="M202 65q32 0 51 17v533q-9 7 -21 11t-29 4q-30 0 -46 -14.5t-24 -34.5t-9.5 -42.5t-1.5 -37.5v-338q0 -15 3 -32t12 -32t24.5 -24.5t40.5 -9.5zM260 0q-12 -3 -26.5 -5t-30.5 -2q-86 0 -123 47t-37 124v343q0 37 6.5 72t24 62.5t48.5 44t81 16.5q33 0 57 -6h291v-73h-219 v-233h190v-73h-190v-245h219v-72h-291z"/>
<glyph glyph-name="oe" horiz-adv-x="576" unicode="œ" d="M470 289v42q0 19 -2.5 36.5t-9.5 30.5t-19.5 20.5t-32.5 7.5q-18 0 -33 -8.5t-24 -31.5q-5 -14 -7 -38t-3 -59h131zM184 429q-20 0 -36.5 -9t-25.5 -32q-8 -19 -9 -61t-2 -102q0 -33 1 -64.5t6 -48.5q14 -46 66 -46q21 0 37 12.5t24 32.5q2 5 4 18.5t3.5 32t2 39.5 t0.5 42t-0.5 41.5t-1 39.5t-2 34t-4.5 24q-14 47 -63 47zM402 -7q-40 0 -66 12.5t-42 32.5q-23 -27 -55.5 -36t-63.5 -9t-53.5 8t-38.5 21t-26 30.5t-15 35.5q-3 12 -5 30t-2.5 39.5t-1 43.5t-0.5 41q0 25 1 51.5t2.5 50.5t4.5 43.5t8 31.5q14 38 47 60t89 22 q40 0 67.5 -12.5t44.5 -32.5q18 21 45.5 33t67.5 12q74 0 107 -41t33 -113v-122h-212q0 -33 1.5 -65t6.5 -49q14 -45 62 -45q31 0 45 20t17 47l79 -18q-5 -26 -14 -48.5t-26.5 -39t-43.5 -25.5t-63 -9z"/>
<glyph glyph-name="Scaron" horiz-adv-x="394" unicode="Š" d="M313 875l34 -30l-123 -117h-47l-130 119l34 28l116 -74zM360 190q0 -45 -8.5 -81t-28 -62t-50.5 -40t-77 -14q-42 0 -73 12t-51 33.5t-29.5 50.5t-9.5 63l79 16q0 -20 4 -37.5t13.5 -31.5t26 -22t40.5 -8q30 0 47.5 9.5t26 26t10.5 38.5t2 46q0 31 -3 50.5t-13 34 t-28.5 25.5t-49.5 24q-49 21 -78.5 42.5t-45.5 45t-21 50t-5 58.5q0 40 10 73.5t30.5 58t51.5 38t72 13.5q45 0 75.5 -14t49 -36.5t26 -49.5t7.5 -53l-78 -20q0 47 -19 72.5t-65 25.5q-26 0 -41.5 -10t-24.5 -25.5t-12 -34.5t-3 -37q0 -22 2.5 -38.5t13.5 -31t32.5 -28.5 t60.5 -29q45 -18 71.5 -37.5t40.5 -43.5t18 -54t4 -68z"/>
<glyph glyph-name="scaron" horiz-adv-x="339" unicode="š" d="M289 720l34 -30l-123 -137h-47l-130 139l34 28l116 -94zM111 140q-1 -34 14 -54t44 -20q37 0 51 17t14 54q0 17 -3 29.5t-11 22t-22 17.5t-37 17q-38 14 -62.5 30t-38 34t-18.5 38t-5 42q0 59 34.5 96.5t103.5 37.5q74 0 105.5 -36.5t31.5 -99.5l-82 -11v8q0 33 -15 49.5 t-41 16.5q-18 0 -30 -5.5t-18.5 -14.5t-9 -20t-2.5 -21q0 -12 3 -22.5t12 -20t25 -18.5t43 -18q37 -13 59.5 -28.5t34.5 -34t15.5 -40t3.5 -47.5q0 -66 -32.5 -105.5t-104.5 -39.5t-106.5 34.5t-36.5 99.5z"/>
<glyph glyph-name="Ydieresis" horiz-adv-x="376" unicode="Ÿ" d="M230 752v80h68v-80h-68zM76 752v80h69v-80h-69zM190 408l90 288h83l-136 -402v-295h-78v295l-136 402h83l51 -163l39 -125h4z"/>
<glyph glyph-name="circumflex" horiz-adv-x="362" unicode="ˆ" d="M180 646l-116 -94l-34 28l130 139h47l123 -137l-34 -30z"/>
<glyph glyph-name="tilde" horiz-adv-x="362" unicode="˜" d="M325 653q-19 -35 -43 -55t-46 -20q-15 0 -29.5 6t-28 12.5t-25.5 12.5t-24 6q-28 0 -53 -36l-40 25q6 13 15.5 26t20.5 24t24 18t27 7q15 0 28 -6t26.5 -13t27.5 -13t29 -6q14 0 25.5 9.5t26.5 29.5z"/>
<glyph glyph-name="Alpha" horiz-adv-x="395" unicode="Α" d="M195 554l-29 -162l-33 -163h128l-34 165l-28 160h-4zM307 0l-32 155h-155l-31 -155h-76l148 696h74l150 -696h-78z"/>
<glyph glyph-name="Beta" horiz-adv-x="414" unicode="Β" d="M288 513q0 54 -23.5 82.5t-78.5 28.5h-54v-223h53q55 0 79 29t24 83zM294 213q0 57 -21.5 88t-82.5 31h-58v-261h62q33 0 52.5 11.5t30 31t14 45t3.5 54.5zM291 365q46 -14 62.5 -56.5t16.5 -103.5q0 -108 -44.5 -156.5t-138.5 -48.5h-134v696h147q90 0 127 -48t37 -136 q0 -55 -16 -87.5t-57 -55.5v-4z"/>
<glyph glyph-name="Gamma" horiz-adv-x="358" unicode="Γ" d="M132 622v-622h-79v696h282v-74h-203z"/>
<glyph glyph-name="Epsilon" horiz-adv-x="366" unicode="Ε" d="M53 0v696h298v-73h-219v-233h190v-73h-190v-245h219v-72h-298z"/>
<glyph glyph-name="Zeta" horiz-adv-x="321" unicode="Ζ" d="M302 624l-201 -552h200v-72h-281v72l203 552h-193v72h272v-72z"/>
<glyph glyph-name="Eta" horiz-adv-x="427" unicode="Η" d="M294 0v321h-162v-321h-79v696h79v-306h162v306h79v-696h-79z"/>
<glyph glyph-name="Theta" horiz-adv-x="414" unicode="Θ" d="M288 522q0 18 -2.5 37t-10.5 34.5t-24.5 26t-43.5 10.5q-30 0 -46 -14.5t-24 -34.5t-9.5 -42.5t-1.5 -37.5v-338q0 -15 3 -32t12 -32t24.5 -24.5t40.5 -9.5t41 10t25 25.5t12.5 35.5t3.5 41v345zM367 187q0 -93 -36 -143.5t-124 -50.5q-86 0 -123 47t-37 124v343 q0 37 6.5 72t24 62.5t48.5 44t81 16.5q52 0 83.5 -14.5t48.5 -40.5t22.5 -61t5.5 -77v-322zM151 390h113v-73h-113v73z"/>
<glyph glyph-name="Iota" horiz-adv-x="192" unicode="Ι" d="M56 0v696h80v-696h-80z"/>
<glyph glyph-name="Kappa" horiz-adv-x="414" unicode="Κ" d="M326 0l-126 334l-68 -132v-202h-79v696h79v-347h2l168 347h79l-135 -275l160 -421h-80z"/>
<glyph glyph-name="Lambda" horiz-adv-x="395" unicode="Λ" d="M307 0q-6 32 -10.5 53.5t-8 38t-6.5 31t-6 31.5l-78 383q-13 -63 -21.5 -98.5t-11.5 -49.5q-15 -78 -24 -126t-15 -78t-9.5 -48.5t-7 -36t-8 -39.5t-12.5 -61h-76l148 696h74l150 -696h-78z"/>
<glyph glyph-name="Mu" horiz-adv-x="564" unicode="Μ" d="M427 482l-55 -144l-72 -169h-37l-72 169l-55 144h-4v-482h-79v696h80l83 -217l64 -170h3l66 175l81 212h81v-696h-79v482h-5z"/>
<glyph glyph-name="Nu" horiz-adv-x="450" unicode="Ν" d="M129 476v-476h-79v696h75l144 -353l48 -127l4 1v479h79v-696h-74l-144 350l-50 126h-3z"/>
<glyph glyph-name="Xi" horiz-adv-x="358" unicode="Ξ" d="M26 0v80h311v-80h-311zM52 317v73h259v-73h-259zM26 622v74h311v-74h-311z"/>
<glyph glyph-name="Omicron" horiz-adv-x="414" unicode="Ο" d="M288 522q0 18 -2.5 37t-10.5 34.5t-24.5 26t-43.5 10.5q-30 0 -46 -14.5t-24 -34.5t-9.5 -42.5t-1.5 -37.5v-338q0 -15 3 -32t12 -32t24.5 -24.5t40.5 -9.5t41 10t25 25.5t12.5 35.5t3.5 41v345zM367 187q0 -93 -36.5 -143.5t-124.5 -50.5q-86 0 -122.5 47t-36.5 124v343 q0 37 6.5 72t24 62.5t48.5 44t81 16.5q52 0 83.5 -14.5t48.5 -40.5t22.5 -61t5.5 -77v-322z"/>
<glyph glyph-name="Pi" horiz-adv-x="414" unicode="Π" d="M282 0v627h-150v-627h-79v696h308v-696h-79z"/>
<glyph glyph-name="Rho" horiz-adv-x="395" unicode="Ρ" d="M132 354h54q36 0 57.5 11t33 29t14.5 42t3 51q0 28 -3.5 53t-14.5 43.5t-32 29t-56 10.5h-56v-269zM195 696q53 0 87 -14t54 -40.5t27.5 -65t7.5 -87.5q0 -44 -7 -82t-27 -66.5t-55.5 -44.5t-92.5 -16h-57v-280h-79v696h142z"/>
<glyph glyph-name="Sigma" horiz-adv-x="310" unicode="Σ" d="M17 0v68l100 292l-104 269v68h275v-74h-195l105 -263l-101 -286h204v-74h-284z"/>
<glyph glyph-name="Tau" horiz-adv-x="326" unicode="Τ" d="M203 624v-624h-80v624h-118v72h316v-72h-118z"/>
<glyph glyph-name="Upsilon" horiz-adv-x="376" unicode="Υ" d="M190 408l90 288h83l-136 -402v-295h-78v295l-136 402h83l51 -163l39 -125h4z"/>
<glyph glyph-name="Phi" horiz-adv-x="494" unicode="Φ" d="M210 588q-39 -4 -64.5 -28.5t-25.5 -66.5v-277q0 -42 21 -66.5t69 -28.5v467zM379 493q0 42 -27 67.5t-63 27.5v-467q37 2 63.5 27.5t26.5 67.5v277zM455 216q0 -41 -15 -71t-39 -50t-53.5 -30.5t-58.5 -12.5v-52h-79v52q-31 1 -60.5 12t-53 31t-38 50t-14.5 71v277 q0 41 14.5 71.5t37.5 50.5t53 30.5t60 12.5v38h80l1 -38q29 -2 58.5 -12.5t53 -30.5t38.5 -50.5t15 -71.5v-277z"/>
<glyph glyph-name="Chi" horiz-adv-x="377" unicode="Χ" d="M285 -1l-97 276l-96 -276h-83l139 366l-128 331h83l85 -245l86 245h83l-131 -331l142 -366h-83z"/>
<glyph glyph-name="Psi" horiz-adv-x="490" unicode="Ψ" d="M446 304q0 -33 -12 -61.5t-34 -49.5t-51.5 -33t-63.5 -12v-148h-79v148q-35 0 -64 12.5t-50.5 33.5t-33.5 49.5t-12 60.5v392h79v-382q0 -42 21.5 -64t59.5 -23v469h79v-469q38 1 60 23t22 64v382h79v-392z"/>
<glyph glyph-name="alpha" horiz-adv-x="370" unicode="α" d="M186 423q-25 0 -39 -9.5t-21.5 -30.5t-9.5 -53.5t-2 -78.5q0 -48 1.5 -81.5t8 -55.5t21 -32t41.5 -10q28 0 47.5 21t19.5 50v202q0 34 -17 56t-50 22zM252 0v47h-2q-15 -27 -44 -39.5t-52 -12.5q-41 0 -65 17.5t-36 47t-15.5 67.5t-3.5 80v83.5t5 88.5q4 41 18.5 65 t32.5 36.5t36.5 16t32.5 3.5q39 0 57 -11.5t34 -33.5l2 1v38h79v-494h-79z"/>
<glyph glyph-name="beta" horiz-adv-x="368" unicode="β" d="M40 579q0 66 38.5 106.5t104.5 40.5q72 0 106.5 -41.5t34.5 -138.5q0 -65 -16 -94t-47 -42v-3q22 -9 36.5 -20t23 -30.5t11.5 -50t3 -77.5q0 -52 -3 -95t-15.5 -74t-37 -48.5t-67.5 -17.5q-33 0 -54 11.5t-37 33.5l-2 -1v-184h-79v725zM118 147q0 -34 17 -54.5t50 -20.5 q24 0 38 9.5t20.5 28.5t8 47.5t1.5 65.5q0 76 -13 111t-57 35h-28v69h20q42 0 55.5 27t13.5 78q0 57 -14 82.5t-50 25.5q-29 0 -45.5 -20t-16.5 -47v-437z"/>
<glyph glyph-name="gamma" horiz-adv-x="342" unicode="γ" d="M137 20q-12 50 -22.5 95t-21 88.5t-21 87.5t-23.5 93q-7 26 -14.5 32t-22.5 6h-3l-6 71q12 5 24.5 6t21.5 1q32 0 46 -17.5t24 -52.5q7 -24 14.5 -57t15 -68.5t14.5 -70t13 -59.5h5l31 141l42 179h80l-118 -471v-217h-79v213z"/>
<glyph glyph-name="delta" horiz-adv-x="365" unicode="δ" d="M185 420q-25 -7 -40 -21t-21 -30q-7 -18 -10 -51t-3 -93q0 -39 1.5 -69t8.5 -50t21.5 -30t41.5 -10t41.5 14.5t21 43.5t7.5 72.5t1 100.5q0 30 -3.5 50.5t-12 34.5t-22 22.5t-32.5 15.5zM304 658q-20 2 -33.5 3.5t-25.5 1.5q-60 0 -85 -20t-25 -55q0 -41 80 -88 q40 -23 63.5 -44t35.5 -44t15.5 -52t3.5 -69q-1 -45 -1 -85.5t-5 -84.5q-5 -40 -20 -65t-36.5 -39t-46.5 -19t-49 -5q-55 0 -84 20t-42 54t-14.5 79.5t-1.5 95.5q0 25 1.5 58.5t10.5 65.5t27.5 58.5t52.5 37.5h1q-38 28 -52.5 56t-14.5 71q0 65 42.5 102t135.5 37 q15 0 32.5 -0.5t41.5 -5.5z"/>
<glyph glyph-name="epsilon" horiz-adv-x="345" unicode="ε" d="M177 427q-33 0 -48 -21t-15 -49q0 -34 17.5 -47.5t42.5 -13.5h62v-73h-66q-27 0 -41.5 -21t-14.5 -57q0 -33 15 -55t48 -22q31 0 47 19t16 51l83 -14q0 -30 -10.5 -54.5t-29.5 -41.5t-44 -26t-55 -9q-75 0 -112 33.5t-37 113.5q0 34 13.5 67t50.5 48v2q-38 13 -51 41 t-13 64q0 60 35 99.5t105 39.5q69 0 108.5 -36t39.5 -100l-82 -11q0 73 -64 73z"/>
<glyph glyph-name="zeta" horiz-adv-x="345" unicode="ζ" d="M228 423h-182v71h294v-69q-53 -39 -95.5 -76.5t-72.5 -72.5t-46 -66.5t-16 -58.5q0 -15 6 -27.5t21 -24.5t40.5 -24t64.5 -27q38 -15 61 -35t23 -46q0 -10 -2.5 -20.5t-10 -25t-21.5 -33.5t-36 -45l-53 34q12 18 19.5 30.5t11.5 20.5t5.5 12.5t1.5 7.5q0 14 -16 23 t-39 17q-35 12 -63.5 23.5t-48.5 28.5t-31.5 40.5t-11.5 59.5q0 63 45 132t152 147v4z"/>
<glyph glyph-name="eta" horiz-adv-x="366" unicode="η" d="M114 445h3q35 54 101 54q55 0 82.5 -35.5t27.5 -92.5v-371h-80v350q0 32 -17 50.5t-50 18.5q-32 0 -50 -19t-18 -54v-346h-78v494h79v-49z"/>
<glyph glyph-name="theta" horiz-adv-x="362" unicode="θ" d="M252 469q0 21 -0.5 41.5t-1 39.5t-2 34t-4.5 24q-14 47 -61 47q-20 0 -35.5 -9t-24.5 -32q-8 -19 -9 -61t-2 -102v-46h140v64zM119 111q14 -46 64 -46q21 0 36 12.5t23 32.5q2 5 4 18.5t3.5 32t2 39.5t0.5 42v102h-140v-120q0 -33 1 -64.5t6 -48.5zM329 231q0 -28 -1 -55 t-4 -56q-5 -40 -20 -65t-36 -39t-45.5 -19t-48.5 -5q-31 0 -53.5 8t-38.5 21t-26 30.5t-15 35.5q-3 12 -4.5 30t-2.5 39.5t-1 43.5v41l1 227q0 25 1 51.5t2.5 50.5t4.5 43.5t8 31.5q14 38 46 60t88 22q57 0 88.5 -23t44.5 -57q6 -17 8.5 -41t3.5 -45.5t1 -39.5 q0 -9 -0.5 -26.5t-0.5 -39.5v-224z"/>
<glyph glyph-name="iota" horiz-adv-x="191" unicode="ι" d="M158 -3q-7 -1 -10 -1h-8q-27 0 -45 5t-28.5 17t-15 31t-4.5 47v398h80v-379q0 -26 6 -35t27 -10z"/>
<glyph glyph-name="kappa" horiz-adv-x="370" unicode="κ" d="M123 257l138 237h88l-114 -191l129 -303h-85l-95 234l-63 -114v-120h-79v494h79v-237h2z"/>
<glyph glyph-name="lambda" horiz-adv-x="347" unicode="λ" d="M344 -1q-19 -3 -34 -3q-25 0 -43.5 10.5t-29.5 54.5l-25 110l-35 156h-2l-40 -153l-48 -174h-80l135 467l-29 135q-5 25 -15 38t-36 13h-6.5t-8.5 -1l-4 68q12 3 24.5 4.5t21.5 1.5q38 0 61.5 -22t35.5 -76l116 -512q8 -31 14 -41t26 -10z"/>
<glyph glyph-name="nu" horiz-adv-x="337" unicode="ν" d="M214 0h-91l-118 494h84l43 -204l36 -173h3l37 177l41 200h83z"/>
<glyph glyph-name="xi" horiz-adv-x="312" unicode="ξ" d="M180 726q72 0 108 -35t36 -99l-77 -13q0 35 -18.5 56t-46.5 21q-39 0 -55.5 -29.5t-16.5 -84.5q0 -21 2.5 -42t12 -38t28.5 -27.5t51 -10.5h78v-69h-80q-29 0 -47 -14t-28.5 -35.5t-14.5 -47.5t-4 -50q0 -37 5 -59.5t18 -37.5t34 -26t53 -25q58 -25 79.5 -44.5 t21.5 -44.5q0 -9 -1.5 -20.5t-7.5 -27.5t-18 -37.5t-33 -49.5l-59 36q20 34 26 50t6 24q0 10 -11.5 19t-29 17.5t-38 17t-37.5 17.5q-27 14 -43.5 33t-25.5 42.5t-12 52.5t-3 62q0 67 16 113.5t61 66.5q-26 9 -41.5 25t-23.5 37t-10 45t-2 47q0 40 7 74t24 58.5t45.5 38.5 t71.5 14z"/>
<glyph glyph-name="omicron" horiz-adv-x="362" unicode="ο" d="M184 429q-20 0 -36.5 -9t-25.5 -32q-6 -14 -8 -58.5t-3 -104.5q0 -33 1 -64.5t6 -48.5q14 -46 66 -46q21 0 37 12.5t24 32.5q2 5 4 18.5t3.5 32t2 39.5t0.5 42t-0.5 41.5t-1 39.5t-2 34t-4.5 24q-14 47 -63 47zM186 501q42 0 68.5 -11t42.5 -30.5t23 -46t9 -57.5 q2 -29 3 -62t1 -59q0 -57 -6 -114q-5 -40 -20 -65t-36.5 -39t-46.5 -19t-49 -5q-31 0 -53.5 8t-38.5 21t-26 30.5t-15 35.5q-3 12 -5 30t-2.5 39.5t-1 43.5t-0.5 41q0 25 1 51.5t3 50.5t5 43.5t8 31.5q14 38 47 60t89 22z"/>
<glyph glyph-name="pi" horiz-adv-x="387" unicode="π" d="M261 0v424h-134v-424h-79v494h292v-494h-79z"/>
<glyph glyph-name="rho" horiz-adv-x="364" unicode="ρ" d="M185 501q57 0 88.5 -23t44.5 -57q6 -17 9 -41t4 -50t1 -52.5v-48.5q0 -28 -0.5 -50.5t-2.5 -45.5q-2 -27 -10 -52t-23 -44.5t-37.5 -31t-53.5 -11.5q-23 0 -47.5 11.5t-42.5 35.5h-2v-234h-80v435q0 25 1 51.5t2.5 50.5t4.5 43.5t8 31.5q14 38 47 60t89 22zM184 429 q-20 0 -36.5 -9t-25.5 -32q-8 -19 -9 -61t-2 -102q0 -33 1 -64.5t6 -48.5q14 -46 66 -46q21 0 37 12.5t24 32.5q2 5 4 18.5t3.5 32t2 39.5t0.5 42t-0.5 41.5t-1 39.5t-2 34t-4.5 24q-14 47 -63 47z"/>
<glyph glyph-name="sigma1" horiz-adv-x="330" unicode="ς" d="M37 250q0 25 1 50t2.5 47.5t4.5 41t8 30.5q14 38 46 60t88 22q37 0 63 -10t42.5 -28t24 -43t7.5 -55l-82 -11v8q0 31 -15.5 49t-42.5 18q-20 0 -34.5 -9t-23.5 -32q-8 -19 -9 -56.5t-2 -97.5v-27q0 -20 2 -37.5t11.5 -34t29.5 -33t56 -33.5q45 -21 62 -42t17 -46 q0 -15 -5.5 -32.5t-14.5 -36t-20.5 -36.5t-23.5 -34l-60 35q24 40 30 57t6 25q0 14 -10 23t-36 21q-43 21 -67.5 38.5t-36.5 38.5t-15 47t-3 64v59z"/>
<glyph glyph-name="sigma" horiz-adv-x="377" unicode="σ" d="M186 415q-20 0 -36.5 -9t-25.5 -32q-8 -19 -9 -54t-2 -95q0 -33 1 -63.5t6 -47.5q14 -46 66 -46q21 0 37 12.5t24 32.5q2 5 4 18.5t3.5 31.5t2 38.5t0.5 41.5q0 42 -1.5 74.5t-6.5 50.5q-14 47 -63 47zM103 473q17 10 38.5 15.5t44.5 5.5h183v-67h-69l-2 -5 q18 -15 26 -36t8 -40q2 -29 2 -59.5v-57.5q0 -28 -1 -53.5t-4 -54.5q-5 -40 -20 -65t-36.5 -39t-46.5 -19t-49 -5q-31 0 -53.5 8t-38.5 21t-26 30.5t-15 35.5q-3 12 -5 30t-2.5 39.5t-1 43.5t-0.5 41q0 25 1 50.5t2.5 48t4.5 41t8 30.5q15 40 52 61z"/>
<glyph glyph-name="tau" horiz-adv-x="259" unicode="τ" d="M10 427v67h239v-67h-81v-292q0 -38 14.5 -49t37.5 -11h13v-75h-32q-32 0 -53.5 10t-35 26t-19 35.5t-5.5 38.5v317h-78z"/>
<glyph glyph-name="upsilon" horiz-adv-x="362" unicode="υ" d="M331 494v-265q0 -28 -1 -53.5t-4 -54.5q-5 -40 -20 -65t-36.5 -39t-46.5 -19t-49 -5q-31 0 -53.5 8t-38.5 21t-26 30.5t-15 35.5q-3 12 -5 30t-2.5 39.5t-1 43.5t-0.5 41v252h78v-269q0 -33 1 -64.5t6 -48.5q14 -46 66 -46q21 0 37 12.5t24 32.5q2 5 4 18.5t3.5 32 t2 39.5t0.5 42v251h77z"/>
<glyph glyph-name="phi" horiz-adv-x="463" unicode="φ" d="M272 67q36 2 52 15.5t23 31.5q2 5 3.5 18t2.5 31t1.5 38.5t0.5 41.5q0 42 -1.5 79.5t-6.5 55.5q-13 46 -75 51v-362zM275 501q63 0 96.5 -26.5t46.5 -60.5q6 -17 9 -40t4 -47.5t1 -50v-47.5q0 -28 -1 -50.5t-4 -51.5q-5 -40 -20.5 -65.5t-37.5 -40.5t-47.5 -21t-49.5 -7 v-186h-79v186q-35 1 -60.5 10t-43 22.5t-28 31t-15.5 35.5q-3 12 -5 29.5t-2.5 38t-1 42t-0.5 40.5q0 25 1 51.5t2.5 50.5t4.5 43.5t8 31.5q10 26 29.5 45.5t49.5 28.5l24 -71q-10 -5 -17.5 -10.5t-12.5 -18.5q-8 -19 -9 -63.5t-2 -104.5q0 -33 1 -65.5t6 -49.5 q12 -40 71 -43v434h82z"/>
<glyph glyph-name="chi" horiz-adv-x="332" unicode="χ" d="M239 0l-71 171l-75 -171h-87l121 252l-117 242h89l69 -163l65 163h92l-114 -241l116 -253h-88z"/>
<glyph glyph-name="psi" horiz-adv-x="468" unicode="ψ" d="M433 138q0 -67 -44.5 -105t-113.5 -40v-186h-79v186q-69 2 -112.5 38.5t-43.5 106.5v356h78v-359q0 -32 20 -49t58 -19v427h79v-427h1q35 2 56.5 20t21.5 48v359h79v-356z"/>
<glyph glyph-name="afii10023" horiz-adv-x="366" unicode="Ё" d="M96 752v80h69v-80h-69zM250 752v80h68v-80h-68zM53 0v696h298v-73h-219v-233h190v-73h-190v-245h219v-72h-298z"/>
<glyph glyph-name="afii10051" horiz-adv-x="491" unicode="Ђ" d="M312 469q42 0 67 -13.5t38.5 -34t18 -44t4.5 -44.5v-179q0 -88 -33.5 -136.5t-112.5 -48.5h-16v70q49 0 65.5 32t16.5 82v154q0 16 -2 31t-9.5 27t-21.5 19.5t-38 7.5q-17 0 -42 -9.5t-47 -32.5v-350h-80v624h-108v72h358v-72h-170v-192h2q28 22 58.5 29.5t51.5 7.5z"/>
<glyph glyph-name="afii10052" horiz-adv-x="358" unicode="Ѓ" d="M126 753l142 113l49 -57l-162 -92zM132 622v-622h-79v696h282v-74h-203z"/>
<glyph glyph-name="afii10053" horiz-adv-x="376" unicode="Є" d="M359 131q-7 -66 -45 -102t-110 -36q-79 0 -118 44t-39 124v344q0 37 6.5 72.5t23.5 63t48 44.5t79 17q75 0 110 -35.5t42 -95.5l-78 -19q-1 36 -19.5 56.5t-55.5 20.5q-24 0 -39 -11t-23.5 -27.5t-11.5 -36.5t-3 -38v-121h161v-77h-161v-153q0 -15 3 -32.5t11.5 -32 t23 -24.5t38.5 -10q35 0 54.5 19.5t21.5 61.5z"/>
<glyph glyph-name="afii10054" horiz-adv-x="394" unicode="Ѕ" d="M360 190q0 -45 -8.5 -81t-28 -62t-50.5 -40t-77 -14q-42 0 -73 12t-51 33.5t-29.5 50.5t-9.5 63l79 16q0 -20 4 -37.5t13.5 -31.5t26 -22t40.5 -8q30 0 47.5 9.5t26 26t10.5 38.5t2 46q0 31 -3 50.5t-13 34t-28.5 25.5t-49.5 24q-49 21 -78.5 42.5t-45.5 45t-21 50 t-5 58.5q0 40 10 73.5t30.5 58t51.5 38t72 13.5q45 0 75.5 -14t49 -36.5t26 -49.5t7.5 -53l-78 -20q0 47 -19 72.5t-65 25.5q-26 0 -41.5 -10t-24.5 -25.5t-12 -34.5t-3 -37q0 -22 2.5 -38.5t13.5 -31t32.5 -28.5t60.5 -29q45 -18 71.5 -37.5t40.5 -43.5t18 -54t4 -68z"/>
<glyph glyph-name="afii10055" horiz-adv-x="192" unicode="І" d="M56 0v696h80v-696h-80z"/>
<glyph glyph-name="afii10056" horiz-adv-x="192" unicode="Ї" d="M-16 768v80h69v-80h-69zM138 768v80h68v-80h-68zM56 0v696h80v-696h-80z"/>
<glyph glyph-name="afii10057" horiz-adv-x="344" unicode="Ј" d="M278 696v-518q0 -91 -39.5 -138t-120.5 -47q-43 0 -77 16t-55 50l58 47q11 -16 31.5 -28.5t41.5 -12.5q44 0 63 28.5t19 73.5v529h79z"/>
<glyph glyph-name="afii10058" horiz-adv-x="627" unicode="Љ" d="M362 416h57q57 0 92.5 -15t55.5 -42t27 -64t7 -81q0 -49 -7.5 -88.5t-27.5 -67.5t-54 -43t-87 -15h-142v622h-118v-273q0 -96 -7 -158.5t-22.5 -103t-40.5 -64.5t-62 -43l-36 57q22 16 40 32.5t31 43t19.5 68t6.5 107.5v408h268v-280zM362 74h56q35 0 56 11t32 29.5 t14.5 43.5t3.5 53q0 27 -3 50.5t-14.5 41.5t-33 28.5t-57.5 10.5h-54v-268z"/>
<glyph glyph-name="afii10059" horiz-adv-x="633" unicode="Њ" d="M368 74h56q35 0 56 10t32 28t14.5 42t3.5 52q0 27 -3 49t-14.5 38t-33 25t-57.5 9h-54v-253zM289 0v327h-157v-327h-79v696h79v-295h157v295h79v-295h57q57 0 92.5 -13.5t55.5 -38.5t27 -60.5t7 -79.5q0 -49 -7.5 -87.5t-27.5 -65.5t-54 -41.5t-87 -14.5h-142z"/>
<glyph glyph-name="afii10060" horiz-adv-x="491" unicode="Ћ" d="M360 0v308q0 37 -14 60.5t-57 23.5q-17 0 -43 -10.5t-46 -31.5v-350h-80v624h-110v72h358v-72h-168v-192h2q29 22 59 29.5t51 7.5q128 0 128 -136v-333h-80z"/>
<glyph glyph-name="afii10061" horiz-adv-x="423" unicode="Ќ" d="M155 753l142 113l49 -57l-162 -92zM53 0v696h79v-303h36q15 0 31.5 3t32 13.5t29 30.5t21.5 55l48 201h72l-46 -204q-11 -51 -33 -85.5t-52 -45.5q39 -14 60 -49.5t32 -87.5l50 -224h-79l-45 210q-8 35 -20 56.5t-28 33t-33.5 15t-35.5 3.5h-40v-318h-79z"/>
<glyph glyph-name="afii10062" horiz-adv-x="363" unicode="Ў" d="M123 830q1 -10 6 -21t13.5 -20.5t20.5 -15.5t27 -6q16 0 28.5 6t21.5 15.5t13.5 20.5t4.5 21h63q-2 -19 -10 -40.5t-24 -39.5t-40 -30t-57 -12q-37 0 -62 12t-40.5 30t-22.5 39.5t-7 40.5h65zM190 307l92 389h76l-140 -535q-15 -59 -32 -92.5t-35 -50t-37 -21t-39 -5.5 h-38v62h36q21 0 39.5 21.5t30.5 67.5l11 42l-151 510h78l105 -389z"/>
<glyph glyph-name="afii10145" horiz-adv-x="424" unicode="Џ" d="M371 696v-696h-118v-146h-74v146h-126v696h79v-621h160v621h79z"/>
<glyph glyph-name="afii10017" horiz-adv-x="395" unicode="А" d="M195 554l-29 -162l-33 -163h128l-34 165l-28 160h-4zM307 0l-32 155h-155l-31 -155h-76l148 696h74l150 -696h-78z"/>
<glyph glyph-name="afii10018" horiz-adv-x="395" unicode="Б" d="M130 416h57q57 0 92.5 -15t55.5 -42t27 -64t7 -81q0 -49 -7.5 -88.5t-27.5 -67.5t-54 -43t-87 -15h-142v696h281v-74h-202v-206zM130 75h56q35 0 56 10.5t32 29t14.5 43.5t3.5 53q0 27 -3 50.5t-14.5 41.5t-33 28.5t-57.5 10.5h-54v-267z"/>
<glyph glyph-name="afii10019" horiz-adv-x="414" unicode="В" d="M288 513q0 54 -23.5 82.5t-78.5 28.5h-54v-223h53q55 0 79 29t24 83zM294 213q0 57 -21.5 88t-82.5 31h-58v-261h62q33 0 52.5 11.5t30 31t14 45t3.5 54.5zM291 365q46 -14 62.5 -56.5t16.5 -103.5q0 -108 -44.5 -156.5t-138.5 -48.5h-134v696h147q90 0 127 -48t37 -136 q0 -55 -16 -87.5t-57 -55.5v-4z"/>
<glyph glyph-name="afii10020" horiz-adv-x="358" unicode="Г" d="M132 622v-622h-79v696h282v-74h-203z"/>
<glyph glyph-name="afii10021" horiz-adv-x="449" unicode="Д" d="M322 68v559h-146l-11 -354q-2 -75 -11 -124t-30 -81h198zM76 -133h-70v197l30 5q13 8 23 22.5t17.5 38.5t11.5 60.5t6 87.5l12 418h295v-628h35v-201h-70v133h-290v-133z"/>
<glyph glyph-name="afii10022" horiz-adv-x="366" unicode="Е" d="M53 0v696h298v-73h-219v-233h190v-73h-190v-245h219v-72h-298z"/>
<glyph glyph-name="afii10024" horiz-adv-x="669" unicode="Ж" d="M295 0v318h-34q-18 0 -35.5 -3.5t-33.5 -15t-28.5 -33t-19.5 -56.5l-45 -210h-79l50 224q11 52 32 87.5t60 49.5q-30 11 -52 45.5t-33 85.5l-46 204h72l48 -201q8 -35 21.5 -55t29 -30.5t32 -13.5t31.5 -3h30v303h79v-303h30q15 0 31.5 3t32 13.5t29 30.5t21.5 55l48 201 h72l-46 -204q-11 -51 -33 -85.5t-52 -45.5q39 -14 60 -49.5t32 -87.5l50 -224h-79l-45 210q-8 35 -20 56.5t-28 33t-33.5 15t-35.5 3.5h-34v-318h-79z"/>
<glyph glyph-name="afii10025" d="M168 702q37 0 66.5 -8.5t50.5 -29t32.5 -55t11.5 -87.5q0 -18 -2.5 -41.5t-9.5 -46.5t-18.5 -42t-30.5 -29v-3q21 -12 33.5 -30.5t18.5 -40t7.5 -45t1.5 -45.5q0 -100 -38 -153t-123 -53q-35 0 -64 9.5t-50 29t-31 46.5t-10 61v12l77 15q0 -57 20 -78.5t59 -21.5 q16 0 30.5 6t25 21.5t17 41.5t6.5 66q0 25 -3.5 48t-12.5 39.5t-23.5 26.5t-36.5 10h-45v69h47q21 0 35.5 9.5t23.5 26.5t13 40t4 49q0 33 -6.5 54.5t-18 34t-26.5 17.5t-32 5q-42 0 -59.5 -29.5t-17.5 -71.5l-77 17q3 75 46 115.5t109 40.5z" unicode="З"/>
<glyph glyph-name="afii10026" horiz-adv-x="429" unicode="И" d="M300 489l-176 -489h-74v696h76v-492l4 -1l174 493h75v-696h-76v489h-3z"/>
<glyph glyph-name="afii10027" horiz-adv-x="429" unicode="Й" d="M300 489l-176 -489h-74v696h76v-492l4 -1l174 493h75v-696h-76v489h-3zM145 841q1 -10 6 -21t13.5 -20.5t20.5 -15.5t27 -6q16 0 28.5 6t21.5 15.5t13.5 20.5t4.5 21h63q-2 -19 -10 -40.5t-24 -39.5t-40 -30t-57 -12q-37 0 -62 12t-40.5 30t-22.5 39.5t-7 40.5h65z"/>
<glyph glyph-name="afii10028" horiz-adv-x="423" unicode="К" d="M53 0v696h79v-303h36q15 0 31.5 3t32 13.5t29 30.5t21.5 55l48 201h72l-46 -204q-11 -51 -33 -85.5t-52 -45.5q39 -14 60 -49.5t32 -87.5l50 -224h-79l-45 210q-8 35 -20 56.5t-28 33t-33.5 15t-35.5 3.5h-40v-318h-79z"/>
<glyph glyph-name="afii10029" horiz-adv-x="435" unicode="Л" d="M163 349q0 -96 -7 -158.5t-22.5 -103t-40.5 -64.5t-62 -43l-36 57q22 16 40 32.5t31 43t19.5 68t6.5 107.5v408h290v-696h-79v622h-140v-273z"/>
<glyph glyph-name="afii10030" horiz-adv-x="564" unicode="М" d="M427 482l-55 -144l-72 -169h-37l-72 169l-55 144h-4v-482h-79v696h80l83 -217l64 -170h3l66 175l81 212h81v-696h-79v482h-5z"/>
<glyph glyph-name="afii10031" horiz-adv-x="427" unicode="Н" d="M294 0v321h-162v-321h-79v696h79v-306h162v306h79v-696h-79z"/>
<glyph glyph-name="afii10032" horiz-adv-x="414" unicode="О" d="M288 522q0 18 -2.5 37t-10.5 34.5t-24.5 26t-43.5 10.5q-30 0 -46 -14.5t-24 -34.5t-9.5 -42.5t-1.5 -37.5v-338q0 -15 3 -32t12 -32t24.5 -24.5t40.5 -9.5t41 10t25 25.5t12.5 35.5t3.5 41v345zM367 187q0 -93 -36.5 -143.5t-124.5 -50.5q-86 0 -122.5 47t-36.5 124v343 q0 37 6.5 72t24 62.5t48.5 44t81 16.5q52 0 83.5 -14.5t48.5 -40.5t22.5 -61t5.5 -77v-322z"/>
<glyph glyph-name="afii10033" horiz-adv-x="414" unicode="П" d="M282 0v622h-150v-622h-79v696h308v-696h-79z"/>
<glyph glyph-name="afii10034" horiz-adv-x="395" unicode="Р" d="M132 354h54q36 0 57.5 11t33 29t14.5 42t3 51q0 28 -3.5 53t-14.5 43.5t-32 29t-56 10.5h-56v-269zM195 696q53 0 87 -14t54 -40.5t27.5 -65t7.5 -87.5q0 -44 -7 -82t-27 -66.5t-55.5 -44.5t-92.5 -16h-57v-280h-79v696h142z"/>
<glyph glyph-name="afii10035" horiz-adv-x="384" unicode="С" d="M204 702q81 0 117.5 -44t36.5 -115l-79 -14q1 46 -16.5 73t-59.5 27q-24 0 -39 -11t-23.5 -27.5t-11.5 -36.5t-3 -38v-351q0 -15 3 -32.5t11.5 -32t23 -24.5t38.5 -10q39 0 57.5 24t19.5 76l81 -14q-2 -75 -40.5 -117t-115.5 -42q-79 0 -118 44t-39 124v344 q0 37 6.5 72.5t23.5 63t48 44.5t79 17z"/>
<glyph glyph-name="afii10036" horiz-adv-x="326" unicode="Т" d="M203 624v-624h-80v624h-118v72h316v-72h-118z"/>
<glyph glyph-name="afii10037" horiz-adv-x="363" unicode="У" d="M190 307l92 389h76l-140 -535q-15 -59 -32 -92.5t-35 -50t-37 -21t-39 -5.5h-38v62h36q21 0 39.5 21.5t30.5 67.5l11 42l-151 510h78l105 -389z"/>
<glyph glyph-name="afii10038" horiz-adv-x="494" unicode="Ф" d="M210 588q-39 -4 -64.5 -28.5t-25.5 -66.5v-277q0 -42 21 -66.5t69 -28.5v467zM379 493q0 42 -27 67.5t-63 27.5v-467q37 2 63.5 27.5t26.5 67.5v277zM455 216q0 -41 -15 -71t-39 -50t-53.5 -30.5t-58.5 -12.5v-52h-79v52q-31 1 -60.5 12t-53 31t-38 50t-14.5 71v277 q0 41 14.5 71.5t37.5 50.5t53 30.5t60 12.5v38h80l1 -38q29 -2 58.5 -12.5t53 -30.5t38.5 -50.5t15 -71.5v-277z"/>
<glyph glyph-name="afii10039" horiz-adv-x="377" unicode="Х" d="M285 -1l-97 276l-96 -276h-83l139 366l-128 331h83l85 -245l86 245h83l-131 -331l142 -366h-83z"/>
<glyph glyph-name="afii10040" horiz-adv-x="424" unicode="Ц" d="M368 696v-621h36v-206h-70v131h-281v696h79v-621h157v621h79z"/>
<glyph glyph-name="afii10041" horiz-adv-x="412" unicode="Ч" d="M117 696v-255q0 -54 22 -74.5t68 -20.5q14 0 33.5 3t38.5 10v337h79v-696h-79v299q-20 -8 -44 -11t-46 -3q-31 0 -58 7.5t-47.5 25.5t-32 47.5t-11.5 73.5v257h77z"/>
<glyph glyph-name="afii10042" horiz-adv-x="616" unicode="Ш" d="M563 696v-696h-510v696h79v-620h136v620h79v-620h137v620h79z"/>
<glyph glyph-name="afii10043" horiz-adv-x="625" unicode="Щ" d="M563 75h37v-206h-70v131h-477v696h79v-621h136v621h79v-621h137v621h79v-621z"/>
<glyph glyph-name="afii10044" horiz-adv-x="499" unicode="Ъ" d="M234 75h56q35 0 56 10.5t32 29t14.5 43.5t3.5 53q0 27 -3 50.5t-14.5 41.5t-33 28.5t-57.5 10.5h-54v-267zM155 0v622h-138v74h217v-280h57q57 0 92.5 -15t55.5 -42t27 -64t7 -81q0 -49 -7.5 -88.5t-27.5 -67.5t-54 -43t-87 -15h-142z"/>
<glyph glyph-name="afii10045" horiz-adv-x="560" unicode="Ы" d="M424 0v696h80v-696h-80zM130 75h56q35 0 56 10.5t32 29t14.5 43.5t3.5 53q0 27 -3 50.5t-14.5 41.5t-33 28.5t-57.5 10.5h-54v-267zM51 0v696h79v-280h57q57 0 92.5 -15t55.5 -42t27 -64t7 -81q0 -49 -7.5 -88.5t-27.5 -67.5t-54 -43t-87 -15h-142z"/>
<glyph glyph-name="afii10046" horiz-adv-x="395" unicode="Ь" d="M130 75h56q35 0 56 10.5t32 29t14.5 43.5t3.5 53q0 27 -3 50.5t-14.5 41.5t-33 28.5t-57.5 10.5h-54v-267zM51 0v696h79v-280h57q57 0 92.5 -15t55.5 -42t27 -64t7 -81q0 -49 -7.5 -88.5t-27.5 -67.5t-54 -43t-87 -15h-142z"/>
<glyph glyph-name="afii10047" horiz-adv-x="387" unicode="Э" d="M104 147q4 -83 76 -83q24 0 38.5 10t23 25.5t11.5 33t3 32.5v153h-161v77h161v130q0 47 -17.5 75.5t-62.5 28.5q-37 0 -55 -25t-21 -63l-78 18q7 66 45.5 104.5t113.5 38.5q50 0 80.5 -16.5t47 -43.5t21.5 -60t5 -66v-355q0 -80 -39 -124t-118 -44q-72 0 -110 36t-45 102 z"/>
<glyph glyph-name="afii10048" horiz-adv-x="568" unicode="Ю" d="M442 522q0 18 -2 37t-10 34.5t-23.5 26t-41.5 10.5q-29 0 -44 -14.5t-22 -34.5t-8 -42.5t-1 -37.5v-338q0 -15 2.5 -32t10.5 -32t22.5 -24.5t38.5 -9.5t39 10t23.5 25.5t12 35.5t3.5 41v345zM521 187q0 -92 -36 -143t-120 -51q-41 0 -70 12.5t-47.5 35t-27 54t-8.5 69.5 v157h-80v-321h-79v696h79v-306h80v117q0 37 6 72t23 62.5t47 44t77 16.5q49 0 80 -14.5t47.5 -40.5t22.5 -61t6 -77v-322z"/>
<glyph glyph-name="afii10049" horiz-adv-x="428" unicode="Я" d="M136 491q0 -110 96 -110h67v241h-60q-30 0 -50 -10t-31.5 -27.5t-16.5 -41.5t-5 -52zM35 0l42 217q8 38 22 69.5t45 50.5q-26 7 -43 22t-27 35t-14 44.5t-4 52.5q0 100 42 152.5t127 52.5h153v-696h-79v311h-42q-13 0 -28.5 -3.5t-30 -15t-27 -32.5t-18.5 -57l-37 -203 h-81z"/>
<glyph glyph-name="afii10065" horiz-adv-x="361" unicode="а" d="M240 228h-58q-31 0 -54.5 -18.5t-23.5 -66.5q0 -35 15 -53.5t47 -18.5q37 0 55.5 21t18.5 58v78zM239 43q-20 -27 -45.5 -38t-57.5 -11q-31 0 -52 12.5t-33.5 33t-18 46t-5.5 52.5q0 28 6 56t21 51t41 37.5t67 14.5h78v66q0 29 -13.5 46t-51.5 17q-20 0 -39 -12t-24 -39 l-75 21q11 49 48 77t94 28q67 0 104 -30.5t37 -106.5v-364h-80v43h-1z"/>
<glyph glyph-name="afii10066" horiz-adv-x="362" unicode="б" d="M184 409q-20 0 -37 -10t-26 -33q-8 -19 -8.5 -55.5t-1.5 -96.5q0 -33 1 -59t6 -43q7 -22 23.5 -34.5t42.5 -12.5q21 0 37 13t24 33q5 11 7.5 45t2.5 76q0 13 -0.5 31t-1 36.5t-2 35t-4.5 25.5q-14 49 -63 49zM199 480q28 0 48 -6.5t33.5 -17.5t22.5 -25.5t15 -30.5 q5 -14 7.5 -36t4 -47t2 -51t0.5 -48q0 -28 -1 -48t-4 -49q-5 -40 -20 -65t-36.5 -39t-46.5 -19t-49 -5q-31 0 -53.5 8t-38.5 21t-26 30.5t-15 35.5q-6 23 -7.5 64t-1.5 79v99q0 79 6.5 134.5t20.5 93t36.5 61t55.5 39.5q19 9 34.5 15.5t31.5 12.5t34 13t42 18l27 -56 q-23 -12 -39 -19t-31 -13t-32.5 -14t-42.5 -22q-35 -19 -49 -62t-14 -93h2q20 26 45 34t39 8z"/>
<glyph glyph-name="afii10067" horiz-adv-x="379" unicode="в" d="M256 360q0 32 -18.5 48t-63.5 16h-47v-131h46q45 0 64 17t19 50zM265 156q0 34 -17 52.5t-67 18.5h-54v-152h56q27 0 43 6t25 16.5t11.5 25.5t2.5 33zM46 0v494h132q81 0 119 -35.5t38 -99.5q0 -35 -11.5 -57.5t-36.5 -39.5h1q30 -14 41.5 -43.5t11.5 -68.5 q0 -78 -41 -114t-126 -36h-128z"/>
<glyph glyph-name="afii10068" horiz-adv-x="323" unicode="г" d="M126 424v-424h-80v494h257v-70h-177z"/>
<glyph glyph-name="afii10069" horiz-adv-x="425" unicode="д" d="M290 424h-111l-10 -198q-3 -54 -9 -92.5t-20 -63.5h150v354zM93 -124h-73v183l27 9q10 9 17.5 20.5t13.5 29.5t9.5 44.5t5.5 66.5l10 265h266v-424h36v-194h-72v124h-240v-124z"/>
<glyph glyph-name="afii10070" horiz-adv-x="357" unicode="е" d="M242 289v42q0 19 -2.5 36.5t-9.5 30.5t-19.5 20.5t-32.5 7.5q-18 0 -33 -8.5t-24 -31.5q-5 -14 -7 -38t-3 -59h131zM180 66q29 0 43.5 19.5t16.5 54.5l81 -15q-4 -64 -39.5 -98t-107.5 -34q-32 0 -55 8.5t-39 22t-25.5 30.5t-13.5 34q-3 12 -5 30t-3 39.5t-1.5 43.5 t-0.5 41q0 25 0.5 50.5t2.5 48.5t5 42.5t8 32.5q14 39 46.5 62t88.5 23q74 0 107 -41t33 -113v-122h-212q0 -33 1.5 -65t6.5 -49q14 -45 62 -45z"/>
<glyph glyph-name="afii10072" horiz-adv-x="579" unicode="ж" d="M250 0v213h-30q-16 0 -30.5 -3t-26.5 -11t-21 -23.5t-15 -39.5l-34 -136h-78l43 160q10 37 25.5 63t48.5 34q-26 8 -42.5 32.5t-26.5 60.5l-39 143h76l38 -142q6 -24 16.5 -38.5t23 -22t26 -9.5t27.5 -2h19v214h79v-214h19q13 0 27 2t26.5 9.5t23 22t16.5 38.5l38 142h76 l-39 -143q-10 -36 -26.5 -60.5t-42.5 -32.5q33 -8 48.5 -34t25.5 -63l43 -160h-78l-34 136q-6 24 -15 39.5t-21 23.5t-26.5 11t-30.5 3h-30v-213h-79z"/>
<glyph glyph-name="afii10073" horiz-adv-x="343" unicode="з" d="M251 255q34 -11 43 -42.5t9 -70.5q0 -42 -12.5 -70t-33.5 -45t-48.5 -24.5t-57.5 -7.5q-60 0 -98 30t-44 97l77 12q2 -36 18.5 -52t48.5 -16q26 0 47.5 16.5t21.5 60.5q0 34 -12 56t-43 22h-44v69h46q29 0 41 18t12 52q0 29 -15.5 48t-49.5 19q-62 0 -66 -67l-75 16 q5 60 43 91.5t98 31.5q69 0 107.5 -33t38.5 -102q0 -17 -2.5 -34t-8.5 -31t-16 -25t-25 -17v-2z"/>
<glyph glyph-name="afii10074" horiz-adv-x="394" unicode="и" d="M269 0v325h-2l-146 -325h-76v494h77v-323h2l145 323h80v-494h-80z"/>
<glyph glyph-name="afii10075" horiz-adv-x="394" unicode="й" d="M269 0v325h-2l-146 -325h-76v494h77v-323h2l145 323h80v-494h-80zM125 690q1 -10 6 -21t13.5 -20.5t20.5 -15.5t27 -6q16 0 28.5 6t21.5 15.5t13.5 20.5t4.5 21h63q-2 -19 -10 -40.5t-24 -39.5t-40 -30t-57 -12q-37 0 -62 12t-40.5 30t-22.5 39.5t-7 40.5h65z"/>
<glyph glyph-name="afii10076" horiz-adv-x="375" unicode="к" d="M35 0v493h79v-214h34q13 0 27 2t26.5 9.5t23 22t16.5 38.5l38 142h76l-39 -143q-10 -36 -26.5 -60.5t-42.5 -32.5q33 -8 48.5 -34t25.5 -63l43 -160h-78l-34 136q-6 24 -15 39.5t-21 23.5t-26.5 11t-30.5 3h-45v-213h-79z"/>
<glyph glyph-name="afii10077" horiz-adv-x="373" unicode="л" d="M5 42q21 14 34.5 27t21.5 29.5t11 40.5t3 60v295h263v-494h-80v424h-111v-228q0 -47 -5.5 -80.5t-18 -58.5t-33 -42.5t-50.5 -31.5z"/>
<glyph glyph-name="afii10078" horiz-adv-x="502" unicode="м" d="M376 0v332h-2l-48 -103l-58 -113h-36l-58 111l-46 96h-2v-323h-81v494h78l73 -151l54 -107h2l52 107l75 151h78v-494h-81z"/>
<glyph glyph-name="afii10079" horiz-adv-x="384" unicode="н" d="M257 0v219h-130v-219h-81v494h81v-208h130v208h81v-494h-81z"/>
<glyph glyph-name="afii10080" horiz-adv-x="362" unicode="о" d="M184 429q-20 0 -36.5 -9t-25.5 -32q-6 -14 -8 -58.5t-3 -104.5q0 -33 1 -64.5t6 -48.5q14 -46 66 -46q21 0 37 12.5t24 32.5q2 5 4 18.5t3.5 32t2 39.5t0.5 42t-0.5 41.5t-1 39.5t-2 34t-4.5 24q-14 47 -63 47zM186 501q42 0 68.5 -11t42.5 -30.5t23 -46t9 -57.5 q2 -29 3 -62t1 -59q0 -57 -6 -114q-5 -40 -20 -65t-36.5 -39t-46.5 -19t-49 -5q-31 0 -53.5 8t-38.5 21t-26 30.5t-15 35.5q-3 12 -5 30t-2.5 39.5t-1 43.5t-0.5 41q0 25 1 51.5t3 50.5t5 43.5t8 31.5q14 38 47 60t89 22z"/>
<glyph glyph-name="afii10081" horiz-adv-x="387" unicode="п" d="M261 0v424h-134v-424h-79v494h292v-494h-79z"/>
<glyph glyph-name="afii10082" horiz-adv-x="364" unicode="р" d="M178 424q-33 0 -50 -22t-17 -56v-196q0 -35 16 -56t51 -21q22 0 35.5 8.5t21 29.5t10.5 55.5t3 85.5q0 46 -1.5 78.5t-8.5 53.5t-21 30.5t-39 9.5zM205 501q13 0 32 -3.5t36.5 -16t31.5 -36.5t19 -65q3 -30 3.5 -63t0.5 -62q0 -54 -2.5 -101.5t-15 -82.5t-38.5 -55.5 t-73 -20.5q-29 0 -50 10.5t-35 30.5h-2v-228h-79v687h79v-38l2 -1q16 22 34 33.5t57 11.5z"/>
<glyph glyph-name="afii10083" horiz-adv-x="334" unicode="с" d="M173 -7q-31 0 -53.5 8t-38.5 21t-25.5 30.5t-14.5 35.5q-3 12 -5 30t-2.5 39.5t-1 43.5t-0.5 41q0 25 1 51.5t2.5 50.5t4.5 43.5t8 31.5q14 38 46 60t88 22q74 0 105.5 -39.5t31.5 -106.5l-82 -11q0 45 -15.5 65t-42.5 20q-20 0 -34.5 -9t-23.5 -32q-6 -15 -8 -59 t-3 -104q0 -33 1 -64.5t6 -48.5q7 -22 21.5 -34.5t40.5 -12.5q31 0 44.5 22t13.5 60l81 -14q-2 -68 -36.5 -104t-108.5 -36z"/>
<glyph glyph-name="afii10084" horiz-adv-x="288" unicode="т" d="M183 424v-424h-78v424h-104v70h287v-70h-105z"/>
<glyph glyph-name="afii10085" horiz-adv-x="336" unicode="у" d="M191 -83q-12 -50 -38 -80.5t-79 -30.5h-30v68h20q28 0 40.5 18.5t23.5 68.5l8 35l-131 498h84l42 -189l40 -171h3l37 173l41 187h81z"/>
<glyph glyph-name="afii10086" horiz-adv-x="463" unicode="ф" d="M271 66q52 4 71 40q10 20 11.5 52t1.5 67q0 24 -0.5 48t-1 44.5t-2 36t-4.5 23.5q-8 23 -26.5 34t-49.5 14v-359zM193 425q-27 -3 -45.5 -13.5t-26.5 -31.5q-3 -9 -5 -25t-3 -37t-1.5 -45t-0.5 -48q0 -17 0.5 -35t1.5 -34.5t3 -30t5 -20.5q16 -33 71 -39zM194 -7 q-56 5 -88.5 22.5t-48.5 47.5q-18 33 -21 79t-3 100q0 50 2 93.5t15 76.5q15 40 49 63t94 26v185h78v-185q66 -3 101 -29t49 -72q3 -12 5.5 -30t3.5 -39t1.5 -44t0.5 -45q0 -58 -4.5 -107.5t-29.5 -83.5q-33 -45 -127 -58v-186h-77v186z"/>
<glyph glyph-name="afii10087" horiz-adv-x="332" unicode="х" d="M239 0l-71 171l-75 -171h-87l121 252l-117 242h89l69 -163l65 163h92l-114 -241l116 -253h-88z"/>
<glyph glyph-name="afii10088" horiz-adv-x="385" unicode="ц" d="M337 494v-419h33v-199h-73v124h-251v494h81v-419h130v419h80z"/>
<glyph glyph-name="afii10089" horiz-adv-x="355" unicode="ч" d="M240 211q-53 -28 -102 -28q-53 0 -82.5 28t-29.5 91v192h80v-171q0 -68 60 -68q17 0 37 6.5t38 17.5v215h78v-494h-79v211z"/>
<glyph glyph-name="afii10090" horiz-adv-x="562" unicode="ш" d="M514 494v-494h-466v494h78v-419h115v419h79v-419h117v419h77z"/>
<glyph glyph-name="afii10091" horiz-adv-x="579" unicode="щ" d="M513 494v-419h34v-183h-71v108h-428v494h77v-419h115v419h79v-419h116v419h78z"/>
<glyph glyph-name="afii10092" horiz-adv-x="449" unicode="ъ" d="M135 0v424h-119v70h201v-187h43q52 0 84 -12.5t50 -33t24.5 -47.5t6.5 -57q0 -36 -7 -65t-25 -49.5t-49 -31.5t-79 -11h-130zM217 75h43q28 0 45 7.5t26 19t12 25.5t3 28q0 15 -3 29.5t-12.5 25t-27 17t-45.5 6.5h-41v-158z"/>
<glyph glyph-name="afii10093" horiz-adv-x="508" unicode="ы" d="M44 0v494h82v-187h43q52 0 84 -12.5t50 -33t24.5 -47.5t6.5 -57q0 -36 -7 -65t-25 -49.5t-49 -31.5t-79 -11h-130zM376 0v494h82v-494h-82zM126 75h43q28 0 45 7.5t26 19t12 25.5t3 28q0 15 -3 29.5t-12.5 25t-27 17t-45.5 6.5h-41v-158z"/>
<glyph glyph-name="afii10094" horiz-adv-x="355" unicode="ь" d="M44 0v494h82v-187h43q52 0 84 -12.5t50 -33t24.5 -47.5t6.5 -57q0 -36 -7 -65t-25 -49.5t-49 -31.5t-79 -11h-130zM126 75h43q28 0 45 7.5t26 19t12 25.5t3 28q0 15 -3 29.5t-12.5 25t-27 17t-45.5 6.5h-41v-158z"/>
<glyph glyph-name="afii10095" horiz-adv-x="345" unicode="э" d="M91 286h140q-1 37 -3 62.5t-7 39.5q-9 23 -23.5 32t-34.5 9q-26 0 -41.5 -17t-16.5 -49l-82 13q3 55 38 90t106 35q56 0 84.5 -22t42.5 -60q4 -12 7.5 -31.5t5 -43.5t2.5 -50.5t1 -51.5q0 -19 -0.5 -41t-1 -43.5t-2.5 -39.5t-5 -30q-5 -18 -14.5 -35.5t-25.5 -30.5 t-38.5 -21t-53.5 -8q-72 0 -107 33.5t-38 91.5l81 10q2 -28 15.5 -45.5t42.5 -17.5q26 0 40.5 12.5t21.5 34.5q5 16 6 44.5t1 58.5h-141v71z"/>
<glyph glyph-name="afii10096" horiz-adv-x="491" unicode="ю" d="M319 426q-18 0 -33.5 -9t-23.5 -32q-6 -14 -7.5 -58t-2.5 -103q0 -33 0.5 -64t5.5 -48q13 -46 61 -46q20 0 35.5 12.5t22.5 32.5q2 5 3.5 18.5t2 31.5t1 39t0.5 42v41t-1 39.5t-2 33t-4 23.5q-12 47 -58 47zM321 498q40 0 65 -11t40 -30.5t22 -46t9 -56.5q2 -29 3 -61.5 t1 -58.5q0 -28 -1 -56.5t-4 -57.5q-4 -39 -19 -64t-35.5 -39t-44.5 -19t-46 -5q-29 0 -51 8t-37 21t-24.5 30.5t-13.5 35.5q-5 20 -7 57.5t-2 73.5h-61v-219h-80v494h80v-208h61q2 40 5 75.5t10 54.5q13 38 45 60t85 22z"/>
<glyph glyph-name="afii10097" horiz-adv-x="379" unicode="я" d="M212 424q-47 0 -66.5 -22.5t-19.5 -58.5q0 -32 20.5 -50t58.5 -18h54v149h-47zM45 347q0 69 38 108t116 39h140v-494h-80v208h-43q-29 0 -45.5 -16t-27.5 -61l-33 -131h-80l42 155q6 23 17.5 44t30.5 32q-42 15 -58.5 46.5t-16.5 69.5z"/>
<glyph glyph-name="afii10071" horiz-adv-x="357" unicode="ё" d="M70 596v80h69v-80h-69zM224 596v80h68v-80h-68zM242 289v42q0 19 -2.5 36.5t-9.5 30.5t-19.5 20.5t-32.5 7.5q-18 0 -33 -8.5t-24 -31.5q-5 -14 -7 -38t-3 -59h131zM180 66q29 0 43.5 19.5t16.5 54.5l81 -15q-4 -64 -39.5 -98t-107.5 -34q-32 0 -55 8.5t-39 22 t-25.5 30.5t-13.5 34q-3 12 -5 30t-3 39.5t-1.5 43.5t-0.5 41q0 25 0.5 50.5t2.5 48.5t5 42.5t8 32.5q14 39 46.5 62t88.5 23q74 0 107 -41t33 -113v-122h-212q0 -33 1.5 -65t6.5 -49q14 -45 62 -45z"/>
<glyph glyph-name="afii10099" horiz-adv-x="386" unicode="ђ" d="M229 492q43 0 68 -20t36 -55q4 -12 6.5 -33.5t3.5 -47t1.5 -53t0.5 -51.5q0 -19 -0.5 -43.5t-2 -49t-3.5 -45t-5 -32.5q-5 -18 -15 -35t-26 -30t-38.5 -21t-53.5 -8h-14v71h8q26 0 40.5 12.5t21.5 34.5q3 9 4 24t2 33t1 36.5v35.5q0 54 -1.5 95.5t-6.5 62.5 q-5 17 -17.5 28t-39.5 11q-40 0 -57 -26t-17 -62v-324h-78v575h-47v61h47v90h79v-90h137v-61h-137v-140h3q13 23 39 40t61 17z"/>
<glyph glyph-name="afii10100" horiz-adv-x="323" unicode="ѓ" d="M126 424v-424h-80v494h257v-70h-177zM110 573l68 168l71 -25l-96 -160z"/>
<glyph glyph-name="afii10101" horiz-adv-x="355" unicode="є" d="M330 118q-3 -58 -38 -91.5t-107 -33.5q-31 0 -53.5 8t-38.5 21t-25.5 30.5t-14.5 35.5q-3 12 -5 30t-2.5 39.5t-1 43.5t-0.5 41q0 25 1 51.5t2.5 50.5t4.5 43.5t8 31.5q14 38 47 60t89 22q36 0 61 -9.5t41 -26t24 -39.5t9 -51l-82 -8q-2 30 -17.5 46t-40.5 16 q-20 0 -34.5 -9t-23.5 -32q-6 -14 -8 -40.5t-3 -64.5h139v-68h-139q0 -31 1 -59t6 -44q7 -22 21.5 -34.5t40.5 -12.5q29 0 42.5 17.5t15.5 45.5z"/>
<glyph glyph-name="afii10102" horiz-adv-x="339" unicode="ѕ" d="M111 140q-1 -34 14 -54t44 -20q37 0 51 17t14 54q0 17 -3 29.5t-11 22t-22 17.5t-37 17q-38 14 -62.5 30t-38 34t-18.5 38t-5 42q0 59 34.5 96.5t103.5 37.5q74 0 105.5 -36.5t31.5 -99.5l-82 -11v8q0 33 -15 49.5t-41 16.5q-18 0 -30 -5.5t-18.5 -14.5t-9 -20t-2.5 -21 q0 -12 3 -22.5t12 -20t25 -18.5t43 -18q37 -13 59.5 -28.5t34.5 -34t15.5 -40t3.5 -47.5q0 -66 -32.5 -105.5t-104.5 -39.5t-106.5 34.5t-36.5 99.5z"/>
<glyph glyph-name="afii10103" horiz-adv-x="170" unicode="і" d="M44 0v494h80v-494h-80zM44 616v80h80v-80h-80z"/>
<glyph glyph-name="afii10104" horiz-adv-x="170" unicode="ї" d="M44 0v494h80v-494h-80zM-28 589v80h69v-80h-69zM126 589v80h68v-80h-68z"/>
<glyph glyph-name="afii10105" horiz-adv-x="176" unicode="ј" d="M128 -69q0 -26 -5.5 -49.5t-18.5 -41.5t-35.5 -28.5t-56.5 -10.5h-30v75h14q34 0 43 15t9 56v547h80v-563zM48 617v80h80v-80h-80z"/>
<glyph glyph-name="afii10106" horiz-adv-x="553" unicode="љ" d="M320 75h43q28 0 45 7.5t26 19t12 25.5t3 28q0 15 -3 29.5t-12.5 25t-27 17t-45.5 6.5h-41v-158zM147 424v-228q0 -47 -5.5 -80.5t-18 -58.5t-33 -42.5t-50.5 -31.5l-35 59q21 14 34.5 27t21.5 29.5t11 40.5t3 60v295h245v-187h43q52 0 84 -12.5t50 -33t24.5 -47.5 t6.5 -57q0 -36 -7 -65t-25 -49.5t-49 -31.5t-79 -11h-130v424h-91z"/>
<glyph glyph-name="afii10107" horiz-adv-x="570" unicode="њ" d="M252 0v223h-122v-223h-81v494h81v-195h122v195h82v-195h43q52 0 84 -11.5t50 -31t24.5 -45.5t6.5 -54q0 -36 -7 -65t-25 -49.5t-49 -31.5t-79 -11h-130zM334 75h43q28 0 45 7.5t26 19t12 25.5t3 28t-3 26.5t-12.5 21.5t-27 14.5t-45.5 5.5h-41v-148z"/>
<glyph glyph-name="afii10108" horiz-adv-x="386" unicode="ћ" d="M127 636h137v-61h-137v-137h3q35 54 101 54q55 0 82.5 -35.5t27.5 -92.5v-364h-80v343q0 32 -17 50.5t-50 18.5q-32 0 -50 -19t-18 -54v-339h-78v575h-47v61h47v90h79v-90z"/>
<glyph glyph-name="afii10109" horiz-adv-x="375" unicode="ќ" d="M35 0v493h79v-214h34q13 0 27 2t26.5 9.5t23 22t16.5 38.5l38 142h76l-39 -143q-10 -36 -26.5 -60.5t-42.5 -32.5q33 -8 48.5 -34t25.5 -63l43 -160h-78l-34 136q-6 24 -15 39.5t-21 23.5t-26.5 11t-30.5 3h-45v-213h-79zM135 573l68 168l71 -25l-96 -160z"/>
<glyph glyph-name="afii10110" horiz-adv-x="336" unicode="ў" d="M107 690q1 -10 6 -21t13.5 -20.5t20.5 -15.5t27 -6q16 0 28.5 6t21.5 15.5t13.5 20.5t4.5 21h63q-2 -19 -10 -40.5t-24 -39.5t-40 -30t-57 -12q-37 0 -62 12t-40.5 30t-22.5 39.5t-7 40.5h65zM191 -83q-12 -50 -38 -80.5t-79 -30.5h-30v68h20q28 0 40.5 18.5t23.5 68.5 l8 35l-131 498h84l42 -189l40 -171h3l37 173l41 187h81z"/>
<glyph glyph-name="afii10193" horiz-adv-x="386" unicode="џ" d="M338 494v-494h-107v-128h-75v128h-108v494h81v-418h130v418h79z"/>
<glyph glyph-name="afii10050" horiz-adv-x="358" unicode="Ґ" d="M132 622v-622h-79v696h211l-1 123h72v-197h-203z"/>
<glyph glyph-name="afii10098" horiz-adv-x="323" unicode="ґ" d="M126 424v-424h-80v494h186v115h71v-185h-177z"/>
<glyph glyph-name="schwacyrillic" horiz-adv-x="357" unicode="ә" d="M112 205v-42q0 -20 2.5 -37t9.5 -30t19.5 -20.5t32.5 -7.5q18 0 33 8.5t24 31.5q5 14 7 38t3 59h-131zM174 428q-29 0 -43.5 -19.5t-16.5 -54.5l-81 15q4 64 39.5 98t107.5 34q32 0 55 -8.5t39 -22t25 -30.5t14 -34q3 -12 5 -30t3 -39.5t1.5 -43.5t0.5 -41 q0 -25 -0.5 -50.5t-2.5 -48.5t-5 -42.5t-8 -32.5q-14 -39 -46.5 -62t-88.5 -23q-74 0 -107 41t-33 113v122h212q0 33 -1.5 65t-6.5 49q-14 45 -62 45z"/>
<glyph glyph-name="endash" horiz-adv-x="500" unicode="–" d="M20 230v75h460v-75h-460z"/>
<glyph glyph-name="emdash" horiz-adv-x="1000" unicode="—" d="M20 230v75h960v-75h-960z"/>
<glyph glyph-name="quoteleft" horiz-adv-x="226" unicode="‘" d="M112 701h44l-24 -112h21v-97h-87v95z"/>
<glyph glyph-name="quotesinglbase" horiz-adv-x="193" unicode="‚" d="M93 -120h-44l24 112h-21v97h87v-95z"/>
<glyph glyph-name="quotedblleft" horiz-adv-x="293" unicode="“" d="M209 701h44l-24 -112h21v-97h-87v95zM92 701h44l-24 -112h21v-97h-87v95z"/>
<glyph glyph-name="quotedblright" horiz-adv-x="293" unicode="”" d="M91 493h-44l24 112h-21v97h87v-95zM208 493h-44l24 112h-21v97h87v-95z"/>
<glyph glyph-name="dagger" horiz-adv-x="358" unicode="†" d="M214 398v-556h-70v556h-133v70h133v208h70v-208h133v-70h-133z"/>
<glyph glyph-name="daggerdbl" horiz-adv-x="358" unicode="‡" d="M144 398h-133v70h133v208h70v-208h133v-70h-133v-239h133v-70h-133v-247h-70v247h-133v70h133v239z"/>
<glyph glyph-name="ellipsis" horiz-adv-x="607" unicode="…" d="M470 0v91h87v-91h-87zM260 0v91h87v-91h-87zM52 0v91h87v-91h-87z"/>
<glyph glyph-name="perthousand" horiz-adv-x="865" unicode="‰" d="M771 333q0 13 -9.5 22t-24.5 9q-16 0 -25.5 -9t-9.5 -22v-250q0 -14 9.5 -23t25.5 -9q15 0 24.5 9t9.5 23v250zM833 80q0 -41 -29 -62.5t-67 -21.5q-19 0 -36.5 5.5t-31 16t-21.5 26t-8 36.5v255q0 21 8 36.5t21.5 26t31 16t36.5 5.5q38 0 67 -21.5t29 -62.5v-255z M177 -17h-51l314 731h51zM163 612q0 13 -9.5 22t-24.5 9q-16 0 -25.5 -9t-9.5 -22v-250q0 -14 9.5 -23t25.5 -9q15 0 24.5 9t9.5 23v250zM225 359q0 -41 -29 -62.5t-67 -21.5q-19 0 -36.5 5.5t-31 16t-21.5 26t-8 36.5v255q0 21 8 36.5t21.5 26t31 16t36.5 5.5 q38 0 67 -21.5t29 -62.5v-255zM516 333q0 13 -9.5 22t-24.5 9q-16 0 -25.5 -9t-9.5 -22v-250q0 -14 9.5 -23t25.5 -9q15 0 24.5 9t9.5 23v250zM578 80q0 -41 -29 -62.5t-67 -21.5q-19 0 -36.5 5.5t-31 16t-21.5 26t-8 36.5v255q0 21 8 36.5t21.5 26t31 16t36.5 5.5 q38 0 67 -21.5t29 -62.5v-255z"/>
<glyph glyph-name="guilsinglleft" horiz-adv-x="279" unicode="‹" d="M153 46l-107 186l107 186h78l-105 -186l105 -186h-78z"/>
<glyph glyph-name="guilsinglright" horiz-adv-x="279" unicode="›" d="M45 46l105 186l-105 186h78l107 -186l-107 -186h-78z"/>
<glyph glyph-name="Euro" d="M18 319h32v63h-32v47h32v76q0 37 6.5 72.5t23.5 63t48 44.5t79 17q75 0 113.5 -38t39.5 -101l-79 -13q-4 79 -75 79q-24 0 -39 -11t-23.5 -27.5t-11.5 -36.5t-3 -38v-87h142v-47h-142v-63h142v-49h-142v-105q0 -15 3 -32.5t11.5 -32t23 -24.5t38.5 -10q35 0 53.5 19.5 t22.5 61.5l81 -12q-6 -67 -44.5 -104.5t-110.5 -37.5q-79 0 -118 44t-39 124v109h-32v49z" unicode="€"/>
<glyph glyph-name="trademark" horiz-adv-x="670" unicode="™" d="M184 638v-337h-63v337h-84v58h231v-58h-84zM550 528l-62 -157h-53l-62 158h-3v-229h-62v395h62l94 -238l91 238h61v-395h-63v228h-3z"/>
<glyph glyph-name="arrowleft" horiz-adv-x="840" unicode="←" d="M779 353v-64l-577 1l146 -145l-46 -45l-220 221l220 222l46 -45l-146 -145h577z"/>
<glyph glyph-name="arrowup" horiz-adv-x="485" unicode="↑" d="M279 1h-64v573l-144 -142l-45 46l221 220l222 -220l-45 -46l-145 142v-573z"/>
<glyph glyph-name="arrowright" horiz-adv-x="840" unicode="→" d="M660 353l-146 145l46 45l220 -222l-220 -221l-46 45l146 145l-577 -1v64h577z"/>
<glyph glyph-name="arrowdown" horiz-adv-x="485" unicode="↓" d="M279 122l145 146l45 -46l-222 -220l-221 220l45 46l145 -146v577h63v-577z"/>
<glyph glyph-name="carriagereturn" horiz-adv-x="840" unicode="↵" d="M713 692h65v-403l-576 1l146 -145l-46 -45l-220 221l220 222l46 -45l-146 -145h511v339z"/>
<glyph glyph-name="partialdiff" horiz-adv-x="318" unicode="∂" d="M23 218q0 52 9.5 94.5t26.5 72t40 45.5t49 16q23 0 44.5 -11t43.5 -43q-2 61 -7 110t-19 83.5t-39.5 53.5t-67.5 19q-6 0 -12.5 -0.5t-14.5 -1.5l-1 60q9 1 18 1.5t17 0.5q62 0 99 -27t56.5 -76t25.5 -116t6 -148q0 -180 -41.5 -270.5t-105.5 -90.5q-54 0 -90.5 58 t-36.5 170zM80 220q0 -81 22 -117.5t50 -36.5q22 0 38 21t26 54.5t15.5 75t6.5 81.5q-24 48 -46.5 62.5t-40.5 14.5q-17 0 -30 -13.5t-22 -35.5t-14 -50t-5 -56z"/>
<glyph glyph-name="gradient" horiz-adv-x="395" unicode="∇" d="M200 164l32 160l59 298h-188l59 -295l33 -163h5zM385 696l-150 -696h-74l-148 696h372z"/>
<glyph glyph-name="product" horiz-adv-x="414" unicode="∏" d="M282 -83v710h-150v-710h-79v779h308v-779h-79z"/>
<glyph glyph-name="summation" horiz-adv-x="310" unicode="∑" d="M17 -81v68l100 321l-104 320v68h275v-74h-195l103 -314l-99 -315h204v-74h-284z"/>
<glyph glyph-name="minus" d="M9 264v60h363v-60h-363z" unicode="−"/>
<glyph glyph-name="radical" horiz-adv-x="343" unicode="√" d="M215 -81h-52l-95 410l-43 -23l-14 59l94 49l81 -349l102 732h56z"/>
<glyph glyph-name="infinity" horiz-adv-x="671" unicode="∞" d="M492 365q-39 0 -65 -24t-54 -61q14 -17 26.5 -32.5t26 -26.5t29 -17.5t35.5 -6.5q35 0 56.5 23.5t21.5 59.5q0 38 -20.5 61.5t-55.5 23.5zM183 365q-35 0 -57.5 -25t-22.5 -60q0 -38 21.5 -60.5t56.5 -22.5q39 0 67 23t49 59q-9 15 -20.5 30.5t-26 27.5t-31.5 20t-36 8z M183 424q26 0 48.5 -9.5t41.5 -24.5t35 -33.5t28 -37.5q16 22 33 41t35.5 33t41 22.5t50.5 8.5q60 0 95 -40t35 -104q0 -30 -10 -55.5t-28 -45t-43.5 -30.5t-56.5 -11q-24 0 -45 8.5t-40 23t-35.5 32.5t-31.5 37q-17 -21 -34 -39t-35.5 -32t-41 -22t-50.5 -8q-60 0 -95.5 38 t-35.5 104q0 29 10 55.5t28.5 46t44 31t56.5 11.5z"/>
<glyph glyph-name="logicaland" horiz-adv-x="420" unicode="∧" d="M381 0h-69l-105 418l-101 -418h-67l137 523h63z"/>
<glyph glyph-name="logicalor" horiz-adv-x="420" unicode="∨" d="M239 0h-63l-137 523h67l101 -418l105 418h69z"/>
<glyph glyph-name="intersection" horiz-adv-x="420" unicode="∩" d="M382 0h-72v299q0 26 -2 54t-12 51t-30 38t-57 15q-36 0 -57 -15t-31 -38t-12.5 -51t-2.5 -54v-299h-68v299q0 41 5.5 81t23.5 71.5t51.5 51t90.5 19.5q56 0 90 -19.5t52.5 -51t24.5 -71.5t6 -81v-299z"/>
<glyph glyph-name="union" horiz-adv-x="420" unicode="∪" d="M382 223q0 -41 -6 -81t-24.5 -71.5t-52.5 -51t-90 -19.5q-57 0 -90.5 19.5t-51.5 51t-23.5 71.5t-5.5 81v299h68v-299q0 -26 2.5 -54t12.5 -51t31 -38t57 -15q37 0 57 15t30 38t12 51t2 54v299h72v-299z"/>
<glyph glyph-name="approxequal" d="M112 275q24 0 43.5 -7t38 -16t36 -16t37.5 -7q19 0 28.5 9t27.5 31l45 -28q-18 -33 -42.5 -56.5t-59.5 -23.5q-19 0 -38 7.5t-38 16t-39 16t-40 7.5q-19 0 -29.5 -8.5t-30.5 -29.5l-41 28q17 30 42 53.5t60 23.5zM112 415q24 0 44 -7t38.5 -15.5t36 -15.5t36.5 -7t28.5 9 t27.5 30l45 -27q-18 -33 -42.5 -57t-59.5 -24q-19 0 -37.5 7.5t-38 16.5t-39 16.5t-40.5 7.5q-19 0 -30 -8.5t-30 -30.5l-41 29q17 30 42 53t60 23z" unicode="≈"/>
<glyph glyph-name="notequal" d="M8 77l77 111h-76v63h119l63 90h-182v63h225l75 107h64l-75 -107h74v-63h-118l-62 -90h180v-63h-224l-77 -111h-63z" unicode="≠"/>
<glyph glyph-name="lessequal" d="M14 0v63h353v-63h-353zM13 259v63l355 137v-62l-262 -106l262 -110v-64z" unicode="≤"/>
<glyph glyph-name="greaterequal" d="M15 0v63h353v-63h-353zM14 117v64l262 110l-262 106v62l355 -137v-63z" unicode="≥"/>
<glyph glyph-name="lozenge" horiz-adv-x="337" unicode="◊" d="M17 298l105 298h91l106 -298l-105 -297h-91zM88 296l80 -230h3l79 230l-82 232h-3l-79 -232h2z"/>
</font>
</defs>
</svg>
