<?xml version="1.0" encoding="UTF-8" standalone="no"?>
<!DOCTYPE svg  PUBLIC '-//W3C//DTD SVG 1.1//EN'  'http://www.w3.org/Graphics/SVG/1.1/DTD/svg11.dtd'>
<svg xmlns="http://www.w3.org/2000/svg">
<defs>
<font id="PFDinTextCompPro-Light" horiz-adv-x="367">
<font-face underline-position="-50" font-weight="300" descent="-200" panose-1="2 0 0 0 0 0 0 0 0 0" units-per-em="1000" unicode-range="U+0020-25CA" bbox="-51 -207 980 884" x-height="491" underline-thickness="50" font-family="PFDinTextCompPro" ascent="800" cap-height="696"/>
<missing-glyph horiz-adv-x="1000"/>
<glyph glyph-name=".notdef" horiz-adv-x="1000"/>
<glyph glyph-name=".null" horiz-adv-x="0"/>
<glyph glyph-name="nonmarkingreturn" horiz-adv-x="333"/>
<glyph glyph-name="space" horiz-adv-x="184" unicode=" "/>
<glyph glyph-name="exclam" horiz-adv-x="214" unicode="!" d="M74 0v64h65v-64h-65zM81 168l-6 528h63l-6 -528h-51z"/>
<glyph glyph-name="quotedbl" horiz-adv-x="220" unicode='&quot;' d="M38 514v182h49v-182h-49zM135 514v182h47v-182h-47z"/>
<glyph glyph-name="numbersign" d="M115 265h101l32 172h-101zM208 224h-101l-41 -224h-43l42 224h-60v41h68l31 172h-58v42h66l43 222h43l-43 -222h101l42 222h43l-42 -222h60v-42h-68l-32 -172h58v-41h-66l-42 -224h-43z" unicode="#"/>
<glyph glyph-name="dollar" d="M87 524q0 -20 3 -36t11 -29.5t23.5 -26.5t41.5 -26v236q-25 -3 -40.5 -15t-24 -28.5t-11.5 -36.5t-3 -38zM279 185q0 30 -2.5 50t-10.5 35.5t-24 27.5t-43 25v-271q27 3 43 15t24 30t10.5 40.5t2.5 47.5zM341 186q0 -41 -7.5 -75.5t-24 -59.5t-43.5 -39.5t-67 -17.5v-93 h-33v93q-38 2 -65.5 14.5t-45 32.5t-26 47t-8.5 59l61 13q0 -20 4.5 -38.5t14 -33t25.5 -24t40 -12.5v286q-46 21 -73.5 41.5t-42.5 42.5t-19.5 46.5t-4.5 54.5q0 74 34 122.5t106 55.5v84h33v-84q41 -2 68 -16t43.5 -35.5t23.5 -47t7 -49.5l-61 -15q0 43 -18.5 71.5 t-62.5 33.5v-253q1 0 5 -1.5t5 -2.5q45 -18 71 -37.5t39.5 -43t17.5 -52.5t4 -67z" unicode="$"/>
<glyph glyph-name="percent" horiz-adv-x="580" unicode="%" d="M152 -17h-42l314 731h42zM177 612q0 16 -10.5 27.5t-30.5 11.5q-23 0 -33 -12.5t-10 -28.5v-248q0 -17 11 -27.5t32 -10.5q20 0 30.5 12t10.5 29v247zM228 360q0 -40 -27.5 -62.5t-64.5 -22.5q-42 0 -67.5 22.5t-25.5 62.5v251q0 40 27 63.5t66 23.5q37 0 64.5 -22 t27.5 -62v-254zM487 333q0 16 -10.5 27.5t-30.5 11.5q-23 0 -33 -12.5t-10 -28.5v-248q0 -17 11 -27.5t32 -10.5q20 0 30.5 12t10.5 29v247zM538 81q0 -40 -27.5 -62.5t-64.5 -22.5q-42 0 -67.5 22.5t-25.5 62.5v251q0 40 27 63.5t66 23.5q37 0 64.5 -22t27.5 -62v-254z"/>
<glyph glyph-name="ampersand" horiz-adv-x="458" unicode="&amp;" d="M177 325q-40 -41 -58 -79t-18 -77q0 -25 6.5 -46.5t18.5 -38t30.5 -26t42.5 -9.5q26 0 54 15.5t49 44.5zM212 701q49 0 80 -15.5t49 -50.5l-55 -29q-11 21 -29.5 30t-42.5 9q-18 0 -31.5 -8t-21.5 -21t-12 -29t-4 -31q0 -53 41 -128l147 -254q11 28 16.5 57t7.5 58h57 q-2 -40 -13 -87t-30 -86l68 -116h-72l-37 63q-36 -44 -72.5 -56.5t-73.5 -12.5q-29 0 -55 11.5t-45.5 33.5t-31 54t-11.5 73q0 61 27.5 111t78.5 98q-5 11 -13 23.5t-13 22.5q-17 31 -27 67t-10 69q0 30 9 56t25.5 45.5t40.5 31t53 11.5z"/>
<glyph glyph-name="quotesingle" horiz-adv-x="156" unicode="&apos;" d="M55 514v182h48v-182h-48z"/>
<glyph glyph-name="parenleft" horiz-adv-x="213" unicode="(" d="M172 -112q-26 39 -49.5 85.5t-41 99t-27.5 110t-10 119.5q0 121 36 227t90 187l30 -14q-23 -42 -41.5 -90t-31.5 -99t-20 -103.5t-7 -103.5q0 -110 27 -214.5t72 -187.5z"/>
<glyph glyph-name="parenright" horiz-adv-x="213" unicode=")" d="M71 -112q-1 1 -4.5 3t-8 5t-8.5 5t-5 3q45 83 72 187.5t27 214.5q0 51 -7 103t-20 103t-31.5 99.5t-41.5 90.5q3 1 15 6.5t14 7.5q54 -81 90.5 -187t36.5 -228q0 -61 -10 -118.5t-27.5 -110t-41 -99t-50.5 -85.5z"/>
<glyph glyph-name="asterisk" horiz-adv-x="340" unicode="*" d="M270 443l-43 -28l-62 104l-62 -105l-42 29l75 96l-112 32l17 48l106 -45l-8 121h51l-8 -121l107 45l17 -48l-113 -32z"/>
<glyph glyph-name="plus" d="M207 269v-161h-47v161h-148v49h148v160h47v-160h147v-49h-147z" unicode="+"/>
<glyph glyph-name="comma" horiz-adv-x="164" unicode="," d="M78 -107h-35l21 102h-17v76h70v-75z"/>
<glyph glyph-name="hyphen" horiz-adv-x="334" unicode="-" d="M49 259v55h247v-55h-247z"/>
<glyph glyph-name="period" horiz-adv-x="164" unicode="." d="M47 0v73h70v-73h-70z"/>
<glyph glyph-name="slash" horiz-adv-x="244" unicode="/" d="M54 -42h-48l186 767h48z"/>
<glyph glyph-name="zero" d="M257 575q0 32 -20.5 50.5t-52.5 18.5q-33 0 -54 -18.5t-21 -50.5v-456q0 -32 21 -50.5t54 -18.5q32 0 52.5 18.5t20.5 50.5v456zM319 121q0 -32 -11 -56t-29.5 -40t-43 -24t-51.5 -8t-51.5 8t-43 24t-29.5 40t-11 56v452q0 31 11 55.5t29.5 40.5t43 24.5t51.5 8.5 q57 0 96 -33t39 -96v-452z" unicode="0"/>
<glyph glyph-name="one" d="M198 0v631l-104 -79v66l102 78h63v-696h-61z" unicode="1"/>
<glyph glyph-name="two" d="M185 644q-35 0 -55.5 -27.5t-20.5 -88.5l-60 11q0 78 34 120t104 43q73 0 104.5 -41.5t31.5 -109.5q0 -44 -8.5 -81.5t-28.5 -75.5l-168 -337h200v-57h-268v55l186 373q14 29 18.5 59.5t4.5 63.5q0 17 -2.5 34t-10.5 30t-22.5 21t-38.5 8z" unicode="2"/>
<glyph glyph-name="three" d="M317 135q0 -72 -37.5 -107t-99.5 -35q-69 0 -101 37.5t-32 103.5v8l61 12v-10q0 -41 15.5 -67.5t58.5 -26.5q32 0 53.5 19t21.5 64v111q0 48 -19.5 68.5t-57.5 20.5h-29v55h31q36 0 55.5 19t19.5 65v94q0 16 -3.5 30t-12 24.5t-22 17t-33.5 6.5q-41 0 -59.5 -28.5 t-18.5 -73.5q-3 1 -11.5 2t-19 2.5t-19 3t-11.5 1.5q1 33 10 60.5t27 47.5t44.5 31.5t61.5 11.5q36 0 60.5 -10.5t39.5 -29t21.5 -43.5t6.5 -54v-81q0 -19 -2 -37t-8.5 -33.5t-18.5 -28.5t-32 -22v-2q21 -8 33 -20.5t18.5 -29t8 -36.5t1.5 -43z" unicode="3"/>
<glyph glyph-name="four" d="M291 115v-115h-62v115h-205v56l146 525h61l-147 -525h145v194h62v-194h53v-56h-53z" unicode="4"/>
<glyph glyph-name="five" d="M183 -7q-70 0 -102.5 40t-34.5 112l61 9q0 -47 15 -75.5t62 -28.5q32 0 52 19t21 65l2 186q0 38 -19.5 55t-52.5 17q-25 0 -44 -11t-28 -30h-54v345h258v-55h-204v-228h4q15 15 38 23t49 8q57 0 85.5 -32t28.5 -81l-2 -195q-1 -72 -37.5 -107.5t-97.5 -35.5z" unicode="5"/>
<glyph glyph-name="six" d="M144 378q11 9 27 15t32 6q60 0 88 -36t28 -90v-152q0 -32 -11 -56t-29.5 -40t-43 -24t-51.5 -8t-51.5 8t-43 24t-29.5 40t-11 56v122q0 40 5.5 67t13.5 48l131 338h62q-20 -52 -40.5 -106t-37.5 -98.5t-28.5 -75t-13.5 -36.5zM257 276q0 31 -20.5 48.5t-52.5 17.5 q-20 0 -34 -7.5t-23 -19.5t-13.5 -27t-4.5 -30v-141q0 -32 21 -49.5t54 -17.5q32 0 52.5 17.5t20.5 49.5v159z" unicode="6"/>
<glyph glyph-name="seven" d="M139 0h-60l181 641h-162v-84h-53v139h277v-51z" unicode="7"/>
<glyph glyph-name="eight" d="M257 577q0 32 -20.5 50t-52.5 18q-33 0 -54 -18t-21 -50v-118q0 -31 21 -49.5t54 -18.5q32 0 52.5 18.5t20.5 49.5v118zM257 268q0 31 -20.5 50t-52.5 20q-33 0 -54 -19.5t-21 -50.5v-151q0 -32 21 -49.5t54 -17.5q32 0 52.5 17.5t20.5 49.5v151zM319 471 q0 -39 -16 -65.5t-41 -42.5q25 -16 41 -43t16 -65v-134q0 -32 -11 -56t-29.5 -40t-43 -24t-51.5 -8t-51.5 8t-43 24t-29.5 40t-11 56v134q0 38 15 65t41 43q-26 15 -41 42t-15 66v102q0 31 11 55.5t29.5 40.5t43 24.5t51.5 8.5t51.5 -8.5t43 -24.5t29.5 -40.5t11 -55.5v-102 z" unicode="8"/>
<glyph glyph-name="nine" d="M222 318q-10 -9 -26 -15t-33 -6q-60 0 -87 36t-27 90v152q0 32 11 56t29.5 40t43 24t51.5 8q61 0 98 -32t37 -96v-122q0 -40 -5.5 -67t-13.5 -48l-132 -338h-63q20 52 40.5 106t37.5 98.5t28.5 75t13.5 36.5zM109 420q0 -31 21 -49t53 -18q19 0 33 7.5t23 19.5t13.5 27.5 t4.5 30.5v141q0 32 -20.5 49.5t-52.5 17.5t-53.5 -17.5t-21.5 -49.5v-159z" unicode="9"/>
<glyph glyph-name="colon" horiz-adv-x="164" unicode=":" d="M47 0v73h70v-73h-70zM47 303v74h70v-74h-70z"/>
<glyph glyph-name="semicolon" horiz-adv-x="164" unicode=";" d="M47 303v73h70v-73h-70zM78 -107h-35l21 102h-17v76h70v-75z"/>
<glyph glyph-name="less" d="M13 272v44l339 180v-53l-290 -149l290 -149v-53z" unicode="&lt;"/>
<glyph glyph-name="equal" d="M12 193v51h342v-51h-342zM12 342v50h342v-50h-342z" unicode="="/>
<glyph glyph-name="greater" d="M14 92v53l291 149l-291 149v53l339 -180v-44z" unicode="&gt;"/>
<glyph glyph-name="question" horiz-adv-x="357" unicode="?" d="M162 0v64h63v-64h-63zM181 702q42 0 71.5 -11.5t47.5 -33t26.5 -52t8.5 -67.5q0 -54 -17.5 -98t-38 -80t-38 -65.5t-17.5 -55.5v-71h-60v80q0 19 6 40.5t17 38.5q23 39 39 65t26.5 48t15 43.5t4.5 50.5q0 49 -19.5 79.5t-71.5 30.5q-35 0 -61 -24.5t-27 -78.5l-62 8 q2 75 44.5 114t105.5 39z"/>
<glyph glyph-name="at" horiz-adv-x="746" unicode="@" d="M424 344h-55q-29 0 -50.5 -17.5t-21.5 -61.5q0 -25 16 -44.5t48 -19.5q29 0 46 19t17 49v75zM477 260q0 -33 16.5 -50.5t38.5 -17.5q20 0 39 7.5t33.5 28t23 58t8.5 97.5q0 64 -18.5 115t-51.5 85.5t-78.5 53t-99.5 18.5q-72 0 -125 -25t-87 -68t-50.5 -101.5 t-16.5 -125.5q0 -74 17.5 -133.5t53 -102.5t88 -66t122.5 -23q46 0 86.5 8t82.5 33l19 -45q-42 -20 -88.5 -32t-94.5 -12q-79 0 -141.5 23.5t-106 70.5t-66.5 117t-23 162q0 82 21.5 150t63 116.5t102.5 75t140 26.5q74 0 131 -24t95.5 -66.5t58 -101.5t19.5 -128 t-13.5 -115t-35.5 -73.5t-50.5 -39t-59.5 -11.5q-8 0 -20.5 3t-26 10.5t-25 19t-16.5 29.5h-1q-15 -28 -44.5 -40.5t-57.5 -12.5q-26 0 -43.5 9.5t-28.5 25t-15.5 35.5t-4.5 41t5.5 43t18.5 40t34 29.5t52 11.5h67v52q0 26 -13.5 42.5t-46.5 16.5q-21 0 -37.5 -10.5 t-21.5 -30.5q-2 0 -9.5 2t-15.5 4.5t-15.5 4.5t-9.5 3q11 34 40.5 54.5t70.5 20.5q24 0 44 -5.5t35 -18t23.5 -32.5t8.5 -50v-181z"/>
<glyph glyph-name="A" horiz-adv-x="386" unicode="A" d="M191 594l-33 -168l-42 -200h152l-42 202l-32 166h-3zM316 0l-37 168h-173l-36 -168h-58l150 696h62l153 -696h-61z"/>
<glyph glyph-name="B" horiz-adv-x="412" unicode="B" d="M303 518q0 59 -26 90.5t-89 31.5h-74v-246h82q59 0 83 32t24 92zM310 209q0 63 -24.5 97t-84.5 34h-87v-284h82q36 0 58.5 12t34.5 33t16.5 49t4.5 59zM289 365q46 -14 63.5 -57.5t17.5 -103.5q0 -109 -45 -156.5t-133 -47.5h-139v696h146q45 0 76.5 -12t51 -35t28 -56.5 t8.5 -75.5q0 -54 -16 -90t-58 -58v-4z"/>
<glyph glyph-name="C" horiz-adv-x="384" unicode="C" d="M202 702q73 0 113 -40.5t40 -113.5l-62 -12q1 54 -23 81.5t-69 27.5q-26 0 -43.5 -10t-28.5 -26.5t-16 -37.5t-5 -43v-371q0 -20 5 -39.5t16 -34.5t28.5 -24t43.5 -9q41 0 66 25.5t26 83.5l63 -11q-2 -77 -43.5 -116t-110.5 -39q-76 0 -115.5 41.5t-39.5 119.5v367 q0 37 8 70t26 57.5t47.5 39t73.5 14.5z"/>
<glyph glyph-name="D" horiz-adv-x="414" unicode="D" d="M305 520q0 27 -5 49t-17 37.5t-32 24.5t-50 9h-87v-584h88q54 0 78.5 30t24.5 90v344zM209 696q63 0 98.5 -21.5t49.5 -72.5q11 -41 11 -103.5v-149.5v-148.5t-12 -100.5q-9 -30 -25 -49t-36 -30.5t-44 -16t-51 -4.5h-147v696h156z"/>
<glyph glyph-name="E" horiz-adv-x="361" unicode="E" d="M53 0v696h291v-57h-230v-255h201v-57h-201v-271h230v-56h-291z"/>
<glyph glyph-name="F" horiz-adv-x="360" unicode="F" d="M53 0v696h291v-57h-230v-255h201v-57h-201v-327h-61z"/>
<glyph glyph-name="G" horiz-adv-x="405" unicode="G" d="M203 -7q-75 0 -115 41t-40 119v363q0 40 7.5 74t25.5 59t48 39t74 14q73 0 112 -38.5t41 -112.5l-61 -15v1q0 55 -24.5 81.5t-68.5 26.5q-26 0 -43.5 -10t-28.5 -26.5t-16 -37.5t-5 -43v-372q0 -20 5 -39.5t16 -34.5t28.5 -24t43.5 -9h1q42 0 70 24.5t28 67.5v173h-84v54 h145v-221q0 -38 -12.5 -66.5t-34.5 -48t-50.5 -29.5t-61.5 -10z"/>
<glyph glyph-name="H" horiz-adv-x="420" unicode="H" d="M305 0v329h-191v-329h-61v696h61v-313h191v313h62v-696h-62z"/>
<glyph glyph-name="I" horiz-adv-x="183" unicode="I" d="M60 0v696h63v-696h-63z"/>
<glyph glyph-name="J" horiz-adv-x="338" unicode="J" d="M270 696v-532q0 -83 -39.5 -127t-119.5 -44q-34 0 -65.5 12t-50.5 38l42 40q13 -14 34 -24t41 -10q41 0 69 26t28 83v538h61z"/>
<glyph glyph-name="K" horiz-adv-x="406" unicode="K" d="M335 0l-139 354l-83 -155v-199h-60v696h60v-382h2l194 382h63l-140 -275l167 -421h-64z"/>
<glyph glyph-name="L" horiz-adv-x="337" unicode="L" d="M53 0v696h61v-640h216v-56h-277z"/>
<glyph glyph-name="M" horiz-adv-x="548" unicode="M" d="M431 526q-5 -12 -14 -35.5t-18.5 -49.5t-19 -49.5t-13.5 -35.5q-1 -3 -6.5 -17.5t-13.5 -34.5t-17.5 -43t-17.5 -43t-14 -34.5t-7 -17.5h-34q-5 13 -15.5 39t-22 55t-22 55t-15.5 39l-64 170h-4v-524h-61v696h62q6 -15 18 -46t25 -65.5t25 -65.5t17 -46l73 -194h3 q5 14 15 41t21.5 57t22 57.5t15.5 41.5q1 3 7.5 20t15.5 40t19.5 50t19 50t15 39.5t7.5 20.5h63v-696h-61v526h-4z"/>
<glyph glyph-name="N" horiz-adv-x="441" unicode="N" d="M111 526v-526h-61v696h58q6 -15 17.5 -43t26 -62.5t30 -72t30 -72t26 -62.5t18.5 -43l70 -174h4v529h61v-696h-58q-6 15 -17.5 42.5t-26 62t-30 72t-30 71.5t-26.5 61.5t-18 42.5l-71 174h-3z"/>
<glyph glyph-name="O" horiz-adv-x="409" unicode="O" d="M301 534q0 22 -5 42t-16 35.5t-29.5 25t-45.5 9.5q-29 0 -48 -12.5t-30 -31.5t-15.5 -41.5t-4.5 -42.5v-363q0 -20 5.5 -39t17 -34t30 -24t44.5 -9q53 0 75 34t22 82v369zM363 172q0 -88 -39.5 -133.5t-119.5 -45.5t-118.5 43t-38.5 120v366q0 37 8 70t26.5 57.5t49 38.5 t74.5 14q45 0 75.5 -12.5t48.5 -36t26 -56t8 -72.5v-353z"/>
<glyph glyph-name="P" horiz-adv-x="391" unicode="P" d="M114 345h70q38 0 62 10.5t38 30t19 47t5 60.5q0 31 -4.5 58t-18 46.5t-37.5 31t-62 11.5h-72v-295zM192 696q52 0 86.5 -14t54 -40.5t27.5 -64t8 -83.5q0 -44 -8 -82t-28 -65.5t-55.5 -43t-89.5 -15.5h-73v-288h-61v696h139z"/>
<glyph glyph-name="Q" horiz-adv-x="408" unicode="Q" d="M301 534q0 22 -5 42t-16 35.5t-29.5 25t-45.5 9.5q-29 0 -48 -12.5t-30 -31.5t-15.5 -41.5t-4.5 -42.5v-363q0 -20 5.5 -39t17 -34t30 -24t44.5 -9q38 0 59 17l-63 50l31 38l60 -47q5 12 7.5 27t2.5 31v369zM363 172q0 -63 -21 -105l59 -46l-32 -39l-58 45 q-37 -34 -106 -34q-80 0 -119 43t-39 120v366q0 37 8 70t26.5 57.5t49 38.5t74.5 14q45 0 75.5 -12.5t48.5 -36t26 -56t8 -72.5v-353z"/>
<glyph glyph-name="R" horiz-adv-x="406" unicode="R" d="M113 640v-273h77q64 0 89.5 34.5t25.5 102.5q0 31 -5.5 56t-19 43t-36.5 27.5t-58 9.5h-73zM196 696q92 0 131 -49t39 -143q0 -62 -21.5 -109.5t-77.5 -69.5q26 -79 54 -163l54 -162h-63l-102 312h-97v-312h-61v696h144z"/>
<glyph glyph-name="S" horiz-adv-x="386" unicode="S" d="M354 186q0 -44 -8 -79.5t-27 -60.5t-50 -39t-76 -14q-42 0 -72 12t-49.5 32.5t-29 48.5t-9.5 61l62 13q0 -21 5 -40.5t16.5 -34.5t30 -24t46.5 -9q34 0 53.5 11t29.5 29t13 42t3 51q0 33 -3 54.5t-14 37t-31.5 28.5t-55.5 28q-50 22 -79.5 43t-45 43.5t-20.5 48t-5 55.5 q0 39 9.5 72t29.5 56.5t50 37t71 13.5q45 0 75 -13.5t48 -35.5t25.5 -48.5t7.5 -51.5l-62 -15q0 47 -21.5 76.5t-75.5 29.5q-30 0 -48.5 -11.5t-29 -29t-14 -38.5t-3.5 -41q0 -23 4 -41t16.5 -34t36.5 -31t65 -32q45 -18 71 -37.5t39.5 -43t17.5 -52.5t4 -67z"/>
<glyph glyph-name="T" horiz-adv-x="320" unicode="T" d="M191 640v-640h-63v640h-125v56h313v-56h-125z"/>
<glyph glyph-name="U" horiz-adv-x="407" unicode="U" d="M361 695v-523q0 -88 -39 -133.5t-119 -45.5q-79 0 -118.5 43t-39.5 120v539h61v-540q0 -20 5.5 -39t17 -34t30 -24t44.5 -9q53 0 75 34t22 82v530h61z"/>
<glyph glyph-name="V" horiz-adv-x="387" unicode="V" d="M226 -1h-70l-138 697h62l71 -368l39 -234h3l40 235l72 367h63z"/>
<glyph glyph-name="W" horiz-adv-x="581" unicode="W" d="M454 -1h-63l-68 368l-32 186h-3l-31 -189l-68 -365h-62l-109 697h63l51 -347l28 -227h3l35 225l64 349h58l62 -349l37 -225h3l27 226l51 348h63z"/>
<glyph glyph-name="X" horiz-adv-x="362" unicode="X" d="M289 -1l-108 294l-109 -294h-64l141 361l-134 336h65l101 -275l100 275h66l-137 -336l144 -361h-65z"/>
<glyph glyph-name="Y" horiz-adv-x="363" unicode="Y" d="M182 375l44 140l60 181h64q-6 -17 -17 -48.5t-24.5 -71t-28.5 -82t-28.5 -81.5t-24 -71t-16.5 -48v-295h-61v295q-6 16 -16.5 48t-24 71t-28.5 81.5t-28.5 82t-24.5 71t-17 48.5h64l60 -183q3 -9 9 -28t13 -41t13 -41t9 -28h3z"/>
<glyph glyph-name="Z" horiz-adv-x="313" unicode="Z" d="M296 640l-218 -584h212v-56h-274v56l218 584h-204v56h266v-56z"/>
<glyph glyph-name="bracketleft" horiz-adv-x="204" unicode="[" d="M63 -104v801h125v-41h-71v-720h71v-40h-125z"/>
<glyph glyph-name="backslash" horiz-adv-x="213" unicode="\" d="M155 -18l-145 727h48l144 -727h-47z"/>
<glyph glyph-name="bracketright" horiz-adv-x="204" unicode="]" d="M30 -105v41h71v720h-71v41h124v-802h-124z"/>
<glyph glyph-name="asciicircum" d="M163 693h44l153 -337h-52l-124 282l-123 -282h-51z" unicode="^"/>
<glyph glyph-name="underscore" horiz-adv-x="500" unicode="_" d="M0 -126v50h500v-50h-500z"/>
<glyph glyph-name="grave" horiz-adv-x="350" unicode="`" d="M189 556l-92 152l58 21l68 -159z"/>
<glyph glyph-name="a" horiz-adv-x="352" unicode="a" d="M176 238q-38 0 -64.5 -22.5t-26.5 -78.5q0 -38 17.5 -61.5t59.5 -23.5q40 0 63.5 22t23.5 64v100h-73zM37 405q13 43 48 68t89 25q65 0 100.5 -29.5t35.5 -103.5v-365h-62v44h-1q-22 -31 -49.5 -40.5t-58.5 -9.5q-32 0 -53.5 12t-35 31.5t-19.5 44.5t-6 52q0 28 6 56 t22 50.5t42 37t67 14.5h87v72q0 35 -16 56t-62 21q-22 0 -45.5 -12.5t-30.5 -41.5z"/>
<glyph glyph-name="b" horiz-adv-x="358" unicode="b" d="M201 -6q-40 0 -61 12.5t-38 35.5h-2v-42h-60v726h60v-287h2q16 29 45.5 43.5t57.5 14.5q45 -1 68.5 -17.5t35.5 -44.5q11 -26 13.5 -61.5t3.5 -77.5v-70q0 -56 -6 -114q-4 -38 -17 -61.5t-30.5 -36t-37 -16.5t-34.5 -4zM182 52q27 0 45.5 11.5t27.5 39.5q6 20 7.5 54 t1.5 81q0 52 -1.5 95t-10.5 64q-16 41 -68 41q-24 0 -40 -10t-26 -26t-14 -36t-4 -40v-182q0 -41 22 -66.5t60 -25.5z"/>
<glyph glyph-name="c" horiz-adv-x="332" unicode="c" d="M178 498q69 0 101 -36t32 -101l-63 -9v1q1 6 1 12q0 31 -19 54.5t-55 23.5q-23 0 -41.5 -11t-28.5 -36q-8 -19 -9.5 -63t-2.5 -104q1 -39 2 -75t6 -54q8 -24 26 -38t47 -14q36 0 55.5 22t18.5 67l63 -11q-3 -133 -140 -133q-30 0 -52.5 7.5t-38 20.5t-25 29t-13.5 34 q-3 12 -5 30.5t-2.5 40t-1 43.5t-0.5 42q0 26 0.5 53t2.5 51t4.5 43.5t7.5 31.5q13 36 44.5 57.5t85.5 21.5z"/>
<glyph glyph-name="d" horiz-adv-x="359" unicode="d" d="M155 -6q-16 0 -35.5 4t-36.5 16.5t-30.5 36t-17.5 61.5q-3 31 -3.5 62t-0.5 60q0 60 2 107.5t14 80.5t38 54.5t76 21.5q35 0 58 -15t34 -34h2v277h61v-726h-61v42h-2q-16 -23 -37.5 -35.5t-60.5 -12.5zM173 52q39 0 61 25.5t22 66.5v199q0 40 -20 67.5t-62 27.5 q-27 0 -45.5 -14t-26.5 -43q-5 -21 -7 -59.5t-2 -83.5q0 -47 1.5 -81t7.5 -54q8 -28 25.5 -39.5t45.5 -11.5z"/>
<glyph glyph-name="e" horiz-adv-x="350" unicode="e" d="M104 395q-6 -16 -7.5 -44.5t-2.5 -69.5h158v52q0 21 -2.5 40.5t-11 34.5t-23.5 24t-40 9q-22 0 -41 -10t-30 -36zM178 498q60 0 93.5 -29.5t39.5 -83.5q1 -11 1.5 -22t0.5 -22v-110h-220q0 -10 0.5 -19t0.5 -19q0 -26 1.5 -53t6.5 -41q16 -50 72 -50q38 0 56 22.5 t20 59.5l62 -12q-5 -61 -40.5 -93.5t-100.5 -32.5q-31 0 -53.5 8t-38 20.5t-25 29t-13.5 33.5q-3 12 -5 30.5t-2.5 40t-1 43.5t-0.5 42q0 26 0.5 52t2.5 50t4.5 43.5t7.5 32.5q14 37 45 58.5t86 21.5z"/>
<glyph glyph-name="f" horiz-adv-x="222" unicode="f" d="M126 439v-439h-63v439h-52v52h52v123q0 58 30.5 85t78.5 27h36v-57h-26q-30 0 -43 -17t-13 -43v-118h80v-52h-80z"/>
<glyph glyph-name="g" horiz-adv-x="363" unicode="g" d="M176 439q-26 0 -44.5 -11.5t-27.5 -39.5q-6 -20 -7.5 -54t-1.5 -81q0 -52 1.5 -95t10.5 -64q16 -41 68 -41q24 0 40 10t26 26t14 36t4 40v182q0 41 -22 66.5t-61 25.5zM158 498q40 0 61 -13t38 -36h2v42h60v-525q0 -34 -6 -64t-21.5 -52.5t-43.5 -36t-71 -13.5 q-60 0 -95.5 31.5t-37.5 91.5l61 11q1 -35 19 -56.5t57 -21.5t58.5 27t19.5 63v106h-2q-16 -29 -45.5 -43t-57.5 -14q-45 0 -69 18t-36 47q-11 27 -13.5 65.5t-2.5 80.5v48q0 30 0.5 60.5t3.5 64.5q4 38 17.5 61.5t31.5 36t37.5 17t34.5 4.5z"/>
<glyph glyph-name="h" horiz-adv-x="364" unicode="h" d="M102 440h2q17 28 44.5 43t60.5 15q31 0 52.5 -10t35.5 -27t20.5 -41t6.5 -52v-368h-63v350q0 38 -17.5 62t-59.5 24q-40 0 -61.5 -26.5t-21.5 -64.5v-345h-61v726h62v-286z"/>
<glyph glyph-name="i" horiz-adv-x="163" unicode="i" d="M49 0v492h62v-492h-62zM49 612v64h63v-64h-63z"/>
<glyph glyph-name="j" horiz-adv-x="163" unicode="j" d="M113 -71q0 -27 -4.5 -50.5t-16.5 -41t-33 -27.5t-54 -10h-22v56h11q37 0 47 22t10 63v551h62v-563zM51 613v64h63v-64h-63z"/>
<glyph glyph-name="k" horiz-adv-x="360" unicode="k" d="M104 229q11 18 33.5 54t46.5 76.5t46 77t33 54.5h69l-114 -186q9 -19 28 -62t40.5 -90.5t41 -90.5t28.5 -62h-67q-5 11 -14 31t-19.5 44t-22 50.5t-22 50.5t-19 44t-13.5 31q-6 -9 -16.5 -26.5t-21.5 -37t-21.5 -37.5t-16.5 -27v-123h-61v726h61v-497h1z"/>
<glyph glyph-name="l" horiz-adv-x="189" unicode="l" d="M49 726h61v-603q0 -36 10.5 -55t44.5 -19h12v-56h-15q-28 0 -49.5 5.5t-35.5 19t-21 36t-7 57.5v615z"/>
<glyph glyph-name="m" horiz-adv-x="582" unicode="m" d="M535 0h-62v350q0 35 -16.5 60.5t-57.5 25.5q-35 0 -56 -25.5t-22 -63.5v-347h-61v350q0 35 -16 60.5t-56 25.5q-39 0 -60 -27.5t-21 -66.5v-342h-60v492h61v-52h3q17 28 40 43t57 15q40 0 64.5 -17t36.5 -46q19 29 46.5 46t61.5 17h4q30 0 52 -10t35.5 -27.5t20 -41 t6.5 -51.5v-368z"/>
<glyph glyph-name="n" horiz-adv-x="362" unicode="n" d="M100 440h2q17 28 44.5 43t60.5 15q31 0 52.5 -10t35.5 -27t20.5 -41t6.5 -52v-368h-63v350q0 38 -16 62t-58 24q-41 0 -63.5 -27.5t-22.5 -66.5v-342h-61v492h62v-52z"/>
<glyph glyph-name="o" horiz-adv-x="356" unicode="o" d="M179 443q-23 0 -43 -10t-31 -36q-7 -18 -9 -55t-2 -88v-32q0 -41 1 -73t7 -49q15 -51 77 -51q29 0 49.5 17t27.5 46q3 18 5 53t2 73q0 21 -0.5 44t-1 44t-2.5 38t-5 26q-8 26 -28 39.5t-47 13.5zM180 498q56 0 86.5 -22t42.5 -55q9 -26 11.5 -66t2.5 -80v-49 q0 -27 -1 -53.5t-4 -56.5q-4 -37 -18.5 -61t-35 -37.5t-44.5 -19t-47 -5.5q-61 0 -91 26.5t-40 64.5q-3 12 -5 30.5t-3 40t-1 43.5v42q0 26 0.5 52.5t2.5 50.5t4.5 43.5t7.5 31.5q13 36 45.5 58t86.5 22z"/>
<glyph glyph-name="p" horiz-adv-x="357" unicode="p" d="M196 498q16 0 35.5 -4.5t36.5 -17t30.5 -36t17.5 -61.5q3 -31 3 -62.5v-66.5q0 -55 -2 -101.5t-14 -79.5t-37.5 -54t-75.5 -21q-35 0 -58.5 14.5t-34.5 33.5h-2v-235h-60v684h60v-42h2q17 23 38 36t61 13zM178 439q-39 0 -61 -25.5t-22 -66.5v-199q0 -40 19.5 -67.5 t61.5 -27.5q58 0 73 57q5 21 6.5 59.5t1.5 83.5q0 47 -1.5 81t-7.5 54q-8 28 -25 39.5t-45 11.5z"/>
<glyph glyph-name="q" horiz-adv-x="362" unicode="q" d="M158 498q40 0 61 -13t38 -36h2v42h60v-686h-60v247h-2q-16 -29 -45.5 -43t-57.5 -14q-48 0 -72.5 20.5t-35.5 53.5q-8 26 -10.5 62.5t-2.5 74.5v76q0 23 0.5 46.5t3.5 50.5q4 38 17.5 61.5t31.5 36t37.5 17t34.5 4.5zM176 439q-26 0 -44.5 -11.5t-27.5 -39.5 q-6 -20 -7.5 -54t-1.5 -81q0 -52 2 -95t10 -64q18 -41 68 -41q24 0 40 10t26 26t14 36t4 40v182q0 41 -22 66.5t-61 25.5z"/>
<glyph glyph-name="r" horiz-adv-x="246" unicode="r" d="M116 430q17 39 43 54t64 15h7.5t7.5 -1v-72q-7 1 -13.5 1.5t-13.5 0.5q-46 0 -71.5 -27.5t-25.5 -84.5v-316h-62v492h62v-62h2z"/>
<glyph glyph-name="s" horiz-adv-x="331" unicode="s" d="M90 133q-1 -38 18.5 -60.5t53.5 -22.5h3q44 0 60.5 21t16.5 62q0 19 -3 33t-12 25t-25 20t-42 19q-39 15 -63.5 30.5t-38 32.5t-18.5 36t-5 40q0 57 33 93.5t102 36.5t102 -34.5t33 -96.5l-64 -9v7q0 37 -19.5 56.5t-52.5 19.5q-22 0 -36.5 -6.5t-22.5 -17t-11.5 -23.5 t-3.5 -26q0 -14 3.5 -25.5t14 -22t29 -20.5t48.5 -20q37 -14 59.5 -29t34 -33t15 -39t3.5 -46q0 -62 -31 -101.5t-104 -39.5q-136 0 -139 130z"/>
<glyph glyph-name="t" horiz-adv-x="225" unicode="t" d="M130 492h69v-49h-69v-318q0 -37 14 -52.5t44 -15.5h13v-57h-30q-57 0 -80 32t-23 78v333h-54v49h55v127h61v-127z"/>
<glyph glyph-name="u" horiz-adv-x="364" unicode="u" d="M261 52h-3q-17 -28 -44 -42.5t-60 -14.5q-31 0 -52.5 9.5t-35.5 27t-20.5 41t-6.5 51.5v369h63v-351q0 -42 16.5 -65t58.5 -23q38 0 61.5 27.5t23.5 66.5v345h61v-492h-62v51z"/>
<glyph glyph-name="v" horiz-adv-x="324" unicode="v" d="M196 0h-70l-121 492h65q3 -14 10 -43t14 -61.5t14 -62t10 -42.5t9 -41.5t12.5 -60t12.5 -60t9 -41.5h3q3 13 8.5 41.5t12.5 61t13 61t9 41.5t9.5 42t13.5 61t13.5 61t9.5 43h65z"/>
<glyph glyph-name="w" horiz-adv-x="538" unicode="w" d="M267 373l-46 -214l-36 -159h-62l-113 491h64q6 -29 15.5 -75t20.5 -99q7 -32 13.5 -64.5t12.5 -61.5t11 -54t8 -41h3q7 38 19.5 99.5t25.5 124.5l36 171h63l33 -163q12 -59 23.5 -117.5t23.5 -116.5h3l36 182q4 21 10 50t12 59t12 58t10 48h64q-29 -124 -57 -245.5 t-56 -245.5h-63l-34 148q-13 56 -25 112.5t-24 112.5h-3z"/>
<glyph glyph-name="x" horiz-adv-x="314" unicode="x" d="M240 0l-82 198l-85 -198h-67l119 252l-114 240h69l78 -187l76 187h71l-112 -240l116 -252h-69z"/>
<glyph glyph-name="y" horiz-adv-x="326" unicode="y" d="M167 92q11 48 22 100.5t22 100.5l48 198h62l-148 -577q-6 -22 -14.5 -42t-21.5 -35t-32 -24t-46 -9h-23v53h16q30 0 45 21t25 66l14 55l-131 492h65q14 -54 26 -107.5t25 -107.5q5 -21 11 -46.5l12 -51t11.5 -48.5t8.5 -38h3z"/>
<glyph glyph-name="z" horiz-adv-x="294" unicode="z" d="M275 437l-190 -380h188v-57h-254v57l189 380h-173v54h240v-54z"/>
<glyph glyph-name="braceleft" horiz-adv-x="222" unicode="{" d="M88 138q0 59 -12 95t-52 44v38q19 4 31.5 16t20 30t10 40t2.5 45v144q0 51 26 79t71 28h20v-41h-17q-15 0 -24.5 -8.5t-14.5 -22t-7 -29.5t-2 -31v-130q0 -32 -6 -56t-15 -41t-19.5 -27t-19.5 -13v-3q10 -3 20.5 -13t19.5 -26.5t14.5 -39.5t5.5 -53v-138q0 -15 2 -30.5 t7 -29t14.5 -22t24.5 -8.5h17v-41h-20q-42 0 -69.5 25.5t-27.5 79.5v139z"/>
<glyph glyph-name="bar" horiz-adv-x="193" unicode="|" d="M75 -162v878h48v-878h-48z"/>
<glyph glyph-name="braceright" horiz-adv-x="222" unicode="}" d="M142 -1q0 -49 -24 -77t-62 -28h-31v41h16q15 0 25 7t15 18.5t7 25.5t2 29v148q0 60 19.5 92.5t39.5 39.5v3q-19 7 -39 40.5t-20 96.5v130q0 15 -2 31t-7 29.5t-15 22t-25 8.5h-16v41h34q42 0 62.5 -33.5t20.5 -81.5v-136q0 -23 3 -45t10 -40t19 -30t31 -16v-38 q-40 -8 -51.5 -44t-11.5 -95v-139z"/>
<glyph glyph-name="asciitilde" d="M106 291q24 0 44 -7t39 -16t36.5 -16t35.5 -7q19 0 30.5 8t29.5 30l35 -22q-17 -29 -40 -49.5t-55 -20.5q-19 0 -38 7.5t-38.5 16t-39 16t-40.5 7.5q-18 0 -30.5 -8t-29.5 -28l-33 24q16 27 39.5 46t54.5 19z" unicode="~"/>
<glyph glyph-name="exclamdown" horiz-adv-x="214" unicode="¡" d="M139 496v-65h-65v65h65zM132 326l6 -526h-63l6 526h51z"/>
<glyph glyph-name="cent" horiz-adv-x="336" unicode="¢" d="M101 100q13 -43 55 -50v390q-17 -2 -30.5 -13t-21.5 -31q-8 -19 -9 -63t-2 -104v-7q1 -34 1.5 -69t6.5 -53zM185 498q65 -2 95.5 -38t30.5 -99l-63 -9v3q0 40 -16.5 62t-46.5 25v-393q10 0 17 4q44 15 46 84l62 -11q-3 -126 -125 -132v-109h-29v109q-53 4 -79.5 30.5 t-35.5 59.5q-5 19 -6.5 54.5t-1.5 70.5v36q0 25 0.5 51.5t2 49.5t4.5 42t7 31q11 32 37.5 52.5t71.5 25.5v106h29v-105z"/>
<glyph glyph-name="sterling" horiz-adv-x="381" unicode="£" d="M204 702q33 0 61 -9.5t48.5 -28t31.5 -46t11 -61.5v-6l-62 -15q1 54 -22 81.5t-67 28.5q-39 0 -61.5 -25t-22.5 -64q0 -21 5 -41.5t11.5 -43t13.5 -49t12 -59.5h101v-52h-96q0 -4 0.5 -13t0.5 -13q0 -71 -15 -124t-40 -106h230v-56h-298v56q29 54 45.5 107t16.5 121 q0 7 -0.5 14t-1.5 14h-60v52h56q-5 30 -12.5 54.5t-15 46.5t-12.5 43t-5 44q0 68 39 109t108 41z"/>
<glyph glyph-name="currency" horiz-adv-x="492" unicode="¤" d="M134 320q-1 -23 8 -43t24.5 -35.5t36 -24.5t43.5 -9t44 9t36.5 24t24.5 35.5t9 43.5q0 24 -9 45t-24 36.5t-36 24.5t-45 9q-23 0 -43.5 -9t-36 -25t-24.5 -36.5t-8 -44.5zM58 471q7 8 18 19.5t19 19.5l54 -55q43 33 97 33q53 0 98 -33q4 4 11.5 12l15 16t14.5 15.5 t12 11.5l38 -39l-54 -53q16 -22 24.5 -46.5t8.5 -51.5q0 -26 -8.5 -49.5t-24.5 -45.5q4 -5 11.5 -12.5l15.5 -15.5t15.5 -15t11.5 -11q-11 -11 -19 -20t-19 -19l-53 55q-42 -32 -98 -32q-53 0 -97 32l-54 -55l-38 39l55 54q-32 42 -32 95q0 56 32 98z"/>
<glyph glyph-name="yen" d="M221 324h109v-40h-118v-66h118v-41h-118v-178h-57v178h-114v41h114v66h-114v40h104l-121 372h59l99 -322h3l98 322h61z" unicode="¥"/>
<glyph glyph-name="brokenbar" horiz-adv-x="193" unicode="¦" d="M123 253v-415h-48v415h48zM75 298v418h48v-418h-48z"/>
<glyph glyph-name="section" horiz-adv-x="417" unicode="§" d="M318 288q0 40 -36 71t-114 69q-26 -8 -43.5 -28.5t-17.5 -49.5q0 -23 16.5 -44t40.5 -39t50.5 -33t46.5 -25q26 10 41.5 32.5t15.5 46.5zM376 291q0 -37 -19.5 -67.5t-52.5 -51.5q48 -51 48 -107q0 -64 -44.5 -102t-119.5 -38q-37 0 -73.5 14.5t-63.5 37.5l33 39 q28 -23 52 -32t53 -9q51 0 77 24t26 61q0 35 -28 66.5t-91 66.5q-32 18 -55 34t-39 34t-23.5 38.5t-7.5 46.5q0 38 21 68t53 50q-26 23 -38 47.5t-12 54.5q0 29 10.5 54t29.5 43t45.5 28.5t58.5 10.5q43 0 77.5 -13.5t63.5 -38.5l-39 -40q-27 23 -51 32t-51 9 q-40 0 -62 -24.5t-22 -56.5q0 -37 27.5 -60.5t71.5 -49.5q30 -17 56 -34.5t46 -38t31.5 -44t11.5 -52.5z"/>
<glyph glyph-name="dieresis" horiz-adv-x="353" unicode="¨" d="M73 587v64h56v-64h-56zM224 587v64h55v-64h-55z"/>
<glyph glyph-name="copyright" horiz-adv-x="703" unicode="©" d="M356 540q22 0 42.5 -6.5t35.5 -20t23 -32.5t8 -42v-6l-44 -10q0 35 -17.5 54.5t-49.5 19.5q-28 0 -45.5 -18t-17.5 -43v-206q0 -26 18 -43t45 -17q63 0 66 73l45 -9q0 -55 -32 -81.5t-77 -26.5t-78.5 27t-33.5 82v196q0 53 32 81t80 28zM353 651q-64 0 -112 -24.5 t-79.5 -66.5t-47.5 -98.5t-16 -120.5q0 -65 17 -121t49.5 -97.5t80 -65t108.5 -23.5q63 0 111 24t80 65t48.5 97t16.5 121t-16.5 121.5t-49 98.5t-80.5 66t-110 24zM353 -8q-74 0 -130.5 26.5t-94.5 73.5t-57.5 110.5t-19.5 138.5t19.5 139.5t57.5 111.5t94.5 73.5 t130.5 26.5q73 0 129 -26.5t94.5 -73.5t58.5 -111.5t20 -139.5t-20 -138.5t-58.5 -110.5t-94.5 -73.5t-129 -26.5z"/>
<glyph glyph-name="ordfeminine" horiz-adv-x="243" unicode="ª" d="M165 431h-42q-25 0 -41.5 -13t-16.5 -45q0 -23 11 -36.5t37 -13.5q25 0 38.5 13.5t13.5 37.5v57zM20 540q10 31 35.5 50.5t65.5 19.5q47 0 72.5 -20t25.5 -72v-239h-54v22q-14 -15 -32 -20.5t-38 -5.5q-23 0 -38.5 8t-25 21.5t-13.5 31t-4 35.5q0 19 4.5 37.5t15.5 33.5 t29.5 24.5t47.5 9.5h54v41q0 20 -9 32.5t-37 12.5q-17 0 -30.5 -9.5t-18.5 -27.5z"/>
<glyph glyph-name="guillemotleft" horiz-adv-x="386" unicode="«" d="M148 46l-107 186l107 186h61l-106 -186l106 -186h-61zM290 46l-107 186l107 186h61l-105 -186l105 -186h-61z"/>
<glyph glyph-name="logicalnot" d="M353 108h-47v161h-294v49h341v-210z" unicode="¬"/>
<glyph glyph-name="sfthyphen" horiz-adv-x="334" unicode="­" d="M49 259v55h247v-55h-247z"/>
<glyph glyph-name="registered" horiz-adv-x="486" unicode="®" d="M278 541q0 22 -8.5 34t-31.5 12h-24v-89h27q21 0 29 12t8 31zM281 357l-38 109h-29v-109h-37v264h65q73 0 73 -80q0 -21 -7.5 -40t-28.5 -30q10 -28 21 -57t22 -57h-41zM244 680q-39 0 -68 -14.5t-48.5 -40t-29 -60t-9.5 -73.5q0 -41 10.5 -74.5t30 -58.5t48.5 -38.5 t66 -13.5q39 0 68 14.5t48 39.5t28 58.5t9 72.5t-10 73.5t-29.5 60t-48 40t-65.5 14.5zM244 272q-47 0 -82.5 16.5t-59.5 46t-36.5 69t-12.5 86.5q0 48 12.5 88.5t36.5 70t59.5 46t82.5 16.5q45 0 80.5 -16.5t59.5 -46t36.5 -70t12.5 -88.5q0 -47 -12.5 -86.5t-36.5 -69 t-59.5 -46t-80.5 -16.5z"/>
<glyph glyph-name="macron" horiz-adv-x="352" unicode="¯" d="M73 588v54h223v-54h-223z"/>
<glyph glyph-name="degree" horiz-adv-x="281" unicode="°" d="M144 661q-24 0 -41 -17t-17 -43q0 -25 17 -42t41 -17q25 0 42 17t17 42q0 26 -17 43t-42 17zM241 601q0 -41 -27.5 -69t-69.5 -28q-40 0 -68 28t-28 69q0 20 7.5 38t20.5 31.5t30.5 21t37.5 7.5q42 0 69.5 -28.5t27.5 -69.5z"/>
<glyph glyph-name="plusminus" d="M207 269v-161h-47v161h-148v49h148v160h47v-160h147v-49h-147zM12 20v47h342v-47h-342z" unicode="±"/>
<glyph glyph-name="twosuperior" horiz-adv-x="239" unicode="²" d="M121 744q-20 0 -32 -16.5t-12 -51.5l-51 8q-1 48 23 76t73 28q50 0 72.5 -25t22.5 -67q0 -50 -27 -96l-104 -184h127v-47h-185v39l119 214q10 18 14 36t4 37t-9 34t-35 15z"/>
<glyph glyph-name="threesuperior" horiz-adv-x="239" unicode="³" d="M212 456q0 -43 -23 -67t-68 -24q-51 0 -72 25.5t-21 65.5v8l51 6v-9q0 -22 9 -37t34 -15q20 0 30.5 13t10.5 34v59q0 26 -11.5 37t-34.5 11h-25v43h26q22 0 33.5 10t11.5 33v50q0 17 -8.5 31t-32.5 14q-25 0 -35.5 -17t-10.5 -43l-51 8q2 41 26 68t73 27q26 0 43 -7 t27 -19t14 -28t4 -34v-35q0 -23 -4.5 -42.5t-27.5 -35.5q22 -11 27 -29t5 -44v-57z"/>
<glyph glyph-name="acute" horiz-adv-x="350" unicode="´" d="M141 570l67 159l59 -21l-92 -152z"/>
<glyph glyph-name="mu" horiz-adv-x="375" unicode="µ" d="M268 51h-2q-14 -26 -40.5 -40.5t-55.5 -14.5q-39 0 -62 20v-211h-61v687h62v-350q0 -38 17.5 -62t60.5 -24q39 0 60.5 26t21.5 65v344h61v-491h-62v51z"/>
<glyph glyph-name="mu" horiz-adv-x="375" unicode="μ" d="M268 51h-2q-14 -26 -40.5 -40.5t-55.5 -14.5q-39 0 -62 20v-211h-61v687h62v-350q0 -38 17.5 -62t60.5 -24q39 0 60.5 26t21.5 65v344h61v-491h-62v51z"/>
<glyph glyph-name="paragraph" horiz-adv-x="401" unicode="¶" d="M152 341q-7 0 -15.5 1t-13.5 3q-24 3 -43.5 18.5t-33 40t-20.5 55.5t-7 65q0 36 7 70.5t22.5 61t42 42.5t65.5 16h219v-64h-47v-732h-56v732h-64v-732h-56v423z"/>
<glyph glyph-name="periodcentered" horiz-adv-x="164" unicode="·" d="M47 228v74h70v-74h-70z"/>
<glyph glyph-name="cedilla" horiz-adv-x="431" unicode="¸" d="M199 13l-18 -72q23 -2 38 -9.5t24 -18t12.5 -23t3.5 -22.5q0 -12 -4.5 -25t-14 -23.5t-24.5 -17.5t-37 -7q-11 0 -33.5 2.5t-43.5 13.5l11 30q17 -8 31.5 -10t26.5 -2q18 0 30.5 9.5t12.5 28.5q0 20 -13 31t-39 11h-5l-16 13l26 93z"/>
<glyph glyph-name="onesuperior" horiz-adv-x="200" unicode="¹" d="M106 369v364l-67 -47v52l68 47h48v-416h-49z"/>
<glyph glyph-name="ordmasculine" horiz-adv-x="245" unicode="º" d="M123 563q-34 0 -45 -26q-5 -11 -6.5 -35t-1.5 -55v-20q0 -26 0.5 -46.5t4.5 -31.5q9 -29 48 -29q19 0 31.5 9.5t16.5 26.5q2 12 3.5 34.5t1.5 47.5q0 26 -1 55t-5 40q-5 14 -17.5 22t-29.5 8zM123 609q41 0 63 -15t31 -38q7 -16 8.5 -42.5t1.5 -53.5v-30q0 -18 -1 -36 t-3 -37q-3 -23 -13.5 -39t-25 -26t-32 -14t-33.5 -4q-44 0 -65.5 18.5t-29.5 42.5q-2 8 -3.5 20t-2 26.5t-0.5 29.5v28q0 33 2 66.5t9 48.5q9 25 32.5 40t61.5 15z"/>
<glyph glyph-name="guillemotright" horiz-adv-x="386" unicode="»" d="M184 46l106 186l-106 186h61l107 -186l-107 -186h-61zM42 46l105 186l-105 186h60l107 -186l-107 -186h-60z"/>
<glyph glyph-name="onequarter" horiz-adv-x="580" unicode="¼" d="M499 66v-66h-49v66h-132v41l94 309h51l-94 -305h81v113h49v-113h35v-45h-35zM137 -17h-42l314 731h42zM112 279v364l-67 -47v52l68 47h48v-416h-49z"/>
<glyph glyph-name="onehalf" horiz-adv-x="580" unicode="½" d="M435 375q-20 0 -32 -16.5t-12 -51.5l-51 8q-1 48 23 76t73 28q50 0 72.5 -25t22.5 -67q0 -50 -27 -96l-104 -184h127v-47h-185v39l119 214q10 18 14 36t4 37t-9 34t-35 15zM123 -17h-42l314 731h42zM115 279v364l-67 -47v52l68 47h48v-416h-49z"/>
<glyph glyph-name="threequarters" horiz-adv-x="580" unicode="¾" d="M510 66v-66h-49v66h-132v41l94 309h51l-94 -305h81v113h49v-113h35v-45h-35zM162 -17h-42l314 731h42zM221 366q0 -43 -23 -67t-68 -24q-51 0 -72 25.5t-21 65.5v8l51 6v-9q0 -22 9 -37t34 -15q20 0 30.5 13t10.5 34v59q0 26 -11.5 37t-34.5 11h-25v43h26q22 0 33.5 10 t11.5 33v50q0 17 -8.5 31t-32.5 14q-25 0 -35.5 -17t-10.5 -43l-51 8q2 41 26 68t73 27q26 0 43 -7t27 -19t14 -28t4 -34v-35q0 -23 -4.5 -42.5t-27.5 -35.5q22 -11 27 -29t5 -44v-57z"/>
<glyph glyph-name="questiondown" horiz-adv-x="357" unicode="¿" d="M220 494v-65h-63v65h63zM201 -207q-84 0 -119 44.5t-35 118.5q0 25 2 43.5t6.5 33.5t11 28.5t15.5 30.5q17 27 31 48t24 40t15.5 36.5t6.5 37.5v71h59v-82q0 -21 -6 -41t-17 -40q-23 -40 -39 -65t-26 -45.5t-15 -41t-5 -50.5q0 -24 4.5 -44t15 -34.5t28 -22.5t43.5 -8 q35 0 61 24t28 78l61 -7q-2 -76 -44.5 -114.5t-105.5 -38.5z"/>
<glyph glyph-name="Agrave" horiz-adv-x="386" unicode="À" d="M196 723l-154 91l42 47l135 -109zM191 594l-33 -168l-42 -200h152l-42 202l-32 166h-3zM316 0l-37 168h-173l-36 -168h-58l150 696h62l153 -696h-61z"/>
<glyph glyph-name="Aacute" horiz-adv-x="386" unicode="Á" d="M164 751l135 109l40 -47l-152 -91zM191 594l-33 -168l-42 -200h152l-42 202l-32 166h-3zM316 0l-37 168h-173l-36 -168h-58l150 696h62l153 -696h-61z"/>
<glyph glyph-name="Acircumflex" horiz-adv-x="386" unicode="Â" d="M192 806l-113 -76l-27 23l123 111h40l116 -109l-26 -24zM191 594l-33 -168l-42 -200h152l-42 202l-32 166h-3zM316 0l-37 168h-173l-36 -168h-58l150 696h62l153 -696h-61z"/>
<glyph glyph-name="Atilde" horiz-adv-x="386" unicode="Ã" d="M329 814q-16 -33 -38.5 -50.5t-43.5 -17.5q-15 0 -29.5 6t-28.5 12.5t-27 12.5t-25 6q-26 0 -50 -35l-33 20q12 25 33.5 45.5t46.5 20.5q15 0 28 -6t26.5 -13t27.5 -13t30 -6q25 0 51 39zM191 594l-33 -168l-42 -200h152l-42 202l-32 166h-3zM316 0l-37 168h-173 l-36 -168h-58l150 696h62l153 -696h-61z"/>
<glyph glyph-name="Adieresis" horiz-adv-x="386" unicode="Ä" d="M90 749v63h56v-63h-56zM240 749v63h55v-63h-55zM191 594l-33 -168l-42 -200h152l-42 202l-32 166h-3zM316 0l-37 168h-173l-36 -168h-58l150 696h62l153 -696h-61z"/>
<glyph glyph-name="Aring" horiz-adv-x="386" unicode="Å" d="M193 848q-21 0 -36 -15t-15 -36t15 -36t36 -15q20 0 35 15t15 36t-15 36t-35 15zM193 712q-36 0 -61 25t-25 61t25 61t61 25q35 0 60 -25t25 -61t-25 -61t-60 -25zM191 594l-33 -168l-42 -200h152l-42 202l-32 166h-3zM316 0l-37 168h-173l-36 -168h-58l150 696h62 l153 -696h-61z"/>
<glyph glyph-name="AE" horiz-adv-x="624" unicode="Æ" d="M158 244h152v395h-2zM310 186h-173l-71 -186h-62l270 696h327v-57h-229v-255h200v-57h-200v-270h229v-57h-291v186z"/>
<glyph glyph-name="Ccedilla" horiz-adv-x="384" unicode="Ç" d="M202 702q73 0 113 -40.5t40 -113.5l-62 -12q1 54 -23 81.5t-69 27.5q-26 0 -43.5 -10t-28.5 -26.5t-16 -37.5t-5 -43v-371q0 -20 5 -39.5t16 -34.5t28.5 -24t43.5 -9q41 0 66 25.5t26 83.5l63 -11q-2 -71 -38 -110t-96 -44l-13 -53q23 -2 38 -9.5t24 -18t12.5 -23 t3.5 -22.5q0 -12 -4.5 -25t-14 -23.5t-24.5 -17.5t-37 -7q-11 0 -33.5 2.5t-43.5 13.5l11 30q17 -8 31.5 -10t26.5 -2q18 0 30.5 9.5t12.5 28.5q0 20 -13 31t-39 11h-5l-16 13l20 72q-70 3 -106 44t-36 116v367q0 37 8 70t26 57.5t47.5 39t73.5 14.5z"/>
<glyph glyph-name="Egrave" horiz-adv-x="361" unicode="È" d="M212 723l-154 91l42 47l135 -109zM53 0v696h291v-57h-230v-255h201v-57h-201v-271h230v-56h-291z"/>
<glyph glyph-name="Eacute" horiz-adv-x="361" unicode="É" d="M135 751l135 109l40 -47l-152 -91zM53 0v696h291v-57h-230v-255h201v-57h-201v-271h230v-56h-291z"/>
<glyph glyph-name="Ecircumflex" horiz-adv-x="361" unicode="Ê" d="M193 806l-113 -76l-27 23l123 111h40l116 -109l-26 -24zM53 0v696h291v-57h-230v-255h201v-57h-201v-271h230v-56h-291z"/>
<glyph glyph-name="Edieresis" horiz-adv-x="361" unicode="Ë" d="M91 749v63h56v-63h-56zM241 749v63h55v-63h-55zM53 0v696h291v-57h-230v-255h201v-57h-201v-271h230v-56h-291z"/>
<glyph glyph-name="Igrave" horiz-adv-x="183" unicode="Ì" d="M103 723l-154 91l42 47l135 -109zM60 0v696h63v-696h-63z"/>
<glyph glyph-name="Iacute" horiz-adv-x="183" unicode="Í" d="M60 751l135 109l40 -47l-152 -91zM60 0v696h63v-696h-63z"/>
<glyph glyph-name="Icircumflex" horiz-adv-x="183" unicode="Î" d="M93 806l-113 -76l-27 23l123 111h40l116 -109l-26 -24zM60 0v696h63v-696h-63z"/>
<glyph glyph-name="Idieresis" horiz-adv-x="183" unicode="Ï" d="M-10 749v63h56v-63h-56zM140 749v63h55v-63h-55zM60 0v696h63v-696h-63z"/>
<glyph glyph-name="Eth" horiz-adv-x="414" unicode="Ð" d="M305 520q0 27 -5 49t-17 37.5t-32 24.5t-50 9h-87v-250h89v-48h-89v-286h88q54 0 78.5 30t24.5 90v344zM6 390h47v306h156q63 0 98.5 -21.5t49.5 -72.5q11 -41 11 -103.5v-149.5v-148.5t-12 -100.5q-9 -30 -25 -49t-36 -30.5t-44 -16t-51 -4.5h-147v342h-47v48z"/>
<glyph glyph-name="Ntilde" horiz-adv-x="441" unicode="Ñ" d="M357 808q-16 -33 -38.5 -50.5t-43.5 -17.5q-15 0 -29.5 6t-28.5 12.5t-27 12.5t-25 6q-26 0 -50 -35l-33 20q12 25 33.5 45.5t46.5 20.5q15 0 28 -6t26.5 -13t27.5 -13t30 -6q25 0 51 39zM111 526v-526h-61v696h58q6 -15 17.5 -43t26 -62.5t30 -72t30 -72t26 -62.5 t18.5 -43l70 -174h4v529h61v-696h-58q-6 15 -17.5 42.5t-26 62t-30 72t-30 71.5t-26.5 61.5t-18 42.5l-71 174h-3z"/>
<glyph glyph-name="Ograve" horiz-adv-x="409" unicode="Ò" d="M229 723l-154 91l42 47l135 -109zM301 534q0 22 -5 42t-16 35.5t-29.5 25t-45.5 9.5q-29 0 -48 -12.5t-30 -31.5t-15.5 -41.5t-4.5 -42.5v-363q0 -20 5.5 -39t17 -34t30 -24t44.5 -9q53 0 75 34t22 82v369zM363 172q0 -88 -39.5 -133.5t-119.5 -45.5t-118.5 43t-38.5 120 v366q0 37 8 70t26.5 57.5t49 38.5t74.5 14q45 0 75.5 -12.5t48.5 -36t26 -56t8 -72.5v-353z"/>
<glyph glyph-name="Oacute" horiz-adv-x="409" unicode="Ó" d="M161 751l135 109l40 -47l-152 -91zM301 534q0 22 -5 42t-16 35.5t-29.5 25t-45.5 9.5q-29 0 -48 -12.5t-30 -31.5t-15.5 -41.5t-4.5 -42.5v-363q0 -20 5.5 -39t17 -34t30 -24t44.5 -9q53 0 75 34t22 82v369zM363 172q0 -88 -39.5 -133.5t-119.5 -45.5t-118.5 43 t-38.5 120v366q0 37 8 70t26.5 57.5t49 38.5t74.5 14q45 0 75.5 -12.5t48.5 -36t26 -56t8 -72.5v-353z"/>
<glyph glyph-name="Ocircumflex" horiz-adv-x="409" unicode="Ô" d="M205 806l-113 -76l-27 23l123 111h40l116 -109l-26 -24zM301 534q0 22 -5 42t-16 35.5t-29.5 25t-45.5 9.5q-29 0 -48 -12.5t-30 -31.5t-15.5 -41.5t-4.5 -42.5v-363q0 -20 5.5 -39t17 -34t30 -24t44.5 -9q53 0 75 34t22 82v369zM363 172q0 -88 -39.5 -133.5 t-119.5 -45.5t-118.5 43t-38.5 120v366q0 37 8 70t26.5 57.5t49 38.5t74.5 14q45 0 75.5 -12.5t48.5 -36t26 -56t8 -72.5v-353z"/>
<glyph glyph-name="Otilde" horiz-adv-x="409" unicode="Õ" d="M341 814q-16 -33 -38.5 -50.5t-43.5 -17.5q-15 0 -29.5 6t-28.5 12.5t-27 12.5t-25 6q-26 0 -50 -35l-33 20q12 25 33.5 45.5t46.5 20.5q15 0 28 -6t26.5 -13t27.5 -13t30 -6q25 0 51 39zM301 534q0 22 -5 42t-16 35.5t-29.5 25t-45.5 9.5q-29 0 -48 -12.5t-30 -31.5 t-15.5 -41.5t-4.5 -42.5v-363q0 -20 5.5 -39t17 -34t30 -24t44.5 -9q53 0 75 34t22 82v369zM363 172q0 -88 -39.5 -133.5t-119.5 -45.5t-118.5 43t-38.5 120v366q0 37 8 70t26.5 57.5t49 38.5t74.5 14q45 0 75.5 -12.5t48.5 -36t26 -56t8 -72.5v-353z"/>
<glyph glyph-name="Odieresis" horiz-adv-x="409" unicode="Ö" d="M101 749v63h56v-63h-56zM251 749v63h55v-63h-55zM301 534q0 22 -5 42t-16 35.5t-29.5 25t-45.5 9.5q-29 0 -48 -12.5t-30 -31.5t-15.5 -41.5t-4.5 -42.5v-363q0 -20 5.5 -39t17 -34t30 -24t44.5 -9q53 0 75 34t22 82v369zM363 172q0 -88 -39.5 -133.5t-119.5 -45.5 t-118.5 43t-38.5 120v366q0 37 8 70t26.5 57.5t49 38.5t74.5 14q45 0 75.5 -12.5t48.5 -36t26 -56t8 -72.5v-353z"/>
<glyph glyph-name="multiply" horiz-adv-x="380" unicode="×" d="M190 261l-136 -136l-34 34l136 135l-125 126l33 34l127 -126l134 136l33 -34l-134 -135l127 -128l-33 -34z"/>
<glyph glyph-name="Oslash" horiz-adv-x="409" unicode="Ø" d="M301 522l-183 -421q11 -23 31.5 -37.5t54.5 -14.5q53 0 75 34t22 82v357zM107 170l183 423q-10 23 -30.5 38t-54.5 15q-29 0 -48 -12.5t-30 -31.5t-15.5 -41.5t-4.5 -42.5v-348zM363 172q0 -88 -39.5 -133.5t-119.5 -45.5q-76 0 -116 40l-19 -44l-34 14l28 66 q-16 35 -16 87v366q0 37 8 70t26.5 57.5t49 38.5t74.5 14q40 0 68 -10t47 -29l19 43l36 -14l-29 -67q9 -21 13 -46t4 -54v-353z"/>
<glyph glyph-name="Ugrave" horiz-adv-x="407" unicode="Ù" d="M221 723l-154 91l42 47l135 -109zM361 695v-523q0 -88 -39 -133.5t-119 -45.5q-79 0 -118.5 43t-39.5 120v539h61v-540q0 -20 5.5 -39t17 -34t30 -24t44.5 -9q53 0 75 34t22 82v530h61z"/>
<glyph glyph-name="Uacute" horiz-adv-x="407" unicode="Ú" d="M163 751l135 109l40 -47l-152 -91zM361 695v-523q0 -88 -39 -133.5t-119 -45.5q-79 0 -118.5 43t-39.5 120v539h61v-540q0 -20 5.5 -39t17 -34t30 -24t44.5 -9q53 0 75 34t22 82v530h61z"/>
<glyph glyph-name="Ucircumflex" horiz-adv-x="407" unicode="Û" d="M201 806l-113 -76l-27 23l123 111h40l116 -109l-26 -24zM361 695v-523q0 -88 -39 -133.5t-119 -45.5q-79 0 -118.5 43t-39.5 120v539h61v-540q0 -20 5.5 -39t17 -34t30 -24t44.5 -9q53 0 75 34t22 82v530h61z"/>
<glyph glyph-name="Udieresis" horiz-adv-x="407" unicode="Ü" d="M103 749v63h56v-63h-56zM253 749v63h55v-63h-55zM361 695v-523q0 -88 -39 -133.5t-119 -45.5q-79 0 -118.5 43t-39.5 120v539h61v-540q0 -20 5.5 -39t17 -34t30 -24t44.5 -9q53 0 75 34t22 82v530h61z"/>
<glyph glyph-name="Yacute" horiz-adv-x="363" unicode="Ý" d="M151 751l135 109l40 -47l-152 -91zM182 375l44 140l60 181h64q-6 -17 -17 -48.5t-24.5 -71t-28.5 -82t-28.5 -81.5t-24 -71t-16.5 -48v-295h-61v295q-6 16 -16.5 48t-24 71t-28.5 81.5t-28.5 82t-24.5 71t-17 48.5h64l60 -183q3 -9 9 -28t13 -41t13 -41t9 -28h3z"/>
<glyph glyph-name="Thorn" horiz-adv-x="391" unicode="Þ" d="M114 208h70q38 0 62 10.5t38 30t19 47t5 60.5q0 31 -4.5 58t-18 46.5t-37.5 30.5t-62 11h-72v-294zM52 696h60v-137h80q52 0 86.5 -14t54 -40.5t27.5 -64t8 -83.5q0 -44 -8 -82t-28 -65.5t-55.5 -43t-89.5 -15.5h-73v-151h-61z"/>
<glyph glyph-name="germandbls" horiz-adv-x="366" unicode="ß" d="M255 429q25 -8 39 -21.5t20.5 -31t8 -38.5t1.5 -42v-157q0 -30 -6.5 -56.5t-20.5 -46.5t-38 -31.5t-58 -11.5h-27v49h10q45 0 61.5 23t16.5 66v186q0 42 -22.5 62.5t-50.5 20.5h-5v53q33 4 51 23.5t18 53.5v60q0 35 -21 56.5t-56 21.5t-56.5 -23t-21.5 -55v-590h-60v587 q0 32 10.5 57.5t29 43.5t44 28t55.5 10q29 0 54 -8.5t44 -25t29.5 -41t10.5 -57.5v-60q0 -34 -13.5 -61.5t-46.5 -40.5v-3z"/>
<glyph glyph-name="agrave" horiz-adv-x="352" unicode="à" d="M171 556l-92 152l58 21l68 -159zM176 238q-38 0 -64.5 -22.5t-26.5 -78.5q0 -38 17.5 -61.5t59.5 -23.5q40 0 63.5 22t23.5 64v100h-73zM37 405q13 43 48 68t89 25q65 0 100.5 -29.5t35.5 -103.5v-365h-62v44h-1q-22 -31 -49.5 -40.5t-58.5 -9.5q-32 0 -53.5 12t-35 31.5 t-19.5 44.5t-6 52q0 28 6 56t22 50.5t42 37t67 14.5h87v72q0 35 -16 56t-62 21q-22 0 -45.5 -12.5t-30.5 -41.5z"/>
<glyph glyph-name="aacute" horiz-adv-x="352" unicode="á" d="M143 570l67 159l59 -21l-92 -152zM176 238q-38 0 -64.5 -22.5t-26.5 -78.5q0 -38 17.5 -61.5t59.5 -23.5q40 0 63.5 22t23.5 64v100h-73zM37 405q13 43 48 68t89 25q65 0 100.5 -29.5t35.5 -103.5v-365h-62v44h-1q-22 -31 -49.5 -40.5t-58.5 -9.5q-32 0 -53.5 12 t-35 31.5t-19.5 44.5t-6 52q0 28 6 56t22 50.5t42 37t67 14.5h87v72q0 35 -16 56t-62 21q-22 0 -45.5 -12.5t-30.5 -41.5z"/>
<glyph glyph-name="acircumflex" horiz-adv-x="352" unicode="â" d="M177 647l-113 -95l-27 22l123 131h39l117 -129l-27 -24zM176 238q-38 0 -64.5 -22.5t-26.5 -78.5q0 -38 17.5 -61.5t59.5 -23.5q40 0 63.5 22t23.5 64v100h-73zM37 405q13 43 48 68t89 25q65 0 100.5 -29.5t35.5 -103.5v-365h-62v44h-1q-22 -31 -49.5 -40.5t-58.5 -9.5 q-32 0 -53.5 12t-35 31.5t-19.5 44.5t-6 52q0 28 6 56t22 50.5t42 37t67 14.5h87v72q0 35 -16 56t-62 21q-22 0 -45.5 -12.5t-30.5 -41.5z"/>
<glyph glyph-name="atilde" horiz-adv-x="352" unicode="ã" d="M318 644q-16 -33 -38.5 -50.5t-43.5 -17.5q-15 0 -29.5 6t-28.5 12.5t-27 12.5t-25 6q-26 0 -50 -35l-33 20q12 25 33.5 45.5t46.5 20.5q15 0 28 -6t26.5 -13t27.5 -13t30 -6q25 0 51 39zM176 238q-38 0 -64.5 -22.5t-26.5 -78.5q0 -38 17.5 -61.5t59.5 -23.5 q40 0 63.5 22t23.5 64v100h-73zM37 405q13 43 48 68t89 25q65 0 100.5 -29.5t35.5 -103.5v-365h-62v44h-1q-22 -31 -49.5 -40.5t-58.5 -9.5q-32 0 -53.5 12t-35 31.5t-19.5 44.5t-6 52q0 28 6 56t22 50.5t42 37t67 14.5h87v72q0 35 -16 56t-62 21q-22 0 -45.5 -12.5 t-30.5 -41.5z"/>
<glyph glyph-name="adieresis" horiz-adv-x="352" unicode="ä" d="M225 587v64h55v-64h-55zM74 587v64h56v-64h-56zM176 238q-38 0 -64.5 -22.5t-26.5 -78.5q0 -38 17.5 -61.5t59.5 -23.5q40 0 63.5 22t23.5 64v100h-73zM37 405q13 43 48 68t89 25q65 0 100.5 -29.5t35.5 -103.5v-365h-62v44h-1q-22 -31 -49.5 -40.5t-58.5 -9.5 q-32 0 -53.5 12t-35 31.5t-19.5 44.5t-6 52q0 28 6 56t22 50.5t42 37t67 14.5h87v72q0 35 -16 56t-62 21q-22 0 -45.5 -12.5t-30.5 -41.5z"/>
<glyph glyph-name="aring" horiz-adv-x="352" unicode="å" d="M186 682q-21 0 -36 -15t-15 -36t15 -36t36 -15q20 0 35 15t15 36t-15 36t-35 15zM186 546q-36 0 -61 25t-25 61t25 61t61 25q35 0 60 -25t25 -61t-25 -61t-60 -25zM176 238q-38 0 -64.5 -22.5t-26.5 -78.5q0 -38 17.5 -61.5t59.5 -23.5q40 0 63.5 22t23.5 64v100h-73z M37 405q13 43 48 68t89 25q65 0 100.5 -29.5t35.5 -103.5v-365h-62v44h-1q-22 -31 -49.5 -40.5t-58.5 -9.5q-32 0 -53.5 12t-35 31.5t-19.5 44.5t-6 52q0 28 6 56t22 50.5t42 37t67 14.5h87v72q0 35 -16 56t-62 21q-22 0 -45.5 -12.5t-30.5 -41.5z"/>
<glyph glyph-name="ae" horiz-adv-x="559" unicode="æ" d="M471 290v54q0 41 -17.5 69t-62.5 28q-59 0 -73 -60q-2 -5 -3 -15.5t-2 -23.5t-1.5 -27t-0.5 -25h160zM246 239h-72q-38 0 -64.5 -23t-26.5 -78q0 -35 19 -60t63 -25q36 0 58.5 22.5t22.5 63.5v100zM389 -7q-45 0 -74.5 17t-45.5 44q-15 -20 -31 -32t-31.5 -18t-29.5 -8 t-26 -2q-38 0 -62.5 12t-39 32t-20.5 45t-6 52q0 28 7 55.5t23 50t42 36.5t64 14h87v73q0 35 -17.5 56t-60.5 21q-27 0 -47.5 -14t-27.5 -40l-58 18q12 43 48.5 68.5t87.5 25.5q45 0 71 -13t38 -36q37 49 115 49q69 0 103.5 -37.5t34.5 -106.5v-117h-222v-29.5t0.5 -38 t1.5 -35.5t3 -22q5 -28 24.5 -45.5t52.5 -17.5q37 0 55.5 23t21.5 54l61 -14q-8 -54 -41 -87t-101 -33z"/>
<glyph glyph-name="ccedilla" horiz-adv-x="332" unicode="ç" d="M178 498q69 0 101 -36t32 -101l-63 -9v1q1 6 1 12q0 31 -19 54.5t-55 23.5q-23 0 -41.5 -11t-28.5 -36q-8 -19 -9.5 -63t-2.5 -104q1 -39 2 -75t6 -54q8 -24 26 -38t47 -14q36 0 55.5 22t18.5 67l63 -11q-3 -123 -121 -132l-13 -53q23 -2 38 -9.5t24 -18t12.5 -23 t3.5 -22.5q0 -12 -4.5 -25t-14 -23.5t-24.5 -17.5t-37 -7q-11 0 -33.5 2.5t-43.5 13.5l11 30q17 -8 31.5 -10t26.5 -2q18 0 30.5 9.5t12.5 28.5q0 20 -13 31t-39 11h-5l-16 13l20 72q-54 4 -80.5 30.5t-34.5 59.5q-3 12 -5 30.5t-2.5 40t-1 43.5t-0.5 42q0 26 0.5 53t2.5 51 t4.5 43.5t7.5 31.5q13 36 44.5 57.5t85.5 21.5z"/>
<glyph glyph-name="egrave" horiz-adv-x="350" unicode="è" d="M178 556l-92 152l58 21l68 -159zM104 395q-6 -16 -7.5 -44.5t-2.5 -69.5h158v52q0 21 -2.5 40.5t-11 34.5t-23.5 24t-40 9q-22 0 -41 -10t-30 -36zM178 498q60 0 93.5 -29.5t39.5 -83.5q1 -11 1.5 -22t0.5 -22v-110h-220q0 -10 0.5 -19t0.5 -19q0 -26 1.5 -53t6.5 -41 q16 -50 72 -50q38 0 56 22.5t20 59.5l62 -12q-5 -61 -40.5 -93.5t-100.5 -32.5q-31 0 -53.5 8t-38 20.5t-25 29t-13.5 33.5q-3 12 -5 30.5t-2.5 40t-1 43.5t-0.5 42q0 26 0.5 52t2.5 50t4.5 43.5t7.5 32.5q14 37 45 58.5t86 21.5z"/>
<glyph glyph-name="eacute" horiz-adv-x="350" unicode="é" d="M147 570l67 159l59 -21l-92 -152zM104 395q-6 -16 -7.5 -44.5t-2.5 -69.5h158v52q0 21 -2.5 40.5t-11 34.5t-23.5 24t-40 9q-22 0 -41 -10t-30 -36zM178 498q60 0 93.5 -29.5t39.5 -83.5q1 -11 1.5 -22t0.5 -22v-110h-220q0 -10 0.5 -19t0.5 -19q0 -26 1.5 -53t6.5 -41 q16 -50 72 -50q38 0 56 22.5t20 59.5l62 -12q-5 -61 -40.5 -93.5t-100.5 -32.5q-31 0 -53.5 8t-38 20.5t-25 29t-13.5 33.5q-3 12 -5 30.5t-2.5 40t-1 43.5t-0.5 42q0 26 0.5 52t2.5 50t4.5 43.5t7.5 32.5q14 37 45 58.5t86 21.5z"/>
<glyph glyph-name="ecircumflex" horiz-adv-x="350" unicode="ê" d="M176 647l-113 -95l-27 22l123 131h39l117 -129l-27 -24zM104 395q-6 -16 -7.5 -44.5t-2.5 -69.5h158v52q0 21 -2.5 40.5t-11 34.5t-23.5 24t-40 9q-22 0 -41 -10t-30 -36zM178 498q60 0 93.5 -29.5t39.5 -83.5q1 -11 1.5 -22t0.5 -22v-110h-220q0 -10 0.5 -19t0.5 -19 q0 -26 1.5 -53t6.5 -41q16 -50 72 -50q38 0 56 22.5t20 59.5l62 -12q-5 -61 -40.5 -93.5t-100.5 -32.5q-31 0 -53.5 8t-38 20.5t-25 29t-13.5 33.5q-3 12 -5 30.5t-2.5 40t-1 43.5t-0.5 42q0 26 0.5 52t2.5 50t4.5 43.5t7.5 32.5q14 37 45 58.5t86 21.5z"/>
<glyph glyph-name="edieresis" horiz-adv-x="350" unicode="ë" d="M221 587v64h55v-64h-55zM70 587v64h56v-64h-56zM104 395q-6 -16 -7.5 -44.5t-2.5 -69.5h158v52q0 21 -2.5 40.5t-11 34.5t-23.5 24t-40 9q-22 0 -41 -10t-30 -36zM178 498q60 0 93.5 -29.5t39.5 -83.5q1 -11 1.5 -22t0.5 -22v-110h-220q0 -10 0.5 -19t0.5 -19 q0 -26 1.5 -53t6.5 -41q16 -50 72 -50q38 0 56 22.5t20 59.5l62 -12q-5 -61 -40.5 -93.5t-100.5 -32.5q-31 0 -53.5 8t-38 20.5t-25 29t-13.5 33.5q-3 12 -5 30.5t-2.5 40t-1 43.5t-0.5 42q0 26 0.5 52t2.5 50t4.5 43.5t7.5 32.5q14 37 45 58.5t86 21.5z"/>
<glyph glyph-name="igrave" horiz-adv-x="174" unicode="ì" d="M78 556l-92 152l58 21l68 -159zM60 0v492h62v-492h-62z"/>
<glyph glyph-name="iacute" horiz-adv-x="172" unicode="í" d="M59 570l67 159l59 -21l-92 -152zM49 0v492h62v-492h-62z"/>
<glyph glyph-name="icircumflex" horiz-adv-x="239" unicode="î" d="M120 647l-113 -95l-27 22l123 131h39l117 -129l-27 -24zM86 0v492h62v-492h-62z"/>
<glyph glyph-name="idieresis" horiz-adv-x="166" unicode="ï" d="M-20 587v64h56v-64h-56zM131 587v64h55v-64h-55zM53 0v492h62v-492h-62z"/>
<glyph glyph-name="eth" horiz-adv-x="362" unicode="ð" d="M180 423q-25 0 -44.5 -11.5t-30.5 -37.5q-6 -17 -8 -42.5t-3 -73.5v-39q0 -41 1 -72t7 -48q8 -25 26.5 -38.5t50.5 -13.5q27 0 47 15.5t28 41.5q5 14 7 51t2 79v67q0 20 -2 37t-5 29q-8 26 -26 41t-50 15zM171 478q8 0 20.5 -2t26 -7t26 -14t21.5 -23h1v27.5t-1 27.5 q0 26 -4 50t-12 44l-70 -50l-21 31l73 52q-3 5 -6.5 8.5l-8.5 8.5q-19 20 -49 32.5t-62 17.5l6 50q51 -5 85.5 -19.5t53.5 -31.5q17 -15 29 -32l61 44l22 -29l-64 -46q17 -30 21.5 -112.5t4.5 -222.5q0 -47 -2 -93t-4 -72q-4 -38 -18.5 -62t-34.5 -37.5t-44.5 -19 t-47.5 -5.5q-30 0 -52.5 7.5t-38 20t-25.5 29.5t-15 36q-3 11 -4.5 28.5t-2.5 38.5t-1.5 43t-0.5 42q2 64 5 101t11 59q13 34 43.5 56t78.5 24z"/>
<glyph glyph-name="ntilde" horiz-adv-x="362" unicode="ñ" d="M308 644q-16 -33 -38.5 -50.5t-43.5 -17.5q-15 0 -29.5 6t-28.5 12.5t-27 12.5t-25 6q-26 0 -50 -35l-33 20q12 25 33.5 45.5t46.5 20.5q15 0 28 -6t26.5 -13t27.5 -13t30 -6q25 0 51 39zM100 440h2q17 28 44.5 43t60.5 15q31 0 52.5 -10t35.5 -27t20.5 -41t6.5 -52v-368 h-63v350q0 38 -16 62t-58 24q-41 0 -63.5 -27.5t-22.5 -66.5v-342h-61v492h62v-52z"/>
<glyph glyph-name="ograve" horiz-adv-x="356" unicode="ò" d="M168 556l-92 152l58 21l68 -159zM179 443q-23 0 -43 -10t-31 -36q-7 -18 -9 -55t-2 -88v-32q0 -41 1 -73t7 -49q15 -51 77 -51q29 0 49.5 17t27.5 46q3 18 5 53t2 73q0 21 -0.5 44t-1 44t-2.5 38t-5 26q-8 26 -28 39.5t-47 13.5zM180 498q56 0 86.5 -22t42.5 -55 q9 -26 11.5 -66t2.5 -80v-49q0 -27 -1 -53.5t-4 -56.5q-4 -37 -18.5 -61t-35 -37.5t-44.5 -19t-47 -5.5q-61 0 -91 26.5t-40 64.5q-3 12 -5 30.5t-3 40t-1 43.5v42q0 26 0.5 52.5t2.5 50.5t4.5 43.5t7.5 31.5q13 36 45.5 58t86.5 22z"/>
<glyph glyph-name="oacute" horiz-adv-x="356" unicode="ó" d="M141 570l67 159l59 -21l-92 -152zM179 443q-23 0 -43 -10t-31 -36q-7 -18 -9 -55t-2 -88v-32q0 -41 1 -73t7 -49q15 -51 77 -51q29 0 49.5 17t27.5 46q3 18 5 53t2 73q0 21 -0.5 44t-1 44t-2.5 38t-5 26q-8 26 -28 39.5t-47 13.5zM180 498q56 0 86.5 -22t42.5 -55 q9 -26 11.5 -66t2.5 -80v-49q0 -27 -1 -53.5t-4 -56.5q-4 -37 -18.5 -61t-35 -37.5t-44.5 -19t-47 -5.5q-61 0 -91 26.5t-40 64.5q-3 12 -5 30.5t-3 40t-1 43.5v42q0 26 0.5 52.5t2.5 50.5t4.5 43.5t7.5 31.5q13 36 45.5 58t86.5 22z"/>
<glyph glyph-name="ocircumflex" horiz-adv-x="356" unicode="ô" d="M180 647l-113 -95l-27 22l123 131h39l117 -129l-27 -24zM179 443q-23 0 -43 -10t-31 -36q-7 -18 -9 -55t-2 -88v-32q0 -41 1 -73t7 -49q15 -51 77 -51q29 0 49.5 17t27.5 46q3 18 5 53t2 73q0 21 -0.5 44t-1 44t-2.5 38t-5 26q-8 26 -28 39.5t-47 13.5zM180 498 q56 0 86.5 -22t42.5 -55q9 -26 11.5 -66t2.5 -80v-49q0 -27 -1 -53.5t-4 -56.5q-4 -37 -18.5 -61t-35 -37.5t-44.5 -19t-47 -5.5q-61 0 -91 26.5t-40 64.5q-3 12 -5 30.5t-3 40t-1 43.5v42q0 26 0.5 52.5t2.5 50.5t4.5 43.5t7.5 31.5q13 36 45.5 58t86.5 22z"/>
<glyph glyph-name="otilde" horiz-adv-x="356" unicode="õ" d="M317 644q-16 -33 -38.5 -50.5t-43.5 -17.5q-15 0 -29.5 6t-28.5 12.5t-27 12.5t-25 6q-26 0 -50 -35l-33 20q12 25 33.5 45.5t46.5 20.5q15 0 28 -6t26.5 -13t27.5 -13t30 -6q25 0 51 39zM179 443q-23 0 -43 -10t-31 -36q-7 -18 -9 -55t-2 -88v-32q0 -41 1 -73t7 -49 q15 -51 77 -51q29 0 49.5 17t27.5 46q3 18 5 53t2 73q0 21 -0.5 44t-1 44t-2.5 38t-5 26q-8 26 -28 39.5t-47 13.5zM180 498q56 0 86.5 -22t42.5 -55q9 -26 11.5 -66t2.5 -80v-49q0 -27 -1 -53.5t-4 -56.5q-4 -37 -18.5 -61t-35 -37.5t-44.5 -19t-47 -5.5q-61 0 -91 26.5 t-40 64.5q-3 12 -5 30.5t-3 40t-1 43.5v42q0 26 0.5 52.5t2.5 50.5t4.5 43.5t7.5 31.5q13 36 45.5 58t86.5 22z"/>
<glyph glyph-name="odieresis" horiz-adv-x="356" unicode="ö" d="M223 587v64h55v-64h-55zM72 587v64h56v-64h-56zM179 443q-23 0 -43 -10t-31 -36q-7 -18 -9 -55t-2 -88v-32q0 -41 1 -73t7 -49q15 -51 77 -51q29 0 49.5 17t27.5 46q3 18 5 53t2 73q0 21 -0.5 44t-1 44t-2.5 38t-5 26q-8 26 -28 39.5t-47 13.5zM180 498q56 0 86.5 -22 t42.5 -55q9 -26 11.5 -66t2.5 -80v-49q0 -27 -1 -53.5t-4 -56.5q-4 -37 -18.5 -61t-35 -37.5t-44.5 -19t-47 -5.5q-61 0 -91 26.5t-40 64.5q-3 12 -5 30.5t-3 40t-1 43.5v42q0 26 0.5 52.5t2.5 50.5t4.5 43.5t7.5 31.5q13 36 45.5 58t86.5 22z"/>
<glyph glyph-name="divide" d="M184 182q18 0 31 -13t13 -32q0 -18 -13 -31.5t-31 -13.5t-31 13.5t-13 31.5q0 19 13 32t31 13zM12 269v50h341v-50h-341zM228 447q0 -19 -13 -32t-31 -13t-31 13t-13 32q0 18 13 31t31 13t31 -13t13 -31z" unicode="÷"/>
<glyph glyph-name="oslash" horiz-adv-x="356" unicode="ø" d="M179 443q-23 0 -43 -10t-31 -36q-7 -18 -9 -55t-2 -88v-32v-54t2 -44l147 288q-22 31 -64 31zM110 81q20 -32 69 -32q29 0 49.5 17t27.5 46q3 18 5 53t2 73q0 33 -1 69t-4 61zM180 498q31 0 54 -7.5t39 -20.5l17 32l29 -16l-22 -42q7 -10 12 -23q9 -26 11.5 -66t2.5 -80 v-49q0 -27 -1 -53.5t-4 -56.5q-4 -37 -18.5 -61t-35 -37.5t-44.5 -19t-47 -5.5q-32 0 -55 7.5t-39 21.5q-5 -8 -9 -16l-8 -16l-26 15l21 42q-10 16 -15 37q-3 12 -5 30.5t-3 40t-1 43.5v42q0 26 0.5 52.5t2.5 50.5t4.5 43.5t7.5 31.5q13 36 45.5 58t86.5 22z"/>
<glyph glyph-name="ugrave" horiz-adv-x="364" unicode="ù" d="M175 556l-92 152l58 21l68 -159zM261 52h-3q-17 -28 -44 -42.5t-60 -14.5q-31 0 -52.5 9.5t-35.5 27t-20.5 41t-6.5 51.5v369h63v-351q0 -42 16.5 -65t58.5 -23q38 0 61.5 27.5t23.5 66.5v345h61v-492h-62v51z"/>
<glyph glyph-name="uacute" horiz-adv-x="364" unicode="ú" d="M173 570l67 159l59 -21l-92 -152zM261 52h-3q-17 -28 -44 -42.5t-60 -14.5q-31 0 -52.5 9.5t-35.5 27t-20.5 41t-6.5 51.5v369h63v-351q0 -42 16.5 -65t58.5 -23q38 0 61.5 27.5t23.5 66.5v345h61v-492h-62v51z"/>
<glyph glyph-name="ucircumflex" horiz-adv-x="364" unicode="û" d="M180 647l-113 -95l-27 22l123 131h39l117 -129l-27 -24zM261 52h-3q-17 -28 -44 -42.5t-60 -14.5q-31 0 -52.5 9.5t-35.5 27t-20.5 41t-6.5 51.5v369h63v-351q0 -42 16.5 -65t58.5 -23q38 0 61.5 27.5t23.5 66.5v345h61v-492h-62v51z"/>
<glyph glyph-name="udieresis" horiz-adv-x="364" unicode="ü" d="M74 587v64h56v-64h-56zM225 587v64h55v-64h-55zM261 52h-3q-17 -28 -44 -42.5t-60 -14.5q-31 0 -52.5 9.5t-35.5 27t-20.5 41t-6.5 51.5v369h63v-351q0 -42 16.5 -65t58.5 -23q38 0 61.5 27.5t23.5 66.5v345h61v-492h-62v51z"/>
<glyph glyph-name="yacute" horiz-adv-x="326" unicode="ý" d="M138 570l67 159l59 -21l-92 -152zM167 92q11 48 22 100.5t22 100.5l48 198h62l-148 -577q-6 -22 -14.5 -42t-21.5 -35t-32 -24t-46 -9h-23v53h16q30 0 45 21t25 66l14 55l-131 492h65q14 -54 26 -107.5t25 -107.5q5 -21 11 -46.5l12 -51t11.5 -48.5t8.5 -38h3z"/>
<glyph glyph-name="thorn" horiz-adv-x="357" unicode="þ" d="M196 498q16 0 35.5 -4.5t36.5 -17t30.5 -36t17.5 -61.5q3 -31 3 -62v-60v-7q0 -60 -2.5 -110t-18.5 -84q-13 -28 -38 -45t-70 -17q-37 0 -58.5 15t-34.5 33h-2v-235h-60v888h60v-246h2q17 23 38 36t61 13zM178 439q-39 0 -61 -25.5t-22 -66.5v-199q0 -40 19.5 -67.5 t61.5 -27.5q58 0 73 57q5 21 6.5 59.5t1.5 83.5q0 47 -1.5 81t-7.5 54q-8 28 -25 39.5t-45 11.5z"/>
<glyph glyph-name="OE" horiz-adv-x="570" unicode="Œ" d="M201 646q-29 0 -47.5 -12.5t-29.5 -31.5t-15.5 -41.5t-4.5 -42.5v-364q0 -20 5.5 -39t17 -34t29.5 -24t44 -9q35 0 58 14v571q-22 13 -57 13zM224 699q23 0 38 -3h286v-57h-230v-256h201v-56h-201v-272h230v-55h-285q-13 -3 -29 -5t-33 -2q-79 0 -118.5 42.5t-39.5 119.5 v367q0 37 8.5 70t27 57.5t48.5 38.5t74 14q7 0 12.5 -0.5t10.5 -2.5z"/>
<glyph glyph-name="oe" horiz-adv-x="578" unicode="œ" d="M340 395q-7 -16 -8.5 -44.5t-2.5 -69.5h158v52v15.5t-1 15.5q-2 33 -19.5 55t-56.5 22q-21 0 -40 -10t-30 -36zM179 443q-23 0 -43 -10t-31 -36q-7 -18 -9 -55t-2 -88v-32q0 -41 1 -73t7 -49q8 -25 26.5 -38t50.5 -13q29 0 49.5 17t27.5 46q3 18 5 53t2 73q0 21 -0.5 44 t-1 44t-2.5 38t-5 26q-8 26 -27.5 39.5t-47.5 13.5zM413 498q62 0 95 -30t39 -86q1 -10 1.5 -20t0.5 -21v-110h-221q0 -10 0.5 -19t0.5 -19q1 -26 2 -53t6 -41q8 -23 25.5 -36.5t47.5 -13.5q38 0 55.5 23t21.5 54l60 -14q-8 -54 -41 -86.5t-99 -32.5q-47 0 -73.5 16.5 t-39.5 39.5q-21 -32 -54.5 -44t-66.5 -12q-61 0 -90.5 26.5t-40.5 64.5q-3 12 -5 30.5t-2.5 40t-1 43.5t-0.5 42q0 26 0.5 53t2.5 51t4.5 44t7.5 32q14 36 46 57t86 21q45 0 73 -15.5t43 -39.5h1q16 26 44 40.5t72 14.5z"/>
<glyph glyph-name="Scaron" horiz-adv-x="386" unicode="Š" d="M304 864l27 -24l-117 -109h-39l-123 111l27 22l113 -75zM354 186q0 -44 -8 -79.5t-27 -60.5t-50 -39t-76 -14q-42 0 -72 12t-49.5 32.5t-29 48.5t-9.5 61l62 13q0 -21 5 -40.5t16.5 -34.5t30 -24t46.5 -9q34 0 53.5 11t29.5 29t13 42t3 51q0 33 -3 54.5t-14 37 t-31.5 28.5t-55.5 28q-50 22 -79.5 43t-45 43.5t-20.5 48t-5 55.5q0 39 9.5 72t29.5 56.5t50 37t71 13.5q45 0 75 -13.5t48 -35.5t25.5 -48.5t7.5 -51.5l-62 -15q0 47 -21.5 76.5t-75.5 29.5q-30 0 -48.5 -11.5t-29 -29t-14 -38.5t-3.5 -41q0 -23 4 -41t16.5 -34t36.5 -31 t65 -32q45 -18 71 -37.5t39.5 -43t17.5 -52.5t4 -67z"/>
<glyph glyph-name="scaron" horiz-adv-x="331" unicode="š" d="M288 705l26 -24l-116 -128h-40l-123 130l27 22l113 -95zM90 133q-1 -38 18.5 -60.5t53.5 -22.5h3q44 0 60.5 21t16.5 62q0 19 -3 33t-12 25t-25 20t-42 19q-39 15 -63.5 30.5t-38 32.5t-18.5 36t-5 40q0 57 33 93.5t102 36.5t102 -34.5t33 -96.5l-64 -9v7 q0 37 -19.5 56.5t-52.5 19.5q-22 0 -36.5 -6.5t-22.5 -17t-11.5 -23.5t-3.5 -26q0 -14 3.5 -25.5t14 -22t29 -20.5t48.5 -20q37 -14 59.5 -29t34 -33t15 -39t3.5 -46q0 -62 -31 -101.5t-104 -39.5q-136 0 -139 130z"/>
<glyph glyph-name="Ydieresis" horiz-adv-x="363" unicode="Ÿ" d="M229 749v63h55v-63h-55zM79 749v63h56v-63h-56zM182 375l44 140l60 181h64q-6 -17 -17 -48.5t-24.5 -71t-28.5 -82t-28.5 -81.5t-24 -71t-16.5 -48v-295h-61v295q-6 16 -16.5 48t-24 71t-28.5 81.5t-28.5 82t-24.5 71t-17 48.5h64l60 -183q3 -9 9 -28t13 -41t13 -41 t9 -28h3z"/>
<glyph glyph-name="circumflex" horiz-adv-x="353" unicode="ˆ" d="M176 647l-113 -95l-27 22l123 131h39l117 -129l-27 -24z"/>
<glyph glyph-name="tilde" horiz-adv-x="362" unicode="˜" d="M318 644q-16 -33 -38.5 -50.5t-43.5 -17.5q-15 0 -29.5 6t-28.5 12.5t-27 12.5t-25 6q-26 0 -50 -35l-33 20q12 25 33.5 45.5t46.5 20.5q15 0 28 -6t26.5 -13t27.5 -13t30 -6q25 0 51 39z"/>
<glyph glyph-name="Alpha" horiz-adv-x="386" unicode="Α" d="M191 594l-33 -168l-42 -200h152l-42 202l-32 166h-3zM316 0l-37 168h-173l-36 -168h-58l150 696h62l153 -696h-61z"/>
<glyph glyph-name="Beta" horiz-adv-x="412" unicode="Β" d="M303 518q0 59 -26 90.5t-89 31.5h-74v-246h82q59 0 83 32t24 92zM310 209q0 63 -24.5 97t-84.5 34h-87v-284h82q36 0 58.5 12t34.5 33t16.5 49t4.5 59zM289 365q46 -14 63.5 -57.5t17.5 -103.5q0 -109 -45 -156.5t-133 -47.5h-139v696h146q45 0 76.5 -12t51 -35t28 -56.5 t8.5 -75.5q0 -54 -16 -90t-58 -58v-4z"/>
<glyph glyph-name="Gamma" horiz-adv-x="354" unicode="Γ" d="M114 639v-639h-61v696h280v-57h-219z"/>
<glyph glyph-name="Epsilon" horiz-adv-x="361" unicode="Ε" d="M53 0v696h291v-57h-230v-255h201v-57h-201v-271h230v-56h-291z"/>
<glyph glyph-name="Zeta" horiz-adv-x="313" unicode="Ζ" d="M296 640l-218 -584h212v-56h-274v56l218 584h-204v56h266v-56z"/>
<glyph glyph-name="Eta" horiz-adv-x="420" unicode="Η" d="M305 0v329h-191v-329h-61v696h61v-313h191v313h62v-696h-62z"/>
<glyph glyph-name="Theta" horiz-adv-x="409" unicode="Θ" d="M301 534q0 22 -5 42t-16 35.5t-29.5 25t-45.5 9.5q-29 0 -48 -12.5t-30 -31.5t-15.5 -41.5t-4.5 -42.5v-363q0 -20 5.5 -39t17 -34t30 -24t44.5 -9q53 0 75 34t22 82v369zM363 172q0 -88 -39 -133.5t-120 -45.5q-79 0 -118 43t-39 120v366q0 37 8 70t26.5 57.5t49 38.5 t74.5 14q45 0 75.5 -12.5t48.5 -36t26 -56t8 -72.5v-353zM131 384h147v-57h-147v57z"/>
<glyph glyph-name="Iota" horiz-adv-x="183" unicode="Ι" d="M60 0v696h63v-696h-63z"/>
<glyph glyph-name="Kappa" horiz-adv-x="406" unicode="Κ" d="M335 0l-139 354l-83 -155v-199h-60v696h60v-382h2l194 382h63l-140 -275l167 -421h-64z"/>
<glyph glyph-name="Lambda" horiz-adv-x="386" unicode="Λ" d="M190 581q-8 -40 -15.5 -76.5t-13.5 -62.5q-18 -90 -30.5 -151.5t-22.5 -109.5t-19 -89.5t-20 -91.5h-58l151 696h61l153 -696h-60q-15 67 -25 115t-20 94.5t-21.5 101.5t-29.5 138q-2 9 -4.5 26t-6.5 36t-7.5 37.5t-6.5 32.5h-5z"/>
<glyph glyph-name="Mu" horiz-adv-x="548" unicode="Μ" d="M431 526q-5 -12 -14 -35.5t-18.5 -49.5t-19 -49.5t-13.5 -35.5q-1 -3 -6.5 -17.5t-13.5 -34.5t-17.5 -43t-17.5 -43t-14 -34.5t-7 -17.5h-34q-5 13 -15.5 39t-22 55t-22 55t-15.5 39l-64 170h-4v-524h-61v696h62q6 -15 18 -46t25 -65.5t25 -65.5t17 -46l73 -194h3 q5 14 15 41t21.5 57t22 57.5t15.5 41.5q1 3 7.5 20t15.5 40t19.5 50t19 50t15 39.5t7.5 20.5h63v-696h-61v526h-4z"/>
<glyph glyph-name="Nu" horiz-adv-x="441" unicode="Ν" d="M111 526v-526h-61v696h58q6 -15 17.5 -43t26 -62.5t30 -72t30 -72t26 -62.5t18.5 -43l70 -174h4v529h61v-696h-58q-6 15 -17.5 42.5t-26 62t-30 72t-30 71.5t-26.5 61.5t-18 42.5l-71 174h-3z"/>
<glyph glyph-name="Xi" horiz-adv-x="351" unicode="Ξ" d="M26 0v61h303v-61h-303zM52 327v57h250v-57h-250zM26 639v57h303v-57h-303z"/>
<glyph glyph-name="Omicron" horiz-adv-x="409" unicode="Ο" d="M301 534q0 22 -5 42t-16 35.5t-29.5 25t-45.5 9.5q-29 0 -48 -12.5t-30 -31.5t-15.5 -41.5t-4.5 -42.5v-363q0 -20 5.5 -39t17 -34t30 -24t44.5 -9q53 0 75 34t22 82v369zM363 172q0 -88 -39.5 -133.5t-119.5 -45.5t-118.5 43t-38.5 120v366q0 37 8 70t26.5 57.5t49 38.5 t74.5 14q45 0 75.5 -12.5t48.5 -36t26 -56t8 -72.5v-353z"/>
<glyph glyph-name="Pi" horiz-adv-x="411" unicode="Π" d="M297 0v641h-183v-641h-61v696h306v-696h-62z"/>
<glyph glyph-name="Rho" horiz-adv-x="391" unicode="Ρ" d="M114 345h70q38 0 62 10.5t38 30t19 47t5 60.5q0 31 -4.5 58t-18 46.5t-37.5 31t-62 11.5h-72v-295zM192 696q52 0 86.5 -14t54 -40.5t27.5 -64t8 -83.5q0 -44 -8 -82t-28 -65.5t-55.5 -43t-89.5 -15.5h-73v-288h-61v696h139z"/>
<glyph glyph-name="Sigma" horiz-adv-x="302" unicode="Σ" d="M17 0v53l108 307l-111 284v53h270v-58h-208l112 -279l-109 -302h215v-58h-277z"/>
<glyph glyph-name="Tau" horiz-adv-x="320" unicode="Τ" d="M191 640v-640h-63v640h-125v56h313v-56h-125z"/>
<glyph glyph-name="Upsilon" horiz-adv-x="363" unicode="Υ" d="M182 375l44 140l60 181h64q-6 -17 -17 -48.5t-24.5 -71t-28.5 -82t-28.5 -81.5t-24 -71t-16.5 -48v-295h-61v295q-6 16 -16.5 48t-24 71t-28.5 81.5t-28.5 82t-24.5 71t-17 48.5h64l60 -183q3 -9 9 -28t13 -41t13 -41t9 -28h3z"/>
<glyph glyph-name="Phi" horiz-adv-x="488" unicode="Φ" d="M275 0h-61v54h-1q-35 1 -65.5 12t-53.5 32t-36.5 51.5t-13.5 71.5v269q0 40 15 70.5t39 51.5t54.5 32.5t60.5 11.5v40h62v-40q31 -2 61.5 -12.5t55 -31t39.5 -51t15 -71.5v-269q0 -41 -13.5 -71.5t-37 -51t-54.5 -31.5t-66 -13v-54zM275 110q48 2 79 29.5t31 81.5v269 q0 27 -10 47t-25.5 33.5t-35.5 21t-39 7.5v-489zM214 599h-1q-21 -1 -40.5 -8t-34.5 -20.5t-24.5 -33.5t-9.5 -47v-269q0 -27 9 -47t24 -34t35 -21.5t42 -8.5v489z"/>
<glyph glyph-name="Chi" horiz-adv-x="362" unicode="Χ" d="M289 -1l-108 294l-109 -294h-64l141 361l-134 336h65l101 -275l100 275h66l-137 -336l144 -361h-65z"/>
<glyph glyph-name="Psi" horiz-adv-x="481" unicode="Ψ" d="M439 310q0 -35 -13.5 -63t-36.5 -48t-53.5 -31t-64.5 -11v-157h-61v157q-34 0 -64.5 11.5t-53 31.5t-35.5 48t-13 62v386h61v-380q0 -48 30 -72t75 -26v478h61v-478q45 2 75.5 26t30.5 72v380h62v-386z"/>
<glyph glyph-name="alpha" horiz-adv-x="363" unicode="α" d="M160 498q40 0 61 -13t38 -36h2v42h60v-491h-60v52h-2q-16 -29 -45.5 -43t-57.5 -14q-45 0 -69 18t-36 47q-11 28 -13.5 67t-2.5 81v66q0 25 0.5 50.5t3.5 54.5q4 38 17.5 61.5t31.5 36t37.5 17t34.5 4.5zM178 439q-26 0 -44.5 -11.5t-27.5 -39.5q-6 -20 -7.5 -54 t-1.5 -81q0 -52 2 -95t10 -64q18 -41 68 -41q18 0 33.5 7.5t26.5 20t17.5 28.5t6.5 34v204q0 41 -22 66.5t-61 25.5z"/>
<glyph glyph-name="beta" horiz-adv-x="359" unicode="β" d="M39 586q0 65 37.5 102.5t100.5 37.5q32 0 57.5 -9.5t43.5 -30.5t27.5 -54t9.5 -80q0 -60 -15.5 -92.5t-49.5 -45.5v-3q21 -8 35.5 -18t23.5 -29.5t13 -51.5t4 -83q0 -49 -3.5 -92t-17 -74.5t-39.5 -50t-72 -18.5q-34 0 -55.5 11.5t-37.5 34.5l-2 -1v-183h-60v730zM99 140 q0 -36 18 -61t59 -25q31 0 48 12.5t25.5 35t10.5 54t2 69.5q0 41 -3 70.5t-12 48.5t-24.5 28t-39.5 9h-33v55h26q46 0 61 30.5t15 83.5q0 62 -18.5 90t-58.5 28q-36 0 -56 -24t-20 -56v-448z"/>
<glyph glyph-name="gamma" horiz-adv-x="331" unicode="γ" d="M202 -194h-61v208q-12 51 -23.5 98.5t-23.5 94.5t-24 94.5t-26 99.5q-6 23 -12 29.5t-20 6.5q-3 0 -5 -1l-4 55q9 3 18 4t17 1q24 0 36.5 -11t18.5 -33q10 -33 20 -73t20.5 -82.5t20 -85t17.5 -79.5h5q20 88 41 177t45 183h62q-31 -120 -61.5 -237t-60.5 -239v-210z"/>
<glyph glyph-name="delta" horiz-adv-x="353" unicode="δ" d="M182 431q-25 -5 -46.5 -21t-29.5 -38q-9 -19 -10.5 -47.5t-1.5 -72.5v-31q0 -45 1.5 -75t8.5 -50q8 -23 25.5 -35t49.5 -12q59 0 75 57q5 18 6.5 47.5t2.5 67.5v76q0 43 -9 70q-8 24 -25 39t-47 25zM323 290v-41t-1 -40q-1 -23 -1 -45t-3 -48q-4 -37 -18.5 -61 t-34.5 -37.5t-44.5 -19t-47.5 -5.5q-57 0 -85.5 20.5t-41.5 56.5q-10 31 -11.5 76.5t-1.5 92.5q0 41 2.5 84t18.5 75q12 23 32.5 40t46.5 26q-41 29 -56.5 56t-15.5 67q0 31 9 56.5t29 43.5t51.5 28t77.5 10q13 0 32.5 -1t39.5 -3l-3 -51q-33 3 -59 3q-38 0 -61 -6.5 t-35.5 -18t-17 -27.5t-4.5 -35q0 -27 22 -50.5t64 -46.5q39 -22 62.5 -41t35.5 -41t15.5 -50t3.5 -67z"/>
<glyph glyph-name="epsilon" horiz-adv-x="339" unicode="ε" d="M175 441q-37 0 -57 -22.5t-20 -60.5q0 -35 19 -53t52 -18h60v-57h-63q-29 0 -49 -23t-20 -68q0 -47 23 -68t57 -21q35 0 55.5 21.5t20.5 58.5l63 -11q0 -30 -10.5 -53.5t-29 -39.5t-43 -24.5t-52.5 -8.5q-74 0 -109.5 33.5t-35.5 109.5q0 37 14.5 70t52.5 48v1 q-38 12 -52 39.5t-14 66.5q0 62 35.5 99.5t102.5 37.5q63 0 102 -34t39 -97q-15 -2 -31 -4t-32 -5q0 41 -20 62t-58 21z"/>
<glyph glyph-name="zeta" horiz-adv-x="331" unicode="ζ" d="M238 436h-196v55h282v-54q-108 -82 -170 -158t-62 -134q0 -17 5.5 -30t19 -24t36 -22t55.5 -24q50 -20 73 -38.5t23 -48.5q0 -21 -13.5 -45.5t-49.5 -67.5l-42 27q22 32 30 47.5t8 25.5q0 14 -12 24t-35 18q-37 13 -66.5 25t-50 28.5t-31.5 39t-11 57.5q0 31 11 65 t35.5 71.5t64 77.5t96.5 82v3z"/>
<glyph glyph-name="eta" horiz-adv-x="362" unicode="η" d="M100 440h2q17 28 44.5 43t60.5 15q31 0 52.5 -10t35.5 -27t20.5 -41t6.5 -52v-368h-63v350q0 38 -17.5 62t-60.5 24q-39 0 -60.5 -26.5t-21.5 -64.5v-345h-61v492h62v-52z"/>
<glyph glyph-name="theta" horiz-adv-x="355" unicode="θ" d="M261 466q0 44 -2 88t-7 64q-8 26 -27 39t-46 13q-22 0 -41.5 -10t-30.5 -36q-8 -20 -9.5 -64t-1.5 -104v-57h165v67zM104 100q8 -24 25.5 -37.5t49.5 -13.5q25 0 44.5 14t27.5 40q2 6 4 20t3.5 32.5t2 40t0.5 42.5v112h-165v-127q0 -41 1 -73t7 -50zM321 227 q0 -28 -1 -54.5t-4 -55.5q-4 -38 -18 -62t-34 -38t-43.5 -19.5t-46.5 -5.5q-31 0 -53.5 7.5t-38.5 20t-25.5 29t-14.5 35.5q-3 12 -4.5 30.5t-2 40t-0.5 43.5v42v228q0 26 0.5 53t2.5 51t4.5 44t7.5 32q13 36 44.5 57.5t85.5 21.5q57 0 86.5 -23t42.5 -55q6 -17 8.5 -39.5 t3 -48t0.5 -51.5v-49v-234z"/>
<glyph glyph-name="iota" horiz-adv-x="178" unicode="ι" d="M140 -3q-5 -1 -9 -1h-8q-41 0 -56.5 19t-15.5 65v411h61v-399q0 -23 6.5 -30t22.5 -8z"/>
<glyph glyph-name="kappa" horiz-adv-x="358" unicode="κ" d="M104 229q11 18 33.5 54t46.5 76.5t46.5 77t33.5 54.5h68l-114 -186q6 -13 16.5 -37t23.5 -53.5t27 -62t27 -62t23.5 -53.5t16.5 -37h-67l-106 251q-6 -9 -16.5 -26.5t-21.5 -37t-21.5 -37.5t-16.5 -27v-123h-61v491h61v-262h1z"/>
<glyph glyph-name="lambda" horiz-adv-x="336" unicode="λ" d="M48 720q22 5 35 5q25 0 42.5 -11t28.5 -37q8 -15 14 -41q3 -14 13 -56.5t23 -99t28 -120t27.5 -119.5t22 -96t11.5 -50q6 -26 13 -35.5t24 -9.5v-25.5t1 -25.5q-6 -1 -11 -1.5t-10 -0.5q-29 0 -44.5 13t-23.5 48l-32 140q-11 48 -21 91.5t-17 70.5h-2l-45 -161l-57 -199 h-62l139 469l-33 147q-6 26 -15.5 39t-33.5 13q-7 0 -12 -1z"/>
<glyph glyph-name="nu" horiz-adv-x="324" unicode="ν" d="M196 0h-70l-121 492h65q3 -14 10 -43t14 -61.5t14 -62t10 -42.5t9 -40.5t12.5 -58t12.5 -58t9 -40.5h3q3 13 8.5 41t12.5 58.5t13 58.5t9 41t9.5 42t13.5 61t13.5 61t9.5 43h65z"/>
<glyph glyph-name="xi" horiz-adv-x="302" unicode="ξ" d="M34 543q0 38 6 71t22.5 58t44 39t71.5 14q63 0 98 -30t39 -87l-60 -13q-2 35 -23 55.5t-54 20.5q-41 0 -62 -29.5t-21 -96.5q0 -26 3 -49t13 -40t29 -27.5t52 -10.5h80v-53h-80q-30 0 -49 -12t-30.5 -33.5t-15.5 -51t-4 -64.5q0 -40 5.5 -64.5t18.5 -40.5t35.5 -28 t57.5 -27q52 -23 73.5 -39.5t21.5 -43.5q0 -19 -11 -47.5t-43 -73.5q-12 7 -23 13.5t-23 14.5q19 32 26 48t7 26q0 17 -26 31.5t-61 29.5q-37 16 -60 33.5t-35.5 40t-17 53.5t-4.5 74q0 72 14.5 119.5t60.5 65.5v1q-26 7 -40.5 23t-22.5 36.5t-10 44.5t-2 49z"/>
<glyph glyph-name="omicron" horiz-adv-x="356" unicode="ο" d="M179 443q-23 0 -43 -10t-31 -36q-7 -18 -9 -55t-2 -88v-32q0 -41 1 -73t7 -49q15 -51 77 -51q29 0 49.5 17t27.5 46q3 18 5 53t2 73q0 21 -0.5 44t-1 44t-2.5 38t-5 26q-8 26 -28 39.5t-47 13.5zM180 498q56 0 86.5 -22t42.5 -55q9 -26 11.5 -66t2.5 -80v-49 q0 -27 -1 -53.5t-4 -56.5q-4 -37 -18.5 -61t-35 -37.5t-44.5 -19t-47 -5.5q-61 0 -91 26.5t-40 64.5q-3 12 -5 30.5t-3 40t-1 43.5v42q0 26 0.5 52.5t2.5 50.5t4.5 43.5t7.5 31.5q13 36 45.5 58t86.5 22z"/>
<glyph glyph-name="pi" horiz-adv-x="376" unicode="π" d="M268 0v438h-159v-438h-62v492h283v-492h-62z"/>
<glyph glyph-name="rho" horiz-adv-x="357" unicode="ρ" d="M193 -6q-27 0 -52.5 11.5t-42.5 35.5h-2v-236h-62v431q0 24 0.5 50t2 50.5t4 45t6.5 34.5q13 38 45.5 60t87.5 22q56 0 86 -22.5t43 -54.5q5 -15 7.5 -34.5t4 -42t1.5 -46v-45.5v-27q0 -27 -0.5 -51.5t-2.5 -50.5q-5 -58 -37.5 -94t-88.5 -36zM178 49q26 0 46.5 14 t29.5 40q2 6 4 19.5t3 32t1.5 40t0.5 43.5q0 21 -0.5 44t-1 44t-2.5 38t-5 26q-8 26 -27.5 39.5t-48.5 13.5q-56 0 -75 -50q-4 -12 -6 -32.5t-2.5 -44.5t-0.5 -50v-48q0 -23 0.5 -45.5t1.5 -42.5q2 -35 21.5 -58t60.5 -23z"/>
<glyph glyph-name="sigma1" horiz-adv-x="324" unicode="ς" d="M183 498q69 0 101.5 -35t32.5 -95q-16 -3 -31.5 -5t-31.5 -4q0 40 -19 62t-55 22q-23 0 -41 -11t-29 -36q-8 -19 -9.5 -60t-1.5 -101v-43q0 -20 2.5 -36t10 -30t20 -26t33.5 -25q13 -8 25.5 -14.5t24.5 -13.5q38 -20 53 -37t15 -43q0 -32 -19.5 -64t-37.5 -58l-46 27 q20 34 28 51.5t8 28.5q0 14 -9.5 23.5t-30.5 20.5l-23 12q-31 16 -53 29.5t-35.5 29t-19.5 35.5t-6 48v95q0 56 3 102t12 73q14 38 44 58t85 20z"/>
<glyph glyph-name="sigma" horiz-adv-x="366" unicode="σ" d="M181 432q-23 0 -43 -10t-31 -36q-7 -17 -9.5 -50t-2.5 -83v-31q0 -41 1.5 -72.5t6.5 -48.5q17 -51 78 -51q23 0 41 11t28 31q3 7 7 21q4 18 5.5 52.5t1.5 72.5q0 43 -1.5 82.5t-6.5 58.5q-8 27 -28 40t-47 13zM286 439q0 -1 -0.5 -1.5t-0.5 -1.5q9 -6 14.5 -13.5 t9.5 -15.5q7 -14 10 -31.5t3 -35.5q2 -23 2 -46v-46v-22q0 -27 -1 -53.5t-4 -56.5q-4 -37 -18.5 -61t-34.5 -37.5t-44 -19t-47 -5.5q-61 0 -91 26.5t-41 64.5q-3 12 -4.5 30.5t-2.5 40t-1 43.5v42q0 52 3 100t11 71q15 42 47.5 61t84.5 19h176v-52h-71z"/>
<glyph glyph-name="tau" horiz-adv-x="242" unicode="τ" d="M12 439v53h222v-53h-85v-313q0 -38 15.5 -53.5t45.5 -15.5h11v-57h-24q-58 0 -84 32t-26 78v329h-75z"/>
<glyph glyph-name="upsilon" horiz-adv-x="356" unicode="υ" d="M322 492v-265q0 -27 -1 -57t-3 -53q-4 -38 -18.5 -62t-34.5 -37.5t-44 -19t-47 -5.5q-31 0 -53.5 7t-38 19.5t-25.5 29t-15 35.5q-3 12 -4.5 30.5t-2.5 40t-1 44v42.5v250h61v-268q0 -41 1 -73t6 -50q8 -24 27 -37.5t51 -13.5q25 0 45 14t29 40q4 13 6 52.5t2 82.5v254 h60z"/>
<glyph glyph-name="phi" horiz-adv-x="450" unicode="φ" d="M416 204q0 -20 -1 -41t-3 -41q-4 -37 -19.5 -61t-37.5 -39t-48 -21.5t-52 -7.5v-188h-61v188q-70 3 -103.5 31t-44.5 66q-3 12 -5 29.5t-2.5 38t-1 42t-0.5 41.5q0 26 0.5 52.5t2.5 50.5t4.5 44t7.5 32q8 23 26 41t44 27q5 -14 10 -27t10 -27q-11 -5 -19 -12.5t-14 -21.5 q-8 -20 -9 -66t-2 -111q0 -41 1 -72.5t7 -48.5q7 -25 31.5 -37.5t56.5 -15.5v449h69q31 0 55 -7t41 -18t28 -26t17 -31q8 -23 10 -57.5t2 -69.5v-85zM255 49q43 5 67.5 22t29.5 55q3 19 4 48t1 64q0 21 -0.5 43.5t-1 42.5t-2.5 36.5t-5 26.5q-8 29 -33 41.5t-60 14.5v-394z "/>
<glyph glyph-name="chi" horiz-adv-x="314" unicode="χ" d="M240 0l-82 198l-85 -198h-67l119 252l-114 240h69l78 -187l76 187h71l-112 -240l116 -252h-69z"/>
<glyph glyph-name="psi" horiz-adv-x="453" unicode="ψ" d="M416 491v-354q0 -34 -12.5 -60.5t-34 -44.5t-50.5 -28t-62 -11v-188h-61v188q-33 1 -61.5 10t-49.5 26t-33 43t-12 61v358h60v-331q0 -21 3.5 -40.5t13.5 -35.5t29 -25.5t50 -9.5v442h61v-442h1q18 1 35.5 7t31 18t22 29.5t8.5 43.5v344h61z"/>
<glyph glyph-name="afii10023" horiz-adv-x="361" unicode="Ё" d="M95 749v63h56v-63h-56zM245 749v63h55v-63h-55zM53 0v696h291v-57h-230v-255h201v-57h-201v-271h230v-56h-291z"/>
<glyph glyph-name="afii10051" horiz-adv-x="486" unicode="Ђ" d="M306 469q37 0 62 -11.5t40 -31t21.5 -46t6.5 -57.5v-162q0 -93 -35 -140.5t-116 -47.5v53q27 1 44.5 9.5t27.5 24t13.5 36.5t3.5 47v169q0 44 -17.5 71t-65.5 27q-22 0 -49.5 -11t-51.5 -34v-365h-62v640h-113v56h353v-56h-178v-210h2q29 22 59 30.5t55 8.5z"/>
<glyph glyph-name="afii10052" horiz-adv-x="354" unicode="Ѓ" d="M130 751l135 109l40 -47l-152 -91zM114 639v-639h-61v696h280v-57h-219z"/>
<glyph glyph-name="afii10053" horiz-adv-x="378" unicode="Є" d="M355 125q-8 -66 -48.5 -99t-104.5 -33q-76 0 -115.5 41.5t-39.5 119.5v367q0 37 8 70t26 57.5t47.5 39t73.5 14.5q67 0 105.5 -32t45.5 -95l-61 -15q-2 43 -26.5 64t-64.5 21q-26 0 -43.5 -10t-28.5 -26.5t-16 -37.5t-5 -43v-143h168v-60h-168v-168q0 -20 5 -39.5 t16 -34.5t28.5 -24t43.5 -9q37 0 62 20.5t30 67.5z"/>
<glyph glyph-name="afii10054" horiz-adv-x="386" unicode="Ѕ" d="M354 186q0 -44 -8 -79.5t-27 -60.5t-50 -39t-76 -14q-42 0 -72 12t-49.5 32.5t-29 48.5t-9.5 61l62 13q0 -21 5 -40.5t16.5 -34.5t30 -24t46.5 -9q34 0 53.5 11t29.5 29t13 42t3 51q0 33 -3 54.5t-14 37t-31.5 28.5t-55.5 28q-50 22 -79.5 43t-45 43.5t-20.5 48t-5 55.5 q0 39 9.5 72t29.5 56.5t50 37t71 13.5q45 0 75 -13.5t48 -35.5t25.5 -48.5t7.5 -51.5l-62 -15q0 47 -21.5 76.5t-75.5 29.5q-30 0 -48.5 -11.5t-29 -29t-14 -38.5t-3.5 -41q0 -23 4 -41t16.5 -34t36.5 -31t65 -32q45 -18 71 -37.5t39.5 -43t17.5 -52.5t4 -67z"/>
<glyph glyph-name="afii10055" horiz-adv-x="183" unicode="І" d="M60 0v696h63v-696h-63z"/>
<glyph glyph-name="afii10056" horiz-adv-x="183" unicode="Ї" d="M-12 766v64h56v-64h-56zM139 766v64h55v-64h-55zM60 0v696h63v-696h-63z"/>
<glyph glyph-name="afii10057" horiz-adv-x="333" unicode="Ј" d="M265 696v-532q0 -83 -39.5 -127t-119.5 -44q-34 0 -65.5 12t-50.5 38l42 40q13 -14 34 -24t41 -10q41 0 69 26t28 83v538h61z"/>
<glyph glyph-name="afii10058" horiz-adv-x="636" unicode="Љ" d="M354 58h72q38 0 62 11.5t37.5 31t18 46.5t4.5 57q0 31 -5.5 57t-19.5 44.5t-38 28.5t-61 10h-70v-286zM293 639h-146v-293q0 -94 -5.5 -155t-19 -101t-35.5 -64.5t-55 -44.5q-2 2 -6 8.5t-8.5 13.5t-8.5 13.5t-5 8.5q21 15 37 32t27.5 47t17 78t5.5 126v388h263v-294h73 q54 0 89.5 -14.5t55.5 -40.5t28 -62t8 -79q0 -46 -8 -84t-27.5 -65t-54 -42t-86.5 -15h-139v639z"/>
<glyph glyph-name="afii10059" horiz-adv-x="638" unicode="Њ" d="M356 58h72q38 0 62 11t37.5 30t18 45t4.5 57t-5.5 55.5t-19.5 41.5t-38 26.5t-61 9.5h-70v-276zM295 0v334h-181v-334h-61v696h61v-304h181v304h61v-304h73q55 0 90 -13.5t55 -38.5t28 -59.5t8 -77.5q0 -46 -8 -83.5t-27.5 -64t-54 -41t-86.5 -14.5h-139z"/>
<glyph glyph-name="afii10060" horiz-adv-x="486" unicode="Ћ" d="M374 0v316q0 42 -17.5 68t-65.5 26q-24 0 -51.5 -12t-48.5 -33v-365h-63v640h-114v56h353v-56h-176v-209h2q29 22 58.5 30t54.5 8q69 0 100 -37t31 -99v-333h-63z"/>
<glyph glyph-name="afii10061" horiz-adv-x="415" unicode="Ќ" d="M160 751l135 109l40 -47l-152 -91zM53 0v696h60v-309h56q16 0 33.5 3.5t34 15t30 32t21.5 54.5l49 204h56l-45 -202q-12 -51 -34.5 -86t-55.5 -46q43 -12 64.5 -48t32.5 -88l50 -226h-62l-47 218q-8 35 -20.5 56.5t-28 33.5t-34 16t-37.5 4h-63v-328h-60z"/>
<glyph glyph-name="afii10062" horiz-adv-x="372" unicode="Ў" d="M118 817q4 -26 24.5 -48t50.5 -22q32 0 52.5 21t23.5 49h50q-2 -19 -10 -39.5t-23.5 -38t-38.5 -28.5t-54 -11q-33 0 -56.5 11t-38.5 28.5t-22.5 38t-8.5 39.5h51zM194 267l107 429h59l-145 -545q-14 -53 -29.5 -84t-32 -46.5t-35 -20t-37.5 -5.5h-31v50h29q23 0 43 21 t33 71l10 40l-155 518h61l120 -428h3z"/>
<glyph glyph-name="afii10145" horiz-adv-x="411" unicode="Џ" d="M359 696v-696h-124l1 -142h-61l1 142h-123v696h61v-637h183v637h62z"/>
<glyph glyph-name="afii10017" horiz-adv-x="386" unicode="А" d="M191 594l-33 -168l-42 -200h152l-42 202l-32 166h-3zM316 0l-37 168h-173l-36 -168h-58l150 696h62l153 -696h-61z"/>
<glyph glyph-name="afii10018" horiz-adv-x="391" unicode="Б" d="M109 402h74q54 0 89.5 -14.5t55.5 -40.5t28 -62t8 -79q0 -46 -8 -84t-28 -65t-54 -42t-87 -15h-139v696h277v-57h-216v-237zM109 59h73q38 0 61.5 11.5t37 31t18 46t4.5 57.5t-5.5 56.5t-19.5 44t-37.5 28.5t-60.5 10h-71v-285z"/>
<glyph glyph-name="afii10019" horiz-adv-x="412" unicode="В" d="M303 518q0 59 -26 90.5t-89 31.5h-74v-246h82q59 0 83 32t24 92zM310 209q0 63 -24.5 97t-84.5 34h-87v-284h82q36 0 58.5 12t34.5 33t16.5 49t4.5 59zM289 365q46 -14 63.5 -57.5t17.5 -103.5q0 -109 -45 -156.5t-133 -47.5h-139v696h146q45 0 76.5 -12t51 -35t28 -56.5 t8.5 -75.5q0 -54 -16 -90t-58 -58v-4z"/>
<glyph glyph-name="afii10020" horiz-adv-x="354" unicode="Г" d="M114 639v-639h-61v696h280v-57h-219z"/>
<glyph glyph-name="afii10021" horiz-adv-x="458" unicode="Д" d="M345 54v587h-181l-9 -344q-2 -86 -11 -144t-34 -99h235zM59 -132h-55v184l35 4q15 15 26 32.5t17.5 44.5t10 66.5t5.5 97.5l10 399h298v-642h37v-186h-55v132h-329v-132z"/>
<glyph glyph-name="afii10022" horiz-adv-x="361" unicode="Е" d="M53 0v696h291v-57h-230v-255h201v-57h-201v-271h230v-56h-291z"/>
<glyph glyph-name="afii10024" horiz-adv-x="655" unicode="Ж" d="M296 0v328h-48q-19 0 -37.5 -4t-34 -16t-28.5 -33.5t-20 -56.5l-47 -218h-61l50 226q11 52 32.5 88t63.5 48q-33 11 -55.5 46t-33.5 86l-46 202h56l49 -204q8 -34 21.5 -54.5t30 -32t34 -15t33.5 -3.5h41v309h62v-309h41q16 0 33.5 3.5t34 15t30 32t21.5 54.5l49 204h56 l-45 -202q-12 -51 -34.5 -86t-55.5 -46q43 -12 64.5 -48t32.5 -88l50 -226h-62l-47 218q-8 35 -20.5 56.5t-28 33.5t-33.5 16t-37 4h-49v-328h-62z"/>
<glyph glyph-name="afii10025" horiz-adv-x="377" unicode="З" d="M261 214q0 122 -93 122h-36v55h41q32 0 50 11t27 30t11 44t2 54q0 32 -7.5 54t-20 35.5t-30 19.5t-37.5 6q-45 0 -70 -29t-25 -80l-59 14q1 38 14 66.5t34 47.5t49 28.5t59 9.5q65 0 104.5 -31.5t46.5 -105.5q2 -10 2 -20.5v-22.5q0 -18 -2 -41.5t-9 -46t-19 -41 t-33 -27.5v-2q20 -9 32 -24t19 -33t9 -37.5t3 -37.5v-38v-22.5t-1 -21.5q-5 -80 -47 -118.5t-109 -38.5q-32 0 -59.5 8.5t-48.5 27t-33 46.5t-12 67v4l59 12q0 -61 26 -85t68 -24q21 0 38 6.5t30 22t20 41t7 63.5v32z"/>
<glyph glyph-name="afii10026" horiz-adv-x="427" unicode="И" d="M313 547l-205 -547h-57v696h60v-548l4 -1l203 549h59v-696h-61v547h-3z"/>
<glyph glyph-name="afii10027" horiz-adv-x="427" unicode="Й" d="M313 547l-205 -547h-57v696h60v-548l4 -1l203 549h59v-696h-61v547h-3zM131 831q4 -26 24.5 -48t50.5 -22q32 0 52.5 21t23.5 49h50q-2 -19 -10 -39.5t-23.5 -38t-38.5 -28.5t-54 -11q-33 0 -56.5 11t-38.5 28.5t-22.5 38t-8.5 39.5h51z"/>
<glyph glyph-name="afii10028" horiz-adv-x="415" unicode="К" d="M53 0v696h60v-309h56q16 0 33.5 3.5t34 15t30 32t21.5 54.5l49 204h56l-45 -202q-12 -51 -34.5 -86t-55.5 -46q43 -12 64.5 -48t32.5 -88l50 -226h-62l-47 218q-8 35 -20.5 56.5t-28 33.5t-34 16t-37.5 4h-63v-328h-60z"/>
<glyph glyph-name="afii10029" horiz-adv-x="431" unicode="Л" d="M147 346q0 -94 -5.5 -155t-18.5 -101t-35.5 -64.5t-55.5 -44.5l-28 45q21 15 37 32.5t27.5 47.5t17 78t5.5 124v388h287v-696h-61v639h-170v-293z"/>
<glyph glyph-name="afii10030" horiz-adv-x="548" unicode="М" d="M431 526q-5 -12 -14 -35.5t-18.5 -49.5t-19 -49.5t-13.5 -35.5q-1 -3 -6.5 -17.5t-13.5 -34.5t-17.5 -43t-17.5 -43t-14 -34.5t-7 -17.5h-34q-5 13 -15.5 39t-22 55t-22 55t-15.5 39l-64 170h-4v-524h-61v696h62q6 -15 18 -46t25 -65.5t25 -65.5t17 -46l73 -194h3 q5 14 15 41t21.5 57t22 57.5t15.5 41.5q1 3 7.5 20t15.5 40t19.5 50t19 50t15 39.5t7.5 20.5h63v-696h-61v526h-4z"/>
<glyph glyph-name="afii10031" horiz-adv-x="420" unicode="Н" d="M305 0v329h-191v-329h-61v696h61v-313h191v313h62v-696h-62z"/>
<glyph glyph-name="afii10032" horiz-adv-x="409" unicode="О" d="M301 534q0 22 -5 42t-16 35.5t-29.5 25t-45.5 9.5q-29 0 -48 -12.5t-30 -31.5t-15.5 -41.5t-4.5 -42.5v-363q0 -20 5.5 -39t17 -34t30 -24t44.5 -9q53 0 75 34t22 82v369zM363 172q0 -88 -39.5 -133.5t-119.5 -45.5t-118.5 43t-38.5 120v366q0 37 8 70t26.5 57.5t49 38.5 t74.5 14q45 0 75.5 -12.5t48.5 -36t26 -56t8 -72.5v-353z"/>
<glyph glyph-name="afii10033" horiz-adv-x="411" unicode="П" d="M297 0v638h-183v-638h-61v696h306v-696h-62z"/>
<glyph glyph-name="afii10034" horiz-adv-x="391" unicode="Р" d="M114 345h70q38 0 62 10.5t38 30t19 47t5 60.5q0 31 -4.5 58t-18 46.5t-37.5 31t-62 11.5h-72v-295zM192 696q52 0 86.5 -14t54 -40.5t27.5 -64t8 -83.5q0 -44 -8 -82t-28 -65.5t-55.5 -43t-89.5 -15.5h-73v-288h-61v696h139z"/>
<glyph glyph-name="afii10035" horiz-adv-x="384" unicode="С" d="M202 702q73 0 113 -40.5t40 -113.5l-62 -12q1 54 -23 81.5t-69 27.5q-26 0 -43.5 -10t-28.5 -26.5t-16 -37.5t-5 -43v-371q0 -20 5 -39.5t16 -34.5t28.5 -24t43.5 -9q41 0 66 25.5t26 83.5l63 -11q-2 -77 -43.5 -116t-110.5 -39q-76 0 -115.5 41.5t-39.5 119.5v367 q0 37 8 70t26 57.5t47.5 39t73.5 14.5z"/>
<glyph glyph-name="afii10036" horiz-adv-x="320" unicode="Т" d="M191 640v-640h-63v640h-125v56h313v-56h-125z"/>
<glyph glyph-name="afii10037" horiz-adv-x="372" unicode="У" d="M194 267l107 429h59l-145 -545q-14 -53 -29.5 -84t-32 -46.5t-35 -20t-37.5 -5.5h-31v50h29q23 0 43 21t33 71l10 40l-155 518h61l120 -428h3z"/>
<glyph glyph-name="afii10038" horiz-adv-x="488" unicode="Ф" d="M275 0h-61v54h-1q-35 1 -65.5 12t-53.5 32t-36.5 51.5t-13.5 71.5v269q0 40 15 70.5t39 51.5t54.5 32.5t60.5 11.5v40h62v-40q31 -2 61.5 -12.5t55 -31t39.5 -51t15 -71.5v-269q0 -41 -13.5 -71.5t-37 -51t-54.5 -31.5t-66 -13v-54zM275 110q48 2 79 29.5t31 81.5v269 q0 27 -10 47t-25.5 33.5t-35.5 21t-39 7.5v-489zM214 599h-1q-21 -1 -40.5 -8t-34.5 -20.5t-24.5 -33.5t-9.5 -47v-269q0 -27 9 -47t24 -34t35 -21.5t42 -8.5v489z"/>
<glyph glyph-name="afii10039" horiz-adv-x="362" unicode="Х" d="M289 -1l-108 294l-109 -294h-64l141 361l-134 336h65l101 -275l100 275h66l-137 -336l144 -361h-65z"/>
<glyph glyph-name="afii10040" horiz-adv-x="418" unicode="Ц" d="M364 696v-638h35v-189h-55v131h-291v696h61v-638h188v638h62z"/>
<glyph glyph-name="afii10041" horiz-adv-x="398" unicode="Ч" d="M94 696v-244q0 -62 26 -86t84 -24q16 0 39 4t43 12v338h62v-696h-62v309q-20 -8 -47 -12t-49 -4q-36 0 -64.5 8t-48.5 26.5t-31 49t-11 74.5v245h59z"/>
<glyph glyph-name="afii10042" horiz-adv-x="608" unicode="Ш" d="M555 696v-696h-502v696h61v-637h158v637h62v-637h159v637h62z"/>
<glyph glyph-name="afii10043" horiz-adv-x="613" unicode="Щ" d="M555 59h37v-190h-55v131h-484v696h61v-637h158v637h62v-637h159v637h62v-637z"/>
<glyph glyph-name="afii10044" horiz-adv-x="513" unicode="Ъ" d="M232 59h72q38 0 62 11.5t37.5 31t18 46t4.5 57.5t-5.5 56.5t-19.5 44t-38 28.5t-61 10h-70v-285zM170 0v639h-157v57h219v-294h73q54 0 89.5 -14.5t55.5 -40.5t28 -62t8 -79q0 -46 -8 -84t-28 -65t-54 -42t-87 -15h-139z"/>
<glyph glyph-name="afii10045" horiz-adv-x="540" unicode="Ы" d="M422 0v696h62v-696h-62zM112 58h73q38 0 61.5 11.5t37 31t18 46.5t4.5 57q0 31 -5.5 57t-19.5 44.5t-37.5 28.5t-60.5 10h-71v-286zM51 0v696h61v-294h74q54 0 89.5 -14.5t55.5 -40.5t28 -62t8 -79q0 -46 -8 -84t-28 -65t-54 -42t-87 -15h-139z"/>
<glyph glyph-name="afii10046" horiz-adv-x="391" unicode="Ь" d="M109 58h72q38 0 62 11.5t37.5 31t18 46.5t4.5 57q0 31 -5.5 57t-19.5 44.5t-38 28.5t-61 10h-70v-286zM48 0v696h61v-294h73q54 0 89.5 -14.5t55.5 -40.5t28 -62t8 -79q0 -46 -8 -84t-27.5 -65t-54 -42t-86.5 -15h-139z"/>
<glyph glyph-name="afii10047" horiz-adv-x="383" unicode="Э" d="M83 138q5 -47 29.5 -68.5t62.5 -21.5q27 0 44.5 10t28.5 26.5t15.5 37.5t4.5 44v160h-168v60h168v150q0 109 -93 109q-39 0 -64 -24t-30 -68l-60 14q8 65 49 100t109 35q42 0 71 -13t46.5 -36t25.5 -55t8 -70v-364q0 -88 -40 -129.5t-117 -41.5q-64 0 -104 33t-48 99z "/>
<glyph glyph-name="afii10048" horiz-adv-x="548" unicode="Ю" d="M441 534q0 22 -5 42t-16 35.5t-28.5 25t-42.5 9.5q-27 0 -45 -12t-28.5 -30.5t-14.5 -41t-4 -42.5v-366q0 -20 5.5 -39t16.5 -33.5t28.5 -23.5t40.5 -9q48 0 70.5 33.5t22.5 81.5v370zM502 168q0 -87 -39.5 -131t-113.5 -44q-73 0 -112.5 42t-39.5 118v176h-83v-329h-61 v696h61v-313h83v143q0 37 8.5 69t26.5 56t47 37.5t70 13.5q42 0 71 -12.5t47 -35t26.5 -55t8.5 -72.5v-359z"/>
<glyph glyph-name="afii10049" horiz-adv-x="416" unicode="Я" d="M109 498q0 -65 30 -95t88 -30h76v266h-71q-35 0 -58.5 -10.5t-37.5 -29t-20.5 -44.5t-6.5 -57zM22 0l43 217q8 41 24 73.5t51 49.5q-53 15 -72.5 56.5t-19.5 101.5q0 94 41.5 146t132.5 52h142v-696h-61v319h-67q-16 0 -33 -4t-32 -16t-27 -33.5t-19 -57.5l-41 -208h-62z "/>
<glyph glyph-name="afii10065" horiz-adv-x="352" unicode="а" d="M176 238q-38 0 -64.5 -22.5t-26.5 -78.5q0 -38 17.5 -61.5t59.5 -23.5q40 0 63.5 22t23.5 64v100h-73zM37 405q13 43 48 68t89 25q65 0 100.5 -29.5t35.5 -103.5v-365h-62v44h-1q-22 -31 -49.5 -40.5t-58.5 -9.5q-32 0 -53.5 12t-35 31.5t-19.5 44.5t-6 52q0 28 6 56 t22 50.5t42 37t67 14.5h87v72q0 35 -16 56t-62 21q-22 0 -45.5 -12.5t-30.5 -41.5z"/>
<glyph glyph-name="afii10066" horiz-adv-x="359" unicode="б" d="M195 478q54 0 80 -23t37 -55q4 -13 6.5 -33.5t4 -45t1.5 -51v-51.5q0 -27 -0.5 -50t-3.5 -53q-4 -37 -18.5 -61t-35 -37.5t-44 -19t-46.5 -5.5q-31 0 -53.5 7t-38 19.5t-25.5 29t-15 35.5q-3 12 -5 29t-2.5 37.5t-1 41.5t-0.5 41v109q1 75 7 128.5t19.5 90.5t35 60.5 t54.5 40.5q18 9 33.5 15.5t31.5 12.5t33 12.5t37 15.5q6 -11 11.5 -22.5t10.5 -22.5q-20 -11 -35.5 -17t-30.5 -12t-32 -13t-39 -19q-31 -17 -51 -54q-14 -25 -18 -60.5t-5 -73.5h2q10 17 23.5 27.5t26.5 16.5t25 8t21 2zM185 423q-52 0 -75 -50q-13 -25 -14 -67 q-1 -19 -1.5 -32.5t-0.5 -22.5q0 -17 1 -41q1 -39 2 -66t6 -44q17 -52 78 -52q32 0 51.5 17.5t26.5 46.5q4 17 5 49t1 69v36t-1 39.5t-2.5 36t-4.5 26.5q-7 26 -24 40.5t-48 14.5z"/>
<glyph glyph-name="afii10067" horiz-adv-x="370" unicode="в" d="M45 0v491h130q81 0 116.5 -34t35.5 -96q0 -35 -11.5 -60t-39.5 -41h1q32 -14 44 -45t12 -68q0 -79 -40.5 -113t-118.5 -34h-129zM107 233v-176h72q30 0 48.5 7t29 20t14 30t3.5 37q0 39 -20 60.5t-70 21.5h-77zM107 437v-153h71q48 0 68 20t20 58q0 37 -22 56t-73 19h-64 z"/>
<glyph glyph-name="afii10068" horiz-adv-x="315" unicode="г" d="M108 437v-437h-62v492h251v-55h-189z"/>
<glyph glyph-name="afii10069" horiz-adv-x="415" unicode="д" d="M300 437h-144l-7 -206q-2 -63 -9.5 -106.5t-24.5 -69.5h185v382zM71 -126h-57v176l31 5q13 14 21 28t13.5 33.5t8 47.5t3.5 72l7 256h264v-437h35v-181h-57v126h-269v-126z"/>
<glyph glyph-name="afii10070" horiz-adv-x="350" unicode="е" d="M104 395q-6 -16 -7.5 -44.5t-2.5 -69.5h158v52q0 21 -2.5 40.5t-11 34.5t-23.5 24t-40 9q-22 0 -41 -10t-30 -36zM178 498q60 0 93.5 -29.5t39.5 -83.5q1 -11 1.5 -22t0.5 -22v-110h-220q0 -10 0.5 -19t0.5 -19q0 -26 1.5 -53t6.5 -41q16 -50 72 -50q38 0 56 22.5 t20 59.5l62 -12q-5 -61 -40.5 -93.5t-100.5 -32.5q-31 0 -53.5 8t-38 20.5t-25 29t-13.5 33.5q-3 12 -5 30.5t-2.5 40t-1 43.5t-0.5 42q0 26 0.5 52t2.5 50t4.5 43.5t7.5 32.5q14 37 45 58.5t86 21.5z"/>
<glyph glyph-name="afii10072" horiz-adv-x="565" unicode="ж" d="M252 0v222h-46q-17 0 -31.5 -3t-26.5 -11.5t-21 -24t-15 -39.5l-36 -144h-61l42 160q10 36 25 62t49 34q-27 8 -43 32.5t-26 60.5l-38 142h59l39 -145q6 -24 16.5 -38t23.5 -21.5t26.5 -10t27.5 -2.5h36v217h61v-217h36q13 0 27 2.5t27 10t23.5 21.5t16.5 38l39 145h59 l-38 -142q-10 -36 -26 -60.5t-43 -32.5q34 -8 49 -34t25 -62l42 -160h-61l-36 144q-6 24 -15.5 39.5t-21.5 24t-26.5 11.5t-30.5 3h-46v-222h-61z"/>
<glyph glyph-name="afii10073" horiz-adv-x="332" unicode="з" d="M240 256q34 -12 42.5 -43.5t8.5 -71.5q0 -41 -12 -69t-32.5 -45t-46.5 -24.5t-54 -7.5q-27 0 -51 6.5t-42.5 21t-30 37.5t-14.5 56l60 9q2 -40 23.5 -57.5t56.5 -17.5q15 0 29.5 4.5t26 15.5t18.5 28.5t7 43.5q0 88 -62 88h-49v54h52q28 0 43.5 18.5t15.5 60.5 q0 38 -21 58t-56 20t-55.5 -18t-23.5 -56q-3 1 -11.5 2.5t-18 4t-18 4t-10.5 2.5q5 59 43 88t94 29q31 0 56.5 -7.5t44 -23t28.5 -40.5t10 -60q0 -33 -9.5 -64t-41.5 -44v-2z"/>
<glyph glyph-name="afii10074" horiz-adv-x="388" unicode="и" d="M282 0v379h-1l-179 -379h-59v491h60v-378h1q45 94 89 189.5t89 188.5h62v-491h-62z"/>
<glyph glyph-name="afii10075" horiz-adv-x="388" unicode="й" d="M282 0v379h-1l-179 -379h-59v491h60v-378h1q45 94 89 189.5t89 188.5h62v-491h-62zM118 680q4 -26 24.5 -48t50.5 -22q32 0 52.5 21t23.5 49h50q-2 -19 -10 -39.5t-23.5 -38t-38.5 -28.5t-54 -11q-33 0 -56.5 11t-38.5 28.5t-22.5 38t-8.5 39.5h51z"/>
<glyph glyph-name="afii10076" horiz-adv-x="360" unicode="к" d="M37 0v491h62v-217h49q13 0 27 2.5t27 10t23.5 21.5t16.5 38l39 145h59l-38 -142q-10 -36 -26 -60.5t-43 -32.5q34 -8 49 -34t25 -62l42 -160h-61l-36 144q-6 24 -15.5 39.5t-21.5 24t-26.5 11.5t-30.5 3h-59v-222h-62z"/>
<glyph glyph-name="afii10077" horiz-adv-x="369" unicode="л" d="M5 29q21 14 35.5 29t23 35.5t12 49.5t3.5 73v276h253v-492h-63v437h-134v-226q0 -48 -5 -84.5t-17 -63.5t-31.5 -46.5t-48.5 -33.5z"/>
<glyph glyph-name="afii10078" horiz-adv-x="484" unicode="м" d="M374 359l-59 -127q-14 -30 -29 -59.5t-29 -58.5h-33l-57 116q-4 8 -12 25t-17 36t-17.5 36l-12.5 25l-1 -1v-351h-62v491h60q6 -12 15 -31.5t19.5 -42.5t22 -48.5t23.5 -50.5q17 -38 32.5 -69.5t23.5 -48.5h1l62 133l77 158h58v-491h-62v359h-3z"/>
<glyph glyph-name="afii10079" horiz-adv-x="372" unicode="н" d="M264 0v225h-156v-225h-62v492h62v-213h156v213h64v-492h-64z"/>
<glyph glyph-name="afii10080" horiz-adv-x="356" unicode="о" d="M179 443q-23 0 -43 -10t-31 -36q-7 -18 -9 -55t-2 -88v-32q0 -41 1 -73t7 -49q15 -51 77 -51q29 0 49.5 17t27.5 46q3 18 5 53t2 73q0 21 -0.5 44t-1 44t-2.5 38t-5 26q-8 26 -28 39.5t-47 13.5zM180 498q56 0 86.5 -22t42.5 -55q9 -26 11.5 -66t2.5 -80v-49 q0 -27 -1 -53.5t-4 -56.5q-4 -37 -18.5 -61t-35 -37.5t-44.5 -19t-47 -5.5q-61 0 -91 26.5t-40 64.5q-3 12 -5 30.5t-3 40t-1 43.5v42q0 26 0.5 52.5t2.5 50.5t4.5 43.5t7.5 31.5q13 36 45.5 58t86.5 22z"/>
<glyph glyph-name="afii10081" horiz-adv-x="376" unicode="п" d="M268 0v438h-159v-438h-62v492h283v-492h-62z"/>
<glyph glyph-name="afii10082" horiz-adv-x="357" unicode="р" d="M196 498q16 0 35.5 -4.5t36.5 -17t30.5 -36t17.5 -61.5q3 -31 3 -62.5v-66.5q0 -55 -2 -101.5t-14 -79.5t-37.5 -54t-75.5 -21q-35 0 -58.5 14.5t-34.5 33.5h-2v-235h-60v684h60v-42h2q17 23 38 36t61 13zM178 439q-39 0 -61 -25.5t-22 -66.5v-199q0 -40 19.5 -67.5 t61.5 -27.5q58 0 73 57q5 21 6.5 59.5t1.5 83.5q0 47 -1.5 81t-7.5 54q-8 28 -25 39.5t-45 11.5z"/>
<glyph glyph-name="afii10083" horiz-adv-x="332" unicode="с" d="M178 498q69 0 101 -36t32 -101l-63 -9v1q1 6 1 12q0 31 -19 54.5t-55 23.5q-23 0 -41.5 -11t-28.5 -36q-8 -19 -9.5 -63t-2.5 -104q1 -39 2 -75t6 -54q8 -24 26 -38t47 -14q36 0 55.5 22t18.5 67l63 -11q-3 -133 -140 -133q-30 0 -52.5 7.5t-38 20.5t-25 29t-13.5 34 q-3 12 -5 30.5t-2.5 40t-1 43.5t-0.5 42q0 26 0.5 53t2.5 51t4.5 43.5t7.5 31.5q13 36 44.5 57.5t85.5 21.5z"/>
<glyph glyph-name="afii10084" horiz-adv-x="284" unicode="т" d="M172 437v-437h-61v437h-109v55h280v-55h-110z"/>
<glyph glyph-name="afii10085" horiz-adv-x="326" unicode="у" d="M167 92q11 48 22 100.5t22 100.5l48 198h62l-148 -577q-6 -22 -14.5 -42t-21.5 -35t-32 -24t-46 -9h-23v53h16q30 0 45 21t25 66l14 55l-131 492h65q14 -54 26 -107.5t25 -107.5q5 -21 11 -46.5l12 -51t11.5 -48.5t8.5 -38h3z"/>
<glyph glyph-name="afii10086" horiz-adv-x="450" unicode="ф" d="M194 440q-45 -3 -70 -24.5t-27 -62.5q-2 -29 -2.5 -64t-0.5 -71q0 -17 0.5 -36t0.5 -36q1 -17 3.5 -30.5t7.5 -22.5q11 -21 32 -32.5t56 -14.5v394zM254 46q32 2 54.5 14.5t33.5 32.5q7 12 9.5 27t3.5 32l-1 143q0 30 -2 57t-12 46.5t-29 30.5t-51 11h-6v-394zM254 689 q0 -48 0.5 -95t0.5 -95q69 -3 106.5 -33.5t46.5 -81.5q5 -27 6 -58t1 -64v-62.5t-2 -60.5q-2 -30 -10 -54t-25 -43q-35 -42 -123 -51q0 -47 -0.5 -93t-0.5 -93h-59v186q-52 6 -86 20.5t-54 53.5q-11 20 -15 43.5t-5 50.5q-1 17 -1 38v59q0 21 1 44.5t3 46t5.5 41t8.5 29.5 q17 36 51.5 58t90.5 24v190h60z"/>
<glyph glyph-name="afii10087" horiz-adv-x="314" unicode="х" d="M240 0l-82 198l-85 -198h-67l119 252l-114 240h69l78 -187l76 187h71l-112 -240l116 -252h-69z"/>
<glyph glyph-name="afii10088" horiz-adv-x="375" unicode="ц" d="M327 492v-434h33v-184h-57v126h-257v492h62v-434h156v434h63z"/>
<glyph glyph-name="afii10089" horiz-adv-x="348" unicode="ч" d="M247 217q-25 -16 -53.5 -24t-53.5 -8q-60 0 -87 30.5t-27 88.5v188h62v-170q0 -40 14 -60.5t57 -20.5q21 0 45.5 8.5t43.5 22.5v220h61v-492h-62v217z"/>
<glyph glyph-name="afii10090" horiz-adv-x="553" unicode="ш" d="M506 492v-492h-459v492h61v-434h136v434h62v-434h139v434h61z"/>
<glyph glyph-name="afii10091" horiz-adv-x="565" unicode="щ" d="M505 492v-434h33v-173h-55v115h-436v492h60v-434h137v434h62v-434h137v434h62z"/>
<glyph glyph-name="afii10092" horiz-adv-x="455" unicode="ъ" d="M148 0v437h-135v55h198v-198h58q49 0 80 -11.5t49 -31t25 -45t7 -54.5q0 -33 -7 -61t-24.5 -48.5t-48 -31.5t-78.5 -11h-124zM211 58h57q31 0 51 8t31 21t15 29.5t4 33.5q0 19 -5 34.5t-17 27t-31.5 18t-49.5 6.5h-55v-178z"/>
<glyph glyph-name="afii10093" horiz-adv-x="482" unicode="ы" d="M44 0v492h63v-198h59q49 0 80 -11.5t49 -31t25 -45t7 -54.5q0 -33 -7 -61t-24.5 -48.5t-48 -31.5t-78.5 -11h-125zM370 0v492h63v-492h-63zM107 58h58q31 0 50.5 8t30.5 21t15 29.5t4 33.5q0 19 -5 34.5t-16.5 27t-31 18t-49.5 6.5h-56v-178z"/>
<glyph glyph-name="afii10094" horiz-adv-x="347" unicode="ь" d="M42 0v492h62v-198h59q49 0 80 -11.5t49 -31t25 -45t7 -54.5q0 -33 -7 -61t-24.5 -48.5t-48 -31.5t-77.5 -11h-125zM104 58h58q31 0 51 8t31 21t15 29.5t4 33.5q0 19 -5 34.5t-17 27t-31.5 18t-48.5 6.5h-57v-178z"/>
<glyph glyph-name="afii10095" horiz-adv-x="338" unicode="э" d="M93 278h145q-1 42 -2.5 72.5t-7.5 45.5q-11 26 -29 36.5t-41 10.5q-30 0 -50 -19t-22 -54l-64 11q5 52 40.5 85t98.5 33q55 0 83.5 -21.5t41.5 -57.5q4 -12 7 -32t4.5 -44t2 -50.5t0.5 -52.5q0 -20 -0.5 -42l-1 -44t-2.5 -40.5t-5 -30.5q-5 -18 -14 -34t-24 -29 t-38 -20.5t-54 -7.5q-65 0 -99.5 30.5t-39.5 86.5q3 0 12 1.5t19.5 3t19.5 2.5t12 2q3 -33 21.5 -51.5t51.5 -18.5q32 0 49 13.5t25 38.5q5 16 6 46t1 75h-146v56z"/>
<glyph glyph-name="afii10096" horiz-adv-x="476" unicode="ю" d="M304 441q-21 0 -39.5 -10t-29.5 -36q-5 -14 -7.5 -50.5t-3.5 -85.5v-58q1 -34 1.5 -60t5.5 -41q15 -51 73 -51q11 0 22.5 3.5t22 11t18 19t10.5 27.5q3 18 4 53.5t1 73.5q0 44 -1.5 87.5t-6.5 63.5q-14 53 -70 53zM38 491h61v-213h66q1 43 4 81.5t10 58.5q13 36 43 57 t84 21q51 0 78 -17t39 -45q13 -29 16 -77t3 -95v-32q0 -28 -1 -56.5t-4 -57.5q-4 -37 -17.5 -61t-33 -37.5t-42.5 -19t-45 -5.5q-59 0 -87.5 26.5t-38.5 64.5q-3 10 -4.5 26t-2 35.5t-1 40t-0.5 39.5h-66v-225h-61v491z"/>
<glyph glyph-name="afii10097" horiz-adv-x="365" unicode="я" d="M200 437q-56 0 -78 -25.5t-22 -65.5q0 -38 24.5 -57t71.5 -19h64v167h-60zM37 349q0 65 36.5 104t118.5 39h130v-492h-62v217h-61q-31 0 -50.5 -15.5t-30.5 -62.5l-33 -139h-62l40 155q6 26 18 48t34 32q-42 14 -60 43.5t-18 70.5z"/>
<glyph glyph-name="afii10071" horiz-adv-x="350" unicode="ё" d="M225 594v64h55v-64h-55zM74 594v64h56v-64h-56zM104 395q-6 -16 -7.5 -44.5t-2.5 -69.5h158v52q0 21 -2.5 40.5t-11 34.5t-23.5 24t-40 9q-22 0 -41 -10t-30 -36zM178 498q60 0 93.5 -29.5t39.5 -83.5q1 -11 1.5 -22t0.5 -22v-110h-220q0 -10 0.5 -19t0.5 -19 q0 -26 1.5 -53t6.5 -41q16 -50 72 -50q38 0 56 22.5t20 59.5l62 -12q-5 -61 -40.5 -93.5t-100.5 -32.5q-31 0 -53.5 8t-38 20.5t-25 29t-13.5 33.5q-3 12 -5 30.5t-2.5 40t-1 43.5t-0.5 42q0 26 0.5 52t2.5 50t4.5 43.5t7.5 32.5q14 37 45 58.5t86 21.5z"/>
<glyph glyph-name="afii10099" horiz-adv-x="375" unicode="ђ" d="M213 493q48 0 73 -20.5t36 -53.5q4 -13 7 -36t4 -51t1.5 -58t0.5 -57q0 -17 -0.5 -36.5t-1.5 -38.5t-2.5 -36.5t-4.5 -30.5q-10 -48 -45.5 -74t-85.5 -26h-11v53q29 1 50.5 14t30.5 42q5 17 6 51.5t1 72.5q0 64 -2 112t-7 64q-8 22 -24 34.5t-46 12.5q-44 0 -65.5 -30.5 t-21.5 -69.5v-331h-60v577h-46v47h46v102h61v-102h162v-47h-162v-144h2q14 26 41.5 43t62.5 17z"/>
<glyph glyph-name="afii10100" horiz-adv-x="315" unicode="ѓ" d="M108 437v-437h-62v492h251v-55h-189zM115 570l67 159l59 -21l-92 -152z"/>
<glyph glyph-name="afii10101" horiz-adv-x="347" unicode="є" d="M322 112q-5 -58 -39.5 -88.5t-99.5 -30.5q-31 0 -53.5 7.5t-38 20.5t-25 29t-13.5 34q-3 12 -5 30.5t-2.5 40t-1 43.5t-0.5 42q0 26 1 53t2.5 51t4.5 43.5t7 31.5q14 36 46 57.5t86 21.5q65 0 96.5 -32t34.5 -87l-62 -9q-2 35 -21.5 54t-51.5 19q-23 0 -41.5 -11 t-29.5 -36q-6 -15 -8 -46.5t-3 -74.5h143v-53h-143v-44q0 -6 0.5 -17t1.5 -22.5t2.5 -22.5t3.5 -18q8 -24 25.5 -37t47.5 -13q68 0 74 73z"/>
<glyph glyph-name="afii10102" horiz-adv-x="331" unicode="ѕ" d="M90 133q-1 -38 18.5 -60.5t53.5 -22.5h3q44 0 60.5 21t16.5 62q0 19 -3 33t-12 25t-25 20t-42 19q-39 15 -63.5 30.5t-38 32.5t-18.5 36t-5 40q0 57 33 93.5t102 36.5t102 -34.5t33 -96.5l-64 -9v7q0 37 -19.5 56.5t-52.5 19.5q-22 0 -36.5 -6.5t-22.5 -17t-11.5 -23.5 t-3.5 -26q0 -14 3.5 -25.5t14 -22t29 -20.5t48.5 -20q37 -14 59.5 -29t34 -33t15 -39t3.5 -46q0 -62 -31 -101.5t-104 -39.5q-136 0 -139 130z"/>
<glyph glyph-name="afii10103" horiz-adv-x="163" unicode="і" d="M49 0v492h62v-492h-62zM49 612v64h63v-64h-63z"/>
<glyph glyph-name="afii10104" horiz-adv-x="163" unicode="ї" d="M49 0v492h62v-492h-62zM-23 587v64h56v-64h-56zM128 587v64h55v-64h-55z"/>
<glyph glyph-name="afii10105" horiz-adv-x="163" unicode="ј" d="M113 -71q0 -27 -4.5 -50.5t-16.5 -41t-33 -27.5t-54 -10h-22v56h11q37 0 47 22t10 63v551h62v-563zM51 613v64h63v-64h-63z"/>
<glyph glyph-name="afii10106" horiz-adv-x="557" unicode="љ" d="M312 58h57q31 0 51 7.5t31 20.5t15 29.5t4 33.5q0 19 -5 34.5t-17 27t-31.5 18t-49.5 6.5h-55v-177zM134 437v-226q0 -48 -5 -84.5t-17 -63.5t-31.5 -46.5t-49.5 -33.5l-27 46q21 14 35 29t22.5 35.5t12 49.5t3.5 73v276h235v-198h58q49 0 80 -11.5t49 -31t25 -45.5 t7 -56q0 -33 -7 -61t-25 -47.5t-48.5 -30.5t-77.5 -11h-125v437h-114z"/>
<glyph glyph-name="afii10107" horiz-adv-x="567" unicode="њ" d="M256 0v229h-146v-229h-62v492h62v-204h146v204h64v-204h57q49 0 80.5 -10.5t49.5 -29.5t25 -44t7 -54q0 -33 -7 -61t-24.5 -47.5t-48 -30.5t-78.5 -11h-125zM320 58h57q31 0 50.5 7.5t30.5 20.5t15 29.5t4 33.5q0 36 -21.5 58t-80.5 22h-55v-171z"/>
<glyph glyph-name="afii10108" horiz-adv-x="375" unicode="ћ" d="M108 625h161v-48h-161v-144h2q17 28 44.5 43t61.5 15q31 0 52.5 -10t35 -27.5t20 -41t6.5 -51.5v-361h-62v343q0 38 -17.5 61.5t-59.5 23.5q-41 0 -62.5 -26t-21.5 -64v-338h-60v577h-46v48h46v101h61v-101z"/>
<glyph glyph-name="afii10109" horiz-adv-x="361" unicode="ќ" d="M37 0v491h62v-217h49q13 0 27 2.5t27 10t23.5 21.5t16.5 38l39 145h59l-38 -142q-10 -36 -26 -60.5t-43 -32.5q34 -8 49 -34t25 -62l42 -160h-61l-36 144q-6 24 -15.5 39.5t-21.5 24t-26.5 11.5t-30.5 3h-59v-222h-62zM140 570l67 159l59 -21l-92 -152z"/>
<glyph glyph-name="afii10110" horiz-adv-x="326" unicode="ў" d="M93 680q4 -26 24.5 -48t50.5 -22q32 0 52.5 21t23.5 49h50q-2 -19 -10 -39.5t-23.5 -38t-38.5 -28.5t-54 -11q-33 0 -56.5 11t-38.5 28.5t-22.5 38t-8.5 39.5h51zM167 92q11 48 22 100.5t22 100.5l48 198h62l-148 -577q-6 -22 -14.5 -42t-21.5 -35t-32 -24t-46 -9h-23v53 h16q30 0 45 21t25 66l14 55l-131 492h65q14 -54 26 -107.5t25 -107.5q5 -21 11 -46.5l12 -51t11.5 -48.5t8.5 -38h3z"/>
<glyph glyph-name="afii10193" horiz-adv-x="374" unicode="џ" d="M328 492v-492h-111v-131h-59v131h-111v492h62v-433h157v433h62z"/>
<glyph glyph-name="afii10050" horiz-adv-x="354" unicode="Ґ" d="M114 639v-639h-61v696h224v120h56v-177h-219z"/>
<glyph glyph-name="afii10098" horiz-adv-x="315" unicode="ґ" d="M108 437v-437h-62v492h195v113h56v-168h-189z"/>
<glyph glyph-name="schwacyrillic" horiz-adv-x="350" unicode="ә" d="M242 97q6 16 7.5 44.5t2.5 69.5h-158v-52q0 -21 2.5 -40.5t11 -34.5t23.5 -24t40 -9q22 0 41 10t30 36zM168 -6q-60 0 -93.5 29.5t-39.5 83.5q-1 11 -1.5 22t-0.5 22v110h220q0 10 -0.5 19t-0.5 19q0 26 -1.5 53t-6.5 41q-16 50 -72 50q-38 0 -56 -22.5t-20 -59.5l-62 12 q5 61 40.5 93.5t100.5 32.5q31 0 53.5 -8t38 -20.5t24.5 -29t14 -33.5q3 -12 5 -30.5t2.5 -40t1 -44t0.5 -41.5q0 -26 -0.5 -52t-2.5 -50t-5 -43.5t-7 -32.5q-14 -37 -45 -58.5t-86 -21.5z"/>
<glyph glyph-name="endash" horiz-adv-x="500" unicode="–" d="M20 235v59h460v-59h-460z"/>
<glyph glyph-name="emdash" horiz-adv-x="1000" unicode="—" d="M20 235v59h960v-59h-960z"/>
<glyph glyph-name="quoteleft" horiz-adv-x="194" unicode="‘" d="M97 701h36q-6 -26 -11.5 -51.5t-10.5 -50.5h17v-77h-70v75z"/>
<glyph glyph-name="quotesinglbase" horiz-adv-x="164" unicode="‚" d="M78 -107h-35l21 102h-17v76h70v-75z"/>
<glyph glyph-name="quotedblleft" horiz-adv-x="262" unicode="“" d="M185 701h36q-2 -6 -5 -20.5t-6.5 -30.5t-6.5 -30.5t-4 -20.5h17v-77h-70v75zM81 701h36q-2 -6 -5 -20.5t-6.5 -30.5t-6.5 -30.5t-4 -20.5h17v-77h-70v75z"/>
<glyph glyph-name="quotedblright" horiz-adv-x="262" unicode="”" d="M182 523h-35l21 102h-17v76h70v-75zM84 523h-35q5 25 10.5 50.5t11.5 51.5h-17v76h70v-75z"/>
<glyph glyph-name="dagger" horiz-adv-x="346" unicode="†" d="M200 406v-577h-56v577h-136v56h136v220h56v-220h136v-56h-136z"/>
<glyph glyph-name="daggerdbl" horiz-adv-x="346" unicode="‡" d="M144 406h-136v56h136v220h56v-220h136v-56h-136v-235h136v-55h-136v-287h-56v287h-136v55h136v235z"/>
<glyph glyph-name="ellipsis" horiz-adv-x="576" unicode="…" d="M456 0v73h70v-73h-70zM250 0v73h69v-73h-69zM47 0v73h70v-73h-70z"/>
<glyph glyph-name="perthousand" horiz-adv-x="764" unicode="‰" d="M684 333q0 16 -10.5 27.5t-30.5 11.5q-23 0 -33 -12.5t-10 -28.5v-248q0 -17 11 -27.5t32 -10.5q20 0 30.5 12t10.5 29v247zM735 81q0 -40 -27.5 -62.5t-64.5 -22.5q-42 0 -67.5 22.5t-25.5 62.5v251q0 40 27 63.5t66 23.5q37 0 64.5 -22t27.5 -62v-254zM139 -17h-42 l314 731h42zM161 612q0 16 -10.5 27.5t-30.5 11.5q-23 0 -33 -12.5t-10 -28.5v-248q0 -17 11 -27.5t32 -10.5q20 0 30.5 12t10.5 29v247zM212 360q0 -40 -27.5 -62.5t-64.5 -22.5q-42 0 -67.5 22.5t-25.5 62.5v251q0 40 27 63.5t66 23.5q37 0 64.5 -22t27.5 -62v-254z M471 333q0 16 -10.5 27.5t-30.5 11.5q-23 0 -33 -12.5t-10 -28.5v-248q0 -17 11 -27.5t32 -10.5q20 0 30.5 12t10.5 29v247zM522 81q0 -40 -27.5 -62.5t-64.5 -22.5q-42 0 -67.5 22.5t-25.5 62.5v251q0 40 27 63.5t66 23.5q37 0 64.5 -22t27.5 -62v-254z"/>
<glyph glyph-name="guilsinglleft" horiz-adv-x="249" unicode="‹" d="M149 46l-107 186l107 186h61l-105 -186l105 -186h-61z"/>
<glyph glyph-name="guilsinglright" horiz-adv-x="249" unicode="›" d="M42 46l105 186l-105 186h60l107 -186l-107 -186h-60z"/>
<glyph glyph-name="Euro" d="M15 319h34v68h-34v39h34v99q0 37 8 69.5t26 56.5t47 37.5t70 13.5q67 0 106.5 -34.5t41.5 -97.5l-61 -10q-3 44 -26 64.5t-62 20.5q-24 0 -40.5 -9.5t-27.5 -25t-16 -36.5t-5 -43v-105h157v-39h-157v-68h157v-39h-157v-127q0 -20 5 -39t16 -33t28 -22.5t40 -8.5 q38 0 60.5 20.5t27.5 65.5l63 -9q-6 -66 -46 -100t-104 -34q-71 0 -111 40t-40 118v129h-34v39z" unicode="€"/>
<glyph glyph-name="trademark" horiz-adv-x="638" unicode="™" d="M165 649v-342h-49v342h-84v47h217v-47h-84zM534 561l-78 -188h-40l-79 192h-3v-259h-48v389h48l104 -254l101 254h47v-389h-49v255h-3z"/>
<glyph glyph-name="arrowleft" horiz-adv-x="826" unicode="←" d="M768 347v-52h-599l156 -153l-38 -38l-216 217l216 217l38 -38l-156 -153h599z"/>
<glyph glyph-name="arrowup" horiz-adv-x="485" unicode="↑" d="M270 1h-52v596l-152 -154l-38 38l217 217l217 -217l-38 -38l-154 154v-596z"/>
<glyph glyph-name="arrowright" horiz-adv-x="826" unicode="→" d="M670 347l-156 153l39 38l216 -217l-216 -217l-39 38l156 153h-598v52h598z"/>
<glyph glyph-name="arrowdown" horiz-adv-x="485" unicode="↓" d="M270 101l154 156l38 -38l-217 -217l-217 217l38 38l153 -156v598h51v-598z"/>
<glyph glyph-name="carriagereturn" horiz-adv-x="840" unicode="↵" d="M733 692h54v-398h-589l155 -152l-38 -38l-214 217l214 217l38 -38l-155 -153h535v345z"/>
<glyph glyph-name="partialdiff" horiz-adv-x="319" unicode="∂" d="M23 215q0 53 10 95t27.5 71t40.5 44.5t49 15.5q27 0 51 -15t47 -54q-1 70 -8.5 125t-24 93t-43.5 58t-67 20q-14 0 -29 -3l-1 48q18 3 35 3q58 0 94 -28.5t56.5 -77.5t28 -116t7.5 -143q0 -177 -41.5 -269t-105.5 -92q-54 0 -90 57t-36 168zM68 217q0 -87 24.5 -128.5 t57.5 -41.5q24 0 41.5 22.5t29.5 58.5t18.5 80t8.5 87q-26 52 -49.5 71t-46.5 19q-20 0 -35.5 -15t-26.5 -39t-16.5 -54t-5.5 -60z"/>
<glyph glyph-name="gradient" horiz-adv-x="386" unicode="∇" d="M194 115l37 178l72 346h-222q17 -75 35.5 -166t36.5 -179q11 -56 20.5 -102.5t16.5 -76.5h4zM376 696q-6 -29 -18.5 -84t-27 -122.5t-31 -141.5t-31 -141.5t-26.5 -122.5t-18 -84h-62l-151 696h365z"/>
<glyph glyph-name="product" horiz-adv-x="411" unicode="∏" d="M297 -81v722h-183v-722h-61v777h306v-777h-62z"/>
<glyph glyph-name="summation" horiz-adv-x="302" unicode="∑" d="M17 -80v54l108 334l-111 335v53h270v-57h-208l111 -331l-108 -330h215v-58h-277z"/>
<glyph glyph-name="minus" d="M12 269v49h342v-49h-342z" unicode="−"/>
<glyph glyph-name="radical" horiz-adv-x="351" unicode="√" d="M217 -83h-44l-100 421q-3 -2 -10.5 -5.5t-15.5 -7.5t-15.5 -7.5t-10.5 -4.5l-12 47l96 46l88 -379q6 40 14.5 101.5t19 134t22 150t21.5 150t18.5 134t14.5 101.5h46z"/>
<glyph glyph-name="infinity" horiz-adv-x="631" unicode="∞" d="M466 355q-37 0 -66 -25t-56 -60q13 -17 26.5 -32.5t28 -27t30.5 -18.5t35 -7q35 0 58.5 23.5t23.5 61.5q0 37 -22.5 61t-57.5 24zM165 355q-35 0 -58.5 -25t-23.5 -60q0 -39 23 -62t59 -23t66.5 24.5t53.5 59.5q-10 15 -23 30.5t-28.5 27.5t-32.5 20t-36 8zM165 400 q46 0 84.5 -30t65.5 -69q32 42 68.5 70.5t85.5 28.5q54 0 88.5 -35.5t34.5 -94.5q0 -29 -9.5 -53t-27 -41t-41 -27t-51.5 -10q-44 0 -80 28.5t-69 69.5q-17 -21 -33.5 -39t-34.5 -31t-39 -20.5t-47 -7.5q-54 0 -88.5 34.5t-34.5 96.5q0 28 10 51.5t27 41t40.5 27.5t50.5 10z "/>
<glyph glyph-name="logicaland" horiz-adv-x="393" unicode="∧" d="M360 0h-53l-114 436l-109 -436h-52l136 518h50z"/>
<glyph glyph-name="logicalor" horiz-adv-x="393" unicode="∨" d="M218 0h-50l-136 517h52l109 -435l114 435h53z"/>
<glyph glyph-name="intersection" horiz-adv-x="393" unicode="∩" d="M361 0h-55v292q0 28 -2.5 59t-13 56t-33 41.5t-61.5 16.5t-61.5 -16t-33.5 -41.5t-14 -56t-3 -59.5v-292h-52v292q0 41 5 81t22.5 72t49.5 51.5t86 19.5t86.5 -19.5t50.5 -51t23.5 -71.5t5.5 -82v-292z"/>
<glyph glyph-name="union" horiz-adv-x="393" unicode="∪" d="M361 224q0 -41 -5.5 -81.5t-23.5 -72t-50.5 -51t-86.5 -19.5t-86 19.5t-49.5 51.5t-22.5 72t-5 81v292h52v-292q0 -29 3 -59.5t14 -55.5t33.5 -41.5t61.5 -16.5t61.5 16.5t33 42t13 56t2.5 58.5v292h55v-292z"/>
<glyph glyph-name="approxequal" d="M103 266q24 0 44 -7t39 -16t36.5 -16t35.5 -7q19 0 30.5 8t29.5 30l35 -22q-17 -29 -40 -49.5t-55 -20.5q-19 0 -38 7.5t-38.5 16t-39 16t-40.5 7.5q-18 0 -30.5 -8t-29.5 -28l-33 24q16 27 39.5 46t54.5 19zM104 410q24 0 44 -7t39 -16t36.5 -16t35.5 -7q19 0 30.5 8 t29.5 30l35 -22q-17 -29 -40 -49.5t-55 -20.5q-19 0 -38 7.5t-38.5 16t-39 16t-40.5 7.5q-18 0 -30.5 -8t-29.5 -28l-33 24q16 27 39.5 46t54.5 19z" unicode="≈"/>
<glyph glyph-name="notequal" d="M11 83l77 110h-76v51h112l69 98h-181v50h216l75 107h52l-75 -107h74v-50h-109l-69 -98h178v-51h-214l-77 -110h-52z" unicode="≠"/>
<glyph glyph-name="lessequal" d="M16 20v50h335v-50h-335zM15 266v50l337 140v-51l-265 -114l265 -116v-52z" unicode="≤"/>
<glyph glyph-name="greaterequal" d="M16 20v50h336v-50h-336zM16 123v52l264 116l-264 114v51l337 -140v-50z" unicode="≥"/>
<glyph glyph-name="lozenge" horiz-adv-x="337" unicode="◊" d="M75 288q23 -58 45 -115t45 -115h2l91 230q-23 58 -46.5 116t-46.5 116h-2l-44 -116t-45 -116h1zM133 3l-112 287l112 287h65q28 -72 56.5 -143.5t57.5 -143.5l-114 -287h-65z"/>
</font>
</defs>
</svg>
